<?xml version="1.0" encoding="utf-8"?>
<!-- Generator: Adobe Illustrator 25.1.0, SVG Export Plug-In . SVG Version: 6.00 Build 0)  -->
<svg version="1.1" xmlns="http://www.w3.org/2000/svg" xmlns:xlink="http://www.w3.org/1999/xlink" x="0px" y="0px"
	 viewBox="0 0 500 500" style="enable-background:new 0 0 500 500;" xml:space="preserve">
<style type="text/css">
	.st0{fill:#FFFFFF;}
	.st1{fill:#E0E0E0;}
	.st2{opacity:0.3;}
	.st3{fill:none;}
	.st4{fill-rule:evenodd;clip-rule:evenodd;fill:#E0E0E0;}
	.st5{fill:#EBEBEB;}
	.st6{display:none;}
	.st7{display:inline;fill:#EBEBEB;}
	.st8{fill:#263238;}
	.st9{fill:#E8505B;}
	.st10{fill:#455A64;}
	.st11{fill:#FAFAFA;}
	.st12{fill:#FFBE9D;}
	.st13{opacity:0.6;}
	.st14{fill:#EB996E;}
</style>
<g id="Background_Complete">
	<g>
		<g>
			<g>
				<g>
					<rect x="68.73" y="116.42" class="st0" width="125.22" height="83.84"/>
				</g>
			</g>
			<g>
				<g>
					<g>
						<path class="st1" d="M193.95,200.26c0,0-0.01-0.52-0.02-1.53c0-1.01-0.01-2.49-0.02-4.42c-0.01-3.88-0.03-9.57-0.05-16.86
							c-0.02-14.57-0.05-35.5-0.09-61.03l0.18,0.18c-34.5,0.01-78.03,0.03-125.21,0.05h-0.01l0.22-0.22
							c-0.01,29.87-0.01,58.27-0.02,83.84l-0.21-0.21c36.86,0.04,68.14,0.08,90.21,0.1c11.04,0.02,19.78,0.04,25.77,0.06
							c2.99,0.01,5.29,0.02,6.86,0.02c0.77,0.01,1.36,0.01,1.77,0.01C193.74,200.25,193.95,200.26,193.95,200.26
							s-0.19,0.01-0.58,0.01c-0.4,0-0.98,0.01-1.75,0.01c-1.55,0.01-3.84,0.01-6.81,0.02c-5.98,0.01-14.7,0.03-25.73,0.06
							c-22.11,0.02-53.43,0.06-90.34,0.1l-0.21,0v-0.21c-0.01-25.57-0.01-53.97-0.02-83.84l0-0.22h0.22h0.01
							c47.17,0.02,90.7,0.03,125.21,0.04l0.18,0l0,0.18c-0.04,25.57-0.07,46.55-0.09,61.14c-0.02,7.27-0.04,12.95-0.05,16.82
							c-0.01,1.92-0.02,3.39-0.02,4.39C193.96,199.76,193.95,200.26,193.95,200.26z"/>
					</g>
				</g>
			</g>
		</g>
		<g>
			<g>
				<g>
					<path class="st1" d="M68.73,123.9c0-0.12,28.01-0.22,62.55-0.22c34.56,0,62.56,0.1,62.56,0.22c0,0.12-28,0.22-62.56,0.22
						C96.74,124.12,68.73,124.02,68.73,123.9z"/>
				</g>
			</g>
		</g>
		<g>
			<g class="st2">
				<g>
					<path class="st1" d="M73.67,120.12c0,0.55-0.45,1-1,1c-0.55,0-1-0.45-1-1s0.45-1,1-1C73.22,119.12,73.67,119.57,73.67,120.12z"
						/>
				</g>
			</g>
			<g class="st2">
				<g>
					<circle class="st1" cx="76.11" cy="120.12" r="1"/>
				</g>
			</g>
			<g class="st2">
				<g>
					<path class="st1" d="M80.5,120.12c0,0.55-0.45,1-1,1c-0.55,0-1-0.45-1-1s0.45-1,1-1C80.05,119.12,80.5,119.57,80.5,120.12z"/>
				</g>
			</g>
		</g>
		<g>
			<g>
				<rect x="79.5" y="132.64" class="st1" width="33.4" height="33.4"/>
			</g>
		</g>
		<g>
			<g>
				<g>
					<path class="st1" d="M176.78,142.08c0,0.12-13.03,0.22-29.09,0.22c-16.07,0-29.1-0.1-29.1-0.22c0-0.12,13.02-0.22,29.1-0.22
						C163.75,141.86,176.78,141.96,176.78,142.08z"/>
				</g>
			</g>
		</g>
		<g>
			<g>
				<g>
					<path class="st1" d="M176.78,148.29c0,0.12-13.03,0.22-29.09,0.22c-16.07,0-29.1-0.1-29.1-0.22c0-0.12,13.02-0.22,29.1-0.22
						C163.75,148.07,176.78,148.17,176.78,148.29z"/>
				</g>
			</g>
		</g>
		<g>
			<g>
				<g>
					<path class="st1" d="M176.78,154.5c0,0.12-13.03,0.22-29.09,0.22c-16.07,0-29.1-0.1-29.1-0.22s13.02-0.22,29.1-0.22
						C163.75,154.27,176.78,154.37,176.78,154.5z"/>
				</g>
			</g>
		</g>
		<g>
			<g>
				<g>
					<path class="st1" d="M152.98,160.7c0,0.03-0.48,0.06-1.35,0.09c-0.95,0.02-2.19,0.04-3.69,0.07
						c-3.11,0.04-7.41,0.07-12.16,0.07c-4.75,0-9.05-0.03-12.16-0.07c-1.49-0.03-2.73-0.05-3.68-0.07
						c-0.87-0.03-1.35-0.06-1.35-0.09c0-0.03,0.48-0.06,1.35-0.09c0.95-0.02,2.19-0.04,3.68-0.07c3.11-0.04,7.41-0.07,12.16-0.07
						c4.75,0,9.05,0.02,12.16,0.07c1.49,0.03,2.73,0.05,3.69,0.07C152.5,160.64,152.98,160.67,152.98,160.7z"/>
				</g>
			</g>
		</g>
		<g>
			<g>
				<rect x="81.59" y="177.3" class="st1" width="15.7" height="15.7"/>
			</g>
		</g>
		<g>
			<g>
				<rect x="110.06" y="177.3" class="st1" width="15.7" height="15.7"/>
			</g>
		</g>
		<g>
			<g>
				<rect x="138.52" y="177.3" class="st1" width="15.7" height="15.7"/>
			</g>
		</g>
		<g>
			<g>
				<rect x="166.99" y="177.3" class="st1" width="15.7" height="15.7"/>
			</g>
		</g>
	</g>
	<g>
		<g>
			<g>
				<g>
					<g>
						<g>
							<g>
								<path class="st3" d="M428.09,143.67c-0.77,1.06-1.66,1.99-2.66,2.79l0.69,3.51l-5.41,2.4l-2.14-2.87
									c-1.26,0.2-2.56,0.24-3.86,0.1l-1.99,2.97l-5.52-2.13l0.52-3.54c-1.06-0.77-1.99-1.66-2.79-2.66l-3.51,0.69l-2.4-5.41
									l2.87-2.14c-0.2-1.26-0.24-2.56-0.1-3.86l-2.97-1.99l2.13-5.52l3.54,0.52c0.77-1.06,1.66-1.99,2.66-2.79l-0.69-3.51
									l5.41-2.4l2.14,2.87c1.26-0.2,2.56-0.24,3.86-0.1l1.99-2.97l5.52,2.13l-0.52,3.54c1.06,0.77,1.99,1.66,2.79,2.66l3.51-0.69
									l2.4,5.41l-2.87,2.14c0.2,1.26,0.24,2.56,0.1,3.86l2.97,1.99l-2.13,5.52L428.09,143.67L428.09,143.67z M422.11,137.63
									c1.26-3.27-0.37-6.95-3.64-8.21c-3.27-1.26-6.95,0.37-8.21,3.64c-1.26,3.27,0.37,6.95,3.64,8.21
									C417.18,142.54,420.85,140.91,422.11,137.63z"/>
							</g>
						</g>
					</g>
				</g>
			</g>
			<g>
				<g>
					<g>
						<g>
							<g>
								<g>
									<path class="st1" d="M422.11,137.63c0,0-0.12,0.56-0.68,1.42c-0.55,0.84-1.65,1.97-3.43,2.51
										c-0.88,0.26-1.91,0.37-2.98,0.17c-1.06-0.2-2.18-0.66-3.1-1.48c-0.47-0.39-0.88-0.88-1.23-1.42
										c-0.35-0.54-0.62-1.14-0.79-1.79c-0.37-1.28-0.3-2.73,0.2-4.06c0.52-1.32,1.44-2.44,2.58-3.14
										c0.56-0.36,1.17-0.63,1.79-0.79c0.62-0.17,1.25-0.25,1.86-0.23c1.23,0.01,2.36,0.42,3.29,0.98
										c0.93,0.57,1.62,1.35,2.09,2.13c0.96,1.59,1.01,3.18,0.86,4.17C422.4,137.14,422.11,137.63,422.11,137.63
										c-0.04-0.01,0.19-0.53,0.3-1.53c0.11-0.98,0.01-2.5-0.94-4.02c-0.47-0.74-1.14-1.48-2.03-2.01
										c-0.89-0.52-1.97-0.9-3.13-0.9c-0.58-0.02-1.18,0.06-1.76,0.23c-0.59,0.16-1.16,0.41-1.69,0.76
										c-1.07,0.67-1.94,1.73-2.43,2.97c-0.47,1.25-0.54,2.62-0.19,3.83c0.16,0.61,0.41,1.18,0.74,1.69
										c0.32,0.51,0.71,0.97,1.15,1.35c0.87,0.78,1.92,1.23,2.93,1.43c1.02,0.2,2.01,0.11,2.86-0.13
										c1.72-0.49,2.81-1.55,3.39-2.35C421.9,138.16,422.07,137.62,422.11,137.63z"/>
								</g>
							</g>
						</g>
					</g>
				</g>
			</g>
			<g>
				<g>
					<g>
						<g>
							<g>
								<g>
									<path class="st1" d="M428.09,143.67c0,0,0.07,0,0.22,0.02c0.16,0.02,0.39,0.05,0.67,0.08c0.62,0.08,1.5,0.2,2.65,0.36
										l-0.06,0.04c0.54-1.42,1.24-3.28,2.1-5.53l0.03,0.11c-0.9-0.6-1.9-1.27-2.98-1.98l-0.05-0.04l0.01-0.06
										c0.13-1.2,0.11-2.49-0.11-3.83l-0.01-0.07l0.06-0.04c0.89-0.67,1.86-1.39,2.86-2.15l-0.04,0.16
										c-0.76-1.7-1.57-3.51-2.41-5.4l0.16,0.08c-1.09,0.22-2.28,0.45-3.51,0.7l-0.09,0.02l-0.06-0.07
										c-0.74-0.93-1.68-1.85-2.77-2.63l-0.08-0.06l0.01-0.09c0.16-1.1,0.33-2.31,0.51-3.54l0.1,0.17
										c-1.74-0.67-3.61-1.39-5.52-2.12l0.2-0.06c-0.62,0.93-1.3,1.94-1.99,2.97l-0.06,0.09l-0.1-0.01
										c-1.19-0.13-2.5-0.11-3.81,0.1l-0.11,0.02l-0.06-0.09c-0.67-0.9-1.4-1.88-2.14-2.87l0.22,0.06
										c-1.71,0.76-3.55,1.58-5.41,2.4l0.1-0.2c0.22,1.11,0.46,2.3,0.69,3.51l0.02,0.11l-0.09,0.07c-0.94,0.76-1.86,1.7-2.62,2.76
										l0,0l0,0c-0.08,0.03,0.17-0.07-0.17,0.07l0,0l-0.01,0l-0.01,0l-0.03,0l-0.06-0.01l-0.11-0.02l-0.22-0.03l-0.44-0.06
										l-0.89-0.13c-0.59-0.09-1.18-0.17-1.76-0.26l0.2-0.11c-0.72,1.87-1.43,3.71-2.13,5.52l-0.07-0.21
										c1,0.67,1.99,1.33,2.97,1.99l0.09,0.06l-0.01,0.11c-0.14,1.28-0.1,2.57,0.09,3.81l0.02,0.11l-0.09,0.06
										c-0.97,0.72-1.93,1.43-2.87,2.14l0.05-0.21c0.82,1.85,1.62,3.65,2.39,5.41l-0.19-0.1c1.19-0.23,2.36-0.46,3.51-0.69
										l0.1-0.02l0.06,0.08c0.81,1.02,1.75,1.9,2.76,2.64l0.08,0.06l-0.01,0.09c-0.18,1.21-0.35,2.39-0.52,3.54l-0.1-0.16
										c1.94,0.75,3.77,1.46,5.52,2.14l-0.17,0.05c0.7-1.04,1.36-2.02,2-2.97l0.04-0.07l0.08,0.01c1.36,0.15,2.63,0.1,3.82-0.09
										l0.07-0.01l0.04,0.06c0.77,1.04,1.47,1.99,2.13,2.88l-0.13-0.03c2.1-0.92,3.89-1.7,5.42-2.38l-0.05,0.09
										c-0.27-1.4-0.49-2.55-0.67-3.51l-0.01-0.04l0.03-0.02c1.02-0.81,1.67-1.53,2.09-2.01c0.2-0.24,0.35-0.42,0.46-0.55
										C428.04,143.72,428.09,143.66,428.09,143.67c0,0-0.04,0.07-0.13,0.2c-0.09,0.13-0.23,0.32-0.43,0.57
										c-0.4,0.5-1.05,1.23-2.06,2.07l0.02-0.06c0.2,0.96,0.43,2.1,0.71,3.5l0.01,0.06l-0.06,0.03c-1.53,0.68-3.31,1.48-5.4,2.42
										l-0.08,0.04l-0.05-0.07c-0.66-0.88-1.37-1.82-2.15-2.86l0.11,0.05c-1.21,0.2-2.51,0.25-3.89,0.11l0.12-0.06
										c-0.63,0.95-1.29,1.93-1.98,2.97l-0.06,0.09l-0.1-0.04c-1.75-0.67-3.58-1.37-5.53-2.12l-0.11-0.04l0.02-0.12
										c0.17-1.15,0.34-2.33,0.51-3.54l0.06,0.15c-1.03-0.75-1.99-1.65-2.83-2.69l0.16,0.06c-1.15,0.23-2.32,0.46-3.51,0.7
										l-0.13,0.03l-0.05-0.12c-0.78-1.76-1.58-3.56-2.4-5.41l-0.06-0.13l0.11-0.08c0.94-0.7,1.9-1.42,2.87-2.14l-0.07,0.17
										c-0.2-1.27-0.24-2.59-0.1-3.9l0.08,0.17c-0.98-0.66-1.97-1.32-2.97-1.99l-0.12-0.08l0.05-0.13
										c0.7-1.82,1.41-3.66,2.13-5.52l0.05-0.14l0.14,0.02c0.59,0.09,1.17,0.17,1.76,0.26l0.89,0.13l0.44,0.07l0.22,0.03
										l0.11,0.02l0.06,0.01l0.03,0l0.01,0l0.01,0l0,0c-0.35,0.15-0.1,0.04-0.17,0.07l0,0l0,0c0.79-1.09,1.72-2.05,2.69-2.83
										l-0.06,0.18c-0.24-1.2-0.47-2.4-0.69-3.51l-0.03-0.14l0.13-0.06c1.86-0.82,3.7-1.64,5.41-2.4l0.13-0.06l0.09,0.11
										c0.74,0.99,1.47,1.97,2.14,2.87l-0.17-0.07c1.34-0.21,2.69-0.23,3.9-0.1l-0.16,0.08c0.69-1.03,1.37-2.04,1.99-2.97
										l0.08-0.11l0.13,0.05c1.92,0.74,3.79,1.46,5.52,2.13l0.12,0.05l-0.02,0.13c-0.18,1.23-0.36,2.44-0.52,3.54l-0.06-0.15
										c1.11,0.8,2.06,1.75,2.82,2.69l-0.15-0.05c1.23-0.24,2.42-0.47,3.51-0.69l0.11-0.02l0.05,0.1c0.84,1.9,1.64,3.71,2.39,5.41
										l0.04,0.1l-0.08,0.06c-1.01,0.75-1.98,1.47-2.87,2.13l0.05-0.11c0.21,1.36,0.22,2.67,0.09,3.89l-0.05-0.1
										c1.07,0.72,2.06,1.4,2.96,2l0.06,0.04l-0.03,0.07c-0.88,2.24-1.61,4.1-2.16,5.51l-0.02,0.04l-0.05-0.01
										c-1.14-0.18-2.01-0.32-2.62-0.41c-0.29-0.05-0.51-0.09-0.68-0.11C428.17,143.69,428.09,143.67,428.09,143.67z"/>
								</g>
							</g>
						</g>
					</g>
				</g>
			</g>
		</g>
		<g>
			<g>
				<g>
					<g>
						<g>
							<path class="st4" d="M459.56,126.83c-0.64,0.88-1.38,1.65-2.21,2.32l0.57,2.91l-4.49,1.99l-1.77-2.38
								c-1.05,0.17-2.12,0.2-3.2,0.08l-1.65,2.46l-4.58-1.77l0.43-2.94c-0.88-0.64-1.65-1.38-2.32-2.21l-2.91,0.57l-1.99-4.49
								l2.38-1.77c-0.17-1.05-0.2-2.12-0.08-3.2l-2.46-1.65l1.77-4.58l2.94,0.43c0.64-0.88,1.38-1.65,2.21-2.32l-0.57-2.91
								l4.49-1.99l1.77,2.38c1.05-0.17,2.12-0.2,3.2-0.08l1.65-2.46l4.58,1.77l-0.43,2.94c0.88,0.64,1.65,1.38,2.32,2.21l2.91-0.57
								l1.99,4.49l-2.38,1.77c0.17,1.05,0.2,2.12,0.08,3.2l2.46,1.65l-1.77,4.58L459.56,126.83L459.56,126.83z M454.6,121.83
								c1.05-2.71-0.31-5.76-3.02-6.81c-2.71-1.05-5.76,0.31-6.81,3.02c-1.05,2.71,0.31,5.76,3.02,6.81
								C450.51,125.89,453.55,124.54,454.6,121.83z"/>
						</g>
					</g>
				</g>
			</g>
		</g>
		<g>
			<g>
				<g>
					<g>
						<g>
							<path class="st4" d="M440.22,99.48c-1,1.38-2.17,2.59-3.46,3.63l0.9,4.57l-7.04,3.12l-2.78-3.73
								c-1.64,0.26-3.33,0.31-5.02,0.13l-2.59,3.86l-7.18-2.77l0.67-4.6c-1.38-1-2.59-2.17-3.63-3.46l-4.57,0.9l-3.12-7.04
								l3.73-2.78c-0.26-1.64-0.31-3.33-0.13-5.02l-3.86-2.59l2.77-7.19l4.6,0.67c1-1.38,2.17-2.59,3.46-3.63l-0.9-4.57l7.04-3.12
								l2.78,3.73c1.64-0.26,3.33-0.31,5.02-0.13l2.59-3.86l7.18,2.77l-0.67,4.6c1.38,1,2.6,2.17,3.64,3.46l4.57-0.9l3.12,7.04
								l-3.73,2.78c0.26,1.64,0.31,3.33,0.13,5.02l3.86,2.59l-2.77,7.18L440.22,99.48L440.22,99.48z M432.44,91.63
								c1.64-4.26-0.48-9.04-4.74-10.68c-4.26-1.64-9.04,0.48-10.68,4.74c-1.64,4.26,0.48,9.04,4.74,10.68
								C426.02,98.01,430.8,95.89,432.44,91.63z"/>
						</g>
					</g>
				</g>
			</g>
		</g>
	</g>
	<g>
		<g>
			<g>
				<g>
					<path class="st1" d="M369.62,61.36c-0.02-0.02,0.17-0.23,0.52-0.59c0.41-0.41,0.92-0.92,1.52-1.53c1.29-1.28,3.1-3.03,5.1-4.94
						l0.05-0.04l0,0.26c-2.02-1.88-3.84-3.59-5.14-4.84c-0.6-0.59-1.11-1.09-1.53-1.5c-0.36-0.36-0.54-0.57-0.53-0.58
						c0.02-0.02,0.24,0.15,0.62,0.48c0.43,0.38,0.97,0.86,1.6,1.41c1.34,1.21,3.19,2.89,5.21,4.77l0.14,0.13l-0.14,0.13l-0.05,0.04
						c-2.01,1.91-3.84,3.63-5.17,4.86c-0.63,0.57-1.16,1.05-1.6,1.44C369.86,61.2,369.64,61.38,369.62,61.36z"/>
				</g>
			</g>
		</g>
		<g>
			<g>
				<g>
					<path class="st1" d="M354.02,47.59c0.02,0.02-0.17,0.23-0.52,0.59c-0.41,0.41-0.92,0.92-1.52,1.53
						c-1.29,1.28-3.1,3.03-5.1,4.94l-0.05,0.04l0-0.26c2.02,1.88,3.84,3.59,5.14,4.84c0.6,0.59,1.11,1.09,1.53,1.5
						c0.36,0.36,0.54,0.57,0.53,0.58c-0.02,0.02-0.24-0.15-0.62-0.48c-0.43-0.38-0.97-0.86-1.6-1.41c-1.34-1.21-3.19-2.89-5.21-4.77
						l-0.14-0.13l0.14-0.13l0.05-0.04c2.01-1.91,3.84-3.63,5.17-4.86c0.63-0.57,1.16-1.05,1.6-1.44
						C353.78,47.75,354,47.57,354.02,47.59z"/>
				</g>
			</g>
		</g>
		<g>
			<g>
				<g>
					<path class="st1" d="M358.02,64.6c-0.09-0.03,1.55-4.64,3.66-10.28c2.11-5.65,3.9-10.2,3.99-10.16
						c0.09,0.03-1.55,4.64-3.66,10.29C359.9,60.09,358.11,64.64,358.02,64.6z"/>
				</g>
			</g>
		</g>
		<g>
			<g>
				<g>
					<path class="st1" d="M387.36,74.46c0,0-0.01-0.27-0.02-0.77c0-0.51-0.01-1.25-0.02-2.22c-0.01-1.95-0.02-4.78-0.04-8.39
						c-0.02-7.22-0.04-17.55-0.08-29.99l0.15,0.15c-14.52,0.01-31.99,0.02-50.76,0.03h0l0.18-0.18
						c-0.01,14.95-0.01,29.08-0.02,41.37l-0.16-0.16c15.07,0.03,27.74,0.06,36.66,0.08c4.46,0.02,7.97,0.03,10.39,0.04
						c1.2,0.01,2.12,0.01,2.76,0.02c0.31,0,0.54,0.01,0.71,0.01C387.27,74.45,387.36,74.46,387.36,74.46s-0.07,0.01-0.23,0.01
						c-0.17,0-0.4,0.01-0.7,0.01c-0.63,0-1.54,0.01-2.73,0.02c-2.41,0.01-5.91,0.02-10.36,0.04c-8.94,0.02-21.65,0.05-36.76,0.08
						l-0.16,0l0-0.16c-0.01-12.29-0.01-26.41-0.02-41.37v-0.18h0.18h0c18.78,0.01,36.24,0.02,50.76,0.03l0.15,0l0,0.15
						c-0.03,12.48-0.06,22.84-0.08,30.08c-0.02,3.6-0.03,6.42-0.04,8.36c-0.01,0.95-0.01,1.68-0.02,2.19
						C387.37,74.21,387.36,74.46,387.36,74.46z"/>
				</g>
			</g>
		</g>
		<g>
			<g>
				<g>
					<path class="st1" d="M387.76,39.23c0,0.1-11.46,0.18-25.59,0.18c-14.14,0-25.6-0.08-25.6-0.18c0-0.1,11.46-0.18,25.6-0.18
						C376.3,39.05,387.76,39.13,387.76,39.23z"/>
				</g>
			</g>
		</g>
		<g>
			<g>
				<g>
					<path class="st1" d="M340.74,36.21c0,0.38-0.31,0.69-0.68,0.69c-0.38,0-0.68-0.31-0.68-0.69c0-0.38,0.31-0.69,0.68-0.69
						C340.43,35.52,340.74,35.83,340.74,36.21z"/>
				</g>
			</g>
			<g>
				<g>
					<ellipse class="st1" cx="342.54" cy="36.21" rx="0.68" ry="0.69"/>
				</g>
			</g>
			<g>
				<g>
					<path class="st1" d="M345.72,36.21c0,0.38-0.31,0.69-0.68,0.69c-0.38,0-0.68-0.31-0.68-0.69c0-0.38,0.31-0.69,0.68-0.69
						C345.41,35.52,345.72,35.83,345.72,36.21z"/>
				</g>
			</g>
		</g>
	</g>
	<g>
		<g>
			<g>
				<g>
					<rect x="171.84" y="53.04" class="st0" width="117.38" height="47.68"/>
				</g>
			</g>
			<g>
				<g>
					<g>
						<path class="st1" d="M289.22,100.72c0,0-0.01-0.29-0.01-0.85c0-0.56-0.01-1.39-0.01-2.47c-0.01-2.18-0.02-5.37-0.03-9.49
							c-0.02-8.23-0.04-20.13-0.07-34.87l0.13,0.13c-29.86,0.01-71.43,0.03-117.38,0.06h-0.01l0.19-0.19
							c0,16.7-0.01,32.81-0.01,47.68l-0.18-0.18c34.01,0.03,63.33,0.06,84.16,0.08c10.42,0.02,18.72,0.04,24.41,0.05
							c2.85,0.01,5.04,0.02,6.53,0.02c0.74,0,1.3,0.01,1.69,0.01C289.02,100.71,289.22,100.72,289.22,100.72s-0.19,0.01-0.56,0.01
							c-0.38,0-0.94,0.01-1.67,0.01c-1.48,0.01-3.67,0.01-6.5,0.02c-5.69,0.01-13.97,0.03-24.37,0.05
							c-20.86,0.02-50.22,0.05-84.28,0.08l-0.18,0v-0.18c0-14.87-0.01-30.98-0.01-47.68v-0.19h0.19h0.01
							c45.95,0.02,87.51,0.04,117.38,0.06l0.13,0l0,0.13c-0.03,14.77-0.05,26.7-0.07,34.94c-0.01,4.1-0.02,7.29-0.03,9.46
							c-0.01,1.07-0.01,1.89-0.01,2.45C289.23,100.45,289.22,100.72,289.22,100.72z"/>
					</g>
				</g>
			</g>
		</g>
		<g>
			<g>
				<g>
					<path class="st1" d="M171.95,59.47c0-0.1,26.24-0.19,58.6-0.19c32.37,0,58.6,0.08,58.6,0.19c0,0.1-26.23,0.19-58.6,0.19
						C198.19,59.66,171.95,59.58,171.95,59.47z"/>
				</g>
			</g>
		</g>
		<g>
			<g class="st2">
				<g>
					<path class="st5" d="M176.87,56.6c0,0.47-0.38,0.85-0.85,0.85c-0.47,0-0.85-0.38-0.85-0.85c0-0.47,0.38-0.85,0.85-0.85
						C176.49,55.75,176.87,56.13,176.87,56.6z"/>
				</g>
			</g>
			<g class="st2">
				<g>
					<path class="st5" d="M179.79,56.6c0,0.47-0.38,0.85-0.85,0.85c-0.47,0-0.85-0.38-0.85-0.85c0-0.47,0.38-0.85,0.85-0.85
						C179.41,55.75,179.79,56.13,179.79,56.6z"/>
				</g>
			</g>
			<g class="st2">
				<g>
					<circle class="st5" cx="181.81" cy="56.6" r="0.85"/>
				</g>
			</g>
		</g>
		<g>
			<g>
				<rect x="181.81" y="67.22" class="st1" width="28.35" height="28.35"/>
			</g>
		</g>
		<g>
			<g>
				<g>
					<g>
						<path class="st1" d="M281.1,74.82c0,0.1-14.59,0.19-32.58,0.19c-18,0-32.59-0.08-32.59-0.19c0-0.1,14.59-0.19,32.59-0.19
							C266.51,74.63,281.1,74.72,281.1,74.82z"/>
					</g>
				</g>
			</g>
			<g>
				<g>
					<g>
						<path class="st1" d="M281.1,80.6c0,0.1-14.59,0.19-32.58,0.19c-18,0-32.59-0.08-32.59-0.19c0-0.1,14.59-0.19,32.59-0.19
							C266.51,80.41,281.1,80.49,281.1,80.6z"/>
					</g>
				</g>
			</g>
			<g>
				<g>
					<g>
						<path class="st1" d="M257.88,86.37c0,0.01-0.15,0.03-0.43,0.04c-0.32,0.01-0.72,0.02-1.22,0.03c-1.11,0.01-2.63,0.03-4.5,0.06
							c-3.84,0.01-9.06,0.03-14.83,0.05c-5.77-0.02-10.99-0.04-14.83-0.05c-1.86-0.02-3.38-0.04-4.5-0.06
							c-0.5-0.01-0.9-0.03-1.22-0.03c-0.28-0.01-0.43-0.02-0.43-0.04c0-0.01,0.15-0.03,0.43-0.04c0.32-0.01,0.72-0.02,1.22-0.03
							c1.11-0.01,2.63-0.03,4.5-0.06c3.84-0.01,9.06-0.03,14.83-0.05c5.77,0.02,10.99,0.04,14.83,0.05c1.86,0.02,3.38,0.04,4.5,0.06
							c0.5,0.01,0.9,0.03,1.22,0.03C257.73,86.35,257.88,86.36,257.88,86.37z"/>
					</g>
				</g>
			</g>
		</g>
	</g>
</g>
<g id="Background_Simple" class="st6">
	<path class="st7" d="M433.41,94.43l-2.5-4.06c-20.05-32.63-56.16-52.4-94.4-50.45c-5.37,0.27-10.73,0.96-16.01,2.08
		c-35.18,7.44-65.79,33.7-78.48,67.35c-7.46,19.79-9.55,42.57-23.71,58.27c-18.43,20.44-49.72,21.08-77.22,20.23
		c-27.51-0.85-58.82-0.12-77.15,20.4c-11.49,12.85-15.14,31.13-14.21,48.34c2.45,45.57,34.61,86.31,75.5,106.56
		c40.89,20.25,89.04,22.07,133.79,13.16c62.69-12.48,122.32-46.75,158.15-99.69C453.01,223.68,462.08,151.56,433.41,94.43z"/>
	<path class="st7" d="M179.61,105.65c-9.88-9.87-27.32-16.82-39.11-9.34l1.68-0.89c-12.52,6.18-20.63,20.43-19.34,34.33
		c1.29,13.9,12.03,26.49,25.61,29.75c13.58,3.27,28.97-3.16,36.02-15.21C191.51,132.24,189.48,115.53,179.61,105.65z"/>
</g>
<g id="Floor">
	<g>
		<g>
			<path class="st8" d="M472.86,445.09c0,0.14-99.79,0.26-222.85,0.26c-123.11,0-222.87-0.12-222.87-0.26s99.77-0.26,222.87-0.26
				C373.08,444.83,472.86,444.94,472.86,445.09z"/>
		</g>
	</g>
</g>
<g id="Screens">
	<g>
		<g>
			<rect x="295.03" y="135.41" class="st1" width="140.13" height="114.16"/>
		</g>
		<g>
			<rect x="285.07" y="142.66" class="st5" width="140.13" height="114.16"/>
		</g>
		<g>
			<g>
				<rect x="271.34" y="150.61" class="st0" width="143.87" height="117.21"/>
			</g>
			<g>
				<g>
					<path class="st8" d="M415.21,267.82c0,0-0.02-0.74-0.02-2.16c-0.01-1.42-0.01-3.52-0.02-6.26c-0.01-5.48-0.03-13.51-0.06-23.75
						c-0.03-20.46-0.07-49.73-0.11-85.04l0.22,0.22c-41.16,0.01-90.65,0.03-143.86,0.04h-0.01l0.26-0.26
						c-0.01,42.38-0.02,82.4-0.03,117.21l-0.23-0.23c42.77,0.05,78.7,0.09,103.96,0.12c12.64,0.03,22.6,0.05,29.42,0.06
						c3.4,0.01,6.02,0.02,7.79,0.03c0.88,0.01,1.55,0.01,2.01,0.01C414.97,267.81,415.21,267.82,415.21,267.82s-0.22,0.01-0.66,0.01
						c-0.45,0-1.11,0.01-1.98,0.01c-1.76,0.01-4.36,0.02-7.75,0.03c-6.8,0.01-16.75,0.04-29.37,0.06
						c-25.29,0.03-61.28,0.07-104.11,0.12l-0.23,0l0-0.23c-0.01-34.8-0.02-74.82-0.03-117.21v-0.26h0.26h0.01
						c53.21,0.02,102.7,0.03,143.86,0.04l0.22,0l0,0.22c-0.05,35.36-0.09,64.68-0.11,85.17c-0.02,10.22-0.04,18.23-0.06,23.7
						c-0.01,2.72-0.02,4.8-0.02,6.22C415.23,267.11,415.21,267.82,415.21,267.82z"/>
				</g>
			</g>
		</g>
		<g>
			<g>
				<path class="st8" d="M415.21,160.36c0,0.14-32.09,0.26-71.67,0.26c-39.59,0-71.68-0.12-71.68-0.26c0-0.14,32.09-0.26,71.68-0.26
					C383.12,160.1,415.21,160.22,415.21,160.36z"/>
			</g>
		</g>
		<g>
			<g>
				<path class="st8" d="M276.15,155.24c0,0.51-0.41,0.92-0.92,0.92c-0.51,0-0.92-0.41-0.92-0.92c0-0.51,0.41-0.92,0.92-0.92
					C275.74,154.32,276.15,154.74,276.15,155.24z"/>
			</g>
			<g>
				<circle class="st8" cx="278.77" cy="155.24" r="0.92"/>
			</g>
			<g>
				<path class="st8" d="M283.24,155.24c0,0.51-0.41,0.92-0.92,0.92c-0.51,0-0.92-0.41-0.92-0.92c0-0.51,0.41-0.92,0.92-0.92
					C282.83,154.32,283.24,154.74,283.24,155.24z"/>
			</g>
		</g>
		<g>
			<g>
				<path class="st1" d="M280.96,268.78c-0.14,0-0.26-24.33-0.26-54.34c0-30.02,0.12-54.34,0.26-54.34s0.26,24.33,0.26,54.34
					C281.22,244.45,281.1,268.78,280.96,268.78z"/>
			</g>
		</g>
	</g>
	<g>
		<g>
			<g>
				<g>
					<rect x="80.21" y="54.78" class="st9" width="59.25" height="42.24"/>
				</g>
			</g>
			<g>
				<g>
					<g>
						<path class="st0" d="M139.93,61.05c0,0.14-13.38,0.26-29.87,0.26c-16.5,0-29.87-0.12-29.87-0.26c0-0.14,13.37-0.26,29.87-0.26
							C126.55,60.79,139.93,60.9,139.93,61.05z"/>
					</g>
				</g>
			</g>
			<g>
				<g>
					<g>
						<path class="st0" d="M85.05,57.96c0,0.39-0.36,0.7-0.8,0.7c-0.44,0-0.8-0.31-0.8-0.7c0-0.39,0.36-0.7,0.8-0.7
							C84.69,57.26,85.05,57.58,85.05,57.96z"/>
					</g>
				</g>
				<g>
					<g>
						<path class="st0" d="M87.95,57.96c0,0.39-0.36,0.7-0.8,0.7c-0.44,0-0.8-0.31-0.8-0.7c0-0.39,0.36-0.7,0.8-0.7
							C87.6,57.26,87.95,57.58,87.95,57.96z"/>
					</g>
				</g>
				<g>
					<g>
						<ellipse class="st0" cx="90.06" cy="57.96" rx="0.8" ry="0.7"/>
					</g>
				</g>
			</g>
		</g>
	</g>
	<g>
		<g>
			<g>
				<rect x="402.39" y="216.3" class="st9" width="53.56" height="38.18"/>
			</g>
		</g>
		<g>
			<g>
				<g>
					<g>
						<path class="st0" d="M456.37,221.97c0,0.09-12.09,0.17-27,0.17c-14.92,0-27.01-0.08-27.01-0.17c0-0.09,12.09-0.17,27.01-0.17
							C444.28,221.8,456.37,221.88,456.37,221.97z"/>
					</g>
				</g>
			</g>
			<g>
				<g>
					<g>
						<path class="st0" d="M406.76,219.18c0,0.35-0.32,0.63-0.72,0.63c-0.4,0-0.72-0.28-0.72-0.63c0-0.35,0.32-0.63,0.72-0.63
							C406.44,218.55,406.76,218.83,406.76,219.18z"/>
					</g>
				</g>
				<g>
					<g>
						<path class="st0" d="M409.39,219.18c0,0.35-0.32,0.63-0.72,0.63s-0.72-0.28-0.72-0.63c0-0.35,0.32-0.63,0.72-0.63
							S409.39,218.83,409.39,219.18z"/>
					</g>
				</g>
				<g>
					<g>
						<path class="st0" d="M412.02,219.18c0,0.35-0.32,0.63-0.72,0.63c-0.4,0-0.72-0.28-0.72-0.63c0-0.35,0.32-0.63,0.72-0.63
							C411.69,218.55,412.02,218.83,412.02,219.18z"/>
					</g>
				</g>
			</g>
		</g>
	</g>
	<g>
		<g>
			<g>
				<rect x="51.78" y="215.76" class="st9" width="39.49" height="28.15"/>
			</g>
		</g>
		<g>
			<g>
				<g>
					<g>
						<path class="st0" d="M91.57,219.93c0,0.07-8.91,0.12-19.91,0.12c-11,0-19.91-0.06-19.91-0.12s8.91-0.12,19.91-0.12
							C82.66,219.81,91.57,219.86,91.57,219.93z"/>
					</g>
				</g>
			</g>
			<g>
				<g>
					<g>
						<path class="st0" d="M55,217.88c0,0.26-0.24,0.47-0.53,0.47c-0.29,0-0.53-0.21-0.53-0.47c0-0.26,0.24-0.47,0.53-0.47
							C54.76,217.41,55,217.62,55,217.88z"/>
					</g>
				</g>
				<g>
					<g>
						<path class="st0" d="M56.94,217.88c0,0.26-0.24,0.47-0.53,0.47c-0.29,0-0.53-0.21-0.53-0.47c0-0.26,0.24-0.47,0.53-0.47
							C56.7,217.41,56.94,217.62,56.94,217.88z"/>
					</g>
				</g>
				<g>
					<g>
						<path class="st0" d="M58.88,217.88c0,0.26-0.24,0.47-0.53,0.47c-0.29,0-0.53-0.21-0.53-0.47c0-0.26,0.24-0.47,0.53-0.47
							C58.64,217.41,58.88,217.62,58.88,217.88z"/>
					</g>
				</g>
			</g>
		</g>
	</g>
	<g>
		<g>
			<g>
				<g>
					<g>
						<path class="st9" d="M338.19,126.52c0,0-0.01-0.27-0.02-0.78c-0.01-0.53-0.01-1.28-0.02-2.25c-0.01-1.99-0.03-4.87-0.05-8.56
							c-0.03-7.39-0.06-18.01-0.11-30.96l0.21,0.21c-18.04,0.01-40.98,0.03-65.89,0.05h-0.01l0.26-0.26
							c-0.01,15.11-0.01,29.5-0.02,42.56l-0.24-0.24c19.33,0.05,35.77,0.09,47.4,0.12c5.81,0.03,10.42,0.05,13.59,0.06
							c1.57,0.01,2.78,0.02,3.63,0.03c0.4,0.01,0.71,0.01,0.94,0.01C338.08,126.51,338.19,126.51,338.19,126.52
							c0,0-0.1,0.01-0.3,0.01c-0.22,0-0.52,0.01-0.91,0.01c-0.83,0.01-2.03,0.02-3.58,0.03c-3.16,0.02-7.75,0.04-13.54,0.06
							c-11.67,0.03-28.16,0.07-47.56,0.12l-0.24,0l0-0.24c-0.01-13.05-0.01-27.44-0.02-42.56l0-0.26h0.26h0.01
							c24.9,0.02,47.85,0.04,65.89,0.05l0.21,0l0,0.21c-0.05,13.01-0.08,23.66-0.11,31.09c-0.02,3.67-0.04,6.54-0.05,8.51
							c-0.01,0.96-0.02,1.69-0.02,2.21C338.21,126.28,338.19,126.52,338.19,126.52z"/>
					</g>
				</g>
			</g>
			<g>
				<g>
					<g>
						<path class="st9" d="M338.19,90.28c0,0.14-14.76,0.26-32.96,0.26c-18.21,0-32.96-0.12-32.96-0.26
							c0-0.14,14.75-0.26,32.96-0.26C323.43,90.02,338.19,90.13,338.19,90.28z"/>
					</g>
				</g>
			</g>
			<g>
				<g>
					<g>
						<path class="st9" d="M277.17,87.17c0,0.39-0.36,0.71-0.8,0.71c-0.44,0-0.8-0.32-0.8-0.71s0.36-0.71,0.8-0.71
							C276.81,86.47,277.17,86.78,277.17,87.17z"/>
					</g>
				</g>
				<g>
					<g>
						<path class="st9" d="M280.1,87.17c0,0.39-0.36,0.71-0.8,0.71c-0.44,0-0.8-0.32-0.8-0.71s0.36-0.71,0.8-0.71
							C279.74,86.47,280.1,86.78,280.1,87.17z"/>
					</g>
				</g>
				<g>
					<g>
						<path class="st9" d="M283.03,87.17c0,0.39-0.36,0.71-0.8,0.71c-0.44,0-0.8-0.32-0.8-0.71s0.36-0.71,0.8-0.71
							C282.67,86.47,283.03,86.78,283.03,87.17z"/>
					</g>
				</g>
			</g>
		</g>
	</g>
</g>
<g id="Character">
	<g>
		<g>
			<g>
				<g>
					<g>
						<g>
							<path class="st10" d="M147.88,271.95l26.13,88.18c1.16,3.92,4.76,6.6,8.84,6.6l106,0.29c5.63,0.02,10.11-4.7,9.81-10.32l0,0
								c-0.28-5.2-4.58-9.28-9.79-9.28h-40.54l-32.46-90.45h-56.82C151.27,256.98,145.67,264.48,147.88,271.95z"/>
						</g>
					</g>
				</g>
				<g>
					<g>
						<g>
							<g>
								<path class="st8" d="M237.56,354.67c0,0.21-10.81,0.37-24.14,0.37c-13.33,0-24.14-0.17-24.14-0.37
									c0-0.21,10.81-0.37,24.14-0.37C226.75,354.3,237.56,354.46,237.56,354.67z"/>
							</g>
						</g>
					</g>
				</g>
				<g>
					<g>
						<g>
							<g>
								<path class="st8" d="M155.68,259.78c0.2-0.07,7.41,21.05,16.12,47.15c8.71,26.11,15.61,47.33,15.41,47.39
									c-0.2,0.07-7.41-21.04-16.12-47.16C162.38,281.07,155.48,259.85,155.68,259.78z"/>
							</g>
						</g>
					</g>
				</g>
			</g>
			<g>
				<polygon class="st10" points="233.15,445.09 226.69,444.94 226.69,366.73 233.15,366.73 				"/>
			</g>
			<g>
				<polygon class="st10" points="199.86,444.73 259.99,444.73 232.75,435.26 226.29,435.26 				"/>
			</g>
		</g>
		<g>
			<g>
				<g>
					<g>
						<g>
							<g>
								<g>
									<g>
										<path class="st9" d="M184.65,236.76l9.95,49.71l-1.78,37.25l66.88-11.12l-2.62-32.62l-0.05-26.99l16.4,31.78l12.77-24.66
											l-23.38-42.35l0,0c-4.28-4.44-9.3-7.73-15.3-9.9c-2.91-1.05-6.01-1.68-9.59-1.84v0c-7.72,2.39-15.43,2.39-23.15,0.01
											c-0.94,0.12-2.24,0.24-3.89,0.44c-0.1,0.01-0.2,0.02-0.3,0.04c-14.19,1.73-25.03,13.53-25.81,27.81L184.65,236.76z"/>
									</g>
								</g>
							</g>
						</g>
					</g>
					<g>
						<g>
							<g>
								<path class="st9" d="M210.89,206.47c0,0-27.48,0.21-30.88,29.23l-0.46,21.28l23.67-0.2L210.89,206.47z"/>
							</g>
						</g>
					</g>
				</g>
			</g>
			<g>
				<g>
					<g>
						<g>
							<path class="st11" d="M276.54,243.8c0,0.21-21.62,0.37-48.29,0.37c-26.68,0-48.3-0.17-48.3-0.37c0-0.21,21.62-0.37,48.3-0.37
								C254.92,243.43,276.54,243.6,276.54,243.8z"/>
						</g>
					</g>
				</g>
			</g>
			<g>
				<g>
					<g>
						<g>
							<path class="st11" d="M276.54,248.41c0,0.21-21.62,0.37-48.29,0.37c-26.68,0-48.3-0.17-48.3-0.37
								c0-0.21,21.62-0.37,48.3-0.37C254.92,248.03,276.54,248.2,276.54,248.41z"/>
						</g>
					</g>
				</g>
			</g>
			<g>
				<g>
					<g>
						<g>
							<path class="st11" d="M274.99,239.99c0,0.21-21.28,0.37-47.52,0.37c-26.25,0-47.52-0.17-47.52-0.37
								c0-0.21,21.27-0.37,47.52-0.37C253.72,239.62,274.99,239.79,274.99,239.99z"/>
						</g>
					</g>
				</g>
			</g>
			<g>
				<g>
					<g>
						<g>
							<path class="st8" d="M256.67,284.77c-0.21,0-0.11-11.77,0.2-26.27c0.32-14.51,0.75-26.26,0.95-26.25
								c0.21,0,0.11,11.76-0.2,26.27C257.3,273.02,256.87,284.77,256.67,284.77z"/>
						</g>
					</g>
				</g>
			</g>
			<g>
				<g>
					<g>
						<path class="st12" d="M247.27,265.69c0,0,13,0.93,15.34,4.37c2.34,3.44,5.91,13.24,4.55,13.31c-1.35,0.07-2.33-0.74-2.33-0.74
							l-3.56-6.31c0,0,0.57,6.1-1.56,6.22c-2.13,0.12-12.68,2.23-12.68,2.23L247.27,265.69z"/>
					</g>
				</g>
			</g>
			<g>
				<g>
					<g>
						<path class="st9" d="M179.56,251.32l-0.05,33.51c0.42,7.83,7.76,13.42,15.42,11.75l52.41-10.8l-0.11-21.49l-45.22,8.68
							l-0.6-22.75L179.56,251.32z"/>
					</g>
				</g>
			</g>
			<g>
				<g>
					<g>
						<g>
							<path class="st8" d="M209.46,293.89c0-0.02,0.23-0.08,0.69-0.19c0.51-0.12,1.19-0.27,2.03-0.46c1.84-0.39,4.44-0.94,7.7-1.63
								c6.69-1.37,16.1-3.29,27.28-5.58l-0.27,0.33c-0.01-6.75-0.02-14.2-0.04-22.07l0.44,0.36c-2.95,0.57-6.06,1.16-9.21,1.77
								c-13.25,2.52-25.62,4.88-36.02,6.85l-0.39,0.07l0.01-0.39c0.34-9.97,0.63-18.28,0.83-24.17c0.12-2.86,0.21-5.13,0.28-6.75
								c0.04-0.74,0.07-1.32,0.1-1.77c0.03-0.4,0.05-0.61,0.07-0.61c0.02,0,0.03,0.21,0.03,0.61c0,0.45,0,1.04,0,1.78
								c-0.03,1.62-0.06,3.89-0.11,6.75c-0.14,5.88-0.33,14.19-0.56,24.16l-0.38-0.32c10.39-2.01,22.76-4.4,35.99-6.96
								c3.16-0.6,6.26-1.2,9.21-1.76l0.44-0.08l0,0.45c-0.01,7.87-0.03,15.33-0.04,22.07l0,0.28l-0.27,0.05
								c-11.2,2.18-20.63,4.01-27.33,5.31c-3.28,0.61-5.89,1.1-7.74,1.45c-0.85,0.15-1.53,0.27-2.05,0.36
								C209.7,293.88,209.46,293.91,209.46,293.89z"/>
						</g>
					</g>
				</g>
			</g>
			<g>
				<g>
					<g>
						<g>
							<path class="st8" d="M239.52,206.47c0.02-0.01,0.1,0.16,0.22,0.49c0.13,0.33,0.27,0.83,0.41,1.48
								c0.26,1.3,0.41,3.3-0.25,5.64c-0.63,2.33-2.16,4.91-4.55,7.02c-2.35,2.16-5.83,3.64-9.54,3.6c-3.71,0.04-7.22-1.48-9.43-3.83
								c-2.24-2.34-3.23-5.21-3.51-7.59c-0.26-2.41,0.17-4.37,0.66-5.61c0.25-0.62,0.48-1.09,0.67-1.38
								c0.18-0.3,0.29-0.45,0.31-0.44c0.08,0.04-0.32,0.67-0.71,1.92c-0.4,1.24-0.73,3.14-0.41,5.45c0.34,2.27,1.34,4.99,3.48,7.17
								c2.11,2.18,5.41,3.59,8.94,3.56c3.53,0.03,6.82-1.34,9.08-3.37c2.33-2.01,3.83-4.44,4.5-6.65c0.69-2.22,0.63-4.16,0.46-5.44
								C239.68,207.19,239.44,206.49,239.52,206.47z"/>
						</g>
					</g>
				</g>
			</g>
			<g>
				<g>
					<g>
						<g>
							<path class="st11" d="M242.05,287.56c-0.11-0.01-0.07-1.27,0.01-3.31c0.08-2.03,0.18-4.84,0.2-7.94
								c0.02-3.1-0.05-5.91-0.1-7.95c-0.05-2.03-0.08-3.3,0.03-3.31c0.1-0.01,0.31,1.24,0.5,3.28c0.19,2.04,0.34,4.86,0.32,7.98
								c-0.02,3.12-0.2,5.94-0.42,7.98C242.37,286.32,242.15,287.57,242.05,287.56z"/>
						</g>
					</g>
				</g>
			</g>
			<g>
				<g>
					<g>
						<g>
							<path class="st11" d="M239.34,288.11c-0.11-0.01-0.12-1.26-0.09-3.28c0.02-2.31,0.05-4.96,0.08-7.89
								c0-2.93-0.01-5.59-0.01-7.9c0-2.02,0.02-3.28,0.13-3.28c0.1-0.01,0.26,1.24,0.4,3.26c0.14,2.02,0.24,4.82,0.23,7.92
								c-0.02,3.09-0.15,5.89-0.3,7.91C239.62,286.87,239.44,288.11,239.34,288.11z"/>
						</g>
					</g>
				</g>
			</g>
		</g>
		<g>
			<g>
				<g>
					<g>
						<path class="st9" d="M291.83,421.25l9.91,27.28l14.06,19.32c1.01,1.39,0.64,3.35-0.82,4.27l0,0c-0.82,0.51-1.82,0.6-2.71,0.23
							c-5.67-2.35-26.47-11.11-27.09-13.14c-0.71-2.36-14.14-31.69-14.14-31.69L291.83,421.25z"/>
					</g>
				</g>
				<g class="st13">
					<g>
						<path class="st0" d="M314.96,472.11l-30.51-14.74l0.45,1.15c0.39,0.99,1.11,1.82,2.04,2.32c2.5,1.35,9.49,4.93,25.23,11.54
							C313.08,472.76,314.14,472.66,314.96,472.11L314.96,472.11z"/>
					</g>
				</g>
				<g class="st13">
					<g>
						<g>
							<path class="st0" d="M286.61,446.49c0.86,0.2,1.48,1.14,1.31,2.01c-0.17,0.87-1.12,1.51-1.98,1.32
								c-0.86-0.19-1.64-1.29-1.38-2.14c0.27-0.84,1.42-1.53,2.21-1.14"/>
						</g>
					</g>
				</g>
				<g>
					<g>
						<g>
							<path class="st8" d="M304.18,462.7c0.18,0.02,0.24-1.64,1.55-3.03c1.27-1.43,2.91-1.63,2.88-1.81c0-0.08-0.43-0.15-1.09,0
								c-0.66,0.15-1.54,0.6-2.26,1.37c-0.71,0.78-1.08,1.69-1.17,2.37C303.99,462.29,304.11,462.7,304.18,462.7z"/>
						</g>
					</g>
				</g>
				<g>
					<g>
						<g>
							<path class="st8" d="M307.52,465.57c0.17,0.07,0.7-1.15,1.94-2.1c1.22-0.97,2.53-1.18,2.51-1.37c0.02-0.17-1.5-0.24-2.9,0.87
								C307.66,464.06,307.35,465.55,307.52,465.57z"/>
						</g>
					</g>
				</g>
				<g>
					<g>
						<g>
							<path class="st8" d="M298.79,459.45c0.18,0.08,0.98-1.8,2.78-3.44c1.78-1.67,3.71-2.31,3.65-2.5
								c-0.01-0.16-2.17,0.24-4.08,2.03C299.21,457.31,298.63,459.43,298.79,459.45z"/>
						</g>
					</g>
				</g>
				<g>
					<g>
						<g>
							<path class="st8" d="M295.09,451.41c0.14,0.13,1.39-1.07,3.3-1.9c1.91-0.85,3.64-0.96,3.63-1.15
								c0.02-0.16-1.84-0.35-3.89,0.57C296.08,449.82,294.95,451.32,295.09,451.41z"/>
						</g>
					</g>
				</g>
				<g>
					<g>
						<g>
							<path class="st8" d="M291.98,443.48c0.14,0.12,1.3-1.36,3.39-2.07c2.07-0.75,3.9-0.31,3.94-0.5c0.02-0.07-0.41-0.3-1.17-0.42
								c-0.76-0.12-1.86-0.08-2.98,0.31c-1.12,0.39-2,1.05-2.52,1.62C292.11,442.99,291.91,443.43,291.98,443.48z"/>
						</g>
					</g>
				</g>
				<g>
					<g>
						<g>
							<path class="st8" d="M294.73,439.92c0.03-0.01-0.05-0.4-0.36-1.04c-0.31-0.63-0.88-1.52-1.86-2.36
								c-0.49-0.39-1.04-0.92-1.94-0.98c-0.45-0.03-0.98,0.25-1.16,0.74c-0.18,0.47-0.11,0.96,0.05,1.39
								c0.7,1.71,2.82,2.79,4.84,2.29c2.02-0.54,3.35-2.33,3.54-4.11c0.02-0.45-0.05-0.97-0.44-1.34c-0.39-0.38-1.01-0.35-1.37-0.13
								c-0.76,0.43-1.08,1.09-1.42,1.62c-0.64,1.11-0.91,2.12-1.03,2.82c-0.12,0.7-0.09,1.09-0.05,1.1
								c0.12,0.03,0.17-1.59,1.46-3.68c0.34-0.5,0.72-1.1,1.27-1.38c0.27-0.14,0.56-0.12,0.75,0.07c0.19,0.18,0.26,0.54,0.24,0.9
								c-0.18,1.47-1.39,3.1-3.11,3.53c-1.7,0.44-3.57-0.52-4.14-1.88c-0.13-0.33-0.17-0.7-0.07-0.97c0.1-0.26,0.35-0.42,0.63-0.42
								c0.61,0.01,1.18,0.44,1.66,0.8C294.14,438.41,294.62,439.99,294.73,439.92z"/>
						</g>
					</g>
				</g>
			</g>
		</g>
		<g>
			<g>
				<g>
					<path class="st9" d="M333.64,414.11l-0.86,22.17c0,0,22.25,8.32,22.49,12.43l-43.04-0.12l-0.08-34.6L333.64,414.11z"/>
				</g>
				<g class="st13">
					<g>
						<path class="st0" d="M319.48,434.38c-0.83,0.23-1.41,1.16-1.22,2c0.19,0.84,1.14,1.44,1.97,1.23
							c0.84-0.21,1.57-1.31,1.28-2.13c-0.28-0.82-1.43-1.45-2.2-1.05"/>
					</g>
				</g>
				<g class="st13">
					<path class="st0" d="M312.23,448.59l-0.01-3.45l41.36,1.38c0,0,1.91,0.84,1.69,2.19L312.23,448.59z"/>
				</g>
				<g>
					<g>
						<path class="st8" d="M333.48,436.06c-0.01,0.21-1.06,0.3-2.09,0.98c-1.05,0.65-1.59,1.55-1.78,1.47
							c-0.19-0.04,0.12-1.3,1.39-2.09C332.26,435.62,333.53,435.87,333.48,436.06z"/>
					</g>
				</g>
				<g>
					<g>
						<path class="st8" d="M337.99,437.94c0.05,0.2-0.86,0.56-1.58,1.45c-0.74,0.87-0.92,1.83-1.13,1.82
							c-0.2,0.03-0.34-1.2,0.57-2.28C336.75,437.83,337.99,437.74,337.99,437.94z"/>
					</g>
				</g>
				<g>
					<g>
						<path class="st8" d="M340.54,443.35c-0.19,0.04-0.48-1.01,0.06-2.16c0.53-1.15,1.53-1.61,1.62-1.43
							c0.12,0.17-0.52,0.79-0.95,1.74C340.81,442.45,340.75,443.33,340.54,443.35z"/>
					</g>
				</g>
				<g>
					<g>
						<path class="st8" d="M333.12,430.99c-0.09,0.19-1.05-0.1-2.24-0.02c-1.19,0.05-2.12,0.45-2.22,0.27
							c-0.12-0.15,0.78-0.93,2.18-1C332.24,430.15,333.22,430.83,333.12,430.99z"/>
					</g>
				</g>
			</g>
			<g class="st2">
				<polygon points="333.47,418.5 333.32,422.45 312.17,422.2 312.15,418.64 				"/>
			</g>
			<g>
				<g>
					<path class="st8" d="M333.21,426.52c0,0.09-0.83,0.21-2.16-0.02c-0.66-0.12-1.44-0.33-2.25-0.7c-0.41-0.18-0.82-0.4-1.24-0.66
						c-0.2-0.13-0.43-0.26-0.65-0.51c-0.23-0.22-0.36-0.78-0.09-1.12c0.22-0.33,0.61-0.47,0.92-0.48c0.32-0.01,0.57,0.06,0.81,0.11
						c0.48,0.12,0.93,0.28,1.34,0.46c0.82,0.38,1.49,0.85,1.98,1.31c1,0.93,1.33,1.71,1.26,1.75c-0.1,0.07-0.58-0.59-1.59-1.36
						c-0.51-0.38-1.15-0.78-1.92-1.09c-0.38-0.15-0.8-0.29-1.24-0.39c-0.46-0.12-0.84-0.13-0.96,0.08
						c-0.04,0.08-0.05,0.11,0.05,0.24c0.1,0.12,0.28,0.24,0.48,0.37c0.38,0.25,0.76,0.47,1.14,0.65c0.75,0.37,1.47,0.63,2.08,0.8
						C332.4,426.34,333.21,426.4,333.21,426.52z"/>
				</g>
			</g>
			<g>
				<g>
					<path class="st8" d="M332.93,426.82c-0.07,0.03-0.49-0.72-0.56-2.08c-0.03-0.68,0.04-1.49,0.3-2.36
						c0.13-0.43,0.31-0.87,0.55-1.31c0.25-0.42,0.56-0.99,1.38-1.08c0.43-0.01,0.78,0.32,0.9,0.6c0.14,0.29,0.17,0.54,0.22,0.79
						c0.08,0.5,0.07,1,0,1.45c-0.14,0.92-0.52,1.68-0.93,2.22c-0.84,1.11-1.72,1.36-1.74,1.29c-0.07-0.11,0.66-0.51,1.31-1.58
						c0.32-0.53,0.6-1.22,0.69-2.02c0.04-0.4,0.04-0.82-0.04-1.25c-0.07-0.46-0.24-0.83-0.41-0.78c-0.21,0-0.58,0.34-0.76,0.7
						c-0.22,0.39-0.4,0.78-0.54,1.17c-0.27,0.78-0.39,1.52-0.42,2.15C332.83,426,333.05,426.78,332.93,426.82z"/>
				</g>
			</g>
		</g>
		<g>
			<g>
				<g>
					<g>
						<g>
							<path class="st8" d="M312.19,307.84c-25.43,2.63-59.14,6.08-59.14,6.08l4.6,41.39c0,0,49.53-13.09,49.17-12.03
								c-0.35,1.06,2.29,88.06,2.29,88.06h29.82l0.56-98.53C339.7,318,326.93,306.32,312.19,307.84z"/>
						</g>
					</g>
				</g>
				<g>
					<g>
						<g>
							<path class="st8" d="M192.21,324.54v12.83c0,8.74,9.95,18,18.69,18h6.76c5.32,0,13.66-3.88,17.96-7.02l2.58-1.89l31.05,96.21
								c0,0,35.54-6.37,35.54-7.49c0-1.12-24.07-78.8-35.17-114.85c-4.54-14.72-20.31-23.28-34.88-18.28
								c-0.5,0.17-0.99,0.35-1.49,0.55C217.32,308.97,192.21,324.54,192.21,324.54z"/>
						</g>
					</g>
				</g>
				<g>
					<g>
						<g>
							<g>
								<path class="st10" d="M304.78,435.19c-0.01,0-0.07-0.11-0.16-0.34c-0.1-0.27-0.23-0.61-0.39-1.03
									c-0.34-0.91-0.83-2.25-1.41-3.99c-1.19-3.48-2.82-8.54-4.81-14.81c-3.96-12.54-9.27-29.9-15.06-49.11
									c-2.88-9.61-5.61-18.76-8.11-27.09c-1.24-4.16-2.41-8.12-3.52-11.83c-0.55-1.85-1.08-3.64-1.6-5.36
									c-0.51-1.72-0.99-3.37-1.62-4.87c-1.22-3.03-3.13-5.34-5.02-7.1c-1.91-1.75-3.73-3.08-5.25-4.09
									c-1.52-1.02-2.73-1.78-3.56-2.28c-0.38-0.24-0.69-0.43-0.93-0.58c-0.21-0.14-0.31-0.21-0.31-0.22
									c0.01-0.01,0.12,0.04,0.34,0.15c0.26,0.14,0.58,0.31,0.97,0.52c0.85,0.46,2.09,1.17,3.65,2.16
									c1.56,0.98,3.42,2.28,5.38,4.03c1.94,1.76,3.94,4.12,5.22,7.21c0.66,1.53,1.16,3.19,1.68,4.9c0.53,1.72,1.07,3.5,1.64,5.35
									c1.12,3.7,2.32,7.65,3.58,11.81c2.51,8.33,5.27,17.47,8.16,27.08c5.79,19.17,11.03,36.53,14.85,49.17
									c1.92,6.24,3.48,11.31,4.58,14.88c0.54,1.71,0.97,3.06,1.28,4.04c0.13,0.43,0.24,0.77,0.32,1.05
									C304.77,435.06,304.8,435.19,304.78,435.19z"/>
							</g>
						</g>
					</g>
				</g>
				<g>
					<g>
						<g>
							<g>
								<path class="st10" d="M312.28,330.88c0.18,0.13-1.51,2.67-2.92,6.11c-1.44,3.44-2.04,6.43-2.26,6.39
									c-0.19-0.02,0.1-3.14,1.57-6.67C310.12,333.16,312.13,330.76,312.28,330.88z"/>
							</g>
						</g>
					</g>
				</g>
				<g>
					<g>
						<g>
							<g>
								<path class="st10" d="M317.98,334.88c0.09,0.21-2.48,1.33-5.15,3.45c-2.69,2.09-4.39,4.32-4.57,4.19
									c-0.16-0.09,1.32-2.6,4.11-4.77C315.14,335.54,317.93,334.7,317.98,334.88z"/>
							</g>
						</g>
					</g>
				</g>
				<g>
					<g>
						<g>
							<g>
								<path class="st10" d="M269.58,442.68c-0.2,0.06-8.59-25.68-18.74-57.5c-10.15-31.83-18.22-57.67-18.03-57.73
									c0.2-0.06,8.58,25.68,18.74,57.5C261.71,416.77,269.78,442.62,269.58,442.68z"/>
							</g>
						</g>
					</g>
				</g>
			</g>
		</g>
		<g>
			<g>
				<g>
					<polygon class="st10" points="231.47,292.59 333.12,293.57 352.08,239.99 278.14,240.49 260.98,288.67 231.47,289.11 					"/>
				</g>
			</g>
			<g>
				<path class="st0" d="M308.54,271.4c-2.25-0.32-3.82-2.4-3.5-4.65c0.32-2.25,2.4-3.82,4.65-3.5c2.25,0.32,3.82,2.4,3.5,4.65
					C312.87,270.15,310.79,271.72,308.54,271.4z"/>
			</g>
		</g>
		<g>
			<g>
				<g>
					<path class="st8" d="M223.18,147.57c0.96-3.56,3.64-5.32,7.14-6.51c3.49-1.19,7.56-0.53,10.5,1.7c1.96,1.5,3.5,3.67,5.84,4.48
						c3.84,1.33,8.34-1.54,12.02,0.18c2.18,1.02,3.45,3.68,2.87,6.01c-0.58,2.34-2.95,4.09-5.35,3.97c2.51,0.92,3.29,4.49,1.82,6.72
						c-1.46,2.23-4.47,3.07-7.09,2.58c-2.62-0.49-4.91-2.08-6.89-3.86c-1.98-1.78-3.76-3.8-5.88-5.42c-2.12-1.62-4.69-2.85-7.36-2.7
						c-3.61,0.19-6.7,2.91-8.31,6.15s-1.98,6.93-2.18,10.54c-0.2,3.61-0.26,7.27-1.33,10.72c-0.13,0.4-0.32,0.86-0.72,0.98
						c-0.59,0.18-1.08-0.44-1.37-0.98c-3.28-6.09-5.35-12.83-6.06-19.71c-0.41-4-0.3-7.78,1.89-11.14
						C214.9,147.92,220.45,145.44,223.18,147.57"/>
				</g>
			</g>
			<g>
				<g>
					<g>
						<g>
							<g>
								<g>
									<g>
										<g>
											<g>
												<g>
													<g>
														<g>
															<g>
																<g>
																	<g>
																		<path class="st12" d="M216.2,164.3l-1.84,40.46c-0.31,6.88,0.63,17.05,11.53,17.05l0,0
																			c9.46-0.71,12.25-9.55,12.54-15.97c0.14-3.05,0.26-5.59,0.29-5.9c0,0,10.34-0.5,11.55-10.66
																			c0.58-4.91,0.96-15.12,1.2-24.36c0.25-9.93-7.17-18.38-17.04-19.43l-0.98-0.1
																			C222.8,144.88,216.41,153.64,216.2,164.3z"/>
																	</g>
																</g>
															</g>
														</g>
													</g>
												</g>
											</g>
										</g>
									</g>
									<g>
										<g>
											<g>
												<g>
													<g>
														<g>
															<g>
																<g>
																	<g>
																		<path class="st14" d="M238.75,199.8c0,0-6.49-0.16-12.86-5.18c0,0,2.36,7.66,12.61,7.82L238.75,199.8z"/>
																	</g>
																</g>
															</g>
														</g>
													</g>
												</g>
											</g>
										</g>
									</g>
								</g>
							</g>
						</g>
						<g>
							<g>
								<g>
									<g>
										<g>
											<g>
												<g>
													<g>
														<g>
															<g>
																<g>
																	<g>
																		<g>
																			<g>
																				<g>
																					<path class="st8" d="M247.78,171.42c-0.05,0.77-0.75,1.36-1.56,1.32c-0.8-0.04-1.41-0.7-1.36-1.47
																						c0.05-0.77,0.75-1.36,1.56-1.32C247.23,169.99,247.84,170.65,247.78,171.42z"/>
																				</g>
																			</g>
																		</g>
																	</g>
																</g>
															</g>
														</g>
													</g>
												</g>
												<g>
													<g>
														<g>
															<g>
																<g>
																	<g>
																		<g>
																			<g>
																				<g>
																					<g>
																						<path class="st8" d="M248.75,169.68c-0.2,0.17-1.21-0.76-2.78-0.92c-1.56-0.18-2.79,0.5-2.94,0.29
																							c-0.07-0.09,0.15-0.42,0.68-0.73c0.53-0.31,1.41-0.57,2.38-0.46c0.97,0.11,1.75,0.55,2.19,0.97
																							C248.72,169.25,248.85,169.61,248.75,169.68z"/>
																					</g>
																				</g>
																			</g>
																		</g>
																	</g>
																</g>
															</g>
														</g>
													</g>
												</g>
											</g>
											<g>
												<g>
													<g>
														<g>
															<g>
																<g>
																	<g>
																		<g>
																			<g>
																				<g>
																					<path class="st8" d="M232.39,170.32c-0.05,0.77-0.75,1.36-1.56,1.32c-0.8-0.04-1.41-0.7-1.36-1.47
																						c0.05-0.77,0.75-1.36,1.56-1.32C231.84,168.89,232.44,169.55,232.39,170.32z"/>
																				</g>
																			</g>
																		</g>
																	</g>
																</g>
															</g>
														</g>
													</g>
												</g>
												<g>
													<g>
														<g>
															<g>
																<g>
																	<g>
																		<g>
																			<g>
																				<g>
																					<g>
																						<path class="st8" d="M233.35,168.34c-0.2,0.17-1.22-0.76-2.78-0.92c-1.56-0.18-2.79,0.5-2.94,0.29
																							c-0.07-0.09,0.14-0.42,0.68-0.73c0.53-0.31,1.41-0.57,2.38-0.47c0.97,0.11,1.75,0.55,2.19,0.97
																							C233.32,167.9,233.45,168.26,233.35,168.34z"/>
																					</g>
																				</g>
																			</g>
																		</g>
																	</g>
																</g>
															</g>
														</g>
													</g>
												</g>
											</g>
											<g>
												<g>
													<g>
														<g>
															<g>
																<g>
																	<g>
																		<g>
																			<g>
																				<g>
																					<path class="st8" d="M237.79,180.54c0-0.09,0.99-0.15,2.59-0.19c0.4,0,0.79-0.04,0.89-0.3
																						c0.12-0.28,0-0.73-0.14-1.21c-0.27-1.01-0.56-2.06-0.86-3.17c-1.18-4.5-1.99-8.19-1.81-8.23
																						c0.18-0.05,1.29,3.57,2.46,8.07c0.28,1.11,0.55,2.17,0.81,3.18c0.1,0.47,0.31,1.01,0.04,1.59
																						c-0.14,0.29-0.46,0.47-0.72,0.51c-0.26,0.05-0.49,0.03-0.69,0.02C238.77,180.72,237.79,180.63,237.79,180.54z"
																						/>
																				</g>
																			</g>
																		</g>
																	</g>
																</g>
															</g>
														</g>
													</g>
												</g>
											</g>
											<g>
												<g>
													<g>
														<g>
															<g>
																<g>
																	<g>
																		<g>
																			<g>
																				<g>
																					<path class="st8" d="M233.08,181.13c0.26,0.01,0.08,1.71,1.4,3.07c1.32,1.36,3.15,1.36,3.14,1.6
																						c0.01,0.11-0.44,0.29-1.2,0.23c-0.75-0.05-1.82-0.41-2.63-1.24c-0.81-0.83-1.08-1.86-1.07-2.56
																						C232.73,181.51,232.96,181.11,233.08,181.13z"/>
																				</g>
																			</g>
																		</g>
																	</g>
																</g>
															</g>
														</g>
													</g>
												</g>
											</g>
										</g>
									</g>
								</g>
								<g>
									<g>
										<g>
											<g>
												<g>
													<g>
														<g>
															<g>
																<g>
																	<path class="st8" d="M234.41,162.25c-0.2,0.41-1.74,0.04-3.6,0.07c-1.86-0.01-3.39,0.37-3.6-0.04
																		c-0.09-0.19,0.21-0.57,0.85-0.91c0.64-0.35,1.62-0.64,2.74-0.64c1.11,0,2.1,0.28,2.74,0.62
																		C234.19,161.69,234.5,162.06,234.41,162.25z"/>
																</g>
															</g>
														</g>
													</g>
												</g>
											</g>
										</g>
									</g>
								</g>
								<g>
									<g>
										<g>
											<g>
												<g>
													<g>
														<g>
															<g>
																<g>
																	<path class="st8" d="M248.66,165.1c-0.31,0.33-1.35-0.16-2.64-0.31c-1.29-0.2-2.42-0.02-2.63-0.41
																		c-0.09-0.19,0.12-0.53,0.63-0.81c0.51-0.28,1.33-0.47,2.21-0.35c0.89,0.12,1.62,0.53,2.04,0.94
																		C248.69,164.55,248.8,164.94,248.66,165.1z"/>
																</g>
															</g>
														</g>
													</g>
												</g>
											</g>
										</g>
									</g>
								</g>
							</g>
						</g>
					</g>
				</g>
			</g>
			<g>
				<g>
					<g>
						<g>
							<g>
								<g>
									<g>
										<g>
											<g>
												<g>
													<path class="st12" d="M216.23,171.92c-0.17-0.09-6.77-2.81-7.29,4.17c-0.52,6.98,6.6,6.06,6.62,5.86
														C215.59,181.75,216.23,171.92,216.23,171.92z"/>
												</g>
											</g>
										</g>
									</g>
								</g>
							</g>
						</g>
					</g>
				</g>
				<g>
					<g>
						<g>
							<g>
								<g>
									<g>
										<g>
											<g>
												<g>
													<g>
														<path class="st14" d="M213.63,179.15c-0.03-0.02-0.13,0.08-0.34,0.16c-0.21,0.08-0.56,0.11-0.91-0.05
															c-0.72-0.33-1.25-1.54-1.19-2.8c0.03-0.64,0.21-1.23,0.47-1.72c0.25-0.49,0.61-0.83,0.98-0.87
															c0.38-0.06,0.62,0.18,0.69,0.39c0.08,0.2,0.02,0.34,0.06,0.35c0.02,0.02,0.16-0.11,0.12-0.4
															c-0.02-0.14-0.09-0.31-0.24-0.46c-0.16-0.15-0.4-0.24-0.66-0.23c-0.54,0-1.06,0.46-1.35,0.99
															c-0.32,0.53-0.53,1.2-0.57,1.91c-0.06,1.41,0.56,2.78,1.55,3.15c0.48,0.16,0.9,0.05,1.13-0.1
															C213.6,179.32,213.65,179.16,213.63,179.15z"/>
													</g>
												</g>
											</g>
										</g>
									</g>
								</g>
							</g>
						</g>
					</g>
				</g>
			</g>
			<g>
				<g>
					<path class="st8" d="M253.85,163.04c-4.61,0.72-9.52-0.95-12.74-4.33c-2.25-2.36-3.84-5.58-6.84-6.87
						c-2.02-0.86-4.39-0.66-6.41,0.19c-2.02,0.85-3.75,2.3-5.26,3.89c1.42,5.38-0.52,11.01-2.43,16.24
						c-0.21,0.58-0.46,1.2-0.98,1.52c-0.89,0.55-2.07-0.08-2.71-0.91c-1.02-1.32-1.29-3.07-1.4-4.74c-0.27-3.8,0.05-7.67,1.27-11.28
						c1.22-3.61,3.38-6.94,6.4-9.26c3.77-2.9,8.74-4.09,13.47-3.51c4.72,0.58,9.17,2.85,12.64,6.1c1.61,1.51,3.05,3.28,3.75,5.38"/>
				</g>
			</g>
		</g>
	</g>
</g>
<g id="Plant">
	<g>
		<g>
			<g>
				<g>
					<path class="st9" d="M58.32,378.08c3.56-1.84,7.76-2.08,11.72-1.42c2.13,0.35,4.34,0.99,5.79,2.58
						c1.45,1.6,1.72,4.41,0.06,5.78c-0.99,0.82-2.37,0.94-3.65,0.93c-3.1-0.04-6.54-0.58-9.01,1.28c-1.41,1.06-2.35,2.83-4.04,3.35
						c-1.65,0.51-3.52-0.46-4.39-1.95c-0.88-1.49-0.91-3.35-0.5-5.03C54.3,383.59,54.73,379.93,58.32,378.08z"/>
				</g>
			</g>
			<g>
				<g>
					<path class="st9" d="M50.15,362.31c2.18,3.11,6.42,2.08,8.38,0.18c1.96-1.9,2.79-4.65,3.55-7.28c1.73-6,3.47-12.3,2.18-18.41
						c-0.38-1.83-1.07-3.65-2.35-5c-1.28-1.36-3.26-2.16-5.06-1.68c-2.14,0.56-3.46,2.66-4.42,4.65
						c-2.82,5.85-4.31,12.34-4.34,18.83C48.08,356.63,48.44,359.81,50.15,362.31"/>
				</g>
			</g>
			<g>
				<g>
					<path class="st9" d="M44.16,366.78c2.37-2.81,2.82-6.91,1.76-10.42c-1.05-3.52-3.43-6.51-6.17-8.96
						c-3.22-2.87-6.99-5.1-11.06-6.52c-1.6-0.56-3.29-1.01-4.97-0.84c-1.69,0.16-3.39,1.02-4.17,2.52
						c-1.16,2.22-0.05,4.91,1.16,7.11c2.13,3.87,4.56,7.57,7.26,11.06c2.18,2.81,4.67,5.57,7.99,6.84c3.32,1.27,6.76,1.12,8.52-1.18
						"/>
				</g>
			</g>
			<g>
				<g>
					<g>
						<path class="st8" d="M50,409.27c0.04,0,0.11-0.5,0.2-1.41c0.1-1.03,0.23-2.32,0.38-3.86c0.18-1.62,0.42-3.56,0.87-5.66
							c0.45-2.1,1.15-4.38,2.06-6.68c0.94-2.29,2.08-4.38,3.41-6.05c1.33-1.68,2.87-2.89,4.31-3.59c1.44-0.71,2.74-1,3.63-1.13
							c0.9-0.09,1.41-0.16,1.41-0.2c0-0.04-0.51-0.05-1.43-0.02c-0.92,0.06-2.27,0.29-3.79,0.99c-1.53,0.68-3.16,1.91-4.55,3.62
							c-1.4,1.7-2.58,3.83-3.54,6.17c-0.92,2.35-1.61,4.65-2.04,6.79c-0.43,2.14-0.62,4.1-0.75,5.73c-0.12,1.64-0.17,2.97-0.19,3.88
							C49.95,408.76,49.96,409.27,50,409.27z"/>
					</g>
				</g>
			</g>
			<g>
				<g>
					<g>
						<path class="st8" d="M50.27,406.3c0.02,0,0.03-0.23,0.04-0.66c0-0.49,0-1.11-0.01-1.88c0-1.63,0-3.99,0.08-6.9
							c0.14-5.82,0.65-12.09,1.61-20.92c0.92-8.31,2.15-17.97,3.45-24.26c0.28-1.43,0.56-2.72,0.82-3.84
							c0.25-1.13,0.47-2.1,0.67-2.89c0.18-0.74,0.32-1.35,0.44-1.82c0.09-0.42,0.13-0.64,0.11-0.65c-0.02-0.01-0.1,0.21-0.23,0.62
							c-0.14,0.47-0.32,1.07-0.54,1.8c-0.24,0.78-0.49,1.75-0.77,2.87c-0.29,1.12-0.6,2.41-0.91,3.83
							c-1.29,5.7-2.65,13.66-3.62,22.51c-0.97,8.85-1.41,16.91-1.45,22.75c-0.03,2.92,0.03,5.28,0.1,6.91
							c0.05,0.76,0.08,1.38,0.11,1.88C50.22,406.08,50.25,406.31,50.27,406.3z"/>
					</g>
				</g>
			</g>
			<g>
				<g>
					<g>
						<path class="st8" d="M50.31,390.76c0.04,0,0.03-0.7-0.01-1.96c-0.07-1.26-0.25-3.08-0.6-5.31c-0.38-2.23-0.9-4.87-1.73-7.74
							c-0.36-1.31-1.2-4.46-3.24-9.16c-2.68-6.37-6.33-11.58-9.51-14.8c-0.74-0.86-1.57-1.47-2.24-2.08
							c-0.34-0.29-0.65-0.58-0.96-0.81c-0.31-0.21-0.6-0.41-0.87-0.6c-1.04-0.71-1.63-1.09-1.65-1.06
							c-0.09,0.13,2.34,1.56,5.41,4.83c3.06,3.26,6.61,8.43,9.27,14.75c1.48,3.43,2.52,6.48,3.26,9.07
							c0.85,2.84,1.41,5.46,1.84,7.66c0.4,2.21,0.64,4.01,0.78,5.26C50.18,390.07,50.27,390.76,50.31,390.76z"/>
					</g>
				</g>
			</g>
		</g>
		<g>
			<g>
				<polygon class="st8" points="35.28,418.18 36.84,439.52 64.26,439.52 65.81,418.18 				"/>
			</g>
		</g>
		<g>
			<g>
				<rect x="32.63" y="409.77" class="st8" width="36.45" height="8.41"/>
			</g>
		</g>
		<g>
			<g>
				<polygon class="st10" points="32.63,438.71 32.63,441.04 34.35,441.04 68.48,441.04 68.48,438.71 				"/>
			</g>
		</g>
		<g>
			<g>
				<polygon class="st10" points="36.02,445.14 34.35,441.04 67.18,441.04 65.22,445.14 				"/>
			</g>
		</g>
		<g>
			<g>
				<g>
					<path class="st1" d="M65.31,425.16c0.01,0.01-0.04,0.07-0.13,0.2c-0.11,0.14-0.24,0.32-0.41,0.54c-0.39,0.5-0.92,1.18-1.6,2.04
						l-0.07,0.09l-0.07-0.1c-1-1.39-2.35-3.24-3.92-5.43h0.23c-1.17,1.65-2.47,3.49-3.86,5.47l-0.12,0.17l-0.14-0.16
						c-1.43-1.7-2.97-3.54-4.58-5.45l0.26,0c-0.08,0.1-0.17,0.21-0.25,0.32c-1.42,1.78-2.8,3.51-4.1,5.14l-0.14,0.17l-0.13-0.18
						c-1.39-1.97-2.69-3.81-3.87-5.47l0.22,0.01c-1.9,2.17-3.52,4.01-4.76,5.42l-0.08,0.1l-0.06-0.11c-0.63-1.05-1.13-1.89-1.49-2.5
						c-0.16-0.27-0.28-0.49-0.38-0.67c-0.08-0.15-0.12-0.23-0.12-0.24c0.01,0,0.06,0.07,0.16,0.21c0.11,0.17,0.25,0.38,0.42,0.64
						c0.38,0.6,0.91,1.42,1.56,2.46l-0.15-0.01c1.22-1.43,2.81-3.29,4.68-5.49l0.12-0.14l0.11,0.15c1.19,1.65,2.5,3.49,3.9,5.44
						l-0.26-0.01c1.3-1.63,2.67-3.36,4.09-5.14c0.09-0.11,0.17-0.22,0.25-0.32l0.13-0.16l0.13,0.16c1.6,1.92,3.15,3.76,4.57,5.46
						l-0.26,0.01c1.41-1.97,2.72-3.8,3.9-5.44l0.11-0.16l0.11,0.16c1.55,2.21,2.86,4.08,3.84,5.49l-0.14,0
						c0.7-0.84,1.26-1.51,1.66-1.99c0.18-0.21,0.33-0.38,0.44-0.52C65.24,425.21,65.3,425.15,65.31,425.16z"/>
				</g>
			</g>
		</g>
		<g>
			<g>
				<g>
					<path class="st10" d="M66.2,418.04c0,0.09-6.87,0.17-15.34,0.17c-8.48,0-15.34-0.08-15.34-0.17c0-0.09,6.87-0.17,15.34-0.17
						C59.33,417.87,66.2,417.95,66.2,418.04z"/>
				</g>
			</g>
		</g>
		<g>
			<g>
				<g>
					<path class="st8" d="M67.58,441.27c0,0.09-7.47,0.17-16.67,0.17c-9.21,0-16.68-0.08-16.68-0.17c0-0.09,7.46-0.17,16.68-0.17
						C60.11,441.1,67.58,441.17,67.58,441.27z"/>
				</g>
			</g>
		</g>
	</g>
</g>
<g id="Devices">
	<g>
		<g>
			<polygon class="st8" points="391.71,195.56 372.66,275.23 377.99,275.23 396.75,195.56 			"/>
		</g>
		<g>
			<path class="st8" d="M384.39,248.03c-0.34,1.46,8.63,44.88,8.63,44.88h-4.32l-6.77-34.41L384.39,248.03z"/>
		</g>
	</g>
	<g>
		<g>
			<g>
				<g>
					<rect x="358.6" y="350.33" class="st9" width="89.23" height="94.59"/>
				</g>
				<g>
					<rect x="447.82" y="364.15" class="st8" width="4.38" height="4.38"/>
				</g>
				<g>
					<rect x="447.82" y="378.06" class="st8" width="4.38" height="4.38"/>
				</g>
				<g>
					<rect x="447.82" y="391.97" class="st8" width="4.38" height="4.38"/>
				</g>
				<g>
					<rect x="447.82" y="405.88" class="st8" width="4.38" height="4.38"/>
				</g>
				<g>
					<g>
						<path class="st8" d="M452.37,393.25c0-0.03,0.47-0.14,1.35-0.3c0.87-0.14,2.15-0.35,3.75-0.36c1.59,0,3.58,0.27,5.42,1.43
							c0.91,0.58,1.76,1.39,2.32,2.45c0.56,1.05,0.79,2.31,0.69,3.55c-0.1,1.25-0.51,2.44-1.14,3.43c-0.63,1-1.44,1.81-2.31,2.44
							c-1.74,1.27-3.64,1.83-5.22,2.06c-1.59,0.24-2.89,0.19-3.77,0.13c-0.89-0.07-1.37-0.16-1.37-0.19c0-0.04,0.49-0.02,1.38-0.01
							c0.88,0,2.16-0.01,3.7-0.29c1.53-0.27,3.35-0.86,4.99-2.08c1.63-1.2,3.05-3.17,3.21-5.52c0.09-1.16-0.12-2.31-0.63-3.28
							c-0.5-0.97-1.28-1.73-2.13-2.28c-1.72-1.11-3.62-1.42-5.17-1.46c-1.57-0.04-2.84,0.11-3.72,0.19
							C452.86,393.25,452.37,393.29,452.37,393.25z"/>
					</g>
				</g>
				<g>
					<g>
						<path class="st8" d="M451.28,379.42c-0.01-0.01,0.13-0.11,0.42-0.25c0.28-0.15,0.72-0.34,1.3-0.52
							c1.15-0.37,2.95-0.71,5.13-0.29c0.54,0.12,1.11,0.3,1.63,0.65c0.52,0.34,0.96,0.9,1.15,1.56c0.38,1.33-0.06,2.84-1,3.99
							c-0.47,0.57-1.09,1.08-1.85,1.36c-0.74,0.29-1.67,0.29-2.42-0.13c-0.73-0.39-1.39-1.15-1.39-2.1c0-0.94,0.62-1.75,1.42-2.17
							c0.81-0.42,1.73-0.43,2.55-0.27c0.83,0.17,1.59,0.56,2.23,1.06c1.27,1.02,2.06,2.49,2.22,3.97c0.18,1.5-0.36,2.92-1.14,3.96
							c-0.78,1.06-1.77,1.8-2.74,2.32c-1.98,1-3.78,1.18-4.97,1.3c-0.6,0.05-1.07,0.06-1.39,0.07c-0.32,0-0.49-0.01-0.49-0.02
							c0-0.04,0.67-0.09,1.86-0.24c1.18-0.17,2.94-0.42,4.82-1.42c0.92-0.51,1.85-1.25,2.57-2.25c0.72-0.99,1.19-2.29,1.01-3.65
							c-0.16-1.35-0.9-2.71-2.06-3.63c-0.58-0.46-1.27-0.8-2.01-0.95c-0.74-0.15-1.54-0.12-2.21,0.22
							c-0.65,0.34-1.15,1.01-1.14,1.71c-0.01,0.69,0.5,1.33,1.11,1.65c0.62,0.35,1.35,0.35,2,0.11c0.65-0.24,1.21-0.68,1.65-1.2
							c0.87-1.03,1.27-2.42,0.96-3.56c-0.31-1.17-1.45-1.75-2.45-1.97c-2.08-0.46-3.84-0.18-4.99,0.12
							C451.89,379.15,451.3,379.47,451.28,379.42z"/>
					</g>
				</g>
				<g>
					<g>
						<path class="st8" d="M451.32,365.85c0-0.02,0.33-0.14,0.97-0.18c0.64-0.04,1.58,0.01,2.68,0.38c1.08,0.37,2.33,1.07,3.33,2.25
							c1.01,1.16,1.67,2.83,1.73,4.6c0.05,1.78-0.5,3.48-1.45,4.7c-0.93,1.24-2.13,2.01-3.19,2.45c-1.07,0.43-2.01,0.54-2.65,0.54
							c-0.64,0-0.98-0.1-0.98-0.12c-0.01-0.12,1.45,0.15,3.49-0.76c0.99-0.46,2.1-1.22,2.95-2.39c0.86-1.15,1.36-2.74,1.31-4.4
							c-0.06-1.66-0.65-3.21-1.58-4.31c-0.92-1.11-2.07-1.81-3.09-2.21C452.76,365.61,451.31,365.96,451.32,365.85z"/>
					</g>
				</g>
				<g>
					<g>
						<path class="st8" d="M385.09,300.07c0,0,0.35,0.57,0.75,1.77c0.4,1.2,0.83,3.01,1.18,5.37c0.37,2.36,0.68,5.27,0.99,8.65
							c0.32,3.38,0.6,7.23,1.14,11.45c0.14,1.06,0.31,2.13,0.52,3.22c0.22,1.08,0.48,2.2,0.96,3.22c0.51,0.97,1.35,1.87,2.19,2.7
							c0.86,0.83,1.83,1.58,2.89,2.23c2.11,1.3,4.58,2.19,7.2,2.45c2.61,0.27,5.41-0.1,7.88-1.36c2.47-1.22,4.48-3.57,5.09-6.39
							c0.3-1.4,0.24-2.9-0.3-4.25c-0.54-1.35-1.54-2.51-2.77-3.35c-1.24-0.82-2.71-1.34-4.22-1.41c-1.5-0.06-3.05,0.34-4.27,1.26
							c-0.6,0.45-1.13,1.03-1.45,1.71c-0.32,0.68-0.43,1.44-0.28,2.18c0.29,1.49,1.39,2.79,2.77,3.52c1.39,0.75,2.98,1.06,4.56,1.26
							c1.58,0.21,3.17,0.3,4.75,0.33c3.16,0.06,6.27-0.2,9.31-0.53c6.09-0.68,11.96-1.66,17.64-1.72c5.65-0.09,11.13,0.73,15.7,2.97
							c2.27,1.11,4.3,2.58,5.84,4.37c1.57,1.77,2.57,3.89,3.03,6c0.92,4.25-0.07,8.3-1.73,11.25c-1.69,2.99-3.96,4.99-5.93,6.33
							c-1.99,1.34-3.72,2.07-4.9,2.5c-1.19,0.42-1.84,0.55-1.84,0.55s0.15-0.07,0.46-0.17c0.31-0.1,0.76-0.26,1.34-0.48
							c1.16-0.46,2.87-1.21,4.82-2.57c1.93-1.35,4.15-3.35,5.79-6.31c1.61-2.92,2.55-6.89,1.63-11.03c-0.47-2.05-1.44-4.1-2.98-5.81
							c-1.51-1.73-3.5-3.16-5.73-4.24c-4.49-2.18-9.91-2.98-15.51-2.87c-5.63,0.07-11.48,1.06-17.59,1.75
							c-3.06,0.33-6.19,0.59-9.38,0.54c-1.59-0.03-3.2-0.12-4.81-0.33c-1.6-0.2-3.25-0.51-4.74-1.32c-1.48-0.79-2.7-2.19-3.03-3.88
							c-0.17-0.84-0.04-1.74,0.32-2.5c0.37-0.77,0.95-1.4,1.61-1.9c1.32-1,3-1.42,4.6-1.36c1.62,0.07,3.17,0.62,4.48,1.5
							c1.3,0.89,2.37,2.13,2.95,3.58c0.58,1.46,0.64,3.06,0.32,4.54c-0.65,2.99-2.78,5.45-5.36,6.71c-2.58,1.31-5.46,1.68-8.15,1.39
							c-2.7-0.28-5.23-1.2-7.38-2.54c-1.08-0.67-2.07-1.44-2.95-2.29c-0.87-0.87-1.69-1.74-2.26-2.83
							c-0.51-1.09-0.76-2.22-0.98-3.32c-0.21-1.1-0.38-2.19-0.51-3.25c-0.52-4.24-0.77-8.1-1.06-11.47
							c-0.28-3.38-0.56-6.28-0.9-8.64c-0.33-2.36-0.72-4.17-1.08-5.37c-0.18-0.6-0.34-1.05-0.47-1.34
							C385.14,300.23,385.09,300.07,385.09,300.07z"/>
					</g>
				</g>
			</g>
			<g>
				<g>
					<path class="st8" d="M442.75,440.96c0,0-0.01-0.14-0.01-0.42c0-0.28-0.01-0.69-0.01-1.21c-0.01-1.08-0.02-2.65-0.03-4.69
						c-0.01-4.11-0.03-10.1-0.06-17.72c-0.03-15.23-0.07-36.92-0.12-62.88l0.23,0.23c-23.61,0.01-51.25,0.02-80.65,0.03h-0.01
						l0.26-0.26c-0.01,31.95-0.03,61.81-0.04,86.92l-0.22-0.22c24.21,0.05,44.35,0.09,58.45,0.11c7.05,0.02,12.59,0.04,16.39,0.06
						c1.89,0.01,3.33,0.02,4.33,0.03C442.23,440.95,442.75,440.96,442.75,440.96s-0.49,0.02-1.45,0.02
						c-0.98,0.01-2.42,0.01-4.29,0.03c-3.78,0.01-9.3,0.03-16.34,0.06c-14.13,0.03-34.32,0.07-58.59,0.11l-0.22,0l0-0.22
						c-0.01-25.1-0.02-54.96-0.04-86.92l0-0.26h0.26h0.01c29.4,0.01,57.04,0.02,80.65,0.03h0.23l0,0.23
						c-0.05,26.02-0.09,47.77-0.12,63.03c-0.03,7.59-0.05,13.57-0.06,17.67c-0.01,2.02-0.02,3.58-0.03,4.64
						c-0.01,0.51-0.01,0.91-0.01,1.18C442.76,440.83,442.75,440.96,442.75,440.96z"/>
				</g>
			</g>
		</g>
		<g>
			<g>
				<path class="st8" d="M420.03,364.73c0,0.23-0.19,0.41-0.41,0.41c-0.23,0-0.42-0.19-0.42-0.41c0-0.23,0.19-0.41,0.42-0.41
					C419.85,364.32,420.03,364.51,420.03,364.73z"/>
			</g>
			<g>
				<path class="st8" d="M422.31,364.73c0,0.23-0.19,0.41-0.41,0.41c-0.23,0-0.41-0.19-0.41-0.41c0-0.23,0.19-0.41,0.41-0.41
					C422.13,364.32,422.31,364.51,422.31,364.73z"/>
			</g>
			<g>
				<path class="st8" d="M424.59,364.73c0,0.23-0.19,0.41-0.41,0.41c-0.23,0-0.42-0.19-0.42-0.41c0-0.23,0.19-0.41,0.42-0.41
					C424.41,364.32,424.59,364.51,424.59,364.73z"/>
			</g>
			<g>
				<path class="st8" d="M426.87,364.73c0,0.23-0.19,0.41-0.42,0.41c-0.23,0-0.41-0.19-0.41-0.41c0-0.23,0.19-0.41,0.41-0.41
					C426.68,364.32,426.87,364.51,426.87,364.73z"/>
			</g>
			<g>
				<path class="st8" d="M429.15,364.73c0,0.23-0.19,0.41-0.41,0.41c-0.23,0-0.42-0.19-0.42-0.41c0-0.23,0.19-0.41,0.42-0.41
					C428.96,364.32,429.15,364.51,429.15,364.73z"/>
			</g>
			<g>
				<path class="st8" d="M431.43,364.73c0,0.23-0.19,0.41-0.42,0.41c-0.23,0-0.41-0.19-0.41-0.41c0-0.23,0.19-0.41,0.41-0.41
					C431.24,364.32,431.43,364.51,431.43,364.73z"/>
			</g>
			<g>
				<path class="st8" d="M433.71,364.73c0,0.23-0.19,0.41-0.41,0.41c-0.23,0-0.42-0.19-0.42-0.41c0-0.23,0.19-0.41,0.42-0.41
					C433.52,364.32,433.71,364.51,433.71,364.73z"/>
			</g>
			<g>
				<circle class="st8" cx="432.24" cy="366.27" r="0.41"/>
			</g>
			<g>
				<circle class="st8" cx="429.91" cy="366.27" r="0.41"/>
			</g>
			<g>
				<path class="st8" d="M427.99,366.27c0,0.23-0.19,0.41-0.41,0.41c-0.23,0-0.41-0.19-0.41-0.41c0-0.23,0.19-0.41,0.41-0.41
					C427.81,365.85,427.99,366.04,427.99,366.27z"/>
			</g>
			<g>
				<circle class="st8" cx="425.25" cy="366.27" r="0.41"/>
			</g>
			<g>
				<circle class="st8" cx="422.91" cy="366.27" r="0.41"/>
			</g>
			<g>
				<path class="st8" d="M421,366.27c0,0.23-0.19,0.41-0.41,0.41c-0.23,0-0.41-0.19-0.41-0.41c0-0.23,0.19-0.41,0.41-0.41
					C420.81,365.85,421,366.04,421,366.27z"/>
			</g>
			<g>
				<path class="st8" d="M420.03,368c0,0.23-0.19,0.41-0.41,0.41c-0.23,0-0.42-0.19-0.42-0.41c0-0.23,0.19-0.42,0.42-0.42
					C419.85,367.58,420.03,367.77,420.03,368z"/>
			</g>
			<g>
				<path class="st8" d="M422.31,368c0,0.23-0.19,0.41-0.41,0.41c-0.23,0-0.41-0.19-0.41-0.41c0-0.23,0.19-0.42,0.41-0.42
					C422.13,367.58,422.31,367.77,422.31,368z"/>
			</g>
			<g>
				<path class="st8" d="M424.59,368c0,0.23-0.19,0.41-0.41,0.41c-0.23,0-0.42-0.19-0.42-0.41c0-0.23,0.19-0.42,0.42-0.42
					C424.41,367.58,424.59,367.77,424.59,368z"/>
			</g>
			<g>
				<path class="st8" d="M426.87,368c0,0.23-0.19,0.41-0.42,0.41c-0.23,0-0.41-0.19-0.41-0.41c0-0.23,0.19-0.42,0.41-0.42
					C426.68,367.58,426.87,367.77,426.87,368z"/>
			</g>
			<g>
				<path class="st8" d="M429.15,368c0,0.23-0.19,0.41-0.41,0.41c-0.23,0-0.42-0.19-0.42-0.41c0-0.23,0.19-0.42,0.42-0.42
					C428.96,367.58,429.15,367.77,429.15,368z"/>
			</g>
			<g>
				<path class="st8" d="M431.43,368c0,0.23-0.19,0.41-0.42,0.41c-0.23,0-0.41-0.19-0.41-0.41c0-0.23,0.19-0.42,0.41-0.42
					C431.24,367.58,431.43,367.77,431.43,368z"/>
			</g>
			<g>
				<path class="st8" d="M433.71,368c0,0.23-0.19,0.41-0.41,0.41c-0.23,0-0.42-0.19-0.42-0.41c0-0.23,0.19-0.42,0.42-0.42
					C433.52,367.58,433.71,367.77,433.71,368z"/>
			</g>
			<g>
				<path class="st8" d="M432.66,369.53c0,0.23-0.19,0.42-0.41,0.42c-0.23,0-0.41-0.19-0.41-0.42c0-0.23,0.19-0.41,0.41-0.41
					C432.47,369.12,432.66,369.3,432.66,369.53z"/>
			</g>
			<g>
				<path class="st8" d="M430.32,369.53c0,0.23-0.19,0.42-0.41,0.42c-0.23,0-0.41-0.19-0.41-0.42c0-0.23,0.19-0.41,0.41-0.41
					C430.14,369.12,430.32,369.3,430.32,369.53z"/>
			</g>
			<g>
				<path class="st8" d="M427.99,369.53c0,0.23-0.19,0.42-0.41,0.42c-0.23,0-0.41-0.19-0.41-0.42c0-0.23,0.19-0.41,0.41-0.41
					C427.81,369.12,427.99,369.3,427.99,369.53z"/>
			</g>
			<g>
				<path class="st8" d="M425.66,369.53c0,0.23-0.19,0.42-0.41,0.42c-0.23,0-0.41-0.19-0.41-0.42c0-0.23,0.19-0.41,0.41-0.41
					C425.48,369.12,425.66,369.3,425.66,369.53z"/>
			</g>
			<g>
				<path class="st8" d="M423.33,369.53c0,0.23-0.19,0.42-0.41,0.42c-0.23,0-0.41-0.19-0.41-0.42c0-0.23,0.19-0.41,0.41-0.41
					C423.14,369.12,423.33,369.3,423.33,369.53z"/>
			</g>
			<g>
				<path class="st8" d="M421,369.53c0,0.23-0.19,0.42-0.41,0.42c-0.23,0-0.41-0.19-0.41-0.42c0-0.23,0.19-0.41,0.41-0.41
					C420.81,369.12,421,369.3,421,369.53z"/>
			</g>
			<g>
				<path class="st8" d="M420.03,371.26c0,0.23-0.19,0.42-0.41,0.42c-0.23,0-0.42-0.19-0.42-0.42c0-0.23,0.19-0.41,0.42-0.41
					C419.85,370.85,420.03,371.03,420.03,371.26z"/>
			</g>
			<g>
				<path class="st8" d="M422.31,371.26c0,0.23-0.19,0.42-0.41,0.42c-0.23,0-0.41-0.19-0.41-0.42c0-0.23,0.19-0.41,0.41-0.41
					C422.13,370.85,422.31,371.03,422.31,371.26z"/>
			</g>
			<g>
				<path class="st8" d="M424.59,371.26c0,0.23-0.19,0.42-0.41,0.42c-0.23,0-0.42-0.19-0.42-0.42c0-0.23,0.19-0.41,0.42-0.41
					C424.41,370.85,424.59,371.03,424.59,371.26z"/>
			</g>
			<g>
				<path class="st8" d="M426.87,371.26c0,0.23-0.19,0.42-0.42,0.42c-0.23,0-0.41-0.19-0.41-0.42c0-0.23,0.19-0.41,0.41-0.41
					C426.68,370.85,426.87,371.03,426.87,371.26z"/>
			</g>
			<g>
				<path class="st8" d="M429.15,371.26c0,0.23-0.19,0.42-0.41,0.42c-0.23,0-0.42-0.19-0.42-0.42c0-0.23,0.19-0.41,0.42-0.41
					C428.96,370.85,429.15,371.03,429.15,371.26z"/>
			</g>
			<g>
				<path class="st8" d="M431.43,371.26c0,0.23-0.19,0.42-0.42,0.42c-0.23,0-0.41-0.19-0.41-0.42c0-0.23,0.19-0.41,0.41-0.41
					C431.24,370.85,431.43,371.03,431.43,371.26z"/>
			</g>
			<g>
				<path class="st8" d="M433.71,371.26c0,0.23-0.19,0.42-0.41,0.42c-0.23,0-0.42-0.19-0.42-0.42c0-0.23,0.19-0.41,0.42-0.41
					C433.52,370.85,433.71,371.03,433.71,371.26z"/>
			</g>
			<g>
				<circle class="st8" cx="432.24" cy="372.8" r="0.41"/>
			</g>
			<g>
				<circle class="st8" cx="429.91" cy="372.8" r="0.41"/>
			</g>
			<g>
				<path class="st8" d="M427.99,372.8c0,0.23-0.19,0.41-0.41,0.41c-0.23,0-0.41-0.19-0.41-0.41s0.19-0.41,0.41-0.41
					C427.81,372.38,427.99,372.57,427.99,372.8z"/>
			</g>
			<g>
				<circle class="st8" cx="425.25" cy="372.8" r="0.41"/>
			</g>
			<g>
				<circle class="st8" cx="422.91" cy="372.8" r="0.41"/>
			</g>
			<g>
				<path class="st8" d="M421,372.8c0,0.23-0.19,0.41-0.41,0.41c-0.23,0-0.41-0.19-0.41-0.41s0.19-0.41,0.41-0.41
					C420.81,372.38,421,372.57,421,372.8z"/>
			</g>
		</g>
	</g>
	<g>
		<g>
			<g>
				<path class="st1" d="M388.5,271.29c0,0,0.58-0.04,1.62,0.28c1.03,0.31,2.53,1.05,3.94,2.58c1.43,1.51,2.62,3.81,3.48,6.6
					c0.86,2.79,1.66,6.03,2.19,9.66c1.11,7.27,1.27,16.06,0.64,25.75c-0.24,2.41-0.76,4.98-2.24,7.14
					c-0.73,1.07-1.67,2.04-2.82,2.73c-1.14,0.69-2.53,1.08-3.9,0.93c-1.36-0.14-2.71-0.71-3.71-1.72c-0.49-0.51-0.88-1.13-1.09-1.82
					c-0.22-0.7-0.22-1.45-0.03-2.15c0.38-1.39,1.38-2.63,2.79-3.14c0.7-0.25,1.5-0.25,2.21,0.01c0.71,0.26,1.31,0.75,1.76,1.33
					c0.92,1.18,1.19,2.74,0.97,4.15c-0.2,1.42-0.77,2.73-1.44,3.93c-1.37,2.41-3.37,4.4-5.7,5.74c-4.67,2.74-10.5,2.58-14.81,0.21
					c-2.17-1.17-3.97-2.83-5.4-4.65c-1.43-1.83-2.5-3.84-3.28-5.87c-1.55-4.08-2-8.15-2.19-11.8c-0.2-3.67,0.01-7-0.36-9.87
					c-0.18-1.43-0.48-2.76-0.93-3.91c-0.44-1.15-1.04-2.12-1.67-2.92c-1.27-1.6-2.71-2.4-3.71-2.75c-1.02-0.35-1.6-0.34-1.59-0.38
					c0,0,0.58-0.04,1.62,0.28c1.03,0.31,2.51,1.11,3.83,2.72c0.65,0.8,1.28,1.78,1.75,2.96c0.47,1.17,0.79,2.51,0.99,3.96
					c0.4,2.91,0.21,6.24,0.44,9.89c0.21,3.64,0.68,7.67,2.23,11.67c0.77,1.99,1.83,3.96,3.24,5.74c1.4,1.78,3.16,3.39,5.27,4.51
					c4.17,2.28,9.83,2.42,14.32-0.23c2.24-1.3,4.18-3.23,5.5-5.56c0.65-1.17,1.19-2.43,1.38-3.75c0.2-1.31-0.05-2.71-0.87-3.76
					c-0.4-0.52-0.93-0.94-1.53-1.16c-0.6-0.21-1.26-0.22-1.86,0c-1.21,0.43-2.14,1.56-2.46,2.79c-0.36,1.24,0.1,2.57,0.99,3.48
					c0.89,0.91,2.13,1.45,3.39,1.57c1.26,0.14,2.52-0.21,3.59-0.85c1.08-0.64,1.97-1.55,2.66-2.57c1.41-2.06,1.93-4.54,2.17-6.91
					c0.66-9.64,0.54-18.41-0.52-25.65c-0.51-3.62-1.28-6.85-2.11-9.63c-0.83-2.77-1.98-5.05-3.36-6.55
					c-1.37-1.52-2.82-2.27-3.82-2.61C389.07,271.33,388.49,271.33,388.5,271.29z"/>
			</g>
		</g>
		<g>
			<rect x="347.43" y="285.76" class="st1" width="33.22" height="6.33"/>
		</g>
	</g>
	<g>
		<g>
			<g>
				<rect x="97.52" y="351.2" class="st8" width="43.33" height="93.27"/>
			</g>
			<g>
				<g>
					<path class="st10" d="M137.13,434.65c0,0-0.01-0.14-0.02-0.4c0-0.28-0.01-0.66-0.02-1.16c-0.01-1.03-0.02-2.53-0.03-4.46
						c-0.02-3.9-0.04-9.56-0.07-16.66c-0.03-14.22-0.07-34.24-0.12-57.53l0.25,0.25c-11.25,0-23.51,0.01-36.25,0.01h-0.01l0.26-0.26
						c-0.03,31.16-0.05,59.46-0.07,80.22l-0.19-0.19c11.16,0.04,20.2,0.08,26.47,0.1c3.13,0.02,5.56,0.04,7.23,0.05
						c0.82,0.01,1.45,0.02,1.89,0.02C136.9,434.63,137.13,434.65,137.13,434.65s-0.2,0.01-0.62,0.02c-0.44,0-1.06,0.01-1.86,0.02
						c-1.66,0.01-4.08,0.03-7.19,0.05c-6.3,0.02-15.37,0.06-26.58,0.1l-0.19,0l0-0.19c-0.02-20.76-0.04-49.06-0.07-80.22l0-0.26
						h0.26h0.01c12.74,0,25,0.01,36.25,0.01h0.25l0,0.25c-0.05,23.36-0.09,43.44-0.12,57.7c-0.03,7.08-0.05,12.72-0.07,16.61
						c-0.01,1.91-0.02,3.39-0.03,4.41c-0.01,0.48-0.01,0.86-0.02,1.13C137.14,434.53,137.13,434.65,137.13,434.65z"/>
				</g>
			</g>
			<g>
				<g>
					<path class="st10" d="M134.89,361.22c-0.01-0.01-0.03-0.35-0.05-0.97c-0.02-0.67-0.04-1.56-0.06-2.7l0.11,0.11
						c-5.61,0.09-17.63,0.15-31.52,0.15h0c0.12-0.12-0.26,0.26,0.26-0.26v0v0v0.01v0.01v0.03v0.06v0.12v0.24l0,0.47
						c0,0.31,0,0.62,0,0.93c0,0.62,0,1.22,0,1.81l-0.26-0.26c8.82,0.01,16.65,0.06,22.32,0.11c2.8,0.03,5.07,0.06,6.71,0.08
						c0.76,0.01,1.36,0.03,1.83,0.04C134.65,361.19,134.88,361.2,134.89,361.22c0.01,0.01-0.19,0.02-0.59,0.04
						c-0.45,0.01-1.04,0.02-1.77,0.04c-1.62,0.02-3.87,0.04-6.65,0.08c-5.66,0.05-13.58,0.11-22.51,0.11l-0.26,0l0-0.26
						c0-0.59,0-1.19,0-1.81c0-0.31,0-0.62,0-0.93l0-0.47v-0.24v-0.12v-0.06v-0.03v-0.01v-0.01v0v0c0.52-0.52,0.14-0.14,0.26-0.26h0
						c13.9,0,25.92,0.06,31.52,0.15l0.12,0l0,0.11c-0.03,1.17-0.05,2.09-0.06,2.77C134.92,360.92,134.9,361.23,134.89,361.22z"/>
				</g>
			</g>
			<g>
				<g>
					<path class="st10" d="M106.54,363.86c0,0.14-0.65,0.26-1.45,0.26c-0.8,0-1.45-0.12-1.45-0.26s0.65-0.26,1.45-0.26
						C105.89,363.6,106.54,363.71,106.54,363.86z"/>
				</g>
			</g>
			<g>
				<g>
					<path class="st10" d="M134.05,368.67c0,0.14-6.71,0.26-14.99,0.26c-8.28,0-14.99-0.12-14.99-0.26s6.71-0.26,14.99-0.26
						C127.34,368.41,134.05,368.53,134.05,368.67z"/>
				</g>
			</g>
			<g>
				<g>
					<path class="st10" d="M134.18,374.48c0,0.14-6.59,0.26-14.73,0.26c-8.14,0-14.73-0.12-14.73-0.26c0-0.14,6.59-0.26,14.73-0.26
						C127.58,374.22,134.18,374.34,134.18,374.48z"/>
				</g>
			</g>
			<g>
				<circle class="st9" cx="119.06" cy="388.07" r="2.38"/>
			</g>
			<g>
				<g>
					<path class="st10" d="M112.34,387.96c0,0.14-1.43,0.26-3.19,0.26c-1.76,0-3.19-0.12-3.19-0.26c0-0.14,1.43-0.26,3.19-0.26
						C110.91,387.7,112.34,387.81,112.34,387.96z"/>
				</g>
			</g>
			<g>
				<g>
					<path class="st10" d="M131.7,387.34c0,0.14-1.36,0.26-3.03,0.26c-1.68,0-3.03-0.12-3.03-0.26c0-0.14,1.36-0.26,3.03-0.26
						C130.34,387.08,131.7,387.2,131.7,387.34z"/>
				</g>
			</g>
		</g>
		<g>
			<g>
				<path class="st8" d="M99.01,398.01c0,0-0.57-0.03-1.62-0.3c-1.04-0.28-2.58-0.83-4.29-1.99c-1.71-1.14-3.59-2.92-5.17-5.39
					c-1.59-2.47-2.87-5.6-3.77-9.16c-0.91-3.56-1.51-7.61-1.2-11.95c0.29-4.31,1.62-8.97,4.55-12.93c1.44-1.98,3.27-3.77,5.43-5.16
					c1.09-0.69,2.25-1.28,3.49-1.73c1.24-0.44,2.54-0.74,3.86-0.92c2.64-0.37,5.35-0.32,8.05-0.48c2.69-0.15,5.45-0.58,7.91-1.82
					c2.46-1.2,4.39-3.41,4.91-6.04c0.6-2.59-0.08-5.38-1.78-7.31c-1.66-1.94-4.19-3.13-6.64-2.99c-1.22,0.09-2.42,0.49-3.34,1.24
					c-0.92,0.73-1.48,1.88-1.4,3.02c0.16,2.3,2.27,4.22,4.46,4.31c2.23,0.15,4.32-1.04,5.72-2.57c1.41-1.58,2.22-3.53,2.77-5.43
					c0.54-1.91,0.87-3.81,1.15-5.61c1.02-7.25,0.67-13.22,0.53-17.31c-0.1-2.03-0.18-3.61-0.24-4.72c-0.02-0.52-0.04-0.93-0.06-1.23
					c-0.01-0.28-0.01-0.42,0-0.42c0.01,0,0.03,0.14,0.05,0.42c0.03,0.3,0.06,0.71,0.11,1.22c0.09,1.08,0.21,2.66,0.34,4.71
					c0.21,4.09,0.61,10.06-0.37,17.37c-0.27,1.82-0.59,3.72-1.13,5.67c-0.55,1.93-1.36,3.94-2.83,5.61
					c-1.46,1.61-3.65,2.89-6.07,2.74c-2.41-0.11-4.7-2.14-4.91-4.74c-0.1-1.3,0.54-2.61,1.57-3.42c1.02-0.83,2.31-1.26,3.61-1.36
					c2.65-0.16,5.29,1.1,7.06,3.15c1.81,2.04,2.53,5.03,1.9,7.76c-0.3,1.37-0.91,2.69-1.84,3.78c-0.9,1.1-2.08,1.97-3.35,2.61
					c-2.56,1.29-5.39,1.72-8.12,1.88c-2.73,0.16-5.42,0.11-8.01,0.46c-1.3,0.17-2.56,0.46-3.76,0.89c-1.2,0.44-2.33,1.01-3.39,1.68
					c-2.11,1.35-3.9,3.09-5.31,5.03c-2.88,3.87-4.2,8.43-4.51,12.68c-0.32,4.28,0.24,8.29,1.12,11.83c0.87,3.55,2.11,6.65,3.66,9.1
					c1.54,2.46,3.37,4.23,5.04,5.38c1.68,1.17,3.18,1.74,4.2,2.05c0.52,0.15,0.92,0.25,1.19,0.3
					C98.87,397.96,99.01,398,99.01,398.01z"/>
			</g>
		</g>
	</g>
	<g>
		<g>
			<rect x="84.25" y="206.51" class="st8" width="102.6" height="70.46"/>
		</g>
		<g>
			<rect x="127.62" y="267.36" class="st8" width="13.97" height="26.58"/>
		</g>
	</g>
</g>
<g id="Desk">
	<g>
		<g>
			<polygon class="st8" points="94.46,292.92 94.46,302.48 147.4,302.48 147.4,444.94 152.27,444.94 152.27,302.48 373.36,303.57 
				373.36,444.94 378.14,444.94 378.14,303.31 412.26,303.58 412.26,292.09 			"/>
		</g>
		<g>
			<polygon class="st8" points="128.34,300.62 149.21,315.65 147.4,317.39 126.35,301.54 			"/>
		</g>
		<g>
			<polygon class="st8" points="397.81,302.02 373.59,319.27 375.41,321.01 399.8,302.94 			"/>
		</g>
		<g>
			<rect x="171.44" y="289.39" class="st8" width="54.72" height="4.03"/>
		</g>
	</g>
</g>
</svg>
