<?xml version="1.0" encoding="utf-8"?>
<!-- Generator: Adobe Illustrator 25.1.0, SVG Export Plug-In . SVG Version: 6.00 Build 0)  -->
<svg version="1.1" xmlns="http://www.w3.org/2000/svg" xmlns:xlink="http://www.w3.org/1999/xlink" x="0px" y="0px"
	 viewBox="0 0 750 500" style="enable-background:new 0 0 750 500;" xml:space="preserve">
<style type="text/css">
	.st0{fill:#FFFFFF;}
	.st1{fill:#E0E0E0;}
	.st2{opacity:0.3;}
	.st3{fill:#EBEBEB;}
	.st4{fill:#F5F5F5;}
	.st5{display:none;}
	.st6{display:inline;fill:#EBEBEB;}
	.st7{fill:#455A64;}
	.st8{fill:#263238;}
	.st9{fill:#FF725E;}
	.st10{fill:#FAFAFA;}
	.st11{fill:#FFBE9D;}
	.st12{fill:#EB996E;}
</style>
<g id="Background_Complete">
	<g>
		<g>
			<g>
				<g>
					<rect x="24.1" y="79.59" class="st0" width="152.3" height="101.97"/>
				</g>
			</g>
			<g>
				<g>
					<g>
						<path class="st1" d="M176.39,181.57c0,0-0.02-0.64-0.02-1.85c-0.01-1.23-0.01-3.03-0.02-5.38
							c-0.01-4.72-0.03-11.64-0.06-20.51c-0.03-17.72-0.07-43.18-0.11-74.23l0.22,0.22c-41.97,0.02-94.91,0.03-152.28,0.05H24.1
							l0.27-0.27c-0.01,36.33-0.02,70.87-0.02,101.97l-0.25-0.25c44.83,0.05,82.87,0.09,109.72,0.12
							c13.43,0.03,24.06,0.05,31.35,0.07c3.64,0.01,6.44,0.02,8.34,0.03c0.94,0.01,1.66,0.01,2.15,0.01
							C176.14,181.56,176.39,181.57,176.39,181.57s-0.23,0.01-0.71,0.01c-0.49,0-1.2,0.01-2.12,0.01c-1.89,0.01-4.67,0.02-8.29,0.03
							c-7.27,0.02-17.88,0.04-31.29,0.07c-26.89,0.03-64.98,0.07-109.88,0.12l-0.25,0v-0.25c-0.01-31.1-0.01-65.64-0.02-101.97
							l0-0.27h0.27h0.01c57.38,0.02,110.32,0.04,152.28,0.05l0.22,0l0,0.22c-0.05,31.1-0.09,56.62-0.11,74.36
							c-0.02,8.84-0.04,15.75-0.06,20.46c-0.01,2.34-0.02,4.12-0.02,5.34C176.41,180.96,176.39,181.57,176.39,181.57z"/>
					</g>
				</g>
			</g>
		</g>
		<g>
			<g>
				<g>
					<path class="st1" d="M24.1,88.69c0-0.15,34.07-0.27,76.08-0.27c42.03,0,76.09,0.12,76.09,0.27c0,0.15-34.06,0.27-76.09,0.27
						C58.16,88.97,24.1,88.85,24.1,88.69z"/>
				</g>
			</g>
		</g>
		<g>
			<g class="st2">
				<g>
					<path class="st1" d="M30.1,84.1c0,0.67-0.55,1.22-1.22,1.22c-0.67,0-1.22-0.55-1.22-1.22c0-0.67,0.55-1.22,1.22-1.22
						C29.56,82.88,30.1,83.43,30.1,84.1z"/>
				</g>
			</g>
			<g class="st2">
				<g>
					<path class="st1" d="M34.29,84.1c0,0.67-0.55,1.22-1.22,1.22s-1.22-0.55-1.22-1.22c0-0.67,0.55-1.22,1.22-1.22
						S34.29,83.43,34.29,84.1z"/>
				</g>
			</g>
			<g class="st2">
				<g>
					<path class="st1" d="M38.41,84.1c0,0.67-0.55,1.22-1.22,1.22c-0.67,0-1.22-0.55-1.22-1.22c0-0.67,0.55-1.22,1.22-1.22
						C37.86,82.88,38.41,83.43,38.41,84.1z"/>
				</g>
			</g>
		</g>
		<g>
			<g>
				<rect x="37.19" y="99.33" class="st1" width="40.62" height="40.62"/>
			</g>
		</g>
		<g>
			<g>
				<g>
					<path class="st1" d="M155.51,110.81c0,0.15-15.84,0.27-35.38,0.27c-19.55,0-35.39-0.12-35.39-0.27
						c0-0.15,15.84-0.27,35.39-0.27C139.66,110.54,155.51,110.66,155.51,110.81z"/>
				</g>
			</g>
		</g>
		<g>
			<g>
				<g>
					<path class="st1" d="M155.51,118.36c0,0.15-15.84,0.27-35.38,0.27c-19.55,0-35.39-0.12-35.39-0.27
						c0-0.15,15.84-0.27,35.39-0.27C139.66,118.09,155.51,118.21,155.51,118.36z"/>
				</g>
			</g>
		</g>
		<g>
			<g>
				<g>
					<path class="st1" d="M155.51,125.91c0,0.15-15.84,0.27-35.38,0.27c-19.55,0-35.39-0.12-35.39-0.27
						c0-0.15,15.84-0.27,35.39-0.27C139.66,125.64,155.51,125.76,155.51,125.91z"/>
				</g>
			</g>
		</g>
		<g>
			<g>
				<g>
					<path class="st1" d="M126.56,133.46c0,0.04-0.59,0.07-1.64,0.11c-1.16,0.02-2.66,0.05-4.48,0.09
						c-3.78,0.05-9.01,0.08-14.79,0.08c-5.78,0-11.01-0.03-14.79-0.08c-1.82-0.04-3.33-0.06-4.48-0.09
						c-1.06-0.03-1.64-0.07-1.64-0.11c0-0.04,0.59-0.07,1.64-0.11c1.16-0.02,2.66-0.05,4.48-0.09c3.78-0.05,9.01-0.08,14.79-0.08
						c5.77,0,11,0.03,14.79,0.08c1.82,0.04,3.33,0.06,4.48,0.09C125.98,133.39,126.56,133.42,126.56,133.46z"/>
				</g>
			</g>
		</g>
		<g>
			<g>
				<rect x="39.73" y="153.65" class="st1" width="19.09" height="19.09"/>
			</g>
		</g>
		<g>
			<g>
				<rect x="74.35" y="153.65" class="st1" width="19.09" height="19.09"/>
			</g>
		</g>
		<g>
			<g>
				<rect x="108.98" y="153.65" class="st1" width="19.09" height="19.09"/>
			</g>
		</g>
		<g>
			<g>
				<rect x="143.6" y="153.65" class="st1" width="19.09" height="19.09"/>
			</g>
		</g>
	</g>
	<g>
		<g>
			<g>
				<g>
					<rect x="198.87" y="30.04" class="st0" width="131.19" height="53.29"/>
				</g>
			</g>
			<g>
				<g>
					<g>
						<path class="st1" d="M330.06,83.33c0,0-0.01-0.33-0.02-0.95c0-0.63-0.01-1.56-0.02-2.76c-0.01-2.43-0.02-6-0.04-10.6
							c-0.02-9.2-0.05-22.5-0.08-38.97l0.15,0.15c-33.37,0.02-79.83,0.04-131.18,0.06h-0.01l0.21-0.21
							c0,18.66-0.01,36.67-0.01,53.29l-0.2-0.2c38.01,0.04,70.78,0.07,94.06,0.09c11.65,0.02,20.92,0.04,27.29,0.06
							c3.18,0.01,5.63,0.02,7.3,0.03c0.83,0.01,1.46,0.01,1.89,0.01C329.83,83.32,330.06,83.33,330.06,83.33s-0.21,0.01-0.62,0.01
							c-0.43,0-1.05,0.01-1.87,0.01c-1.66,0.01-4.1,0.01-7.26,0.03c-6.36,0.01-15.61,0.03-27.24,0.06
							c-23.31,0.02-56.13,0.06-94.19,0.09l-0.2,0v-0.2c0-16.61-0.01-34.63-0.01-53.29v-0.21h0.21h0.01
							c51.35,0.02,97.81,0.05,131.18,0.06l0.15,0l0,0.15c-0.03,16.5-0.06,29.84-0.08,39.05c-0.02,4.59-0.03,8.15-0.04,10.57
							c-0.01,1.2-0.01,2.11-0.02,2.74C330.07,83.02,330.06,83.33,330.06,83.33z"/>
					</g>
				</g>
			</g>
		</g>
		<g>
			<g>
				<g>
					<path class="st1" d="M199,37.23c0-0.11,29.32-0.21,65.49-0.21c36.18,0,65.49,0.09,65.49,0.21c0,0.11-29.32,0.21-65.49,0.21
						C228.32,37.44,199,37.34,199,37.23z"/>
				</g>
			</g>
		</g>
		<g>
			<g class="st2">
				<g>
					<path class="st3" d="M204.49,34.01c0,0.53-0.43,0.95-0.95,0.95c-0.53,0-0.95-0.43-0.95-0.95c0-0.53,0.43-0.95,0.95-0.95
						C204.06,33.06,204.49,33.49,204.49,34.01z"/>
				</g>
			</g>
			<g class="st2">
				<g>
					<path class="st3" d="M207.75,34.01c0,0.53-0.43,0.95-0.95,0.95c-0.53,0-0.95-0.43-0.95-0.95c0-0.53,0.43-0.95,0.95-0.95
						C207.33,33.06,207.75,33.49,207.75,34.01z"/>
				</g>
			</g>
			<g class="st2">
				<g>
					<circle class="st3" cx="210.02" cy="34.01" r="0.95"/>
				</g>
			</g>
		</g>
		<g>
			<g>
				<rect x="210.02" y="45.89" class="st1" width="31.69" height="31.69"/>
			</g>
		</g>
		<g>
			<g>
				<g>
					<g>
						<path class="st1" d="M320.98,54.38c0,0.11-16.31,0.21-36.42,0.21c-20.12,0-36.42-0.09-36.42-0.21s16.3-0.21,36.42-0.21
							C304.67,54.17,320.98,54.27,320.98,54.38z"/>
					</g>
				</g>
			</g>
			<g>
				<g>
					<g>
						<path class="st1" d="M320.98,60.84c0,0.11-16.31,0.21-36.42,0.21c-20.12,0-36.42-0.09-36.42-0.21c0-0.11,16.3-0.21,36.42-0.21
							C304.67,60.63,320.98,60.72,320.98,60.84z"/>
					</g>
				</g>
			</g>
			<g>
				<g>
					<g>
						<path class="st1" d="M295.03,67.29c0,0.01-0.16,0.03-0.48,0.04c-0.36,0.01-0.81,0.02-1.37,0.04
							c-1.24,0.02-2.94,0.04-5.02,0.07c-4.29,0.02-10.13,0.04-16.58,0.06c-6.45-0.02-12.29-0.04-16.58-0.06
							c-2.08-0.03-3.78-0.05-5.02-0.07c-0.56-0.02-1.01-0.03-1.37-0.04c-0.31-0.01-0.48-0.03-0.48-0.04c0-0.01,0.16-0.03,0.48-0.04
							c0.36-0.01,0.81-0.02,1.37-0.04c1.24-0.02,2.94-0.04,5.02-0.07c4.29-0.02,10.13-0.04,16.58-0.06
							c6.45,0.02,12.28,0.04,16.58,0.06c2.08,0.03,3.78,0.05,5.02,0.07c0.56,0.02,1.01,0.03,1.37,0.04
							C294.87,67.26,295.03,67.28,295.03,67.29z"/>
					</g>
				</g>
			</g>
		</g>
	</g>
	<g>
		<g>
			<g>
				<g>
					<path class="st1" d="M684.02,101.16c-0.02-0.03,0.24-0.32,0.74-0.84c0.58-0.59,1.3-1.31,2.16-2.17
						c1.84-1.81,4.39-4.29,7.24-7.01l0.06-0.06l0,0.37c-2.87-2.67-5.45-5.1-7.29-6.87c-0.86-0.84-1.58-1.55-2.17-2.12
						c-0.5-0.51-0.77-0.8-0.75-0.83c0.02-0.03,0.34,0.22,0.88,0.69c0.62,0.54,1.38,1.21,2.28,2.01c1.91,1.71,4.52,4.1,7.39,6.76
						l0.2,0.18l-0.19,0.18l-0.06,0.06c-2.85,2.72-5.45,5.16-7.34,6.9c-0.89,0.81-1.65,1.5-2.27,2.05
						C684.35,100.93,684.04,101.18,684.02,101.16z"/>
				</g>
			</g>
		</g>
		<g>
			<g>
				<g>
					<path class="st1" d="M661.87,81.62c0.02,0.03-0.24,0.32-0.74,0.84c-0.58,0.59-1.3,1.31-2.16,2.17
						c-1.84,1.81-4.4,4.29-7.24,7.01l-0.06,0.06l0-0.37c2.87,2.67,5.45,5.1,7.29,6.87c0.86,0.84,1.58,1.55,2.17,2.12
						c0.5,0.51,0.77,0.8,0.75,0.83c-0.02,0.03-0.34-0.22-0.88-0.68c-0.62-0.54-1.38-1.21-2.28-2.01c-1.91-1.71-4.52-4.1-7.39-6.76
						l-0.2-0.18l0.19-0.18l0.06-0.06c2.85-2.72,5.45-5.16,7.34-6.9c0.89-0.81,1.65-1.5,2.27-2.05
						C661.54,81.84,661.85,81.59,661.87,81.62z"/>
				</g>
			</g>
		</g>
		<g>
			<g>
				<g>
					<path class="st1" d="M667.56,105.76c-0.13-0.05,2.2-6.58,5.19-14.6c3-8.01,5.53-14.47,5.66-14.42c0.13,0.05-2.2,6.58-5.19,14.6
						C670.22,99.35,667.68,105.81,667.56,105.76z"/>
				</g>
			</g>
		</g>
		<g>
			<g>
				<g>
					<path class="st1" d="M709.19,119.74c0,0-0.02-0.38-0.02-1.09c-0.01-0.73-0.01-1.78-0.02-3.14c-0.01-2.76-0.03-6.78-0.05-11.91
						c-0.03-10.25-0.06-24.9-0.11-42.56l0.21,0.21c-20.61,0.01-45.39,0.03-72.04,0.04h-0.01l0.25-0.25
						c-0.01,21.22-0.02,41.26-0.03,58.71l-0.22-0.22c21.39,0.05,39.37,0.09,52.03,0.11c6.33,0.03,11.32,0.05,14.75,0.06
						c1.7,0.01,3.01,0.02,3.91,0.03c0.44,0.01,0.77,0.01,1.01,0.01C709.07,119.74,709.19,119.74,709.19,119.74s-0.11,0.01-0.33,0.01
						c-0.24,0-0.56,0.01-0.99,0.01c-0.89,0.01-2.19,0.02-3.87,0.03c-3.42,0.01-8.39,0.03-14.7,0.06
						c-12.69,0.03-30.72,0.07-52.17,0.11l-0.22,0l0-0.22c-0.01-17.44-0.02-37.48-0.03-58.71v-0.25h0.25h0.01
						c26.65,0.02,51.43,0.03,72.04,0.04l0.21,0l0,0.21c-0.04,17.72-0.08,32.41-0.11,42.69c-0.02,5.1-0.04,9.11-0.05,11.86
						c-0.01,1.35-0.02,2.39-0.02,3.1C709.21,119.39,709.19,119.74,709.19,119.74z"/>
				</g>
			</g>
		</g>
		<g>
			<g>
				<g>
					<path class="st1" d="M709.76,69.75c0,0.14-16.26,0.25-36.32,0.25c-20.06,0-36.32-0.11-36.32-0.25c0-0.14,16.26-0.25,36.32-0.25
						C693.49,69.5,709.76,69.61,709.76,69.75z"/>
				</g>
			</g>
		</g>
		<g>
			<g>
				<g>
					<path class="st1" d="M643.02,65.46c0,0.54-0.43,0.97-0.97,0.97c-0.54,0-0.97-0.44-0.97-0.97c0-0.54,0.43-0.97,0.97-0.97
						C642.59,64.49,643.02,64.93,643.02,65.46z"/>
				</g>
			</g>
			<g>
				<g>
					<path class="st1" d="M646.56,65.46c0,0.54-0.43,0.97-0.97,0.97c-0.54,0-0.97-0.44-0.97-0.97c0-0.54,0.43-0.97,0.97-0.97
						C646.12,64.49,646.56,64.93,646.56,65.46z"/>
				</g>
			</g>
			<g>
				<g>
					<path class="st1" d="M650.09,65.46c0,0.54-0.43,0.97-0.97,0.97c-0.54,0-0.97-0.44-0.97-0.97c0-0.54,0.43-0.97,0.97-0.97
						C649.66,64.49,650.09,64.93,650.09,65.46z"/>
				</g>
			</g>
		</g>
	</g>
	<g>
		<g>
			<g>
				<g>
					<path class="st3" d="M692.59,377.9c4.16-2.15,9.07-2.43,13.69-1.66c2.48,0.41,5.07,1.15,6.76,3.02
						c1.69,1.87,2.01,5.15,0.07,6.75c-1.16,0.95-2.77,1.1-4.26,1.08c-3.62-0.04-7.63-0.68-10.52,1.5c-1.65,1.24-2.75,3.31-4.72,3.92
						c-1.93,0.6-4.11-0.54-5.13-2.28c-1.02-1.74-1.06-3.92-0.58-5.88C687.89,384.34,688.4,380.06,692.59,377.9z"/>
				</g>
			</g>
			<g>
				<g>
					<path class="st3" d="M683.05,359.49c2.55,3.64,7.49,2.43,9.79,0.21c2.29-2.22,3.26-5.44,4.15-8.5
						c2.02-7.01,4.05-14.36,2.55-21.5c-0.45-2.13-1.25-4.26-2.75-5.84c-1.5-1.58-3.8-2.52-5.91-1.97c-2.49,0.66-4.05,3.1-5.17,5.43
						c-3.29,6.83-5.04,14.41-5.06,21.99C680.64,352.85,681.05,356.56,683.05,359.49"/>
				</g>
			</g>
			<g>
				<g>
					<path class="st3" d="M676.06,364.7c2.76-3.28,3.29-8.07,2.06-12.17c-1.23-4.11-4.01-7.61-7.21-10.46
						c-3.75-3.35-8.17-5.95-12.91-7.62c-1.87-0.66-3.84-1.17-5.81-0.99c-1.97,0.19-3.95,1.2-4.87,2.95
						c-1.36,2.59-0.06,5.74,1.35,8.3c2.48,4.52,5.32,8.84,8.48,12.92c2.54,3.28,5.45,6.51,9.33,7.99c3.87,1.48,7.9,1.31,9.95-1.38"
						/>
				</g>
			</g>
			<g>
				<g>
					<g>
						<path class="st1" d="M682.88,414.34c0.05,0,0.12-0.59,0.23-1.65c0.12-1.2,0.26-2.71,0.44-4.51c0.21-1.9,0.49-4.16,1.01-6.61
							c0.53-2.45,1.35-5.11,2.4-7.81c1.09-2.68,2.43-5.12,3.99-7.06c1.55-1.96,3.35-3.37,5.04-4.19c1.69-0.83,3.2-1.17,4.24-1.32
							c1.05-0.11,1.64-0.19,1.64-0.24c0-0.05-0.59-0.05-1.67-0.03c-1.07,0.07-2.65,0.34-4.43,1.15c-1.78,0.79-3.69,2.23-5.32,4.23
							c-1.64,1.99-3.02,4.48-4.13,7.21c-1.07,2.74-1.88,5.43-2.39,7.93c-0.5,2.5-0.73,4.78-0.88,6.7c-0.14,1.91-0.2,3.47-0.22,4.54
							C682.82,413.74,682.83,414.33,682.88,414.34z"/>
					</g>
				</g>
			</g>
			<g>
				<g>
					<g>
						<path class="st1" d="M683.19,410.87c0.02,0,0.04-0.27,0.04-0.77c0-0.58,0-1.3-0.01-2.19c-0.01-1.9,0-4.66,0.1-8.06
							c0.17-6.8,0.75-14.12,1.88-24.44c1.07-9.7,2.51-20.99,4.02-28.33c0.33-1.67,0.65-3.17,0.96-4.49
							c0.29-1.32,0.55-2.46,0.79-3.38c0.21-0.87,0.38-1.57,0.51-2.13c0.11-0.49,0.16-0.75,0.13-0.76c-0.02-0.01-0.11,0.24-0.27,0.72
							c-0.17,0.55-0.38,1.25-0.64,2.1c-0.28,0.91-0.57,2.04-0.9,3.35c-0.34,1.31-0.71,2.81-1.06,4.48
							c-1.5,6.65-3.09,15.95-4.23,26.29c-1.13,10.34-1.64,19.75-1.69,26.57c-0.04,3.41,0.03,6.17,0.12,8.07
							c0.05,0.89,0.1,1.62,0.13,2.19C683.14,410.61,683.17,410.87,683.19,410.87z"/>
					</g>
				</g>
			</g>
			<g>
				<g>
					<g>
						<path class="st1" d="M683.24,392.71c0.05,0,0.04-0.82-0.02-2.29c-0.08-1.47-0.29-3.6-0.7-6.2c-0.44-2.6-1.05-5.69-2.02-9.04
							c-0.42-1.53-1.4-5.21-3.78-10.7c-3.14-7.44-7.4-13.52-11.1-17.29c-0.87-1-1.84-1.72-2.61-2.43c-0.4-0.34-0.75-0.68-1.12-0.94
							c-0.36-0.25-0.7-0.48-1.01-0.7c-1.22-0.83-1.9-1.27-1.93-1.23c-0.11,0.15,2.73,1.82,6.32,5.64
							c3.57,3.81,7.71,9.85,10.82,17.22c1.73,4,2.94,7.57,3.8,10.6c0.99,3.32,1.65,6.38,2.15,8.95c0.47,2.58,0.75,4.69,0.91,6.14
							C683.09,391.9,683.19,392.71,683.24,392.71z"/>
					</g>
				</g>
			</g>
		</g>
		<g>
			<g>
				<polygon class="st1" points="665.69,424.74 667.51,449.66 699.53,449.66 701.35,424.74 				"/>
			</g>
		</g>
		<g>
			<g>
				<rect x="662.59" y="414.91" class="st1" width="42.57" height="9.82"/>
			</g>
		</g>
		<g>
			<g>
				<polygon class="st3" points="662.59,448.71 662.59,451.43 664.59,451.43 704.46,451.43 704.46,448.71 				"/>
			</g>
		</g>
		<g>
			<g>
				<polygon class="st1" points="666.55,456.23 664.59,451.43 702.94,451.43 700.65,456.23 				"/>
			</g>
		</g>
		<g>
			<g>
				<g>
					<path class="st4" d="M700.75,432.88c0.01,0.01-0.04,0.08-0.15,0.23c-0.13,0.17-0.28,0.38-0.48,0.63
						c-0.45,0.58-1.08,1.38-1.87,2.39l-0.08,0.11l-0.08-0.11c-1.17-1.62-2.74-3.79-4.58-6.34h0.26c-1.36,1.93-2.88,4.08-4.51,6.39
						l-0.14,0.2l-0.16-0.19c-1.67-1.98-3.47-4.13-5.35-6.37l0.31,0c-0.09,0.12-0.19,0.24-0.29,0.37c-1.66,2.08-3.27,4.09-4.78,6
						l-0.16,0.2l-0.15-0.21c-1.62-2.3-3.14-4.45-4.51-6.39l0.26,0.01c-2.22,2.53-4.11,4.68-5.56,6.33l-0.1,0.11l-0.08-0.13
						c-0.73-1.23-1.32-2.21-1.74-2.92c-0.18-0.32-0.33-0.57-0.45-0.78c-0.1-0.18-0.14-0.27-0.14-0.28c0.01-0.01,0.07,0.08,0.19,0.25
						c0.13,0.2,0.29,0.44,0.49,0.75c0.44,0.7,1.06,1.66,1.83,2.87l-0.17-0.01c1.42-1.67,3.28-3.85,5.47-6.41l0.14-0.16l0.12,0.17
						c1.38,1.93,2.92,4.07,4.55,6.36l-0.31-0.01c1.52-1.91,3.12-3.92,4.77-6.01c0.1-0.13,0.2-0.25,0.29-0.37l0.15-0.19l0.16,0.19
						c1.87,2.24,3.68,4.39,5.34,6.38l-0.3,0.01c1.65-2.3,3.18-4.44,4.56-6.36l0.13-0.19l0.13,0.19c1.8,2.58,3.34,4.77,4.49,6.41
						l-0.16,0c0.82-0.98,1.47-1.76,1.94-2.33c0.21-0.24,0.38-0.44,0.52-0.6C700.68,432.94,700.74,432.88,700.75,432.88z"/>
				</g>
			</g>
		</g>
		<g>
			<g>
				<g>
					<path class="st4" d="M701.79,424.57c0,0.11-8.02,0.2-17.92,0.2c-9.9,0-17.92-0.09-17.92-0.2c0-0.11,8.02-0.2,17.92-0.2
						C693.77,424.37,701.79,424.46,701.79,424.57z"/>
				</g>
			</g>
		</g>
		<g>
			<g>
				<g>
					<path class="st4" d="M703.41,451.7c0,0.11-8.72,0.2-19.47,0.2c-10.76,0-19.48-0.09-19.48-0.2c0-0.11,8.72-0.2,19.48-0.2
						C694.69,451.5,703.41,451.59,703.41,451.7z"/>
				</g>
			</g>
		</g>
	</g>
</g>
<g id="Background_Simple" class="st5">
	<path class="st6" d="M687.13,119.71l-2.25-4.51c-19-38.04-56.95-63.16-99.08-63.96c-5.42-0.1-10.84,0.18-16.23,0.88
		c-38.78,5.02-74.31,31.1-91.1,66.87c-9.87,21.04-14.19,45.84-30.95,61.81c-21.81,20.78-55.76,18.69-85.48,15.3
		c-29.72-3.38-63.7-5.39-85.42,15.49c-13.6,13.07-19.21,32.79-19.76,51.76c-1.46,50.2,29.68,97.77,72.15,123.63
		s94.45,32.15,143.74,26.38c69.04-8.09,136.72-40.37,180.33-95.24C696.68,263.25,713.03,184.94,687.13,119.71z"/>
	<circle class="st6" cx="117.9" cy="130.57" r="68.48"/>
</g>
<g id="Device">
	<g>
		<g>
			<g>
				<g>
					<g>
						<g>
							<g>
								<path class="st7" d="M612.2,451.52H115.96c-8.05,0-14.57-6.52-14.57-14.57V111.85c0-4.28,3.47-7.75,7.75-7.75h510.89
									c3.72,0,6.74,3.02,6.74,6.74v326.12C626.77,445,620.25,451.52,612.2,451.52z"/>
							</g>
						</g>
					</g>
				</g>
				<g>
					<g>
						<g>
							<g>
								<path class="st7" d="M634.91,456.23H93.14c-7.58,0-13.72-6.14-13.72-13.72v-16.68h569.21v16.68
									C648.63,450.08,642.48,456.23,634.91,456.23z"/>
							</g>
						</g>
					</g>
				</g>
				<g>
					<g>
						<g>
							<g>
								<rect x="115.49" y="117.9" class="st1" width="495.7" height="293.4"/>
							</g>
						</g>
					</g>
				</g>
				<g>
					<g>
						<g>
							<g>
								<polygon class="st8" points="312.29,425.83 319.35,437.06 418.74,437.06 425.3,425.83 								"/>
							</g>
						</g>
					</g>
				</g>
			</g>
			<g>
				<g>
					<g>
						<rect x="130.2" y="134.9" class="st8" width="467.48" height="276.4"/>
					</g>
				</g>
				<g>
					<g>
						<g>
							<path class="st1" d="M166.07,403.18c-0.24,0-0.44-58.87-0.44-131.47c0-72.63,0.2-131.48,0.44-131.48s0.44,58.86,0.44,131.48
								C166.51,344.32,166.31,403.18,166.07,403.18z"/>
						</g>
					</g>
				</g>
				<g>
					<g>
						<g>
							<path class="st1" d="M156.64,164.07c0,0.24-3.4,0.44-7.59,0.44c-4.19,0-7.59-0.2-7.59-0.44c0-0.24,3.4-0.44,7.59-0.44
								C153.24,163.63,156.64,163.83,156.64,164.07z"/>
						</g>
					</g>
				</g>
				<g>
					<g>
						<g>
							<path class="st1" d="M157.22,149.15c0,0.24-3.4,0.44-7.59,0.44c-4.19,0-7.59-0.2-7.59-0.44c0-0.24,3.4-0.44,7.59-0.44
								C153.82,148.71,157.22,148.91,157.22,149.15z"/>
						</g>
					</g>
				</g>
				<g>
					<g>
						<g>
							<path class="st1" d="M156.64,180.15c0,0.24-3.4,0.44-7.59,0.44c-4.19,0-7.59-0.2-7.59-0.44s3.4-0.44,7.59-0.44
								C153.24,179.71,156.64,179.91,156.64,180.15z"/>
						</g>
					</g>
				</g>
				<g>
					<g>
						<g>
							<path class="st1" d="M156.64,196.23c0,0.24-3.4,0.44-7.59,0.44c-4.19,0-7.59-0.2-7.59-0.44c0-0.24,3.4-0.44,7.59-0.44
								C153.24,195.8,156.64,195.99,156.64,196.23z"/>
						</g>
					</g>
				</g>
				<g>
					<g>
						<g>
							<path class="st1" d="M156.64,212.32c0,0.24-3.4,0.44-7.59,0.44c-4.19,0-7.59-0.2-7.59-0.44c0-0.24,3.4-0.44,7.59-0.44
								C153.24,211.88,156.64,212.07,156.64,212.32z"/>
						</g>
					</g>
				</g>
				<g>
					<g>
						<g>
							<path class="st1" d="M156.64,228.4c0,0.24-3.4,0.44-7.59,0.44c-4.19,0-7.59-0.2-7.59-0.44c0-0.24,3.4-0.44,7.59-0.44
								C153.24,227.96,156.64,228.16,156.64,228.4z"/>
						</g>
					</g>
				</g>
				<g>
					<g>
						<g>
							<path class="st1" d="M156.64,244.48c0,0.24-3.4,0.44-7.59,0.44c-4.19,0-7.59-0.2-7.59-0.44c0-0.24,3.4-0.44,7.59-0.44
								C153.24,244.04,156.64,244.24,156.64,244.48z"/>
						</g>
					</g>
				</g>
				<g>
					<g>
						<g>
							<path class="st1" d="M156.64,260.56c0,0.24-3.4,0.44-7.59,0.44c-4.19,0-7.59-0.2-7.59-0.44c0-0.24,3.4-0.44,7.59-0.44
								C153.24,260.13,156.64,260.32,156.64,260.56z"/>
						</g>
					</g>
				</g>
				<g>
					<g>
						<g>
							<path class="st1" d="M156.64,276.65c0,0.24-3.4,0.44-7.59,0.44c-4.19,0-7.59-0.2-7.59-0.44c0-0.24,3.4-0.44,7.59-0.44
								C153.24,276.21,156.64,276.4,156.64,276.65z"/>
						</g>
					</g>
				</g>
				<g>
					<g>
						<g>
							<path class="st1" d="M156.64,292.73c0,0.24-3.4,0.44-7.59,0.44c-4.19,0-7.59-0.2-7.59-0.44c0-0.24,3.4-0.44,7.59-0.44
								C153.24,292.29,156.64,292.49,156.64,292.73z"/>
						</g>
					</g>
				</g>
				<g>
					<g>
						<g>
							<path class="st1" d="M156.64,308.81c0,0.24-3.4,0.44-7.59,0.44c-4.19,0-7.59-0.2-7.59-0.44c0-0.24,3.4-0.44,7.59-0.44
								C153.24,308.37,156.64,308.57,156.64,308.81z"/>
						</g>
					</g>
				</g>
				<g>
					<g>
						<g>
							<path class="st1" d="M156.64,324.89c0,0.24-3.4,0.44-7.59,0.44c-4.19,0-7.59-0.2-7.59-0.44c0-0.24,3.4-0.44,7.59-0.44
								C153.24,324.46,156.64,324.65,156.64,324.89z"/>
						</g>
					</g>
				</g>
				<g>
					<g>
						<g>
							<path class="st1" d="M156.64,340.98c0,0.24-3.4,0.44-7.59,0.44c-4.19,0-7.59-0.2-7.59-0.44c0-0.24,3.4-0.44,7.59-0.44
								C153.24,340.54,156.64,340.73,156.64,340.98z"/>
						</g>
					</g>
				</g>
				<g>
					<g>
						<g>
							<path class="st1" d="M156.64,357.06c0,0.24-3.4,0.44-7.59,0.44c-4.19,0-7.59-0.2-7.59-0.44c0-0.24,3.4-0.44,7.59-0.44
								C153.24,356.62,156.64,356.82,156.64,357.06z"/>
						</g>
					</g>
				</g>
				<g>
					<g>
						<g>
							<path class="st1" d="M156.64,373.14c0,0.24-3.4,0.44-7.59,0.44c-4.19,0-7.59-0.2-7.59-0.44c0-0.24,3.4-0.44,7.59-0.44
								C153.24,372.7,156.64,372.9,156.64,373.14z"/>
						</g>
					</g>
				</g>
				<g>
					<g>
						<g>
							<path class="st1" d="M156.64,389.22c0,0.24-3.4,0.44-7.59,0.44c-4.19,0-7.59-0.2-7.59-0.44c0-0.24,3.4-0.44,7.59-0.44
								C153.24,388.78,156.64,388.98,156.64,389.22z"/>
						</g>
					</g>
				</g>
				<g>
					<g>
						<g>
							<path class="st9" d="M217.51,163.12c0,0.24-8.82,0.44-19.71,0.44c-10.89,0-19.71-0.2-19.71-0.44s8.82-0.44,19.71-0.44
								C208.69,162.68,217.51,162.88,217.51,163.12z"/>
						</g>
					</g>
				</g>
				<g>
					<g>
						<g>
							<path class="st9" d="M217.51,389.22c0,0.24-8.82,0.44-19.71,0.44c-10.89,0-19.71-0.2-19.71-0.44c0-0.24,8.82-0.44,19.71-0.44
								C208.69,388.78,217.51,388.98,217.51,389.22z"/>
						</g>
					</g>
				</g>
				<g>
					<g>
						<g>
							<path class="st9" d="M272.4,196.23c0,0.24-16.51,0.44-36.87,0.44c-20.37,0-36.87-0.2-36.87-0.44
								c0-0.24,16.51-0.44,36.87-0.44C255.89,195.8,272.4,195.99,272.4,196.23z"/>
						</g>
					</g>
				</g>
				<g>
					<g>
						<g>
							<path class="st1" d="M357.68,196.23c0,0.24-16.51,0.44-36.87,0.44c-20.37,0-36.87-0.2-36.87-0.44
								c0-0.24,16.51-0.44,36.87-0.44C341.17,195.8,357.68,195.99,357.68,196.23z"/>
						</g>
					</g>
				</g>
				<g>
					<g>
						<g>
							<path class="st1" d="M325.09,212.32c0,0.24-24.33,0.44-54.34,0.44c-30.02,0-54.34-0.2-54.34-0.44
								c0-0.24,24.33-0.44,54.34-0.44C300.76,211.88,325.09,212.07,325.09,212.32z"/>
						</g>
					</g>
				</g>
				<g>
					<g>
						<g>
							<path class="st1" d="M325.09,228.4c0,0.24-24.33,0.44-54.34,0.44c-30.02,0-54.34-0.2-54.34-0.44
								c0-0.24,24.33-0.44,54.34-0.44C300.76,227.96,325.09,228.16,325.09,228.4z"/>
						</g>
					</g>
				</g>
				<g>
					<g>
						<g>
							<path class="st1" d="M399.9,276.65c0,0.24-24.33,0.44-54.34,0.44c-30.02,0-54.34-0.2-54.34-0.44
								c0-0.24,24.33-0.44,54.34-0.44C375.56,276.21,399.9,276.4,399.9,276.65z"/>
						</g>
					</g>
				</g>
				<g>
					<g>
						<g>
							<path class="st1" d="M367.61,244.48c0,0.24-24.33,0.44-54.34,0.44c-30.02,0-54.34-0.2-54.34-0.44
								c0-0.24,24.33-0.44,54.34-0.44C343.28,244.04,367.61,244.24,367.61,244.48z"/>
						</g>
					</g>
				</g>
				<g>
					<g>
						<g>
							<path class="st1" d="M500.42,244.48c0,0.24-24.33,0.44-54.34,0.44c-30.02,0-54.34-0.2-54.34-0.44
								c0-0.24,24.33-0.44,54.34-0.44C476.09,244.04,500.42,244.24,500.42,244.48z"/>
						</g>
					</g>
				</g>
				<g>
					<g>
						<g>
							<path class="st10" d="M454.24,212.32c0,0.24-24.33,0.44-54.34,0.44c-30.02,0-54.34-0.2-54.34-0.44
								c0-0.24,24.33-0.44,54.34-0.44C429.9,211.88,454.24,212.07,454.24,212.32z"/>
						</g>
					</g>
				</g>
				<g>
					<g>
						<g>
							<path class="st10" d="M529.31,276.65c0,0.24-24.33,0.44-54.34,0.44c-30.02,0-54.34-0.2-54.34-0.44
								c0-0.24,24.33-0.44,54.34-0.44C504.98,276.21,529.31,276.4,529.31,276.65z"/>
						</g>
					</g>
				</g>
				<g>
					<g>
						<g>
							<path class="st7" d="M514.32,228.4c0,0.24-37.78,0.44-84.38,0.44c-46.61,0-84.39-0.2-84.39-0.44
								c0-0.24,37.77-0.44,84.39-0.44C476.54,227.96,514.32,228.16,514.32,228.4z"/>
						</g>
					</g>
				</g>
				<g>
					<g>
						<g>
							<path class="st10" d="M217.51,180.15c0,0.24-8.82,0.44-19.71,0.44c-10.89,0-19.71-0.2-19.71-0.44s8.82-0.44,19.71-0.44
								C208.69,179.71,217.51,179.91,217.51,180.15z"/>
						</g>
					</g>
				</g>
				<g>
					<g>
						<g>
							<path class="st10" d="M217.51,373.14c0,0.24-8.82,0.44-19.71,0.44c-10.89,0-19.71-0.2-19.71-0.44
								c0-0.24,8.82-0.44,19.71-0.44C208.69,372.7,217.51,372.9,217.51,373.14z"/>
						</g>
					</g>
				</g>
				<g>
					<g>
						<g>
							<path class="st10" d="M237.04,244.48c0,0.24-8.82,0.44-19.71,0.44c-10.89,0-19.71-0.2-19.71-0.44
								c0-0.24,8.82-0.44,19.71-0.44C228.22,244.04,237.04,244.24,237.04,244.48z"/>
						</g>
					</g>
				</g>
				<g>
					<g>
						<g>
							<path class="st9" d="M552.93,244.48c0,0.24-8.82,0.44-19.71,0.44c-10.89,0-19.71-0.2-19.71-0.44c0-0.24,8.82-0.44,19.71-0.44
								C544.11,244.04,552.93,244.24,552.93,244.48z"/>
						</g>
					</g>
				</g>
				<g>
					<g>
						<g>
							<path class="st9" d="M272.4,308.72c0,0.24-16.51,0.44-36.87,0.44c-20.37,0-36.87-0.2-36.87-0.44
								c0-0.24,16.51-0.44,36.87-0.44C255.89,308.28,272.4,308.47,272.4,308.72z"/>
						</g>
					</g>
				</g>
				<g>
					<g>
						<g>
							<path class="st1" d="M357.68,308.72c0,0.24-16.51,0.44-36.87,0.44c-20.37,0-36.87-0.2-36.87-0.44
								c0-0.24,16.51-0.44,36.87-0.44C341.17,308.28,357.68,308.47,357.68,308.72z"/>
						</g>
					</g>
				</g>
				<g>
					<g>
						<g>
							<path class="st1" d="M325.09,324.8c0,0.24-24.33,0.44-54.34,0.44c-30.02,0-54.34-0.2-54.34-0.44
								c0-0.24,24.33-0.44,54.34-0.44C300.76,324.36,325.09,324.56,325.09,324.8z"/>
						</g>
					</g>
				</g>
				<g>
					<g>
						<g>
							<path class="st1" d="M325.09,340.88c0,0.24-24.33,0.44-54.34,0.44c-30.02,0-54.34-0.2-54.34-0.44
								c0-0.24,24.33-0.44,54.34-0.44C300.76,340.44,325.09,340.64,325.09,340.88z"/>
						</g>
					</g>
				</g>
				<g>
					<g>
						<g>
							<path class="st1" d="M367.61,356.96c0,0.24-24.33,0.44-54.34,0.44c-30.02,0-54.34-0.2-54.34-0.44
								c0-0.24,24.33-0.44,54.34-0.44C343.28,356.53,367.61,356.72,367.61,356.96z"/>
						</g>
					</g>
				</g>
				<g>
					<g>
						<g>
							<path class="st1" d="M500.42,356.96c0,0.24-24.33,0.44-54.34,0.44c-30.02,0-54.34-0.2-54.34-0.44
								c0-0.24,24.33-0.44,54.34-0.44C476.09,356.53,500.42,356.72,500.42,356.96z"/>
						</g>
					</g>
				</g>
				<g>
					<g>
						<g>
							<path class="st10" d="M454.24,324.8c0,0.24-24.33,0.44-54.34,0.44c-30.02,0-54.34-0.2-54.34-0.44
								c0-0.24,24.33-0.44,54.34-0.44C429.9,324.36,454.24,324.56,454.24,324.8z"/>
						</g>
					</g>
				</g>
				<g>
					<g>
						<g>
							<path class="st7" d="M514.32,340.88c0,0.24-37.78,0.44-84.38,0.44c-46.61,0-84.39-0.2-84.39-0.44
								c0-0.24,37.77-0.44,84.39-0.44C476.54,340.44,514.32,340.64,514.32,340.88z"/>
						</g>
					</g>
				</g>
				<g>
					<g>
						<g>
							<path class="st10" d="M237.04,356.96c0,0.24-8.82,0.44-19.71,0.44c-10.89,0-19.71-0.2-19.71-0.44
								c0-0.24,8.82-0.44,19.71-0.44C228.22,356.53,237.04,356.72,237.04,356.96z"/>
						</g>
					</g>
				</g>
				<g>
					<g>
						<g>
							<path class="st9" d="M552.93,356.96c0,0.24-8.82,0.44-19.71,0.44c-10.89,0-19.71-0.2-19.71-0.44c0-0.24,8.82-0.44,19.71-0.44
								C544.11,356.53,552.93,356.72,552.93,356.96z"/>
						</g>
					</g>
				</g>
			</g>
		</g>
		<g>
			<path class="st8" d="M563.44,435.98c0,0.14-100.64,0.26-224.76,0.26c-124.16,0-224.78-0.12-224.78-0.26
				c0-0.14,100.62-0.26,224.78-0.26C462.8,435.72,563.44,435.83,563.44,435.98z"/>
		</g>
	</g>
</g>
<g id="Plant">
	<g>
		<g>
			<path class="st9" d="M97.07,347.83c-13.79-14.11-35.39-20.04-54.45-14.94c16.56,11.1,35.16,17.05,55.09,17.21"/>
		</g>
		<g>
			<g>
				<path class="st9" d="M78.6,282.43c2.27-16.04-3.97-34.1-15.98-45.76C62.23,252.57,68.94,270.46,78.6,282.43"/>
			</g>
			<g>
				<path class="st9" d="M88.21,312.74c-8.56-16.36-22.61-29.79-39.35-37.6c5.02,18.47,20.82,33.59,39.5,37.78"/>
			</g>
			<g>
				<path class="st9" d="M90.2,318.58c-9.69,0.27-19.5-0.07-28.87-2.55c-9.37-2.48-18.35-7.25-24.59-14.67
					c18.85,0.02,37.66,5.76,53.31,16.27"/>
			</g>
			<g>
				<path class="st9" d="M85.28,299.32c4.92-18.44,13.04-31.19,27.53-41.52c1.1,8.97-1.11,18.31-6.1,25.84
					C101.71,291.17,93.97,296.84,85.28,299.32"/>
			</g>
			<g>
				<path class="st9" d="M121.86,331.12c0.25-10.71-6.65-21.24-16.58-25.28C106.09,315.36,113.57,326.37,121.86,331.12"/>
			</g>
			<g>
				<path class="st9" d="M126.49,315.57c1.1-15.4,12.04-29.65,26.64-34.69C149.78,296.29,140.88,309.12,126.49,315.57"/>
			</g>
			<g>
				<path class="st9" d="M119.51,343.16c3.42-4.89,8.99-7.93,14.77-9.44s11.8-1.64,17.76-1.77c-8.05,8.85-20.13,13.88-32.08,13.36"
					/>
			</g>
			<g>
				<path class="st9" d="M112.59,382.45c10.75-3.32,22.73-2.46,32.9,2.36c10.17,4.82,18.42,13.54,22.66,23.97
					C147.97,404.95,128.05,395.98,112.59,382.45"/>
			</g>
			<g>
				<path class="st9" d="M90.44,368.8c3.35,9.91,2.71,21.89-4.74,30.43C82.66,389.06,84.45,377.56,90.44,368.8"/>
			</g>
			<g>
				<path class="st9" d="M77.34,363.29c-0.93,12.74-9.08,24.71-20.59,30.26c-0.57,0.28-1.23,0.54-1.82,0.3
					c-0.91-0.37-0.99-1.61-0.88-2.58C55.51,378.57,64.92,366.28,77.34,363.29"/>
			</g>
			<g>
				<path class="st9" d="M68.79,362c-5.67,6.13-13.94,9.77-22.29,9.81c-8.35,0.04-16.65-3.51-22.38-9.58
					C38.32,360.68,54.7,359.64,68.79,362"/>
			</g>
			<g>
				<g>
					<g>
						<path class="st8" d="M66.66,248.49c-0.01,0,0.04,0.14,0.13,0.42c0.11,0.29,0.25,0.69,0.43,1.2c0.4,1.08,0.98,2.62,1.71,4.6
							c0.76,1.99,1.65,4.44,2.67,7.29c0.51,1.42,1.06,2.95,1.64,4.56c0.56,1.62,1.15,3.34,1.77,5.14
							c2.52,7.19,5.31,15.82,8.32,25.43c2.96,9.63,6.07,20.25,9.13,31.46c3.02,11.23,5.69,21.97,7.97,31.78
							c2.21,9.82,4.12,18.69,5.49,26.19c0.35,1.87,0.69,3.65,1.01,5.34c0.29,1.69,0.56,3.28,0.81,4.78
							c0.51,2.98,0.95,5.55,1.25,7.66c0.32,2.08,0.57,3.71,0.74,4.85c0.09,0.53,0.16,0.95,0.21,1.26c0.05,0.28,0.08,0.43,0.09,0.43
							c0.01,0,0-0.15-0.03-0.43c-0.04-0.31-0.09-0.73-0.15-1.27c-0.15-1.14-0.37-2.77-0.64-4.86c-0.26-2.12-0.67-4.69-1.16-7.68
							c-0.24-1.5-0.5-3.09-0.77-4.79c-0.31-1.69-0.63-3.48-0.97-5.35c-1.33-7.51-3.19-16.39-5.38-26.23
							c-2.25-9.82-4.91-20.58-7.93-31.82c-3.06-11.22-6.19-21.85-9.18-31.47c-3.04-9.61-5.88-18.23-8.44-25.41
							c-0.63-1.8-1.24-3.51-1.81-5.13c-0.6-1.61-1.16-3.13-1.68-4.55c-1.05-2.84-1.96-5.28-2.75-7.26
							c-0.78-1.96-1.38-3.49-1.81-4.56c-0.2-0.5-0.36-0.89-0.48-1.18C66.73,248.62,66.67,248.49,66.66,248.49z"/>
					</g>
				</g>
				<g>
					<g>
						<path class="st8" d="M144.66,289.11c-0.01-0.01-0.09,0.07-0.24,0.23c-0.17,0.18-0.4,0.42-0.68,0.71
							c-0.59,0.63-1.45,1.58-2.52,2.82c-2.14,2.49-5.17,6.19-8.36,11.15c-3.19,4.94-6.46,11.23-8.74,18.7
							c-2.34,7.44-3.8,15.91-5.24,24.75c-2.89,17.7-6.43,33.56-8.99,45.03c-1.29,5.71-2.34,10.34-3.08,13.58
							c-0.35,1.58-0.62,2.82-0.82,3.7c-0.08,0.4-0.15,0.72-0.2,0.96c-0.04,0.22-0.06,0.33-0.05,0.33c0.01,0,0.04-0.11,0.1-0.32
							c0.06-0.24,0.15-0.56,0.25-0.95c0.22-0.87,0.53-2.11,0.92-3.67c0.77-3.23,1.88-7.85,3.24-13.54
							c2.66-11.45,6.27-27.31,9.16-45.03c1.45-8.85,2.88-17.28,5.19-24.69c2.24-7.43,5.45-13.69,8.59-18.64
							c3.14-4.96,6.11-8.69,8.2-11.22c1.05-1.27,1.88-2.23,2.44-2.89c0.26-0.31,0.48-0.56,0.64-0.75
							C144.59,289.21,144.66,289.12,144.66,289.11z"/>
					</g>
				</g>
				<g>
					<g>
						<path class="st8" d="M64.55,361.4c0,0.02,0.18,0.05,0.51,0.09c0.4,0.04,0.88,0.1,1.47,0.16c0.33,0.03,0.68,0.07,1.06,0.1
							c0.39,0.06,0.81,0.12,1.26,0.19c0.9,0.13,1.93,0.27,3.05,0.51c0.56,0.11,1.15,0.23,1.76,0.35c0.61,0.15,1.24,0.31,1.89,0.48
							c1.31,0.3,2.67,0.78,4.12,1.21c2.85,1,5.93,2.29,8.99,3.96c3.05,1.7,5.75,3.65,8.06,5.6c1.12,1.01,2.2,1.96,3.09,2.97
							c0.96,0.95,1.73,1.93,2.45,2.82c0.75,0.86,1.28,1.76,1.81,2.5c0.54,0.73,0.93,1.42,1.24,1.97c0.3,0.51,0.55,0.93,0.75,1.27
							c0.18,0.29,0.28,0.44,0.3,0.43c0.02-0.01-0.05-0.17-0.2-0.48c-0.18-0.36-0.4-0.8-0.67-1.33c-0.29-0.58-0.65-1.28-1.17-2.04
							c-0.51-0.76-1.02-1.68-1.76-2.57c-0.7-0.92-1.47-1.92-2.42-2.9c-0.89-1.03-1.97-2-3.09-3.04c-2.31-1.99-5.04-3.98-8.13-5.7
							c-3.1-1.69-6.21-2.98-9.09-3.96c-1.46-0.43-2.84-0.9-4.17-1.18c-0.66-0.16-1.3-0.31-1.91-0.45c-0.62-0.11-1.21-0.22-1.78-0.32
							c-1.13-0.23-2.17-0.33-3.08-0.44c-0.45-0.05-0.87-0.1-1.27-0.14c-0.38-0.02-0.74-0.04-1.07-0.06
							c-0.59-0.02-1.08-0.04-1.48-0.06C64.73,361.38,64.55,361.38,64.55,361.4z"/>
					</g>
				</g>
			</g>
			<g>
				<g>
					<path class="st8" d="M60.5,289.45c-0.02,0.03,0.34,0.38,1.02,0.99c0.77,0.67,1.75,1.52,2.92,2.53
						c2.48,2.12,5.94,5.03,9.77,8.21c3.84,3.18,7.33,6.04,9.88,8.09c1.22,0.96,2.23,1.77,3.03,2.4c0.72,0.56,1.13,0.85,1.16,0.82
						c0.02-0.03-0.34-0.38-1.03-0.99c-0.77-0.67-1.75-1.52-2.92-2.54c-2.48-2.12-5.94-5.03-9.77-8.21
						c-3.84-3.18-7.33-6.04-9.87-8.08c-1.22-0.96-2.23-1.77-3.03-2.4C60.94,289.72,60.53,289.42,60.5,289.45z"/>
				</g>
			</g>
			<g>
				<g>
					<path class="st8" d="M57.01,308.23c-0.04,0.14,7.41,2.47,16.65,5.2c9.24,2.73,16.76,4.83,16.81,4.68
						c0.04-0.14-7.41-2.47-16.65-5.2C64.58,310.18,57.06,308.09,57.01,308.23z"/>
				</g>
			</g>
			<g>
				<g>
					<path class="st8" d="M84.54,300.75c0.03,0.02,0.3-0.36,0.77-1.07c0.52-0.8,1.18-1.8,1.97-2.99c1.67-2.52,4.03-5.96,6.83-9.63
						c2.8-3.66,5.5-6.85,7.49-9.13c0.94-1.07,1.73-1.97,2.36-2.69c0.56-0.64,0.85-1,0.82-1.03c-0.03-0.03-0.37,0.29-0.98,0.88
						c-0.61,0.59-1.46,1.47-2.49,2.58c-2.07,2.22-4.82,5.38-7.63,9.06c-2.81,3.68-5.14,7.17-6.72,9.75
						c-0.79,1.29-1.42,2.35-1.82,3.09C84.72,300.32,84.51,300.73,84.54,300.75z"/>
				</g>
			</g>
			<g>
				<g>
					<path class="st8" d="M110.43,311.18c-0.07,0.05,0.64,1.13,1.75,2.88c1.11,1.75,2.63,4.19,4.19,6.93
						c1.56,2.75,2.88,5.29,3.82,7.15c0.94,1.85,1.51,3.01,1.58,2.97c0.06-0.03-0.38-1.24-1.23-3.14c-0.85-1.9-2.12-4.49-3.69-7.25
						c-1.57-2.76-3.14-5.18-4.34-6.88C111.3,312.14,110.49,311.14,110.43,311.18z"/>
				</g>
			</g>
			<g>
				<g>
					<path class="st8" d="M119.29,343.67c0.04,0.07,1.46-0.62,3.79-1.67c2.33-1.05,5.58-2.42,9.25-3.71
						c3.68-1.28,7.07-2.24,9.54-2.87c2.47-0.63,4.02-0.98,4-1.06c-0.01-0.04-0.4,0.01-1.11,0.12c-0.71,0.11-1.73,0.3-2.98,0.57
						c-2.51,0.54-5.94,1.44-9.63,2.73c-3.69,1.3-6.94,2.73-9.24,3.87c-1.15,0.57-2.06,1.06-2.69,1.41
						C119.61,343.42,119.27,343.64,119.29,343.67z"/>
				</g>
			</g>
			<g>
				<g>
					<path class="st8" d="M112.32,382.51c0,0.02,0.15,0.07,0.46,0.16c0.37,0.09,0.81,0.21,1.34,0.34c1.26,0.29,2.93,0.68,4.96,1.14
						c4.18,0.97,10,2.19,16.2,4.27c6.19,2.11,11.51,4.79,15.11,7.1c1.81,1.15,3.21,2.17,4.16,2.9c0.95,0.73,1.47,1.14,1.5,1.11
						c0.01-0.01-0.1-0.14-0.33-0.35c-0.23-0.21-0.57-0.54-1.04-0.92c-0.91-0.79-2.29-1.86-4.09-3.06
						c-3.58-2.41-8.91-5.17-15.14-7.29c-6.24-2.1-12.09-3.26-16.29-4.14c-2.04-0.4-3.73-0.73-5-0.98
						C112.98,382.58,112.33,382.48,112.32,382.51z"/>
				</g>
			</g>
			<g>
				<g>
					<path class="st8" d="M87.1,392.09c0.15,0.02,1.04-5.21,1.98-11.68c0.95-6.47,1.59-11.74,1.45-11.76
						c-0.15-0.02-1.04,5.21-1.98,11.68C87.6,386.8,86.95,392.07,87.1,392.09z"/>
				</g>
			</g>
			<g>
				<g>
					<path class="st8" d="M60.84,382.56c0.06,0.05,0.95-1.04,2.37-2.81c1.42-1.77,3.39-4.2,5.61-6.85c2.22-2.65,4.28-5,5.78-6.7
						c1.49-1.7,2.42-2.76,2.36-2.81c-0.03-0.03-0.29,0.2-0.75,0.64c-0.46,0.44-1.11,1.09-1.89,1.91c-1.57,1.64-3.68,3.96-5.91,6.61
						c-2.23,2.65-4.15,5.13-5.5,6.96c-0.67,0.91-1.2,1.66-1.56,2.19C61,382.23,60.81,382.53,60.84,382.56z"/>
				</g>
			</g>
		</g>
		<g>
			<polygon class="st9" points="130.33,406.91 130.33,419.88 127.08,419.88 115.55,456.28 89.98,456.28 78.81,420.24 74.48,419.88 
				74.48,406.91 			"/>
		</g>
		<g class="st2">
			<polygon points="130.33,406.91 130.33,419.88 127.08,419.88 115.55,456.28 89.98,456.28 78.81,420.24 74.48,419.88 74.48,406.91 
							"/>
		</g>
		<g>
			<g>
				<path class="st8" d="M76.64,420.24c0,0.15,11.29,0.27,25.22,0.27c13.93,0,25.22-0.12,25.22-0.27c0-0.15-11.29-0.27-25.22-0.27
					C87.94,419.97,76.64,420.09,76.64,420.24z"/>
			</g>
		</g>
		<g>
			<g>
				<path class="st8" d="M58.25,336.79c-0.01,0.04,0.58,0.19,1.64,0.44c1.15,0.28,2.66,0.64,4.49,1.08
					c3.78,0.94,8.98,2.36,14.61,4.25c5.64,1.9,10.63,3.9,14.21,5.44c1.72,0.75,3.14,1.38,4.23,1.85c1,0.44,1.56,0.67,1.57,0.64
					c0.02-0.03-0.51-0.33-1.48-0.83c-0.97-0.51-2.39-1.2-4.17-2.01c-3.55-1.63-8.54-3.7-14.2-5.61c-5.65-1.9-10.88-3.27-14.7-4.11
					c-1.91-0.42-3.46-0.73-4.53-0.92C58.86,336.84,58.26,336.75,58.25,336.79z"/>
			</g>
		</g>
		<g>
			<g>
				<path class="st10" d="M85.13,440.45c0,0.15,7.92,0.27,17.69,0.27c9.77,0,17.69-0.12,17.69-0.27s-7.92-0.27-17.69-0.27
					C93.06,440.18,85.13,440.3,85.13,440.45z"/>
			</g>
		</g>
		<g>
			<g>
				<path class="st10" d="M84.14,437.44c0,0.15,8.4,0.27,18.75,0.27c10.36,0,18.75-0.12,18.75-0.27s-8.39-0.27-18.75-0.27
					C92.54,437.17,84.14,437.29,84.14,437.44z"/>
			</g>
		</g>
	</g>
</g>
<g id="Floor">
	<g>
		<path class="st8" d="M709.46,456.48c0,0.14-152.44,0.26-340.44,0.26c-188.07,0-340.47-0.12-340.47-0.26
			c0-0.14,152.41-0.26,340.47-0.26C557.02,456.22,709.46,456.34,709.46,456.48z"/>
	</g>
</g>
<g id="Speech_Bubbles">
	<g>
		<g>
			<polygon class="st10" points="616.04,76.12 348.05,76.12 348.05,242.09 573.65,242.09 587.62,274.22 600,242.09 616.04,242.09 
							"/>
			<g>
				<path class="st8" d="M616.04,76.12c0,1.61,0.08,63.96,0.2,165.97l0,0.2l-0.2,0c-4.92,0-10.43,0-16.04,0.01l0.19-0.13
					c-3.88,10.07-8.06,20.93-12.37,32.14l-0.19,0.5l-0.22-0.5c-4.38-10.07-9.12-20.95-13.98-32.13l0.21,0.14
					c-60.61,0.01-130.27,0.02-204.02,0.03c-7.24,0-14.45,0-21.58,0h-0.26l0-0.26c0.01-59.15,0.02-115.28,0.02-165.97v-0.24l0.24,0
					C506.27,76.03,613.93,76.12,616.04,76.12c-2.11,0-109.77,0.1-267.99,0.24l0.24-0.24c0.01,50.68,0.01,106.82,0.02,165.97
					l-0.26-0.26c7.14,0,14.34,0,21.58,0c73.75,0.01,143.4,0.02,204.02,0.03h0.15l0.06,0.14c4.85,11.18,9.58,22.07,13.96,32.14
					l-0.41,0.01c4.32-11.21,8.51-22.06,12.39-32.13l0.05-0.13l0.14,0c5.61,0,11.11,0.01,16.04,0.01l-0.2,0.2
					C615.96,140.08,616.03,77.73,616.04,76.12z"/>
			</g>
		</g>
		<g>
			<g>
				<g>
					<path class="st8" d="M615.9,92.32c0,0.2-59.87,0.37-133.71,0.37c-73.87,0-133.73-0.16-133.73-0.37
						c0-0.2,59.86-0.37,133.73-0.37C556.02,91.95,615.9,92.12,615.9,92.32z"/>
				</g>
			</g>
			<g>
				<g>
					<path class="st8" d="M362.29,84.99c0,1.21-0.98,2.2-2.2,2.2c-1.21,0-2.2-0.98-2.2-2.2c0-1.21,0.98-2.2,2.2-2.2
						C361.31,82.79,362.29,83.78,362.29,84.99z"/>
				</g>
				<g>
					<path class="st8" d="M370.24,84.99c0,1.21-0.98,2.2-2.2,2.2c-1.21,0-2.2-0.98-2.2-2.2c0-1.21,0.98-2.2,2.2-2.2
						C369.26,82.79,370.24,83.78,370.24,84.99z"/>
				</g>
				<g>
					<path class="st8" d="M378.19,84.99c0,1.21-0.98,2.2-2.2,2.2c-1.21,0-2.2-0.98-2.2-2.2c0-1.21,0.98-2.2,2.2-2.2
						C377.21,82.79,378.19,83.78,378.19,84.99z"/>
				</g>
			</g>
			<g>
				<path class="st8" d="M377.28,122.01l-6.36,2.46l6.36,2.46v1.49l-8.03-3.17v-1.54l8.03-3.17V122.01z"/>
				<path class="st8" d="M383.9,115.65h1.56l-5.92,16.89h-1.56L383.9,115.65z"/>
				<path class="st8" d="M394.03,123.7v1.54l-8.03,3.17v-1.49l6.38-2.46l-6.38-2.46v-1.49L394.03,123.7z"/>
				<path class="st8" d="M396.06,129.61c0-0.72,0.56-1.22,1.22-1.22c0.65,0,1.18,0.5,1.18,1.22c0,0.72-0.54,1.24-1.18,1.24
					C396.62,130.85,396.06,130.33,396.06,129.61z"/>
				<path class="st8" d="M400.14,129.61c0-0.72,0.56-1.22,1.22-1.22c0.65,0,1.18,0.5,1.18,1.22c0,0.72-0.54,1.24-1.18,1.24
					C400.69,130.85,400.14,130.33,400.14,129.61z"/>
				<path class="st8" d="M404.21,129.61c0-0.72,0.56-1.22,1.22-1.22c0.65,0,1.18,0.5,1.18,1.22c0,0.72-0.54,1.24-1.18,1.24
					C404.76,130.85,404.21,130.33,404.21,129.61z"/>
			</g>
			<g>
				<g>
					<path class="st7" d="M546.5,145.71c0,0.2-39.62,0.37-88.47,0.37c-48.87,0-88.48-0.16-88.48-0.37s39.61-0.37,88.48-0.37
						C506.89,145.34,546.5,145.5,546.5,145.71z"/>
				</g>
			</g>
			<g>
				<g>
					<path class="st8" d="M575.4,146.23c0,0.2-3.81,0.37-8.5,0.37c-4.7,0-8.5-0.16-8.5-0.37c0-0.2,3.81-0.37,8.5-0.37
						C571.6,145.86,575.4,146.03,575.4,146.23z"/>
				</g>
			</g>
			<g>
				<g>
					<path class="st8" d="M600.25,146.23c0,0.2-4.16,0.37-9.29,0.37c-5.13,0-9.29-0.16-9.29-0.37c0-0.2,4.16-0.37,9.29-0.37
						C596.09,145.86,600.25,146.03,600.25,146.23z"/>
				</g>
			</g>
			<g>
				<g>
					<path class="st7" d="M482.23,160.62c0,0.2-25.18,0.37-56.23,0.37c-31.06,0-56.24-0.16-56.24-0.37c0-0.2,25.17-0.37,56.24-0.37
						C457.05,160.25,482.23,160.41,482.23,160.62z"/>
				</g>
			</g>
			<g>
				<g>
					<path class="st7" d="M481.42,216.25c0,0.2-25.18,0.37-56.23,0.37c-31.06,0-56.24-0.16-56.24-0.37c0-0.2,25.17-0.37,56.24-0.37
						C456.24,215.88,481.42,216.05,481.42,216.25z"/>
				</g>
			</g>
			<g>
				<g>
					<path class="st8" d="M523.09,160.62c0,0.2-6.85,0.37-15.3,0.37c-8.45,0-15.3-0.16-15.3-0.37c0-0.2,6.85-0.37,15.3-0.37
						C516.24,160.25,523.09,160.41,523.09,160.62z"/>
				</g>
			</g>
			<g>
				<g>
					<path class="st8" d="M522.77,216.25c0,0.2-6.85,0.37-15.3,0.37c-8.45,0-15.3-0.16-15.3-0.37c0-0.2,6.85-0.37,15.3-0.37
						C515.92,215.88,522.77,216.05,522.77,216.25z"/>
				</g>
			</g>
			<g>
				<g>
					<path class="st9" d="M377.14,168.2c0,0.2-1.7,0.37-3.79,0.37c-2.09,0-3.79-0.16-3.79-0.37c0-0.2,1.7-0.37,3.79-0.37
						C375.44,167.84,377.14,168,377.14,168.2z"/>
				</g>
			</g>
			<g>
				<g>
					<path class="st8" d="M403.29,168.36c0,0.2-3.69,0.37-8.24,0.37c-4.55,0-8.24-0.16-8.24-0.37s3.69-0.37,8.24-0.37
						C399.6,167.99,403.29,168.16,403.29,168.36z"/>
				</g>
			</g>
			<g>
				<g>
					<path class="st8" d="M420.03,168.36c0,0.2-3.16,0.37-7.06,0.37c-3.9,0-7.06-0.16-7.06-0.37s3.16-0.37,7.06-0.37
						C416.87,167.99,420.03,168.16,420.03,168.36z"/>
				</g>
			</g>
			<g>
				<g>
					<path class="st8" d="M441.22,168.36c0,0.2-3.22,0.37-7.19,0.37c-3.97,0-7.19-0.16-7.19-0.37s3.22-0.37,7.19-0.37
						C438,167.99,441.22,168.16,441.22,168.36z"/>
				</g>
			</g>
			<g>
				<g>
					<path class="st8" d="M459.79,168.36c0,0.2-2.93,0.37-6.54,0.37c-3.61,0-6.54-0.16-6.54-0.37s2.93-0.37,6.54-0.37
						C456.86,167.99,459.79,168.16,459.79,168.36z"/>
				</g>
			</g>
			<g>
				<g>
					<path class="st8" d="M521.26,168.36c0,0.2-12.88,0.37-28.77,0.37c-15.89,0-28.77-0.16-28.77-0.37s12.88-0.37,28.77-0.37
						C508.38,167.99,521.26,168.16,521.26,168.36z"/>
				</g>
			</g>
			<g>
				<g>
					<path class="st9" d="M376.09,177.88c0,0.2-1.46,0.37-3.27,0.37c-1.81,0-3.27-0.16-3.27-0.37s1.46-0.37,3.27-0.37
						C374.63,177.51,376.09,177.68,376.09,177.88z"/>
				</g>
			</g>
			<g>
				<g>
					<path class="st9" d="M376.35,187.82c0,0.2-1.52,0.37-3.4,0.37c-1.88,0-3.4-0.16-3.4-0.37c0-0.2,1.52-0.37,3.4-0.37
						C374.83,187.45,376.35,187.62,376.35,187.82z"/>
				</g>
			</g>
			<g>
				<g>
					<path class="st9" d="M376.35,199.07c0,0.2-1.52,0.37-3.4,0.37c-1.88,0-3.4-0.16-3.4-0.37c0-0.2,1.52-0.37,3.4-0.37
						C374.83,198.7,376.35,198.86,376.35,199.07z"/>
				</g>
			</g>
			<g>
				<g>
					<path class="st8" d="M438.34,198.54c0,0.2-11.36,0.37-25.37,0.37c-14.02,0-25.37-0.16-25.37-0.37s11.36-0.37,25.37-0.37
						C426.98,198.18,438.34,198.34,438.34,198.54z"/>
				</g>
			</g>
			<g>
				<g>
					<path class="st8" d="M433.9,187.82c0,0.2-10.83,0.37-24.19,0.37c-13.37,0-24.2-0.16-24.2-0.37c0-0.2,10.83-0.37,24.2-0.37
						C423.06,187.45,433.9,187.62,433.9,187.82z"/>
				</g>
			</g>
			<g>
				<g>
					<path class="st8" d="M550.82,177.36c0,0.2-36.89,0.37-82.39,0.37c-45.51,0-82.4-0.16-82.4-0.37s36.88-0.37,82.4-0.37
						C513.92,176.99,550.82,177.15,550.82,177.36z"/>
				</g>
			</g>
		</g>
	</g>
	<g>
		<g>
			<polygon class="st10" points="632.5,144 632.5,285.04 610.57,303.33 632.5,303.33 634.66,303.33 725.26,303.33 725.26,144 			"/>
			<g>
				<path class="st8" d="M632.5,144c0,0,0.54-0.01,1.62-0.02c1.09,0,2.7-0.01,4.8-0.02c4.23-0.01,10.46-0.03,18.47-0.05
					c16.07-0.02,39.27-0.06,67.87-0.1l0.2,0l0,0.2c0.02,42.57,0.04,98.17,0.06,159.34l0,0.26h-0.26c-5.1,0-10.57,0-16.08,0
					c-34.93-0.01-68.3-0.01-98.6-0.02l-0.67,0l0.51-0.43c7.58-6.32,14.9-12.42,21.94-18.29l-0.08,0.18
					c0.05-42.17,0.09-77.45,0.12-102.2c0.03-12.35,0.05-22.06,0.06-28.7c0.01-3.3,0.02-5.84,0.03-7.56
					c0.01-0.85,0.01-1.49,0.01-1.93C632.49,144.21,632.5,144,632.5,144s0.01,0.23,0.01,0.67c0,0.45,0.01,1.1,0.01,1.96
					c0.01,1.73,0.02,4.28,0.03,7.6c0.01,6.65,0.03,16.39,0.06,28.75c0.03,24.72,0.07,59.95,0.12,102.05l0,0.11l-0.08,0.07
					c-7.03,5.87-14.35,11.98-21.92,18.31l-0.16-0.43c30.31-0.01,63.67-0.01,98.6-0.02c5.51,0,10.98,0,16.08,0l-0.26,0.26
					c0.02-61.16,0.05-116.77,0.06-159.34l0.2,0.2c-28.55-0.04-51.71-0.08-67.75-0.1c-8.03-0.02-14.27-0.04-18.51-0.05
					c-2.12-0.01-3.73-0.02-4.83-0.02C633.07,144.01,632.5,144,632.5,144z"/>
			</g>
		</g>
		<g>
			<g>
				<path class="st8" d="M640.93,151.01c0,1.04-0.84,1.88-1.88,1.88c-1.04,0-1.88-0.84-1.88-1.88c0-1.04,0.84-1.88,1.88-1.88
					C640.09,149.13,640.93,149.98,640.93,151.01z"/>
				<path class="st8" d="M647.73,151.01c0,1.04-0.84,1.88-1.88,1.88c-1.04,0-1.88-0.84-1.88-1.88c0-1.04,0.84-1.88,1.88-1.88
					C646.89,149.13,647.73,149.98,647.73,151.01z"/>
				<path class="st8" d="M654.53,151.01c0,1.04-0.84,1.88-1.88,1.88c-1.04,0-1.88-0.84-1.88-1.88c0-1.04,0.84-1.88,1.88-1.88
					C653.69,149.13,654.53,149.98,654.53,151.01z"/>
			</g>
			<g>
				<g>
					<g>
						<path class="st9" d="M699.76,194.47c0,0.17-11.76,0.3-26.26,0.3c-14.51,0-26.26-0.13-26.26-0.3c0-0.17,11.76-0.3,26.26-0.3
							C688,194.17,699.76,194.3,699.76,194.47z"/>
					</g>
				</g>
				<g>
					<g>
						<path class="st9" d="M710.72,207.23c0,0.17-14.31,0.3-31.96,0.3c-17.66,0-31.96-0.13-31.96-0.3c0-0.17,14.31-0.3,31.96-0.3
							C696.41,206.93,710.72,207.06,710.72,207.23z"/>
					</g>
				</g>
				<g>
					<g>
						<path class="st9" d="M713.32,254.83c0,0.17-15.26,0.3-34.08,0.3c-18.83,0-34.08-0.13-34.08-0.3c0-0.17,15.26-0.3,34.08-0.3
							C698.06,254.53,713.32,254.67,713.32,254.83z"/>
					</g>
				</g>
				<g>
					<g>
						<path class="st9" d="M652.16,213.72c0,0.17-1.45,0.3-3.25,0.3c-1.79,0-3.25-0.13-3.25-0.3c0-0.17,1.45-0.3,3.25-0.3
							C650.71,213.42,652.16,213.55,652.16,213.72z"/>
					</g>
				</g>
				<g>
					<g>
						<path class="st9" d="M674.55,213.85c0,0.17-3.16,0.3-7.05,0.3c-3.89,0-7.05-0.13-7.05-0.3c0-0.17,3.16-0.3,7.05-0.3
							C671.39,213.55,674.55,213.69,674.55,213.85z"/>
					</g>
				</g>
				<g>
					<g>
						<path class="st9" d="M688.87,213.85c0,0.17-2.71,0.3-6.04,0.3c-3.34,0-6.04-0.13-6.04-0.3c0-0.17,2.71-0.3,6.04-0.3
							C686.17,213.55,688.87,213.69,688.87,213.85z"/>
					</g>
				</g>
				<g>
					<g>
						<path class="st9" d="M651.27,222c0,0.17-1.25,0.3-2.8,0.3c-1.55,0-2.8-0.13-2.8-0.3c0-0.17,1.25-0.3,2.8-0.3
							C650.02,221.7,651.27,221.83,651.27,222z"/>
					</g>
				</g>
				<g>
					<g>
						<path class="st9" d="M651.49,230.51c0,0.17-1.3,0.3-2.91,0.3c-1.61,0-2.91-0.13-2.91-0.3c0-0.17,1.3-0.3,2.91-0.3
							C650.19,230.2,651.49,230.34,651.49,230.51z"/>
					</g>
				</g>
				<g>
					<g>
						<path class="st9" d="M651.49,240.13c0,0.17-1.3,0.3-2.91,0.3c-1.61,0-2.91-0.13-2.91-0.3c0-0.17,1.3-0.3,2.91-0.3
							C650.19,239.83,651.49,239.96,651.49,240.13z"/>
					</g>
				</g>
				<g>
					<g>
						<path class="st9" d="M704.54,239.68c0,0.17-9.72,0.3-21.71,0.3c-11.99,0-21.71-0.13-21.71-0.3c0-0.17,9.72-0.3,21.71-0.3
							C694.82,239.38,704.54,239.52,704.54,239.68z"/>
					</g>
				</g>
				<g>
					<g>
						<path class="st9" d="M700.73,230.51c0,0.17-9.27,0.3-20.7,0.3c-11.44,0-20.7-0.13-20.7-0.3c0-0.17,9.27-0.3,20.7-0.3
							C691.46,230.2,700.73,230.34,700.73,230.51z"/>
					</g>
				</g>
				<g>
					<g>
						<path class="st9" d="M655.73,267.54c0,0.17-1.3,0.3-2.91,0.3c-1.61,0-2.91-0.13-2.91-0.3c0-0.17,1.3-0.3,2.91-0.3
							C654.43,267.24,655.73,267.37,655.73,267.54z"/>
					</g>
				</g>
				<g>
					<g>
						<path class="st9" d="M655.73,277.17c0,0.17-1.3,0.3-2.91,0.3c-1.61,0-2.91-0.13-2.91-0.3c0-0.17,1.3-0.3,2.91-0.3
							C654.43,276.86,655.73,277,655.73,277.17z"/>
					</g>
				</g>
				<g>
					<g>
						<path class="st9" d="M708.78,276.72c0,0.17-9.72,0.3-21.71,0.3c-11.99,0-21.71-0.13-21.71-0.3c0-0.17,9.72-0.3,21.71-0.3
							C699.06,276.42,708.78,276.55,708.78,276.72z"/>
					</g>
				</g>
				<g>
					<g>
						<path class="st9" d="M704.97,267.54c0,0.17-9.27,0.3-20.7,0.3c-11.44,0-20.7-0.13-20.7-0.3c0-0.17,9.27-0.3,20.7-0.3
							C695.7,267.24,704.97,267.37,704.97,267.54z"/>
					</g>
				</g>
				<g>
					<g>
						<path class="st9" d="M716.13,221.55c0,0.17-12.62,0.3-28.18,0.3c-15.56,0-28.18-0.13-28.18-0.3c0-0.17,12.61-0.3,28.18-0.3
							C703.51,221.25,716.13,221.39,716.13,221.55z"/>
					</g>
				</g>
				<g>
					<g>
						<path class="st8" d="M724.39,158.38c0,0.17-20.37,0.3-45.49,0.3c-25.13,0-45.49-0.13-45.49-0.3c0-0.17,20.36-0.3,45.49-0.3
							C704.02,158.08,724.39,158.21,724.39,158.38z"/>
					</g>
				</g>
				<g>
					<g>
						<path class="st9" d="M666.43,186.78c0,0.17-4.3,0.3-9.61,0.3c-5.31,0-9.61-0.13-9.61-0.3c0-0.17,4.3-0.3,9.61-0.3
							C662.12,186.48,666.43,186.61,666.43,186.78z"/>
					</g>
				</g>
				<g>
					<g>
						<path class="st9" d="M655.55,169.37c0,0.17-2.03,0.3-4.53,0.3c-2.5,0-4.53-0.13-4.53-0.3c0-0.17,2.03-0.3,4.53-0.3
							C653.52,169.07,655.55,169.21,655.55,169.37z"/>
					</g>
				</g>
			</g>
		</g>
	</g>
</g>
<g id="Character">
	<g>
		<g>
			<g>
				<g>
					<g>
						<path class="st9" d="M575.27,374.76l20.14-19.91l-35.92-61.51c-3.74-4.28-8.47-7.57-13.79-9.59l-12.65-4.81l-31.45-5.77
							l-22.33,8.79c-5.64,2.22-9.08,7.97-8.36,14l5.84,49.16l3.44,64.01l81.13-14.07l-8.16-23.68l0.27-36.91L575.27,374.76z"/>
						<g>
							<g>
								<g>
									<g>
										<path class="st8" d="M553.91,369.82c0.19,0,0.24-12.79,0.11-28.56c-0.13-15.78-0.39-28.56-0.58-28.56
											c-0.19,0-0.24,12.79-0.11,28.56C553.47,357.03,553.72,369.82,553.91,369.82z"/>
									</g>
								</g>
							</g>
						</g>
					</g>
					<g>
						<g>
							<path class="st9" d="M550.94,379.2l-49.02-19.73c-3.95-1.59-6.66-5.29-6.99-9.54l-3.59-47c0,0,0.42-19.99-12.06-20.96
								l-7.1,2.8c-9.18,4.88-11.45,18.24-10.2,28.56c1.78,14.66,2.52,35.41,4.5,48.14c1.63,10.41,7.88,18.64,17.78,22.25
								l60.38,13.07L550.94,379.2z"/>
						</g>
					</g>
					<g>
						<g>
							<g>
								<path class="st8" d="M492.05,310.1c0.02,0,0.08,0.37,0.15,1.08c0.08,0.77,0.18,1.8,0.31,3.1c0.25,2.75,0.6,6.63,1.04,11.4
									c0.42,4.83,0.91,10.56,1.45,16.91c0.13,1.59,0.27,3.22,0.41,4.89c0.15,1.67,0.25,3.37,0.63,5.03
									c0.36,1.66,1.16,3.22,2.44,4.4c1.27,1.19,2.86,2.06,4.52,2.81c13.52,5.85,25.98,10.68,35.02,14.07
									c4.49,1.65,8.14,3,10.74,3.96c1.22,0.45,2.2,0.81,2.92,1.08c0.67,0.25,1.01,0.39,1,0.42c-0.01,0.02-0.37-0.08-1.05-0.29
									c-0.73-0.24-1.72-0.56-2.96-0.96c-2.57-0.85-6.26-2.12-10.81-3.76c-9.1-3.28-21.57-8.04-35.13-13.9
									c-1.69-0.77-3.34-1.66-4.7-2.94c-1.37-1.26-2.25-3-2.61-4.73c-0.39-1.74-0.48-3.46-0.62-5.12c-0.13-1.67-0.26-3.3-0.39-4.89
									c-0.49-6.36-0.94-12.09-1.31-16.93c-0.35-4.77-0.63-8.66-0.83-11.42c-0.08-1.3-0.14-2.34-0.19-3.11
									C492.04,310.47,492.03,310.1,492.05,310.1z"/>
							</g>
						</g>
					</g>
					<g>
						<g>
							<g>
								<path class="st8" d="M463.96,335.65c0.02,0,0.05,0.22,0.1,0.63c0.04,0.49,0.1,1.09,0.16,1.81c0.15,1.67,0.34,3.93,0.58,6.67
									c0.27,2.81,0.61,6.16,1.1,9.86c0.5,3.69,1.1,7.77,2.21,11.91c0.53,2.09,1.27,4.02,2.39,5.68c1.12,1.67,2.37,3.17,3.66,4.5
									c2.59,2.65,5.36,4.59,7.84,5.89c5.02,2.61,8.66,2.64,8.61,2.82c0,0.02-0.22,0.02-0.64-0.01c-0.42-0.03-1.03-0.08-1.81-0.23
									c-1.56-0.28-3.81-0.89-6.37-2.16c-2.55-1.26-5.4-3.2-8.06-5.87c-1.33-1.34-2.61-2.86-3.76-4.56
									c-1.17-1.71-1.97-3.77-2.49-5.86c-1.13-4.2-1.71-8.29-2.18-12c-0.46-3.72-0.75-7.08-0.96-9.9
									c-0.21-2.82-0.32-5.11-0.37-6.69c-0.02-0.73-0.03-1.33-0.04-1.82C463.93,335.87,463.94,335.65,463.96,335.65z"/>
							</g>
						</g>
					</g>
					<g>
						<g>
							<g>
								<path class="st8" d="M484.93,368.54c-0.07-0.02,0.14-1.07,0.89-2.61c0.74-1.54,2.12-3.54,4.12-5.25
									c2.01-1.71,4.19-2.75,5.83-3.24c1.64-0.5,2.71-0.54,2.72-0.47c0.02,0.11-1.01,0.31-2.57,0.91c-1.56,0.59-3.62,1.66-5.56,3.3
									c-1.93,1.65-3.31,3.52-4.13,4.97C485.39,367.59,485.03,368.57,484.93,368.54z"/>
							</g>
						</g>
					</g>
					<g class="st2">
						<g>
							<g>
								<path d="M536.85,373.6c-5.24-2.96-10.37-5.24-15.85-7.73c-5.48-2.49-10.85-5.69-14.44-10.52
									c-6.77-9.12-5.99-22.28-12.92-31.28c0.45,6.05,0.9,12.1,1.36,18.15c0.41,5.55-0.44,11.03,3.14,14.8
									c3.01,3.17,8.88,5.61,13.03,6.98C519.52,366.75,528.51,370.84,536.85,373.6"/>
							</g>
						</g>
					</g>
				</g>
			</g>
			<polygon class="st2" points="553.45,316.16 557.69,342.32 553.68,334.91 			"/>
			<g>
				<path class="st7" d="M490.57,300.02c0,0.04-0.41,0.07-1.14,0.09c-0.84,0.02-1.87,0.05-3.09,0.08c-2.61,0.07-6.21,0.2-10.18,0.48
					c-3.97,0.29-7.56,0.67-10.15,0.98c-1.21,0.14-2.23,0.26-3.07,0.36c-0.73,0.08-1.13,0.11-1.14,0.08
					c-0.01-0.04,0.39-0.13,1.11-0.28c0.72-0.15,1.76-0.33,3.05-0.53c2.59-0.4,6.18-0.84,10.16-1.13c3.98-0.28,7.6-0.36,10.22-0.33
					c1.31,0.01,2.37,0.04,3.1,0.09C490.17,299.95,490.57,299.99,490.57,300.02z"/>
			</g>
			<g>
				<path class="st7" d="M491.97,325.06c0.01,0.14-6.41,0.79-14.35,1.45c-7.94,0.66-14.38,1.07-14.39,0.93
					c-0.01-0.14,6.41-0.79,14.35-1.45C485.51,325.33,491.95,324.91,491.97,325.06z"/>
			</g>
			<g>
				<path class="st7" d="M494.33,351.37c0.02,0.03-0.35,0.24-1.02,0.58c-0.67,0.35-1.66,0.81-2.9,1.33
					c-2.48,1.05-6.01,2.28-10.03,3.19c-4.02,0.9-7.74,1.29-10.43,1.39c-1.35,0.06-2.44,0.06-3.19,0.03
					c-0.75-0.03-1.17-0.06-1.17-0.09c0-0.04,0.42-0.07,1.17-0.11c0.75-0.03,1.83-0.09,3.17-0.2c2.67-0.2,6.35-0.64,10.34-1.53
					c3.98-0.9,7.5-2.06,10-3.02c1.25-0.48,2.26-0.88,2.95-1.17C493.92,351.48,494.31,351.34,494.33,351.37z"/>
			</g>
			<g>
				<path class="st7" d="M511.76,364.87c0.08,0.15-2.55,1.32-4.86,3.9c-2.34,2.56-3.23,5.3-3.39,5.23
					c-0.06-0.02,0.08-0.72,0.54-1.79c0.45-1.06,1.27-2.47,2.46-3.79c1.19-1.32,2.51-2.27,3.52-2.83
					C511.05,365.02,511.73,364.81,511.76,364.87z"/>
			</g>
			<g>
				<path class="st7" d="M529.49,382.19c-0.13-0.03,0.44-2.47,1.92-5.16c1.47-2.7,3.22-4.49,3.31-4.4c0.12,0.1-1.42,2.01-2.86,4.65
					C530.42,379.91,529.64,382.24,529.49,382.19z"/>
			</g>
			<g>
				<path class="st7" d="M501.55,285.3c0.03,0.14-3.08,0.82-6.93,1.52c-3.85,0.7-7,1.15-7.03,1.01c-0.03-0.14,3.08-0.82,6.93-1.52
					C498.38,285.61,501.52,285.16,501.55,285.3z"/>
			</g>
			<g>
				<path class="st7" d="M548.48,287.44c-0.02,0.14-4.32-0.25-9.61-0.88c-5.29-0.63-9.57-1.25-9.55-1.4
					c0.02-0.14,4.32,0.25,9.61,0.88C544.22,286.67,548.49,287.3,548.48,287.44z"/>
			</g>
			<g>
				<path class="st7" d="M552.48,309.26c0,0.02-0.21,0.03-0.61,0.04c-0.46,0-1.04,0.01-1.76,0.01c-1.6,0-3.79,0-6.47-0.01
					c-5.46,0-13,0.04-21.33,0.25c-8.33,0.22-15.87,0.56-21.32,0.84c-2.68,0.14-4.87,0.26-6.46,0.34c-0.72,0.03-1.3,0.06-1.76,0.08
					c-0.4,0.01-0.61,0.01-0.62-0.01c0-0.02,0.21-0.05,0.61-0.1c0.46-0.05,1.04-0.1,1.75-0.17c1.52-0.14,3.73-0.32,6.45-0.51
					c5.45-0.38,12.99-0.78,21.33-1c8.33-0.21,15.88-0.2,21.35-0.1c2.73,0.05,4.94,0.11,6.47,0.17c0.72,0.03,1.3,0.06,1.76,0.08
					C552.27,309.22,552.48,309.25,552.48,309.26z"/>
			</g>
			<g>
				<path class="st7" d="M553.06,336.91c0.01,0.14-12.85,1.11-28.72,2.15c-15.88,1.05-28.75,1.78-28.76,1.63
					c-0.01-0.14,12.85-1.11,28.72-2.15C540.17,337.49,553.05,336.76,553.06,336.91z"/>
			</g>
			<g>
				<path class="st7" d="M551.69,361.26c0.01,0.03-0.37,0.2-1.08,0.46c-0.71,0.27-1.74,0.63-3.02,1.05
					c-2.57,0.84-6.15,1.89-10.16,2.86c-4.01,0.96-7.68,1.66-10.35,2.07c-1.33,0.21-2.42,0.36-3.17,0.44
					c-0.75,0.09-1.17,0.12-1.17,0.08c-0.01-0.04,0.4-0.13,1.14-0.28c0.85-0.16,1.9-0.37,3.14-0.61c2.65-0.51,6.3-1.26,10.3-2.22
					c4-0.96,7.59-1.96,10.18-2.7c1.21-0.35,2.24-0.65,3.07-0.89C551.27,361.32,551.68,361.22,551.69,361.26z"/>
			</g>
			<g>
				<path class="st7" d="M572.26,317.12c0.04,0.14-4.15,1.34-9.34,2.68c-5.19,1.34-9.43,2.32-9.47,2.18
					c-0.04-0.14,4.14-1.34,9.34-2.68C567.99,317.95,572.22,316.98,572.26,317.12z"/>
			</g>
			<g>
				<path class="st7" d="M562.45,298.43c0.03,0.14-1.83,0.59-4.14,1.01c-2.31,0.42-4.21,0.64-4.23,0.5
					c-0.03-0.14,1.83-0.59,4.14-1.01C560.53,298.51,562.43,298.29,562.45,298.43z"/>
			</g>
			<g>
				<path class="st8" d="M492.2,304.23c-0.1,0.02-0.25-1.66-1.17-4.17c-0.89-2.5-2.71-5.83-5.74-8.55c-3.03-2.73-6.54-4.18-9.12-4.8
					c-2.6-0.64-4.28-0.62-4.28-0.72c0-0.03,0.42-0.06,1.18-0.04c0.76,0.02,1.85,0.12,3.18,0.4c2.65,0.54,6.27,1.97,9.38,4.77
					c3.11,2.8,4.92,6.25,5.74,8.82c0.42,1.29,0.64,2.37,0.74,3.12C492.22,303.81,492.23,304.23,492.2,304.23z"/>
			</g>
			<g>
				<path class="st8" d="M550.6,290.9c0.14-0.02,0.92,4.07,1.73,9.14c0.81,5.07,1.35,9.2,1.21,9.23c-0.14,0.02-0.91-4.07-1.73-9.14
					C551,295.05,550.46,290.92,550.6,290.9z"/>
			</g>
		</g>
		<g>
			<g>
				<g>
					<g>
						<path class="st9" d="M605.24,438.29c0,0,37.68,10.43,39.19,10.96c2.27,0.8,1.89,9.12-1.64,8.99
							c-1.67-0.06-28.94,1.02-32.39,0.8c-3.45-0.22-13.84-4.31-13.84-4.31L605.24,438.29z"/>
					</g>
				</g>
			</g>
			<g>
				<g>
					<g>
						<g>
							<path class="st8" d="M620.94,452.66c0.19,0.03,0.44-1.97,1.66-4.05c1.19-2.1,2.78-3.32,2.66-3.47
								c-0.07-0.15-1.94,0.92-3.21,3.15C620.76,450.53,620.78,452.68,620.94,452.66z"/>
						</g>
					</g>
				</g>
			</g>
			<g>
				<g>
					<g>
						<g>
							<path class="st8" d="M617.01,450.88c0.18,0.03,0.57-1.75,1.57-3.72c0.98-1.98,2.19-3.35,2.05-3.48
								c-0.1-0.12-1.58,1.11-2.62,3.19C616.96,448.96,616.85,450.87,617.01,450.88z"/>
						</g>
					</g>
				</g>
			</g>
			<g>
				<g>
					<g>
						<g>
							<path class="st8" d="M613.32,449.9c0.19-0.01,0.04-1.89,0.88-3.98c0.8-2.1,2.18-3.39,2.05-3.52
								c-0.08-0.14-1.76,1.02-2.64,3.29C612.72,447.95,613.17,449.95,613.32,449.9z"/>
						</g>
					</g>
				</g>
			</g>
			<g>
				<g>
					<g>
						<g>
							<path class="st8" d="M613.99,445.03c0.07,0.02,0.4-1.04,0.4-2.8c0-0.88-0.1-1.93-0.38-3.07c-0.14-0.57-0.32-1.16-0.56-1.75
								c-0.12-0.3-0.26-0.64-0.6-0.92c-0.35-0.32-0.99-0.25-1.29,0.06c-0.35,0.3-0.45,0.73-0.5,1.07c-0.04,0.35-0.06,0.67-0.05,1
								c0.01,0.65,0.09,1.27,0.23,1.84c0.28,1.15,0.73,2.12,1.16,2.88c0.88,1.53,1.64,2.31,1.69,2.27c0.09-0.06-0.55-0.94-1.3-2.47
								c-0.37-0.77-0.76-1.71-0.99-2.8c-0.12-0.54-0.18-1.12-0.18-1.72c0.02-0.58,0.01-1.3,0.35-1.58c0.18-0.15,0.34-0.16,0.5-0.04
								c0.17,0.13,0.31,0.39,0.41,0.66c0.23,0.56,0.42,1.12,0.57,1.66c0.3,1.08,0.44,2.09,0.5,2.94
								C614.06,443.95,613.89,445.01,613.99,445.03z"/>
						</g>
					</g>
				</g>
			</g>
			<g>
				<g>
					<g>
						<g>
							<path class="st8" d="M613.95,444.65c0.02-0.07-0.89-0.38-2.43-0.39c-0.77,0-1.68,0.08-2.67,0.33
								c-0.49,0.13-1.01,0.26-1.54,0.57c-0.52,0.26-1.06,0.98-0.85,1.72c0.16,0.7,0.76,1.19,1.36,1.35c0.6,0.17,1.18,0.11,1.69,0
								c1.03-0.24,1.84-0.75,2.45-1.2c1.21-0.95,1.8-1.67,1.75-1.72c-0.07-0.08-0.78,0.54-2.01,1.36c-0.62,0.39-1.39,0.82-2.31,1
								c-0.46,0.09-0.95,0.11-1.4-0.02c-0.44-0.12-0.81-0.46-0.92-0.9c-0.11-0.42,0.15-0.81,0.56-1.05c0.4-0.25,0.9-0.39,1.37-0.53
								c0.93-0.27,1.8-0.39,2.54-0.44C613.01,444.6,613.93,444.75,613.95,444.65z"/>
						</g>
					</g>
				</g>
			</g>
			<g>
				<g>
					<g>
						<g>
							<path class="st8" d="M626.73,453.07c0.19-0.02,0-1.63,0.74-3.4c0.71-1.78,1.96-2.8,1.84-2.95c-0.06-0.15-1.64,0.74-2.43,2.71
								C626.07,451.39,626.57,453.13,626.73,453.07z"/>
						</g>
					</g>
				</g>
			</g>
			<g>
				<g>
					<g>
						<g>
							<path class="st8" d="M600.44,454.81c-0.02,0.04,0.5,0.28,1.46,0.69c0.97,0.37,2.38,0.88,4.19,1.3
								c3.6,0.91,8.74,1.42,14.39,1.36c5.65-0.06,10.73-0.32,14.42-0.47c1.75-0.09,3.21-0.17,4.37-0.23c1.03-0.07,1.6-0.13,1.6-0.17
								c0-0.04-0.57-0.07-1.61-0.07c-1.16,0.01-2.62,0.02-4.37,0.03c-3.82,0.07-8.85,0.17-14.41,0.28
								c-5.62,0.06-10.69-0.38-14.28-1.17C602.58,455.62,600.48,454.69,600.44,454.81z"/>
						</g>
					</g>
				</g>
			</g>
			<g>
				<g>
					<g>
						<g>
							<path class="st8" d="M599.32,455.67c0.05,0.09,1.08-0.52,2.82-1.28c1.72-0.74,4.3-1.62,7.13-1.19
								c2.84,0.43,4.85,2.34,6.16,3.67c1.32,1.37,2.09,2.28,2.17,2.22c0.06-0.05-0.59-1.05-1.84-2.52c-0.64-0.73-1.44-1.57-2.5-2.34
								c-1.04-0.77-2.39-1.42-3.89-1.65c-3.04-0.46-5.71,0.55-7.42,1.4C600.23,454.87,599.28,455.6,599.32,455.67z"/>
						</g>
					</g>
				</g>
			</g>
		</g>
		<g>
			<g>
				<g>
					<g>
						<path class="st9" d="M560.65,429.54c0,0-35.65,23.34-36.93,24.31c-1.92,1.45,0.28,8.36,3.61,7.16
							c1.57-0.57,31.49-8.89,34.71-10.14c3.22-1.25,11.88-8.31,11.88-8.31L560.65,429.54z"/>
					</g>
				</g>
			</g>
			<g>
				<g>
					<g>
						<g>
							<path class="st8" d="M550.06,448c0.16-0.03-0.48-2.09-2.39-3.82c-1.89-1.74-4-2.19-4.02-2.03c-0.07,0.18,1.82,0.86,3.59,2.5
								C549.04,446.27,549.89,448.09,550.06,448z"/>
						</g>
					</g>
				</g>
			</g>
			<g>
				<g>
					<g>
						<g>
							<path class="st8" d="M553.26,445.11c0.15-0.06-0.54-1.85-2.17-3.51c-1.62-1.67-3.4-2.4-3.46-2.25
								c-0.09,0.16,1.47,1.1,3.01,2.69C552.19,443.62,553.09,445.2,553.26,445.11z"/>
						</g>
					</g>
				</g>
			</g>
			<g>
				<g>
					<g>
						<g>
							<path class="st8" d="M556.47,443.05c0.16,0.01-0.02-2.04-1.56-3.92c-1.52-1.9-3.49-2.5-3.52-2.34
								c-0.08,0.17,1.62,0.98,3.03,2.73C555.85,441.26,556.29,443.1,556.47,443.05z"/>
						</g>
					</g>
				</g>
			</g>
			<g>
				<g>
					<g>
						<g>
							<path class="st8" d="M554.36,438.62c0.09-0.05-0.39-1.01-0.81-2.67c-0.2-0.83-0.37-1.83-0.42-2.95
								c-0.02-0.56-0.01-1.15,0.04-1.76c0.02-0.29,0.07-0.58,0.19-0.75c0.11-0.16,0.27-0.2,0.49-0.11c0.41,0.16,0.62,0.85,0.81,1.4
								c0.18,0.57,0.3,1.14,0.35,1.7c0.11,1.11,0.03,2.12-0.09,2.97c-0.25,1.69-0.58,2.72-0.48,2.75c0.06,0.02,0.55-0.95,0.92-2.68
								c0.18-0.86,0.31-1.92,0.23-3.1c-0.04-0.59-0.15-1.21-0.34-1.83c-0.09-0.31-0.21-0.62-0.35-0.93
								c-0.15-0.31-0.38-0.68-0.8-0.86c-0.38-0.21-1.01-0.08-1.25,0.33c-0.24,0.37-0.27,0.74-0.29,1.06c-0.05,0.64-0.04,1.25,0,1.84
								c0.08,1.17,0.3,2.2,0.57,3.04C553.66,437.76,554.3,438.66,554.36,438.62z"/>
						</g>
					</g>
				</g>
			</g>
			<g>
				<g>
					<g>
						<g>
							<path class="st8" d="M554.28,438.24c0.05,0.09,0.88-0.33,2.32-0.68c0.72-0.17,1.58-0.32,2.55-0.35
								c0.48-0.01,1-0.02,1.46,0.09c0.47,0.11,0.83,0.4,0.85,0.83c0.03,0.45-0.22,0.88-0.6,1.13c-0.38,0.26-0.86,0.39-1.33,0.44
								c-0.93,0.11-1.8-0.06-2.51-0.25c-1.42-0.41-2.29-0.78-2.33-0.69c-0.03,0.06,0.75,0.58,2.19,1.11c0.72,0.25,1.64,0.49,2.7,0.4
								c0.52-0.05,1.09-0.17,1.61-0.51c0.52-0.33,0.94-0.98,0.88-1.69c-0.03-0.77-0.76-1.29-1.33-1.38c-0.6-0.13-1.13-0.1-1.64-0.07
								c-1.02,0.06-1.92,0.27-2.65,0.5C555.02,437.61,554.25,438.18,554.28,438.24z"/>
						</g>
					</g>
				</g>
			</g>
			<g>
				<g>
					<g>
						<g>
							<path class="st8" d="M531.86,459.71c0.04,0.06,0.6-0.36,0.87-1.38c0.3-1,0.11-2.53-0.67-3.87c-0.37-0.68-0.8-1.26-1.19-1.78
								c-0.39-0.52-0.79-0.99-1.21-1.3c-0.41-0.32-0.84-0.47-1.14-0.48c-0.3-0.01-0.45,0.06-0.45,0.1c0,0.1,0.64,0.05,1.3,0.72
								c0.33,0.32,0.67,0.77,1.03,1.3c0.37,0.53,0.76,1.11,1.11,1.74c0.72,1.26,0.94,2.56,0.78,3.48
								C532.17,459.16,531.78,459.65,531.86,459.71z"/>
						</g>
					</g>
				</g>
			</g>
			<g>
				<g>
					<g>
						<g>
							<path class="st8" d="M544.66,450.15c0.17,0.02,0.12-1.79-1.26-3.42c-1.35-1.64-3.12-2.01-3.14-1.85
								c-0.07,0.17,1.44,0.77,2.65,2.25C544.17,448.59,544.48,450.18,544.66,450.15z"/>
						</g>
					</g>
				</g>
			</g>
			<g>
				<g>
					<g>
						<g>
							<path class="st8" d="M570.24,443.82c-0.03-0.04-0.58,0.36-1.57,1.08c-1,0.69-2.48,1.67-4.4,2.69
								c-1.92,1.03-4.28,2.1-6.98,3.11c-2.7,1.01-5.73,1.96-8.93,2.88c-6.41,1.85-12.22,3.54-16.41,4.8
								c-2.01,0.62-3.68,1.13-4.95,1.52c-1.17,0.37-1.8,0.6-1.79,0.64c0.01,0.04,0.67-0.1,1.86-0.4c1.29-0.34,2.98-0.79,5.01-1.33
								c4.22-1.15,10.04-2.77,16.47-4.62c3.21-0.93,6.25-1.9,8.96-2.95c2.71-1.05,5.08-2.17,6.99-3.26
								c1.91-1.09,3.36-2.13,4.33-2.89C569.77,444.32,570.27,443.85,570.24,443.82z"/>
						</g>
					</g>
				</g>
			</g>
			<g>
				<g>
					<g>
						<g>
							<path class="st8" d="M571.56,444.3c0.02-0.07-1.11-0.49-3.02-0.8c-1.88-0.3-4.74-0.45-7.49,0.92
								c-1.36,0.68-2.45,1.71-3.21,2.75c-0.77,1.05-1.29,2.1-1.67,2.98c-0.75,1.78-1.06,2.93-0.99,2.96
								c0.09,0.04,0.55-1.06,1.4-2.77c0.85-1.66,2.19-4.09,4.76-5.36c2.56-1.28,5.29-1.22,7.15-1.04
								C570.38,444.14,571.54,444.4,571.56,444.3z"/>
						</g>
					</g>
				</g>
			</g>
		</g>
		<g>
			<g>
				<g>
					<g>
						<path class="st8" d="M634.77,371.16c0,0,10.7,3.82,10.74,15.81c0.09,22.97-46.42,48.3-46.42,48.3l-61.89-41.01l-3.88-1.57
							C533.32,392.69,616.86,361.31,634.77,371.16z"/>
					</g>
				</g>
			</g>
			<g>
				<g>
					<g>
						<g>
							<path class="st7" d="M568.55,414.97c0.03,0.03,0.6-0.36,1.61-1.09c1.01-0.74,2.46-1.83,4.23-3.2
								c3.54-2.74,8.36-6.62,13.55-11.07c5.19-4.45,9.75-8.63,13-11.72c1.62-1.54,2.92-2.81,3.8-3.7c0.88-0.89,1.35-1.4,1.32-1.43
								c-0.03-0.03-0.56,0.42-1.49,1.25c-1.01,0.91-2.34,2.11-3.93,3.55c-3.32,3-7.92,7.12-13.1,11.57
								c-5.18,4.44-9.95,8.38-13.42,11.2c-1.67,1.36-3.05,2.49-4.11,3.35C569.05,414.48,568.52,414.94,568.55,414.97z"/>
						</g>
					</g>
				</g>
			</g>
			<g>
				<g>
					<g>
						<g>
							<path class="st7" d="M617.3,379.74c0.02-0.15-2.74-0.42-5.96,0.54c-3.23,0.94-5.41,2.67-5.3,2.78
								c0.1,0.16,2.36-1.27,5.48-2.18C614.62,379.96,617.3,379.94,617.3,379.74z"/>
						</g>
					</g>
				</g>
			</g>
			<g>
				<g>
					<g>
						<g>
							<path class="st7" d="M611.96,376.12c-0.06-0.15-2.04,0.72-3.67,2.76c-1.65,2.02-2.08,4.15-1.93,4.17
								c0.18,0.06,0.86-1.87,2.42-3.77C610.32,377.35,612.06,376.29,611.96,376.12z"/>
						</g>
					</g>
				</g>
			</g>
			<g>
				<g>
					<g>
						<g>
							<path class="st8" d="M638.17,448.87c0.03-0.07-0.74-0.22-1.6,0.48c-0.84,0.67-1.56,2.02-1.79,3.59
								c-0.23,1.58,0.12,3.04,0.56,3.96c0.44,0.94,0.92,1.38,0.97,1.34c0.09-0.06-0.25-0.58-0.56-1.5
								c-0.31-0.91-0.57-2.25-0.35-3.71c0.21-1.44,0.8-2.69,1.46-3.35C637.53,448.99,638.18,448.97,638.17,448.87z"/>
						</g>
					</g>
				</g>
			</g>
		</g>
		<g>
			<g>
				<g>
					<g>
						<path class="st1" d="M630.34,338.53l-17.61,47.43c-1.01,2.71-3.61,4.49-6.5,4.46l-96.91-1.28v-7.36l35.96,1.31l15.27-47.34
							c0.52-1.6,2.01-2.68,3.69-2.68l62.52,0.18C629.48,333.25,631.34,335.99,630.34,338.53z"/>
						<g>
							<path class="st8" d="M630.34,338.53c0,0,0.01-0.05,0.04-0.15c0.02-0.1,0.09-0.24,0.12-0.44c0.09-0.39,0.16-1.01-0.04-1.78
								c-0.2-0.75-0.7-1.68-1.7-2.29c-0.49-0.3-1.09-0.52-1.76-0.56c-0.67-0.03-1.39-0.01-2.15-0.02
								c-6.11-0.01-14.98-0.02-26.08-0.03c-5.56-0.01-11.67-0.02-18.27-0.03c-3.3-0.01-6.73-0.01-10.27-0.02
								c-1.77,0-3.57-0.01-5.39-0.01c-0.92-0.05-1.81,0.07-2.58,0.57c-0.76,0.48-1.35,1.23-1.6,2.11
								c-4.61,14.32-9.74,30.24-15.22,47.26l-0.04,0.11l-0.12,0c-11.47-0.42-23.55-0.86-35.96-1.31l0.16-0.16c0,0.41,0,0.86,0,1.31
								c0,2.07,0,4.14,0,6.05l-0.15-0.16c21.68,0.29,42.26,0.57,60.94,0.82c9.34,0.13,18.2,0.25,26.49,0.36
								c2.07,0.03,4.11,0.06,6.11,0.08c1,0.01,1.99,0.03,2.97,0.04c0.98,0.04,1.93-0.07,2.82-0.41c1.77-0.65,3.21-2.06,3.88-3.74
								c0.64-1.72,1.28-3.41,1.89-5.05c4.91-13.17,8.88-23.81,11.62-31.17c1.37-3.66,2.44-6.5,3.17-8.45
								C629.95,339.53,630.34,338.53,630.34,338.53s-0.36,1.02-1.06,2.96c-0.72,1.95-1.76,4.8-3.11,8.47
								c-2.72,7.37-6.66,18.02-11.53,31.2c-0.61,1.65-1.24,3.34-1.89,5.07c-0.69,1.74-2.18,3.2-4.01,3.88
								c-0.91,0.35-1.92,0.47-2.9,0.43c-0.98-0.01-1.97-0.02-2.97-0.04c-2-0.02-4.03-0.05-6.11-0.08
								c-8.29-0.1-17.15-0.22-26.49-0.33c-18.68-0.24-39.26-0.51-60.94-0.79l-0.15,0v-0.15c0-1.91,0-3.98,0-6.05
								c0-0.45,0-0.9,0-1.31v-0.16l0.16,0.01c12.41,0.45,24.49,0.9,35.96,1.32l-0.15,0.11c5.5-17.02,10.64-32.94,15.26-47.25
								c0.27-0.93,0.91-1.74,1.72-2.25c0.81-0.53,1.82-0.65,2.72-0.6c1.83,0.01,3.62,0.01,5.39,0.02c3.54,0.01,6.96,0.03,10.27,0.04
								c6.6,0.03,12.72,0.05,18.27,0.07c11.1,0.05,19.97,0.09,26.08,0.12c0.76,0.01,1.48-0.01,2.16,0.03
								c0.68,0.04,1.3,0.27,1.8,0.58c1.01,0.63,1.51,1.58,1.71,2.35c0.19,0.78,0.11,1.41,0.01,1.8
								C630.43,338.34,630.34,338.53,630.34,338.53z"/>
						</g>
					</g>
				</g>
			</g>
			<g>
				<g>
					<path class="st0" d="M587.37,356.46c1.26-0.85,3.58-0.51,4.71,0.5c1.13,1.01,1.5,2.77,0.92,4.17
						c-0.57,1.41-2.02,2.39-3.54,2.47c-1.61,0.09-3.29-0.92-3.74-2.47C585.27,359.59,585.77,357.28,587.37,356.46"/>
				</g>
			</g>
		</g>
		<g>
			<g>
				<g>
					<g>
						<path class="st8" d="M609.52,437.85c0,0-87.34-55.94-91.2-58.14c-3.28-1.87-12.05-7.27-20.71-4.88
							c-8.65,2.39-16.41,10.14-20.29,21.48c-2.22,6.48-3.26,17.53-3.75,25.82c-0.59,9.91,2.48,19.79,8.96,27.31
							c2.95,3.42,6.59,6.4,10.9,7.74c0.91,0.28,1.86,0.53,2.83,0.74c16.53,3.58,33.52-3.84,42.81-17.97l2.04-3.11
							c0,0,57.2,21.01,58.09,20.72L609.52,437.85z"/>
					</g>
				</g>
			</g>
			<g>
				<path class="st7" d="M522.84,382.81c-0.01,0.01-0.08-0.04-0.22-0.13c-0.16-0.11-0.36-0.25-0.61-0.42
					c-0.53-0.37-1.32-0.92-2.36-1.58c-2.07-1.32-5.14-3.21-9.28-4.71c-2.07-0.74-4.42-1.33-6.99-1.47
					c-2.56-0.11-5.34,0.27-8.03,1.31c-2.71,1.01-5.33,2.63-7.72,4.68c-1.2,1.03-2.35,2.15-3.43,3.37c-1.07,1.22-2.01,2.58-2.84,4.04
					c-1.66,2.9-2.89,5.97-3.77,9c-0.82,3.05-1.48,6.06-2.11,8.9c-1.25,5.7-1.92,10.92-2.01,15.32c-0.07,4.41,0.37,7.96,0.79,10.39
					c0.19,1.22,0.41,2.15,0.54,2.79c0.06,0.29,0.1,0.53,0.14,0.73c0.03,0.16,0.04,0.25,0.03,0.25c-0.01,0-0.04-0.08-0.08-0.24
					c-0.05-0.19-0.12-0.43-0.19-0.71c-0.16-0.63-0.41-1.56-0.64-2.78c-0.48-2.42-0.99-5.99-0.96-10.43
					c0.04-4.43,0.68-9.7,1.91-15.42c0.62-2.86,1.26-5.85,2.09-8.94c0.88-3.07,2.12-6.17,3.81-9.12c0.84-1.47,1.8-2.86,2.9-4.12
					c1.1-1.24,2.27-2.37,3.49-3.41c2.43-2.08,5.11-3.72,7.88-4.74c2.76-1.05,5.6-1.42,8.23-1.29c2.62,0.16,5.01,0.79,7.09,1.56
					c4.16,1.57,7.22,3.51,9.26,4.89c1.02,0.69,1.79,1.27,2.31,1.67c0.24,0.19,0.43,0.34,0.58,0.46
					C522.78,382.74,522.84,382.8,522.84,382.81z"/>
			</g>
			<g>
				<g>
					<g>
						<g>
							<path class="st7" d="M501.35,422.06c0,0,0.16,0.08,0.48,0.21c0.35,0.14,0.82,0.33,1.43,0.57c1.29,0.5,3.15,1.21,5.54,2.13
								c4.86,1.83,11.88,4.48,20.6,7.76c8.75,3.26,19.23,7.15,30.99,11.43c11.76,4.27,24.8,8.97,38.72,13.68l0.25,0.09l0.12-0.24
								c2.19-4.17,4.49-8.58,6.83-13.05c1.19-2.28,2.38-4.54,3.48-6.65l0.13-0.26l-0.24-0.15c-26.26-16.67-49.75-31.58-66.7-42.34
								c-8.46-5.34-15.29-9.65-20.03-12.64c-2.35-1.46-4.17-2.61-5.44-3.4c-0.61-0.37-1.08-0.66-1.42-0.87
								c-0.32-0.19-0.49-0.28-0.49-0.28s0.15,0.12,0.46,0.33c0.33,0.22,0.79,0.53,1.39,0.92c1.25,0.81,3.06,1.99,5.38,3.49
								c4.71,3.03,11.51,7.39,19.93,12.8c16.92,10.8,40.38,25.77,66.59,42.5l-0.11-0.41c-1.11,2.11-2.29,4.37-3.48,6.65
								c-2.34,4.47-4.64,8.87-6.83,13.05l0.38-0.15c-13.91-4.7-26.95-9.37-38.73-13.61c-11.75-4.28-22.25-8.1-31.04-11.3
								c-8.75-3.21-15.79-5.79-20.67-7.58c-2.41-0.88-4.28-1.56-5.58-2.03c-0.62-0.22-1.1-0.39-1.45-0.51
								C501.52,422.11,501.35,422.06,501.35,422.06z"/>
						</g>
					</g>
				</g>
			</g>
		</g>
		<g>
			<path class="st9" d="M505.87,236.47c-1.52-3-3.06-6.02-3.88-9.28c-0.82-3.26-0.87-6.82,0.52-9.88c0.81-1.79,2.09-3.36,2.73-5.22
				c0.88-2.56,0.52-5.58,2.1-7.77c2.48-3.43,7.77-2.63,11.6-4.42c2.98-1.4,5.06-4.41,8.2-5.42c2.74-0.88,5.73-0.04,8.37,1.1
				c2.64,1.13,5.22,2.57,8.08,2.95c2.03,0.27,4.1-0.03,6.15,0.02c2.05,0.04,4.23,0.5,5.67,1.96c1.44,1.46,1.75,4.15,0.18,5.47
				c3.59-0.61,6.97,2.97,6.92,6.61c-0.05,3.64-2.79,6.84-6.1,8.35c-3.31,1.51-7.09,1.61-10.71,1.33
				c-10.27-0.8-20.59-4.7-27.58-12.27"/>
			<g>
				<g>
					<g>
						<g>
							<g>
								<g>
									<g>
										<g>
											<g>
												<g>
													<g>
														<g>
															<g>
																<g>
																	<g>
																		<g>
																			<path class="st11" d="M508.08,223.62l-7,50.85c-1.19,8.65,5.1,16.53,13.79,17.29l0,0
																				c8.11,0.71,15.36-5.08,16.46-13.15c0.52-3.83,0.97-7.02,1.05-7.41c0,0,13.11,0.56,15.81-12.12
																				c1.3-6.13,2.96-18.97,4.33-30.61c1.47-12.5-6.93-24.02-19.27-26.49l-1.23-0.25
																				C518.65,199.87,509.58,210.19,508.08,223.62z"/>
																		</g>
																	</g>
																</g>
															</g>
														</g>
													</g>
												</g>
											</g>
										</g>
										<g>
											<g>
												<g>
													<g>
														<g>
															<g>
																<g>
																	<g>
																		<g>
																			<path class="st12" d="M532.45,271.02c0,0-8.17-0.95-15.63-8.02c0,0,2.09,9.93,15.01,11.32L532.45,271.02z"/>
																		</g>
																	</g>
																</g>
															</g>
														</g>
													</g>
												</g>
											</g>
										</g>
									</g>
								</g>
							</g>
							<g>
								<g>
									<g>
										<g>
											<g>
												<g>
													<g>
														<g>
															<g>
																<g>
																	<g>
																		<g>
																			<g>
																				<g>
																					<g>
																						<path class="st8" d="M546.82,239.28c-0.16,0.97-1.11,1.63-2.12,1.48c-1.01-0.15-1.7-1.05-1.54-2.01
																							c0.16-0.97,1.11-1.63,2.12-1.48C546.29,237.41,546.98,238.31,546.82,239.28z"/>
																					</g>
																				</g>
																			</g>
																		</g>
																	</g>
																</g>
															</g>
														</g>
													</g>
													<g>
														<g>
															<g>
																<g>
																	<g>
																		<g>
																			<g>
																				<g>
																					<g>
																						<g>
																							<path class="st8" d="M548.54,234.16c-0.27,0.19-1.44-1.1-3.4-1.49c-1.95-0.41-3.58,0.31-3.75,0.02
																								c-0.08-0.13,0.23-0.51,0.95-0.84c0.71-0.33,1.84-0.56,3.06-0.31c1.22,0.25,2.15,0.9,2.65,1.48
																								C548.56,233.61,548.68,234.08,548.54,234.16z"/>
																						</g>
																					</g>
																				</g>
																			</g>
																		</g>
																	</g>
																</g>
															</g>
														</g>
													</g>
												</g>
												<g>
													<g>
														<g>
															<g>
																<g>
																	<g>
																		<g>
																			<g>
																				<g>
																					<g>
																						<path class="st8" d="M528.6,236.13c-0.16,0.97-1.11,1.63-2.12,1.48c-1.01-0.15-1.7-1.05-1.54-2.01
																							c0.16-0.97,1.11-1.63,2.12-1.48C528.06,234.26,528.76,235.17,528.6,236.13z"/>
																					</g>
																				</g>
																			</g>
																		</g>
																	</g>
																</g>
															</g>
														</g>
													</g>
													<g>
														<g>
															<g>
																<g>
																	<g>
																		<g>
																			<g>
																				<g>
																					<g>
																						<g>
																							<path class="st8" d="M529.27,230.69c-0.27,0.19-1.45-1.1-3.4-1.49c-1.95-0.41-3.58,0.31-3.75,0.02
																								c-0.08-0.13,0.23-0.51,0.95-0.84c0.71-0.33,1.84-0.56,3.06-0.31c1.22,0.25,2.15,0.9,2.65,1.48
																								C529.28,230.14,529.4,230.6,529.27,230.69z"/>
																						</g>
																					</g>
																				</g>
																			</g>
																		</g>
																	</g>
																</g>
															</g>
														</g>
													</g>
												</g>
												<g>
													<g>
														<g>
															<g>
																<g>
																	<g>
																		<g>
																			<g>
																				<g>
																					<g>
																						<path class="st8" d="M533.46,246.6c0.01-0.11,1.27-0.08,3.29,0.06c0.51,0.05,1,0.04,1.15-0.28
																							c0.19-0.34,0.09-0.92-0.04-1.55c-0.23-1.3-0.47-2.66-0.72-4.09c-0.97-5.82-1.56-10.56-1.33-10.6
																							c0.23-0.04,1.21,4.65,2.18,10.47c0.23,1.43,0.44,2.8,0.65,4.1c0.08,0.6,0.27,1.31-0.13,2.01
																							c-0.21,0.35-0.63,0.54-0.97,0.57c-0.34,0.03-0.62-0.02-0.87-0.05C534.68,246.95,533.45,246.71,533.46,246.6z"
																							/>
																					</g>
																				</g>
																			</g>
																		</g>
																	</g>
																</g>
															</g>
														</g>
													</g>
												</g>
												<g>
													<g>
														<g>
															<g>
																<g>
																	<g>
																		<g>
																			<g>
																				<g>
																					<g>
																						<path class="st8" d="M527.44,246.8c0.32,0.04-0.1,2.17,1.42,4.03c1.51,1.87,3.82,2.09,3.78,2.39
																							c0,0.14-0.59,0.31-1.55,0.15c-0.94-0.15-2.25-0.73-3.18-1.87c-0.92-1.14-1.15-2.47-1.05-3.36
																							C526.96,247.24,527.3,246.76,527.44,246.8z"/>
																					</g>
																				</g>
																			</g>
																		</g>
																	</g>
																</g>
															</g>
														</g>
													</g>
												</g>
											</g>
										</g>
									</g>
									<g>
										<g>
											<g>
												<g>
													<g>
														<g>
															<g>
																<g>
																	<g>
																		<path class="st9" d="M531.3,223.13c-0.3,0.49-2.2-0.15-4.55-0.33c-2.34-0.23-4.33,0.07-4.54-0.46
																			c-0.09-0.26,0.33-0.69,1.18-1.06c0.84-0.37,2.12-0.62,3.53-0.5c1.41,0.12,2.62,0.6,3.39,1.1
																			C531.09,222.39,531.43,222.9,531.3,223.13z"/>
																	</g>
																</g>
															</g>
														</g>
													</g>
												</g>
											</g>
										</g>
									</g>
									<g>
										<g>
											<g>
												<g>
													<g>
														<g>
															<g>
																<g>
																	<g>
																		<path class="st9" d="M548.96,228.36c-0.43,0.38-1.69-0.35-3.3-0.7c-1.6-0.4-3.05-0.3-3.27-0.83
																			c-0.09-0.25,0.21-0.65,0.89-0.95c0.67-0.3,1.73-0.45,2.83-0.19c1.1,0.26,1.99,0.85,2.46,1.42
																			C549.05,227.68,549.15,228.18,548.96,228.36z"/>
																	</g>
																</g>
															</g>
														</g>
													</g>
												</g>
											</g>
										</g>
									</g>
								</g>
							</g>
						</g>
					</g>
				</g>
				<g>
					<g>
						<g>
							<g>
								<g>
									<g>
										<g>
											<g>
												<g>
													<g>
														<path class="st11" d="M507.24,233.24c-0.2-0.14-8.22-4.33-9.68,4.42c-1.46,8.75,7.62,8.41,7.68,8.16
															C505.3,245.57,507.24,233.24,507.24,233.24z"/>
													</g>
												</g>
											</g>
										</g>
									</g>
								</g>
							</g>
						</g>
					</g>
					<g>
						<g>
							<g>
								<g>
									<g>
										<g>
											<g>
												<g>
													<g>
														<g>
															<path class="st12" d="M503.12,242.06c-0.03-0.03-0.17,0.08-0.45,0.16c-0.27,0.07-0.72,0.08-1.14-0.17
																c-0.87-0.49-1.4-2.09-1.18-3.67c0.11-0.8,0.4-1.53,0.79-2.11c0.37-0.6,0.86-0.97,1.34-0.98
																c0.48-0.03,0.76,0.3,0.83,0.57c0.08,0.26-0.01,0.43,0.04,0.45c0.02,0.03,0.21-0.12,0.2-0.49
																c-0.01-0.18-0.08-0.4-0.25-0.61c-0.18-0.21-0.48-0.34-0.81-0.36c-0.68-0.07-1.39,0.45-1.82,1.09
																c-0.46,0.63-0.81,1.45-0.93,2.35c-0.24,1.77,0.39,3.57,1.59,4.15c0.59,0.26,1.13,0.16,1.43,0
																C503.07,242.27,503.15,242.08,503.12,242.06z"/>
														</g>
													</g>
												</g>
											</g>
										</g>
									</g>
								</g>
							</g>
						</g>
					</g>
				</g>
				<g>
					<g>
						<path class="st9" d="M555.04,216.66c-1.5,3.23-9.22,4.48-14.88,2.77c-5.22-1.57-7.11-4.89-10.43-7.77
							c-2.1-1.83-2.1-1.83-5.53-2.18c-2.77-0.29-4.99,2.47-7.09,4.31c1.17,6.95-1.93,13.84-4.94,20.21c-0.33,0.7-0.71,1.46-1.41,1.8
							c-1.19,0.59-2.6-0.34-3.31-1.46c-1.13-1.79-1.27-4.02-1.23-6.14c0.1-4.82,0.94-9.67,2.9-14.08c1.96-4.41,5.07-8.37,9.15-10.95
							c5.09-3.23,11.5-4.15,17.4-2.88c5.89,1.27,11.25,4.65,15.25,9.16C552.79,211.53,554.41,213.93,555.04,216.66"/>
					</g>
				</g>
			</g>
			<g>
				<g>
					<g>
						<path class="st8" d="M537.24,237.8c0.08,0,0.05-0.75,0.4-2.03c0.35-1.25,1.2-3.09,3.1-4.5c1.83-1.41,4.84-2.2,7.74-1.11
							c1.43,0.52,2.8,1.5,3.77,2.85c1,1.33,1.56,3.04,1.57,4.8c-0.02,1.76-0.58,3.47-1.57,4.8c-0.97,1.35-2.33,2.33-3.77,2.85
							c-2.91,1.09-5.91,0.3-7.74-1.11c-1.89-1.41-2.75-3.24-3.1-4.5C537.29,238.56,537.32,237.8,537.24,237.8
							c-0.02,0-0.04,0.19-0.04,0.54c-0.01,0.36,0.03,0.89,0.17,1.56c0.27,1.32,1.09,3.28,3.06,4.83c1.9,1.55,5.11,2.47,8.27,1.33
							c1.55-0.54,3.04-1.59,4.1-3.05c1.09-1.44,1.71-3.3,1.72-5.21c-0.02-1.91-0.63-3.77-1.72-5.21c-1.06-1.46-2.55-2.5-4.1-3.05
							c-3.16-1.14-6.37-0.22-8.27,1.33c-1.97,1.55-2.79,3.51-3.06,4.83c-0.15,0.67-0.19,1.2-0.18,1.56
							C537.21,237.62,537.22,237.8,537.24,237.8z"/>
					</g>
				</g>
				<g>
					<g>
						<path class="st8" d="M516.49,234.18c0.08,0,0.05-0.75,0.4-2.03c0.35-1.26,1.2-3.09,3.1-4.5c1.83-1.41,4.84-2.2,7.74-1.11
							c1.43,0.52,2.8,1.5,3.77,2.85c1,1.33,1.56,3.04,1.57,4.8c-0.02,1.76-0.58,3.47-1.57,4.8c-0.97,1.35-2.33,2.33-3.77,2.85
							c-2.91,1.09-5.91,0.3-7.74-1.11c-1.89-1.41-2.75-3.24-3.1-4.5C516.54,234.94,516.57,234.18,516.49,234.18
							c-0.02,0-0.04,0.19-0.04,0.54c-0.01,0.36,0.03,0.89,0.18,1.56c0.27,1.32,1.09,3.28,3.06,4.83c1.9,1.55,5.11,2.47,8.27,1.33
							c1.55-0.54,3.04-1.59,4.1-3.05c1.09-1.44,1.71-3.3,1.72-5.21c-0.02-1.91-0.63-3.77-1.72-5.21c-1.06-1.46-2.55-2.5-4.1-3.05
							c-3.16-1.14-6.37-0.22-8.27,1.33c-1.97,1.55-2.79,3.51-3.06,4.83c-0.15,0.67-0.19,1.2-0.18,1.56
							C516.46,234,516.47,234.18,516.49,234.18z"/>
					</g>
				</g>
				<g>
					<g>
						<path class="st8" d="M533.59,234.48c0.09,0.18,1.2-0.34,2.49,0.05c1.3,0.38,1.94,1.43,2.11,1.33
							c0.08-0.04,0.04-0.37-0.25-0.81c-0.28-0.44-0.86-0.96-1.65-1.2c-0.79-0.24-1.56-0.12-2.04,0.09
							C533.76,234.14,533.54,234.4,533.59,234.48z"/>
					</g>
				</g>
				<g>
					<g>
						<path class="st8" d="M504.74,231.94c0,0.2,2.79,0.31,6.23,0.27c3.44-0.05,6.22-0.25,6.22-0.44c0-0.2-2.79-0.31-6.23-0.27
							C507.52,231.55,504.74,231.74,504.74,231.94z"/>
					</g>
				</g>
			</g>
			<g>
				<path class="st0" d="M559.13,208.31c0,0,0.03,0.31-0.13,0.83c-0.15,0.52-0.56,1.25-1.31,1.88c-0.74,0.65-1.86,1.15-3.15,1.29
					c-1.29,0.16-2.71,0-4.17-0.22c-2.93-0.43-5.55-1.01-7.42-1.5c-0.94-0.24-1.69-0.46-2.21-0.62c-0.21-0.07-0.41-0.13-0.59-0.19
					c-0.14-0.05-0.21-0.07-0.2-0.08c0-0.01,0.08,0.01,0.21,0.04c0.19,0.05,0.39,0.1,0.6,0.15c0.64,0.16,1.38,0.34,2.22,0.55
					c1.88,0.45,4.5,1.01,7.42,1.44c1.46,0.22,2.86,0.38,4.12,0.23c1.26-0.13,2.34-0.6,3.07-1.21c0.74-0.6,1.16-1.29,1.33-1.8
					C559.09,208.61,559.1,208.3,559.13,208.31z"/>
			</g>
			<g>
				<path class="st0" d="M561.07,210.29c0,0-0.09,0.98-0.75,2.39c-0.64,1.4-1.96,3.23-4.03,4.46c-2.06,1.23-4.3,1.53-5.84,1.43
					c-1.56-0.09-2.46-0.47-2.46-0.47c0-0.02,0.24,0.04,0.66,0.13c0.42,0.09,1.04,0.18,1.81,0.2c1.52,0.06,3.71-0.26,5.73-1.46
					c2.02-1.21,3.33-2.98,4-4.35c0.34-0.69,0.55-1.28,0.68-1.69C560.99,210.52,561.05,210.29,561.07,210.29z"/>
			</g>
		</g>
	</g>
</g>
</svg>
