<?xml version="1.0" encoding="utf-8"?>
<!-- Generator: Adobe Illustrator 25.1.0, SVG Export Plug-In . SVG Version: 6.00 Build 0)  -->
<svg version="1.1" xmlns="http://www.w3.org/2000/svg" xmlns:xlink="http://www.w3.org/1999/xlink" x="0px" y="0px"
	 viewBox="0 0 500 500" style="enable-background:new 0 0 500 500;" xml:space="preserve">
<style type="text/css">
	.st0{fill:#F5F5F5;}
	.st1{fill:#EBEBEB;}
	.st2{fill:#E0E0E0;}
	.st3{fill:#FFFFFF;}
	.st4{opacity:0.24;}
	.st5{display:none;}
	.st6{display:inline;fill:#F0F0F0;}
	.st7{fill:#263238;}
	.st8{fill:#E8505B;}
	.st9{opacity:0.5;fill:#FFFFFF;}
	.st10{opacity:0.3;}
	.st11{fill:#455A64;}
	.st12{opacity:0.2;}
	.st13{fill:#FFBE9D;}
	.st14{fill:#EB996E;}
</style>
<g id="Background_Complete">
	<g>
		<g>
			<g>
				<polygon class="st0" points="393.58,376.64 393.58,397.38 423.91,397.38 457.38,397.38 457.38,376.64 				"/>
				<polygon class="st1" points="390.9,370.84 390.9,376.64 459.61,376.64 459.61,370.84 423.91,370.84 				"/>
				<polygon class="st2" points="425.25,397.38 457.38,397.38 457.38,376.64 459.61,376.64 459.61,370.84 423.91,370.84 
					423.91,376.1 				"/>
				<rect x="402.5" y="379.98" class="st2" width="12.94" height="3.12"/>
				<rect x="400.83" y="387.01" class="st2" width="16.61" height="6.59"/>
			</g>
			<g>
				<path class="st1" d="M471.38,447.3l-1.52-322.91h-6.25v63.59h-16.15l-0.3-63.59h-6.25v63.59h-53.72h-1.84l-0.3-63.59h-6.25
					v63.59h-16.1l-0.3-63.59h-6.25V447.3h7.78l-0.21-43.34h15.08v43.34h7.77l-0.2-43.34h54.54v43.34h7.78l-0.2-43.34h15.13v43.34
					H471.38z M370.85,361.18l-5.59-23.93h11.47L370.85,361.18z M378.8,338.71v56.54l-6.77-29L378.8,338.71z M378.8,256.53l-6.77-29
					l6.77-27.54V256.53z M377.59,261.72h-13.96l7.16-29.13L377.59,261.72z M370.85,222.46l-6.4-27.41h13.13L370.85,222.46z
					 M369.61,227.52l-6.6,26.84l-0.26-56.24L369.61,227.52z M363.42,339.7l6.19,26.54l-5.95,24.23L363.42,339.7z M370.79,371.31
					l5.98,25.6H364.5L370.79,371.31z M363.62,330.19l-0.05-0.22l-0.2,0.04l-0.29-61.24h15.72v61.41H363.62z M385.73,268.78h55.17
					v61.41h-53.72h-1.17L385.73,268.78z M455.16,232.59l6.8,29.13H448L455.16,232.59z M447.76,252.8l-0.25-52.97l6.46,27.69
					L447.76,252.8z M463.61,258.4l-7.2-30.87l7.2-29.32V258.4z M463.61,261.62v0.1h-0.44L463.61,261.62z M463.61,340.39v53.09
					l-6.36-27.23L463.61,340.39z M456.07,361.18l-5.59-23.93h11.47L456.07,361.18z M455.22,222.46l-6.4-27.41h13.13L455.22,222.46z
					 M463.61,268.78v61.41h-14.77l-0.05-0.22l-0.65,0.15l-0.29-61.34H463.61z M454.83,366.24l-6.4,26.06l-0.26-54.6L454.83,366.24z
					 M456.01,371.31l5.98,25.6h-12.27L456.01,371.31z M440.91,195.04v66.67h-53.72h-1.49l-0.32-66.67H440.91z M387.34,396.91h-1
					l-0.28-59.67h54.85v59.67H387.34z"/>
			</g>
			<g>
				<polygon class="st2" points="387.33,262.04 387.33,254.75 438.8,254.75 438.96,262.04 				"/>
				<path class="st3" d="M438.83,255.94c0,0-45.65,0.34-48.61,1.03c-0.64,0.15-1.28,2.95,0,3.21c1.28,0.26,48.61,0.64,48.61,0.64
					V255.94z"/>
			</g>
			<g>
				<polygon class="st1" points="393.31,254.46 393.31,247.18 434.08,247.18 434.21,254.46 				"/>
				<path class="st3" d="M434.1,248.37c0,0-36.16,0.34-38.5,1.03c-0.5,0.15-1.02,2.95,0,3.21c1.02,0.26,38.5,0.64,38.5,0.64V248.37z
					"/>
			</g>
			<g>
				<polygon class="st2" points="393.13,247.26 393.13,239.98 433.9,239.98 434.03,247.26 				"/>
				<path class="st3" d="M433.92,241.17c0,0-36.16,0.33-38.5,1.03c-0.5,0.15-1.02,2.95,0,3.21c1.02,0.26,38.5,0.64,38.5,0.64V241.17
					z"/>
			</g>
			<g>
				<rect x="430.58" y="139.74" class="st2" width="10.33" height="48.13"/>
				<path class="st3" d="M438,176.32c0,1.13-0.92,2.05-2.05,2.05c-1.13,0-2.04-0.92-2.04-2.05c0-1.13,0.91-2.05,2.04-2.05
					C437.08,174.27,438,175.19,438,176.32z"/>
				<rect x="434.28" y="152.49" class="st3" width="3.16" height="19.67"/>
			</g>
			<g>
				<rect x="420.09" y="139.74" class="st1" width="10.33" height="48.13"/>
				<circle class="st3" cx="425.46" cy="176.32" r="2.05"/>
				<rect x="423.79" y="152.49" class="st3" width="3.16" height="19.67"/>
			</g>
			<g>
				<rect x="410.1" y="139.74" class="st0" width="10.33" height="48.13"/>
				<path class="st3" d="M417.52,176.32c0,1.13-0.92,2.05-2.05,2.05c-1.13,0-2.05-0.92-2.05-2.05c0-1.13,0.92-2.05,2.05-2.05
					C416.6,174.27,417.52,175.19,417.52,176.32z"/>
				<rect x="413.8" y="152.49" class="st3" width="3.16" height="19.67"/>
			</g>
			<g>
				<rect x="430.58" y="282.18" class="st2" width="10.33" height="48.13"/>
				<path class="st3" d="M438,318.77c0,1.13-0.92,2.05-2.05,2.05c-1.13,0-2.04-0.92-2.04-2.05c0-1.13,0.91-2.05,2.04-2.05
					C437.08,316.72,438,317.64,438,318.77z"/>
				<rect x="434.28" y="294.94" class="st3" width="3.16" height="19.67"/>
			</g>
			<g>
				<rect x="420.09" y="282.18" class="st1" width="10.33" height="48.13"/>
				<path class="st3" d="M427.51,318.77c0,1.13-0.92,2.05-2.05,2.05c-1.13,0-2.05-0.92-2.05-2.05c0-1.13,0.92-2.05,2.05-2.05
					C426.59,316.72,427.51,317.64,427.51,318.77z"/>
				<rect x="423.79" y="294.94" class="st3" width="3.16" height="19.67"/>
			</g>
			<g>
				<rect x="410.1" y="282.18" class="st0" width="10.33" height="48.13"/>
				<path class="st3" d="M417.52,318.77c0,1.13-0.92,2.05-2.05,2.05c-1.13,0-2.05-0.92-2.05-2.05c0-1.13,0.92-2.05,2.05-2.05
					C416.6,316.72,417.52,317.64,417.52,318.77z"/>
				<rect x="413.8" y="294.94" class="st3" width="3.16" height="19.67"/>
			</g>
			<polygon class="st2" points="397.33,187.13 409.74,144.79 405.46,142.92 392.73,185.6 			"/>
		</g>
		<g>
			<g>
				<g>
					<polygon class="st1" points="104.83,189.59 55.29,189.59 55.29,254.18 104.83,255.42 					"/>
				</g>
			</g>
			<g>
				<g>
					<polygon class="st3" points="101.57,191.89 58.23,191.89 58.23,250.47 101.57,251.93 					"/>
				</g>
			</g>
			<g>
				<g>
					<polygon class="st1" points="93.98,202.53 65.22,201.44 65.22,242.38 93.98,242.38 					"/>
				</g>
			</g>
			<g>
				<g>
					<polygon class="st0" points="65.22,242.38 93.98,221.35 65.22,201.44 					"/>
				</g>
			</g>
		</g>
		<g>
			<path class="st0" d="M146.43,437.82c-1.18-1.01-3.83-4.21-1.79-7.94c0.75-1.37,2.33-2.04,3.77-2.64c1.44-0.6,2.94-1.12,4.13-2.13
				c2.24-1.9,2.86-5.05,4.35-7.58c1.71-2.91,4.89-5.08,8.26-4.93c3.85,0.17,7.07,3.31,8.53,6.88c1.46,3.57,1.51,7.54,1.54,11.4
				c0.02,2.13-0.08,4.54-1.65,5.98c-1.45,1.33-3.64,1.34-5.6,1.29c-7.02-0.21-14.04-0.43-21.07-0.64"/>
			<path class="st1" d="M183.33,387.8h-50.37l9.07,53.86c0.4,2.35,2.11,4.17,4.3,4.79c0.06,0.02,0.12,0.03,0.18,0.05
				c0.15,0.04,0.29,0.09,0.45,0.12c0.33,0.07,0.68,0.1,1.02,0.12c0,0.02,0.01,0.04,0.01,0.05l0.25-0.04h0h22.45
				c0.42,0,0.83-0.04,1.23-0.12c2.65-0.41,4.77-2.53,5.1-5.26l4.37-37.11l0.2-1.48h-0.02l1.73-14.7L183.33,387.8z M173.83,422.15
				h-5.17l0.52-15.63h5.99L173.83,422.15z M175.67,406.52h4.95l-1.84,15.63h-4.45L175.67,406.52z M160.91,439.48l-0.31-13.58h7.44
				l-0.45,13.58H160.91z M152.86,425.9h7.23l0.31,13.58h-6.49L152.86,425.9z M153.42,439.48h-6.06c-0.58-3.67-1.33-8.43-2.14-13.58
				h7.14L153.42,439.48z M152.57,422.15l-1.22-15.63h8.3l0.36,15.63H152.57z M160.51,422.15l-0.36-15.63h8.54l-0.52,15.63H160.51z
				 M160.06,402.77l-0.33-14.47h9.57l-0.48,14.47H160.06z M159.56,402.77h-8.5l-1.13-14.47h9.3L159.56,402.77z M150.55,402.77h-9
				c-0.32-2-0.62-3.89-0.89-5.59c-0.94-5.85-1.29-8.05-1.49-8.88h10.25L150.55,402.77z M150.84,406.52l1.22,15.63h-7.44
				c-0.25-1.59-0.5-3.19-0.76-4.8c-0.58-3.69-1.17-7.38-1.72-10.83H150.84z M144.12,422.15h-4.86l-2.63-15.63h5.02
				C142.41,411.35,143.26,416.73,144.12,422.15z M144.71,425.9c0.74,4.7,1.47,9.33,2.14,13.58h-4.67l-2.29-13.58H144.71z
				 M168.08,439.48l0.45-13.58h4.97l-1.17,13.58H168.08z M169.31,402.77l0.48-14.47h6.95l-1.24,14.47H169.31z M138.7,388.3
				c0.2,1.05,1.12,6.74,2.35,14.47h-5.06l-2.44-14.47H138.7z M176.74,439.48h-3.89l1.17-13.58h4.33L176.74,439.48z M181.06,402.77
				H176l1.24-14.47h5.53L181.06,402.77z"/>
		</g>
		<g>
			<g>
				<path class="st0" d="M35.7,360.06c0.89,0.15,1.88,0.38,3.01,0.49c1.12,0.15,2.35,0.3,3.68,0.36c1.32,0.12,2.74,0.1,4.23,0.12
					c2.98-0.07,6.26-0.35,9.65-0.99c3.38-0.67,6.52-1.63,9.32-2.68c1.38-0.57,2.7-1.08,3.89-1.69c1.21-0.55,2.29-1.15,3.28-1.7
					c1-0.52,1.85-1.1,2.61-1.57c0.77-0.46,1.41-0.91,1.92-1.28c0.39-0.28,0.7-0.49,0.96-0.66H32.55v8.92
					c0.26,0.06,0.55,0.12,0.9,0.21C34.06,359.74,34.82,359.92,35.7,360.06z"/>
				<path class="st0" d="M63.01,443.33c-3.71-0.04-7.05,0.47-9.74,1.26c-2.37,0.71-4.23,1.6-5.55,2.38h37.4
					c-3.19-0.64-6.56-1.43-10.11-2.16C70.79,443.95,66.73,443.35,63.01,443.33z"/>
				<path class="st0" d="M109.04,437.22c-4.24-0.67-9.37-0.16-15.04,0.36c-2.84,0.26-5.85,0.39-8.97,0.25
					c-3.11-0.13-6.31-0.47-9.58-0.87c-6.52-0.82-12.74-1.65-18.41-1.4c-5.67,0.18-10.67,1.56-14.59,3.26
					c-3.94,1.69-6.84,3.67-8.75,5.12c-0.44,0.33-0.81,0.63-1.15,0.9v2.13h14.69c1.3-0.89,3.29-1.97,5.91-2.8
					c2.72-0.86,6.1-1.42,9.87-1.42c3.77-0.01,7.88,0.58,12.12,1.44c4.24,0.86,8.23,1.86,11.89,2.56c0.42,0.08,0.82,0.14,1.23,0.22
					h29.77v-6.44C116.08,439.18,113.02,437.79,109.04,437.22z"/>
				<path class="st0" d="M42.27,438.41c3.94-1.77,9.01-3.21,14.75-3.43c5.74-0.28,12,0.54,18.51,1.35c3.26,0.4,6.44,0.74,9.53,0.88
					c3.08,0.15,6.06,0.03,8.89-0.21c5.65-0.49,10.84-0.96,15.15-0.22c3.94,0.62,6.98,2.03,8.92,3.42v-11.29
					c-2.02-0.59-4.59-1.05-7.61-1.06c-8.5-0.29-19.79,4.34-32.93,4.02c-6.52-0.02-12.71-0.88-18.19-2.21
					c-5.5-1.32-10.22-3.21-14.32-4.28c-4.08-1.14-7.52-1.49-9.88-1.37c-1.09,0.05-1.93,0.15-2.54,0.24v20.34
					c0.3-0.26,0.62-0.54,1-0.84C35.42,442.22,38.3,440.17,42.27,438.41z"/>
				<path class="st0" d="M35.84,386.49c2.28,0.2,5.41,1.33,9.07,2.98c1.84,0.82,3.86,1.67,6.11,2.35c2.26,0.65,4.73,1.13,7.37,1.37
					c5.27,0.5,11.13,0.02,17.16-1.06c6.03-1.07,11.7-2.58,16.91-3.7c5.21-1.15,9.96-1.93,13.99-2.22c4.03-0.29,7.32-0.12,9.56,0.16
					c0.81,0.09,1.48,0.2,2.01,0.3v-7.09v-7.96c-0.27-0.21-0.56-0.45-0.89-0.71c-1.35-1.06-3.27-2.65-5.88-4.25
					c-2.59-1.57-5.98-3.23-10.01-3.33c-4.03-0.13-8.31,1.44-12.49,3.48c-4.22,2.03-8.08,4.27-11.48,6.49
					c-1.66,1.12-3.43,2.12-4.13,3.69c-0.34,0.76-0.21,1.61,0.3,2.2c0.5,0.59,1.21,0.97,1.89,1.3c2.75,1.33,5.24,1.72,6.93,1.85
					c1.71,0.12,2.66,0.02,2.66,0.08c0,0.02-0.23,0.06-0.69,0.11c-0.45,0.04-1.12,0.08-1.99,0.06c-1.72-0.06-4.27-0.38-7.11-1.7
					c-0.7-0.33-1.47-0.7-2.08-1.39c-0.63-0.67-0.82-1.8-0.41-2.71c0.81-1.83,2.66-2.83,4.29-3.98c3.39-2.26,7.28-4.53,11.52-6.58
					c4.21-2.06,8.6-3.66,12.78-3.5c4.19,0.14,7.64,1.9,10.23,3.53c2.61,1.67,4.5,3.32,5.8,4.45c0.27,0.24,0.51,0.45,0.73,0.65
					v-12.47c-1.39-0.76-2.97-1.52-4.78-2.19c-4.13-1.53-9.41-2.53-15.23-2.06c-2.9,0.25-5.91,0.91-8.86,2.06
					c-2.96,1.12-5.82,2.79-8.76,4.47c-2.94,1.69-5.85,3.33-8.89,4.44c-3.05,1.08-6.15,1.6-9.1,1.78
					c-5.91,0.34-11.19-0.25-15.62-0.32c-4.43-0.13-8.01,0.2-10.43,0.7c-0.6,0.13-1.15,0.23-1.61,0.35
					c-0.44,0.13-0.83,0.24-1.16,0.34c-0.63,0.18-0.96,0.26-0.97,0.24c-0.01-0.02,0.31-0.14,0.93-0.36c0.33-0.11,0.71-0.25,1.15-0.4
					c0.46-0.14,1-0.25,1.61-0.41c2.43-0.58,6.04-0.98,10.49-0.91c4.45,0.01,9.74,0.56,15.57,0.19c2.91-0.19,5.94-0.72,8.92-1.78
					c2.98-1.09,5.86-2.71,8.79-4.4c2.94-1.68,5.83-3.36,8.85-4.5c3.01-1.16,6.08-1.83,9.04-2.06c5.92-0.45,11.27,0.61,15.43,2.22
					c1.75,0.67,3.28,1.42,4.63,2.19v-8H78.49c-0.25,0.21-0.6,0.5-1.06,0.86c-0.49,0.4-1.11,0.88-1.87,1.37
					c-0.75,0.5-1.59,1.11-2.58,1.66c-0.98,0.58-2.06,1.21-3.27,1.79c-1.18,0.63-2.52,1.17-3.9,1.76c-2.81,1.09-5.99,2.08-9.41,2.75
					c-3.43,0.64-6.74,0.91-9.76,0.95c-1.51-0.03-2.94-0.03-4.28-0.18c-1.34-0.08-2.58-0.26-3.7-0.44c-1.13-0.14-2.13-0.4-3.02-0.58
					c-0.89-0.17-1.64-0.39-2.25-0.58c-0.32-0.09-0.6-0.18-0.84-0.25v19.17c0.67-0.23,1.55-0.49,2.62-0.75
					c2.56-0.64,6.2-1.2,10.24-1.16c4.04,0.05,7.66,0.7,10.21,1.39c1.27,0.35,2.29,0.68,2.98,0.95c0.69,0.27,1.06,0.43,1.05,0.47
					c-0.03,0.1-1.58-0.42-4.13-0.99c-2.55-0.58-6.13-1.15-10.11-1.2c-3.99-0.04-7.58,0.44-10.14,0.96
					c-1.12,0.23-2.03,0.44-2.72,0.61v0.83v6.69C32.99,386.45,34.11,386.29,35.84,386.49z M88.34,374.75
					c0.12-0.28,0.31-0.5,0.52-0.67c0.41-0.35,0.88-0.59,1.38-0.74c3.77-1.14,7.56-1.46,10.95-1.19c3.39,0.26,6.39,1.04,8.77,1.99
					c2.39,0.94,4.2,1.98,5.38,2.79c0.61,0.38,1.03,0.75,1.33,0.97c0.3,0.23,0.44,0.36,0.43,0.38c-0.08,0.14-2.53-1.96-7.3-3.72
					c-2.37-0.88-5.32-1.6-8.65-1.83c-3.33-0.23-7.03,0.1-10.72,1.22c-0.42,0.13-0.84,0.34-1.15,0.62c-0.32,0.28-0.49,0.61-0.37,0.91
					c0.23,0.63,1.36,0.69,2.21,0.89c1.79,0.37,3.52,0.72,5.18,1.06c3.27,0.68,6.24,1.3,8.76,1.83c2.42,0.53,4.41,0.96,5.9,1.29
					c0.63,0.15,1.16,0.28,1.6,0.38c0.36,0.09,0.55,0.15,0.55,0.17c0,0.02-0.2,0-0.57-0.05c-0.44-0.07-0.98-0.16-1.62-0.27
					c-1.5-0.28-3.5-0.64-5.94-1.09c-2.53-0.49-5.5-1.06-8.79-1.69c-1.66-0.33-3.39-0.67-5.19-1.02c-0.46-0.1-0.89-0.16-1.38-0.29
					c-0.46-0.12-1.07-0.37-1.3-1C88.2,375.38,88.21,375.02,88.34,374.75z M50.49,382.13c1.18,0.6,2.87,1.53,5.09,2.34
					c4.39,1.68,10.98,3.09,18.16,2.11c7.21-0.84,12.95-4.5,17.67-5.53c2.33-0.58,4.3-0.68,5.64-0.56c0.67,0.05,1.18,0.15,1.53,0.22
					c0.34,0.08,0.52,0.14,0.52,0.16c-0.01,0.06-0.73-0.11-2.06-0.14c-1.32-0.04-3.24,0.12-5.52,0.75c-2.29,0.6-4.88,1.72-7.79,2.94
					c-2.9,1.23-6.26,2.33-9.9,2.78c-7.31,1-14-0.51-18.4-2.32c-2.23-0.88-3.91-1.87-5.06-2.55c-1.11-0.74-1.71-1.17-1.69-1.21
					C48.7,381.1,49.34,381.46,50.49,382.13z"/>
				<path class="st0" d="M45.09,424.94c4.14,1.03,8.88,2.88,14.34,4.15c5.45,1.29,11.59,2.12,18.06,2.14
					c13,0.33,24.27-4.22,32.93-3.84c3.02,0.05,5.58,0.55,7.6,1.19v-12.1c-0.77,0.09-1.61,0.19-2.55,0.31
					c-3.63,0.36-8.64,1.07-14.25,1.19c-2.8,0.04-5.48-0.13-7.88-0.56c-2.4-0.42-4.51-1.07-6.21-1.79c-1.7-0.71-2.98-1.5-3.82-2.08
					c-0.42-0.29-0.74-0.54-0.94-0.72c-0.21-0.17-0.31-0.27-0.29-0.29c0.07-0.11,1.84,1.36,5.22,2.68c1.69,0.66,3.77,1.25,6.13,1.64
					c2.36,0.39,5.01,0.54,7.78,0.5c5.55-0.12,10.57-0.76,14.21-1.01c0.95-0.07,1.81-0.13,2.59-0.19v-29.34
					c-0.54-0.07-1.22-0.15-2.04-0.21c-2.23-0.2-5.49-0.31-9.49,0.04c-4,0.34-8.72,1.17-13.91,2.35c-5.19,1.15-10.85,2.68-16.92,3.75
					c-6.06,1.09-11.98,1.56-17.32,1.02c-2.67-0.26-5.18-0.76-7.46-1.45c-2.28-0.71-4.32-1.6-6.14-2.45
					c-3.64-1.71-6.69-2.87-8.92-3.15c-1.69-0.25-2.81-0.15-3.25-0.12v20.77c0.15-0.18,0.32-0.37,0.51-0.55
					c1.65-1.67,4.75-3.2,8.73-4.24c4-1.07,8.92-1.46,14.28-2.16c5.37-0.69,11.12-2.28,17.11-4.09c5.99-1.8,11.76-3.48,17.17-4.28
					c5.39-0.83,10.32-0.96,14.43-0.77c4.12,0.2,7.42,0.69,9.68,1.13c1.13,0.22,2,0.41,2.59,0.56c0.59,0.14,0.89,0.23,0.89,0.25
					c0,0.02-0.32-0.02-0.92-0.13c-0.59-0.11-1.47-0.26-2.6-0.44c-2.26-0.36-5.56-0.78-9.65-0.92c-4.09-0.13-8.98,0.04-14.32,0.9
					c-5.35,0.82-11.08,2.51-17.08,4.31c-5.99,1.8-11.8,3.39-17.22,4.06c-5.4,0.67-10.28,1.01-14.25,2.01
					c-3.96,0.97-7.03,2.42-8.67,3.99c-0.27,0.25-0.48,0.49-0.68,0.72v8.72c0.09,0.05,0.2,0.1,0.31,0.16c0.57,0.3,1.32,0.7,2.26,1.2
					c1.99,0.98,4.86,2.44,8.57,3.83c7.37,2.85,18.15,5.67,30.28,5.56c12.16,0.14,22.71-3.61,30.67-4.34
					c3.97-0.45,7.23-0.28,9.43,0.08c0.54,0.1,1.03,0.19,1.46,0.26c0.4,0.1,0.75,0.2,1.05,0.27c0.57,0.15,0.86,0.25,0.85,0.27
					c-0.01,0.02-0.31-0.03-0.88-0.14c-0.31-0.06-0.66-0.13-1.06-0.21c-0.43-0.06-0.92-0.13-1.46-0.2c-2.2-0.28-5.42-0.38-9.35,0.12
					c-3.94,0.46-8.54,1.53-13.69,2.63c-5.14,1.13-10.94,1.88-17.03,1.9c-12.22,0.11-23.08-2.8-30.45-5.77
					c-3.71-1.46-6.57-2.98-8.53-4.03c-0.92-0.54-1.65-0.98-2.21-1.31c-0.09-0.06-0.17-0.11-0.25-0.16v7.55
					c0.61-0.13,1.44-0.26,2.53-0.35C37.46,423.57,40.96,423.85,45.09,424.94z M69.28,405.37c-3.79,1.84-6.96,3.97-9.55,5.79
					c-0.61,0.47-1.1,1.06-1.05,1.7c0.02,0.64,0.56,1.1,1.1,1.35c1.12,0.53,2.23,0.28,3.12,0.2c0.89-0.1,1.62-0.06,2.08,0.09
					c0.46,0.15,0.65,0.33,0.65,0.33c-0.01,0.03-0.23-0.1-0.68-0.21c-0.45-0.1-1.14-0.1-2.02,0.03c-0.85,0.11-2.03,0.42-3.29-0.12
					c-0.59-0.25-1.29-0.78-1.35-1.64c-0.08-0.86,0.55-1.58,1.17-2.07c2.6-1.91,5.75-4.08,9.57-5.97c3.8-1.9,8.17-3.61,12.92-4.83
					c9.52-2.49,18.56-2.46,24.9-1.56c1.59,0.24,3.03,0.43,4.27,0.73c1.24,0.27,2.32,0.48,3.18,0.76c0.81,0.24,1.46,0.43,1.98,0.59
					c0.45,0.14,0.68,0.22,0.68,0.25c-0.01,0.02-0.25-0.02-0.71-0.12c-0.52-0.12-1.19-0.28-2-0.47c-0.86-0.24-1.94-0.41-3.19-0.65
					c-1.24-0.27-2.67-0.43-4.25-0.64c-6.31-0.78-15.26-0.73-24.69,1.73C77.39,401.84,73.06,403.51,69.28,405.37z M78.52,413.51
					c-0.34,0.02-0.84,0.04-1.48-0.07c-0.63-0.1-1.48-0.44-1.97-1.31c-0.24-0.42-0.37-1-0.15-1.55c0.22-0.55,0.68-0.93,1.1-1.29
					c1.73-1.51,4.04-3.03,6.85-4.19c2.8-1.16,6.09-1.95,9.58-2.2c7.03-0.49,13.27,1.24,17.53,2.75c2.15,0.77,3.84,1.5,4.99,2.04
					c0.58,0.26,1.02,0.49,1.32,0.64c0.3,0.16,0.45,0.25,0.44,0.27c-0.02,0.04-0.67-0.22-1.85-0.68c-1.18-0.46-2.89-1.13-5.04-1.84
					c-4.27-1.39-10.45-3.03-17.34-2.54c-3.42,0.25-6.65,1-9.4,2.11c-2.76,1.1-5.05,2.55-6.78,3.99c-0.44,0.35-0.84,0.7-1.02,1.11
					c-0.18,0.41-0.1,0.87,0.09,1.23c0.39,0.76,1.12,1.1,1.71,1.24c1.22,0.25,1.95,0.17,1.94,0.24
					C79.04,413.46,78.86,413.49,78.52,413.51z"/>
				<path class="st1" d="M35.8,386.73c2.23,0.27,5.28,1.44,8.92,3.15c1.83,0.84,3.86,1.73,6.14,2.45c2.29,0.68,4.8,1.18,7.46,1.45
					c5.34,0.54,11.26,0.06,17.32-1.02c6.07-1.08,11.73-2.6,16.92-3.75c5.19-1.17,9.91-2,13.91-2.35c4-0.35,7.26-0.24,9.49-0.04
					c0.82,0.07,1.5,0.15,2.04,0.21v-0.16c-0.53-0.1-1.2-0.21-2.01-0.3c-2.24-0.28-5.52-0.45-9.56-0.16
					c-4.03,0.29-8.79,1.08-13.99,2.22c-5.21,1.12-10.87,2.63-16.91,3.7c-6.03,1.08-11.89,1.57-17.16,1.06
					c-2.63-0.24-5.11-0.72-7.37-1.37c-2.25-0.68-4.27-1.54-6.11-2.35c-3.67-1.66-6.79-2.78-9.07-2.98c-1.72-0.2-2.84-0.03-3.29,0.05
					v0.06C32.99,386.58,34.11,386.48,35.8,386.73z"/>
				<path class="st1" d="M35.63,360.4c0.89,0.18,1.89,0.44,3.02,0.58c1.13,0.18,2.36,0.36,3.7,0.44c1.33,0.15,2.77,0.15,4.28,0.18
					c3.02-0.04,6.33-0.3,9.76-0.95c3.42-0.68,6.6-1.67,9.41-2.75c1.39-0.59,2.72-1.12,3.9-1.76c1.21-0.57,2.29-1.2,3.27-1.79
					c1-0.55,1.83-1.16,2.58-1.66c0.76-0.49,1.38-0.97,1.87-1.37c0.46-0.36,0.8-0.64,1.06-0.86h-0.24c-0.26,0.17-0.56,0.38-0.96,0.66
					c-0.51,0.37-1.15,0.81-1.92,1.28c-0.77,0.47-1.61,1.05-2.61,1.57c-0.98,0.55-2.07,1.15-3.28,1.7c-1.18,0.61-2.51,1.12-3.89,1.69
					c-2.79,1.05-5.94,2-9.32,2.68c-3.39,0.64-6.66,0.92-9.65,0.99c-1.49-0.02-2.91,0-4.23-0.12c-1.33-0.06-2.56-0.21-3.68-0.36
					c-1.13-0.11-2.12-0.33-3.01-0.49c-0.89-0.14-1.64-0.32-2.26-0.47c-0.34-0.08-0.64-0.15-0.9-0.21v0.19
					c0.24,0.08,0.52,0.16,0.84,0.25C33.99,360.01,34.74,360.23,35.63,360.4z"/>
				<path class="st1" d="M97.96,354.06c-2.95,0.24-6.02,0.9-9.04,2.06c-3.02,1.14-5.91,2.82-8.85,4.5c-2.93,1.69-5.81,3.32-8.79,4.4
					c-2.98,1.06-6.01,1.58-8.92,1.78c-5.83,0.37-11.12-0.17-15.57-0.19c-4.45-0.07-8.07,0.33-10.49,0.91
					c-0.6,0.15-1.15,0.27-1.61,0.41c-0.44,0.15-0.82,0.28-1.15,0.4c-0.62,0.22-0.94,0.34-0.93,0.36c0.01,0.02,0.34-0.06,0.97-0.24
					c0.33-0.1,0.72-0.21,1.16-0.34c0.46-0.12,1-0.21,1.61-0.35c2.42-0.5,6-0.83,10.43-0.7c4.43,0.07,9.71,0.66,15.62,0.32
					c2.95-0.18,6.05-0.7,9.1-1.78c3.04-1.1,5.96-2.75,8.89-4.44c2.94-1.69,5.8-3.35,8.76-4.47c2.95-1.15,5.96-1.81,8.86-2.06
					c5.82-0.47,11.1,0.53,15.23,2.06c1.81,0.67,3.39,1.43,4.78,2.19v-0.42c-1.35-0.76-2.88-1.51-4.63-2.19
					C109.23,354.68,103.88,353.61,97.96,354.06z"/>
				<path class="st1" d="M111.49,366.26c-2.59-1.63-6.04-3.39-10.23-3.53c-4.18-0.17-8.57,1.44-12.78,3.5
					c-4.24,2.04-8.13,4.31-11.52,6.58c-1.64,1.14-3.48,2.14-4.29,3.98c-0.41,0.9-0.22,2.03,0.41,2.71c0.61,0.69,1.38,1.06,2.08,1.39
					c2.84,1.31,5.39,1.63,7.11,1.7c0.87,0.03,1.54-0.02,1.99-0.06c0.45-0.05,0.69-0.09,0.69-0.11c0-0.06-0.96,0.04-2.66-0.08
					c-1.69-0.13-4.19-0.52-6.93-1.85c-0.68-0.33-1.39-0.71-1.89-1.3c-0.51-0.58-0.65-1.44-0.3-2.2c0.7-1.57,2.47-2.57,4.13-3.69
					c3.39-2.22,7.26-4.46,11.48-6.49c4.18-2.04,8.46-3.62,12.49-3.48c4.03,0.1,7.42,1.76,10.01,3.33c2.61,1.6,4.53,3.2,5.88,4.25
					c0.33,0.26,0.62,0.5,0.89,0.71v-0.25c-0.22-0.2-0.46-0.41-0.73-0.65C115.99,369.59,114.1,367.93,111.49,366.26z"/>
				<path class="st1" d="M89.61,376.67c0.49,0.12,0.92,0.19,1.38,0.29c1.8,0.35,3.53,0.7,5.19,1.02c3.28,0.63,6.25,1.21,8.79,1.69
					c2.43,0.45,4.44,0.81,5.94,1.09c0.64,0.11,1.18,0.19,1.62,0.27c0.37,0.05,0.57,0.07,0.57,0.05c0-0.02-0.18-0.08-0.55-0.17
					c-0.44-0.1-0.96-0.23-1.6-0.38c-1.49-0.33-3.48-0.76-5.9-1.29c-2.53-0.53-5.49-1.14-8.76-1.83c-1.65-0.34-3.38-0.69-5.18-1.06
					c-0.85-0.2-1.98-0.26-2.21-0.89c-0.12-0.3,0.05-0.63,0.37-0.91c0.32-0.27,0.73-0.48,1.15-0.62c3.68-1.12,7.39-1.45,10.72-1.22
					c3.33,0.22,6.28,0.94,8.65,1.83c4.76,1.76,7.22,3.86,7.3,3.72c0.01-0.02-0.14-0.15-0.43-0.38c-0.3-0.22-0.72-0.59-1.33-0.97
					c-1.18-0.81-2.99-1.84-5.38-2.79c-2.38-0.95-5.38-1.73-8.77-1.99c-3.39-0.27-7.18,0.05-10.95,1.19
					c-0.5,0.16-0.97,0.39-1.38,0.74c-0.2,0.18-0.39,0.39-0.52,0.67c-0.13,0.28-0.14,0.64-0.03,0.92
					C88.54,376.3,89.16,376.54,89.61,376.67z"/>
				<path class="st1" d="M45.4,377.46c3.98,0.05,7.56,0.62,10.11,1.2c2.55,0.58,4.09,1.09,4.13,0.99c0.01-0.04-0.36-0.21-1.05-0.47
					c-0.69-0.27-1.7-0.6-2.98-0.95c-2.54-0.7-6.17-1.34-10.21-1.39c-4.04-0.04-7.68,0.52-10.24,1.16c-1.07,0.27-1.95,0.52-2.62,0.75
					v0.29c0.69-0.17,1.6-0.38,2.72-0.61C37.83,377.9,41.42,377.42,45.4,377.46z"/>
				<path class="st1" d="M41.9,403.01c3.97-1.01,8.85-1.34,14.25-2.01c5.42-0.66,11.22-2.25,17.22-4.06
					c6-1.81,11.73-3.49,17.08-4.31c5.34-0.86,10.23-1.03,14.32-0.9c4.09,0.15,7.39,0.57,9.65,0.92c1.13,0.18,2.01,0.33,2.6,0.44
					c0.6,0.1,0.91,0.15,0.92,0.13c0-0.02-0.3-0.11-0.89-0.25c-0.59-0.15-1.46-0.34-2.59-0.56c-2.26-0.43-5.56-0.92-9.68-1.13
					c-4.11-0.18-9.04-0.06-14.43,0.77c-5.4,0.8-11.17,2.48-17.17,4.28c-5.99,1.8-11.74,3.4-17.11,4.09
					c-5.36,0.7-10.28,1.08-14.28,2.16c-3.99,1.04-7.09,2.57-8.73,4.24c-0.19,0.19-0.35,0.37-0.51,0.55v0.34
					c0.2-0.23,0.41-0.47,0.68-0.72C34.87,405.43,37.94,403.98,41.9,403.01z"/>
				<path class="st1" d="M50.36,382.34c1.15,0.67,2.82,1.67,5.06,2.55c4.4,1.81,11.09,3.32,18.4,2.32c3.64-0.45,7-1.56,9.9-2.78
					c2.91-1.21,5.5-2.33,7.79-2.94c2.28-0.63,4.2-0.79,5.52-0.75c1.32,0.03,2.04,0.2,2.06,0.14c0-0.02-0.17-0.08-0.52-0.16
					c-0.34-0.08-0.86-0.17-1.53-0.22c-1.34-0.12-3.31-0.02-5.64,0.56c-4.72,1.03-10.45,4.68-17.67,5.53
					c-7.18,0.98-13.76-0.43-18.16-2.11c-2.23-0.81-3.91-1.74-5.09-2.34c-1.14-0.67-1.79-1.03-1.81-1
					C48.65,381.17,49.25,381.6,50.36,382.34z"/>
				<path class="st1" d="M106.78,398.9c1.58,0.21,3.01,0.37,4.25,0.64c1.24,0.24,2.32,0.41,3.19,0.65c0.82,0.19,1.48,0.35,2,0.47
					c0.46,0.1,0.71,0.14,0.71,0.12c0.01-0.02-0.23-0.1-0.68-0.25c-0.52-0.15-1.17-0.35-1.98-0.59c-0.86-0.28-1.93-0.48-3.18-0.76
					c-1.24-0.3-2.68-0.5-4.27-0.73c-6.34-0.9-15.38-0.93-24.9,1.56c-4.75,1.23-9.12,2.94-12.92,4.83c-3.82,1.89-6.97,4.06-9.57,5.97
					c-0.62,0.5-1.25,1.22-1.17,2.07c0.06,0.86,0.77,1.39,1.35,1.64c1.26,0.55,2.44,0.23,3.29,0.12c0.88-0.14,1.57-0.14,2.02-0.03
					c0.45,0.1,0.67,0.23,0.68,0.21c0,0-0.19-0.18-0.65-0.33c-0.46-0.15-1.18-0.19-2.08-0.09c-0.89,0.08-2,0.33-3.12-0.2
					c-0.54-0.24-1.08-0.71-1.1-1.35c-0.05-0.64,0.44-1.23,1.05-1.7c2.59-1.83,5.76-3.96,9.55-5.79c3.78-1.85,8.12-3.53,12.82-4.74
					C91.52,398.16,100.47,398.12,106.78,398.9z"/>
				<path class="st1" d="M75.38,411.97c-0.19-0.37-0.27-0.83-0.09-1.23c0.18-0.41,0.58-0.76,1.02-1.11
					c1.73-1.44,4.02-2.88,6.78-3.99c2.76-1.11,5.98-1.86,9.4-2.11c6.89-0.49,13.07,1.15,17.34,2.54c2.15,0.71,3.86,1.38,5.04,1.84
					c1.18,0.46,1.83,0.72,1.85,0.68c0.01-0.02-0.14-0.11-0.44-0.27c-0.3-0.15-0.74-0.38-1.32-0.64c-1.15-0.53-2.85-1.27-4.99-2.04
					c-4.26-1.51-10.5-3.25-17.53-2.75c-3.49,0.25-6.77,1.04-9.58,2.2c-2.81,1.16-5.12,2.68-6.85,4.19c-0.43,0.36-0.88,0.75-1.1,1.29
					c-0.22,0.55-0.09,1.14,0.15,1.55c0.49,0.87,1.35,1.21,1.97,1.31c0.65,0.11,1.15,0.08,1.48,0.07c0.34-0.02,0.51-0.05,0.51-0.07
					c0.01-0.07-0.72,0.01-1.94-0.24C76.5,413.07,75.77,412.73,75.38,411.97z"/>
				<path class="st1" d="M35,418.02c1.96,1.05,4.81,2.58,8.53,4.03c7.36,2.98,18.22,5.89,30.45,5.77c6.09-0.03,11.88-0.77,17.03-1.9
					c5.15-1.1,9.75-2.17,13.69-2.63c3.93-0.5,7.15-0.41,9.35-0.12c0.54,0.08,1.02,0.14,1.46,0.2c0.4,0.08,0.75,0.15,1.06,0.21
					c0.57,0.11,0.88,0.16,0.88,0.14c0.01-0.02-0.29-0.11-0.85-0.27c-0.3-0.08-0.65-0.17-1.05-0.27c-0.43-0.08-0.92-0.17-1.46-0.26
					c-2.2-0.36-5.46-0.53-9.43-0.08c-7.96,0.73-18.51,4.49-30.67,4.34c-12.13,0.11-22.91-2.7-30.28-5.56
					c-3.72-1.39-6.58-2.85-8.57-3.83c-0.94-0.5-1.69-0.9-2.26-1.2c-0.12-0.06-0.22-0.11-0.31-0.16v0.12
					c0.08,0.05,0.16,0.1,0.25,0.16C33.36,417.04,34.09,417.47,35,418.02z"/>
				<path class="st1" d="M101.22,417.36c-2.77,0.04-5.41-0.11-7.78-0.5c-2.36-0.38-4.45-0.98-6.13-1.64
					c-3.39-1.32-5.15-2.79-5.22-2.68c-0.01,0.02,0.09,0.12,0.29,0.29c0.2,0.18,0.52,0.43,0.94,0.72c0.84,0.58,2.12,1.37,3.82,2.08
					c1.7,0.72,3.81,1.37,6.21,1.79c2.4,0.43,5.08,0.6,7.88,0.56c5.61-0.12,10.61-0.83,14.25-1.19c0.93-0.11,1.78-0.21,2.55-0.31
					v-0.33c-0.78,0.06-1.64,0.12-2.59,0.19C111.79,416.6,106.77,417.25,101.22,417.36z"/>
				<path class="st1" d="M44.97,425.38c4.1,1.08,8.82,2.97,14.32,4.28c5.48,1.33,11.67,2.18,18.19,2.21
					c13.14,0.32,24.43-4.31,32.93-4.02c3.02,0.01,5.59,0.47,7.61,1.06v-0.32c-2.02-0.64-4.59-1.13-7.6-1.19
					c-8.66-0.38-19.93,4.17-32.93,3.84c-6.47-0.02-12.61-0.86-18.06-2.14c-5.46-1.27-10.19-3.12-14.34-4.15
					c-4.13-1.09-7.63-1.38-10.01-1.18c-1.08,0.08-1.92,0.22-2.53,0.35v0.14c0.61-0.09,1.46-0.19,2.54-0.24
					C37.45,423.89,40.89,424.24,44.97,425.38z"/>
				<path class="st1" d="M42.45,438.81c3.93-1.7,8.92-3.08,14.59-3.26c5.67-0.25,11.89,0.58,18.41,1.4c3.26,0.4,6.47,0.74,9.58,0.87
					c3.11,0.15,6.13,0.01,8.97-0.25c5.67-0.53,10.79-1.03,15.04-0.36c3.99,0.57,7.04,1.96,8.98,3.3v-0.32
					c-1.94-1.39-4.98-2.81-8.92-3.42c-4.31-0.73-9.5-0.27-15.15,0.22c-2.83,0.24-5.81,0.36-8.89,0.21
					c-3.08-0.14-6.27-0.48-9.53-0.88c-6.51-0.82-12.78-1.64-18.51-1.35c-5.74,0.21-10.81,1.66-14.75,3.43
					c-3.97,1.76-6.85,3.82-8.72,5.33c-0.38,0.3-0.7,0.58-1,0.84v0.25c0.34-0.27,0.72-0.57,1.15-0.9
					C35.61,442.49,38.5,440.51,42.45,438.81z"/>
				<path class="st1" d="M75.14,444.19c-4.24-0.86-8.35-1.45-12.12-1.44c-3.77-0.01-7.16,0.55-9.87,1.42
					c-2.62,0.84-4.6,1.91-5.91,2.8h0.49c1.32-0.78,3.18-1.67,5.55-2.38c2.69-0.79,6.03-1.3,9.74-1.26c3.72,0.03,7.78,0.62,12,1.48
					c3.55,0.72,6.93,1.52,10.11,2.16h3.13c-0.41-0.07-0.81-0.14-1.23-0.22C83.36,446.05,79.37,445.05,75.14,444.19z"/>
			</g>
			<g>
				<g>
					<g>
						<rect x="32.55" y="381.33" class="st2" width="61.85" height="1.21"/>
					</g>
					<g>
						<rect x="32.55" y="413.17" class="st2" width="61.86" height="1.21"/>
					</g>
					<g>
						<rect x="57.45" y="381.94" class="st2" width="13.06" height="2.77"/>
					</g>
					<g>
						<rect x="57.45" y="350.46" class="st2" width="13.06" height="2.77"/>
					</g>
					<g>
						<rect x="57.45" y="413.61" class="st2" width="13.06" height="2.77"/>
					</g>
					<g>
						<rect x="94.4" y="350.46" class="st1" width="23.62" height="96.55"/>
					</g>
				</g>
				<g>
					<g>
						<rect x="32.55" y="310.71" class="st1" width="8.34" height="39.75"/>
					</g>
					<g>
						<rect x="45.13" y="314.76" class="st1" width="5.82" height="35.71"/>
					</g>
					<g>
						<rect x="40.89" y="314.76" class="st2" width="4.24" height="35.71"/>
					</g>
					<g>
						<rect x="50.94" y="318.86" class="st0" width="4.3" height="31.61"/>
					</g>
					<g>
						<rect x="55.24" y="308.03" class="st1" width="9.1" height="42.43"/>
					</g>
				</g>
				<g>
					<g>
						<path class="st1" d="M70.77,331.72l-0.86,3.58l0.86,1.29v2.15l-0.86,2l0.86,0.72v5.01l-0.86,0.57l0.86,0.72v2.72h25.04h20.89
							v-3.29l-0.86-1.57l0.86-7.15l-0.72-3.43c0,0-0.72-1.43-0.72-1.86c0-0.43,0.14-1.43,0.14-1.43H70.77z"/>
					</g>
					<g class="st4">
						<polygon class="st2" points="94.4,350.46 93.3,345.28 94.4,343.14 94.4,341.09 93.3,340.02 94.4,338.38 94.4,331.72 
							115.41,331.72 115.26,333.15 115.98,335.01 116.7,338.45 115.84,345.6 116.7,347.17 116.7,350.46 						"/>
					</g>
				</g>
			</g>
		</g>
	</g>
</g>
<g id="Background_Simple" class="st5">
	<path class="st6" d="M113.42,165.04c-9.84,87.82,7.63,178.19,110.1,190.87c52.83,6.54,161.62-16.94,164.52-84.6
		c3.99-93.25-100.12-59.12-143.8-90.39c-29.94-21.44-6.8-79.26-62.04-88.95C138.53,84.31,117.51,128.53,113.42,165.04z"/>
</g>
<g id="Floor">
	<g>
		<path class="st7" d="M481.3,447.04c0,0.14-102.73,0.26-229.42,0.26c-126.74,0-229.44-0.12-229.44-0.26
			c0-0.14,102.71-0.26,229.44-0.26C378.58,446.78,481.3,446.9,481.3,447.04z"/>
	</g>
</g>
<g id="Graphics">
	<g>
		<g>
			<g>
				<g>
					
						<rect x="129.47" y="155.75" transform="matrix(1 -4.089360e-03 4.089360e-03 1 -0.7235 0.6005)" class="st3" width="34.03" height="42.97"/>
					<g>
						<path class="st7" d="M129.56,198.78c0,0,0.23-0.02,0.64-0.03c0.44-0.01,1.05-0.02,1.83-0.03c1.62-0.02,3.95-0.05,6.91-0.08
							c5.95-0.05,14.43-0.12,24.65-0.21l-0.21,0.22c-0.06-12.28-0.14-27.06-0.22-42.96c-0.06-0.06,0.49,0.49,0.26,0.26h-0.01h-0.02
							h-0.04l-0.07,0l-0.14,0l-0.29,0l-0.57,0l-1.15,0c-0.76,0-1.52,0.01-2.28,0.01c-1.51,0.01-3.01,0.01-4.5,0.02
							c-2.97,0.01-5.89,0.02-8.75,0.03c-5.71,0.02-11.14,0.03-16.21,0.05l0.23-0.23c0,12.72,0.01,23.42,0.01,30.98
							c-0.01,3.76-0.02,6.74-0.03,8.81c-0.01,1-0.01,1.79-0.02,2.35c0,0.25-0.01,0.45-0.01,0.61
							C129.57,198.71,129.56,198.78,129.56,198.78c0,0-0.01-0.06-0.01-0.19c0-0.15-0.01-0.34-0.02-0.58
							c-0.01-0.55-0.02-1.32-0.04-2.3c-0.02-2.06-0.06-5.02-0.1-8.76c-0.06-7.6-0.14-18.35-0.24-31.13l0-0.23l0.23,0
							c5.07-0.03,10.51-0.06,16.21-0.09c2.85-0.01,5.77-0.03,8.75-0.04c1.49-0.01,2.99-0.01,4.5-0.02c0.76,0,1.52-0.01,2.28-0.01
							l1.15,0l0.57,0l0.29,0l0.14,0h0.07l0.04,0h0.02h0.01c-0.23-0.23,0.32,0.32,0.27,0.26c0.05,15.9,0.09,30.68,0.13,42.96l0,0.22
							h-0.22c-10.27,0-18.8-0.01-24.78-0.01c-2.94-0.01-5.25-0.02-6.86-0.03c-0.76-0.01-1.36-0.01-1.79-0.02
							C129.75,198.8,129.56,198.78,129.56,198.78z"/>
					</g>
				</g>
			</g>
			<g>
				
					<rect x="144.43" y="197.75" transform="matrix(1 -3.837739e-03 3.837739e-03 1 -0.76 0.5648)" class="st7" width="4.72" height="1.15"/>
			</g>
			<g>
				
					<rect x="141.55" y="170.78" transform="matrix(1 -4.068630e-03 4.068630e-03 1 -0.724 0.5984)" class="st8" width="10.32" height="14.91"/>
				
					<rect x="141.55" y="170.78" transform="matrix(1 -4.068630e-03 4.068630e-03 1 -0.724 0.5984)" class="st9" width="10.32" height="14.91"/>
			</g>
			<g>
				
					<rect x="144.92" y="155.16" transform="matrix(1 -3.975504e-03 3.975504e-03 1 -0.6176 0.5867)" class="st7" width="4.72" height="0.98"/>
			</g>
		</g>
		<g>
			<circle class="st8" cx="238.23" cy="129.68" r="22.84"/>
			<g>
				<path class="st3" d="M248.72,130.38c0,0.07-1.14,0.13-3.03,0.17c-1.88,0.05-4.51,0.08-7.47,0.09l-0.26,0l0-0.26
					c0-0.47,0-0.97,0-1.48c0-3.31,0.03-6.3,0.08-8.47c0.05-2.17,0.11-3.51,0.18-3.51c0.07,0,0.14,1.34,0.18,3.51
					c0.05,2.17,0.08,5.16,0.08,8.47c0,0.51,0,1.01,0,1.48l-0.26-0.26c2.96,0.01,5.59,0.04,7.47,0.09
					C247.58,130.25,248.72,130.31,248.72,130.38z"/>
			</g>
			<g>
				<path class="st3" d="M238.3,110.59c0.14,0,0.26,0.86,0.26,1.92c0,1.06-0.12,1.92-0.26,1.92c-0.14,0-0.26-0.86-0.26-1.92
					C238.04,111.45,238.15,110.59,238.3,110.59z"/>
			</g>
			<g>
				<path class="st3" d="M248.7,113.67c0.1,0.1-0.41,0.78-1.15,1.52c-0.74,0.74-1.42,1.25-1.52,1.15c-0.1-0.1,0.41-0.78,1.15-1.52
					C247.92,114.09,248.6,113.57,248.7,113.67z"/>
			</g>
			<g>
				<path class="st3" d="M254.79,120.32c0.06,0.13-0.63,0.61-1.52,1.15c-0.88,0.54-1.63,0.93-1.72,0.82
					c-0.08-0.11,0.54-0.71,1.45-1.26C253.91,120.47,254.73,120.19,254.79,120.32z"/>
			</g>
			<g>
				<path class="st3" d="M258.35,130.18c0,0.14-1.17,0.26-2.62,0.26c-1.45,0-2.62-0.12-2.62-0.26c0-0.14,1.17-0.26,2.62-0.26
					C257.18,129.92,258.35,130.04,258.35,130.18z"/>
			</g>
			<g>
				<path class="st3" d="M222.08,129.83c0,0.14-1.11,0.26-2.47,0.26c-1.37,0-2.47-0.12-2.47-0.26c0-0.14,1.11-0.26,2.47-0.26
					C220.97,129.57,222.08,129.69,222.08,129.83z"/>
			</g>
			<g>
				<path class="st3" d="M224.64,137.18c0.09,0.11-0.71,0.91-1.8,1.78c-1.09,0.88-2.04,1.49-2.12,1.38
					c-0.09-0.12,0.72-0.91,1.8-1.78C223.6,137.68,224.55,137.07,224.64,137.18z"/>
			</g>
			<g>
				<path class="st3" d="M230.97,142.86c0.12,0.09-0.46,1.07-1.17,2.26c-0.72,1.19-1.31,2.16-1.45,2.1c-0.13-0.06,0.27-1.15,1-2.37
					C230.08,143.63,230.86,142.77,230.97,142.86z"/>
			</g>
			<g>
				<path class="st3" d="M238.3,150.18c-0.14,0-0.26-1.17-0.26-2.62c0-1.44,0.12-2.62,0.26-2.62c0.14,0,0.26,1.17,0.26,2.62
					C238.56,149.01,238.44,150.18,238.3,150.18z"/>
			</g>
			<g>
				<path class="st3" d="M249.57,146.7c-0.08,0.12-1.13-0.43-2.23-1.39c-1.1-0.96-1.79-1.93-1.68-2.02c0.11-0.1,0.95,0.7,2.03,1.63
					C248.75,145.84,249.66,146.57,249.57,146.7z"/>
			</g>
			<g>
				<path class="st3" d="M254.87,141c-0.1,0.1-0.91-0.54-1.81-1.44c-0.9-0.9-1.55-1.71-1.44-1.81c0.1-0.1,0.91,0.54,1.81,1.44
					C254.32,140.08,254.97,140.89,254.87,141z"/>
			</g>
			<g>
				<path class="st3" d="M224.4,122.8c-0.1,0.1-0.82-0.45-1.61-1.24c-0.79-0.79-1.34-1.51-1.24-1.61c0.1-0.1,0.82,0.45,1.61,1.24
					C223.95,121.98,224.5,122.7,224.4,122.8z"/>
			</g>
			<g>
				<path class="st3" d="M230.93,115.92c-0.1,0.1-0.81-0.44-1.58-1.21c-0.77-0.77-1.32-1.48-1.21-1.58c0.1-0.1,0.81,0.44,1.58,1.21
					C230.49,115.11,231.04,115.82,230.93,115.92z"/>
			</g>
		</g>
		<g>
			<g>
				
					<rect x="309.99" y="200.74" transform="matrix(0.9955 -0.0944 0.0944 0.9955 -18.6088 31.8797)" class="st3" width="35.05" height="23.62"/>
				<g>
					<path class="st7" d="M346.08,222.65c-0.01-0.01-0.03-0.16-0.07-0.44c-0.04-0.32-0.08-0.73-0.14-1.25
						c-0.12-1.13-0.29-2.72-0.5-4.74c-0.42-4.11-1.01-9.95-1.73-17.06l0.23,0.19c-9.64,0.93-21.75,2.1-34.88,3.36
						c-0.05,0.06,0.44-0.54,0.23-0.28l0,0.01l0,0.01l0,0.02l0,0.05l0.01,0.1l0.02,0.2l0.04,0.39l0.07,0.78
						c0.05,0.52,0.1,1.04,0.15,1.56c0.1,1.03,0.19,2.06,0.29,3.08c0.19,2.04,0.38,4.04,0.57,6.01c0.37,3.94,0.72,7.72,1.06,11.3
						l-0.26-0.21c10.23-0.92,18.92-1.71,25.09-2.26c3.06-0.26,5.5-0.47,7.21-0.62c0.82-0.07,1.46-0.12,1.93-0.15
						c0.2-0.01,0.37-0.02,0.5-0.03C346.01,222.65,346.07,222.65,346.08,222.65c0.01,0.01-0.2,0.04-0.63,0.09
						c-0.46,0.05-1.08,0.12-1.88,0.21c-1.69,0.18-4.11,0.43-7.14,0.74c-6.2,0.62-14.94,1.49-25.22,2.51l-0.24,0.02l-0.02-0.24
						c-0.35-3.58-0.71-7.37-1.09-11.3c-0.19-1.97-0.38-3.97-0.57-6.01c-0.1-1.02-0.19-2.05-0.29-3.08c-0.05-0.52-0.1-1.04-0.15-1.56
						l-0.07-0.78l-0.04-0.39l-0.02-0.2l-0.01-0.1l0-0.05l0-0.02l0-0.01l0-0.01c-0.21,0.25,0.29-0.35,0.24-0.29
						c13.13-1.23,25.25-2.36,34.89-3.26l0.21-0.02l0.02,0.21c0.63,7.17,1.16,13.06,1.52,17.21c0.17,2.01,0.3,3.59,0.39,4.71
						c0.04,0.51,0.07,0.91,0.09,1.22C346.08,222.52,346.08,222.66,346.08,222.65z"/>
				</g>
			</g>
			<g>
				<path class="st7" d="M343.84,199.13c0.03,0.02-0.35,0.49-1.06,1.33c-0.77,0.89-1.8,2.08-3.05,3.51
					c-2.6,2.96-6.23,7.04-10.3,11.56l-0.15,0.16l-0.19-0.12c-0.29-0.19-0.61-0.39-0.93-0.59c-5.34-3.41-10.17-6.51-13.64-8.78
					c-1.68-1.11-3.06-2.03-4.1-2.71c-0.44-0.3-0.8-0.55-1.1-0.76c-0.25-0.18-0.37-0.28-0.36-0.29c0.01-0.02,0.15,0.06,0.42,0.21
					c0.32,0.19,0.7,0.41,1.15,0.68c1.06,0.65,2.48,1.52,4.19,2.57c3.53,2.19,8.38,5.25,13.72,8.66c0.32,0.2,0.63,0.4,0.93,0.59
					l-0.33,0.05c4.07-4.52,7.75-8.56,10.42-11.46c1.3-1.39,2.37-2.54,3.17-3.41C343.39,199.54,343.82,199.11,343.84,199.13z"/>
			</g>
		</g>
		<g>
			<g>
				<rect x="296.75" y="83.55" class="st8" width="44.24" height="65.84"/>
				<rect x="296.75" y="83.55" class="st10" width="44.24" height="65.84"/>
			</g>
			<g>
				<path class="st7" d="M341.5,149.9h-45.26V83.03h45.26V149.9z M297.26,148.88h43.21V84.06h-43.21V148.88z"/>
			</g>
			<rect x="301.2" y="87.61" class="st3" width="35.41" height="57.68"/>
			<rect x="308.92" y="103.96" class="st8" width="19.88" height="23.3"/>
		</g>
		<g>
			<g>
				<path class="st7" d="M269.77,197.92c-0.01-0.04,0.36,0.02,0.87-0.33c0.24-0.18,0.5-0.48,0.61-0.91c0.1-0.42,0.03-0.97,0.05-1.57
					c0.01-2.44,0.04-5.89,0.06-10.14c0.01-1.07,0.02-2.19,0.03-3.36c0.01-0.58,0.01-1.18,0.02-1.79c0-0.3,0.03-0.62-0.03-0.87
					c-0.05-0.26-0.18-0.51-0.37-0.71c-0.19-0.19-0.44-0.33-0.71-0.38c-0.25-0.04-0.61-0.01-0.92-0.02c-0.65,0-1.31,0-1.98,0.01
					c-1.34,0-2.72,0.01-4.13,0.01c-5.66,0.01-11.88,0.01-18.41,0.02c-0.69-0.01-1.31,0.6-1.36,1.28c-0.01,0.8-0.03,1.59-0.04,2.38
					c-0.02,1.59-0.05,3.16-0.07,4.7c-0.05,3.08-0.1,6.05-0.14,8.88c-0.01,0.35-0.01,0.71-0.02,1.05c-0.02,0.33,0.05,0.61,0.21,0.87
					c0.16,0.25,0.39,0.45,0.66,0.55c0.26,0.12,0.57,0.08,0.92,0.09c1.34,0,2.64,0.01,3.9,0.01c2.51,0.01,4.86,0.02,7,0.03
					c4.25,0.03,7.7,0.06,10.14,0.08c1.16,0.02,2.08,0.04,2.76,0.05c0.29,0.01,0.52,0.02,0.72,0.03
					C269.69,197.9,269.77,197.91,269.77,197.92c0,0.01-0.08,0.02-0.24,0.03c-0.19,0.01-0.43,0.02-0.72,0.03
					c-0.67,0.01-1.59,0.03-2.76,0.05c-2.44,0.02-5.89,0.05-10.14,0.08c-2.14,0.01-4.49,0.02-7,0.03c-1.26,0-2.56,0.01-3.9,0.01
					c-0.31-0.01-0.71,0.04-1.08-0.12c-0.37-0.14-0.68-0.4-0.89-0.74c-0.21-0.33-0.31-0.75-0.28-1.12c0-0.35,0.01-0.7,0.01-1.05
					c0.04-2.83,0.07-5.8,0.11-8.88c0.02-1.54,0.04-3.11,0.06-4.7c0.01-0.8,0.03-1.61,0.04-2.42c0.06-0.93,0.9-1.77,1.87-1.76
					c6.53,0.01,12.75,0.01,18.41,0.02c1.41,0,2.79,0.01,4.13,0.01c0.67,0,1.33,0,1.98,0.01c0.33,0.01,0.62-0.02,1.01,0.04
					c0.36,0.07,0.69,0.26,0.94,0.51c0.25,0.26,0.41,0.58,0.48,0.93c0.07,0.36,0.02,0.66,0.03,0.96c-0.01,0.61-0.02,1.2-0.03,1.79
					c-0.02,1.17-0.04,2.29-0.06,3.36c-0.1,4.25-0.17,7.7-0.23,10.14c-0.04,0.6,0.02,1.12-0.11,1.6c-0.14,0.47-0.43,0.78-0.7,0.96
					c-0.28,0.18-0.52,0.23-0.69,0.25C269.85,197.94,269.77,197.93,269.77,197.92z"/>
			</g>
			<polygon class="st7" points="258.38,186.05 261.79,188.12 258.3,190.17 254.82,192.21 254.89,188.1 254.97,183.98 			"/>
		</g>
		<g>
			<g>
				<path class="st3" d="M187.54,245.43l-25.5-13.77l0,0c2.98-2.06,5.42-4.82,7.1-8.04l9.34-17.91c1.78-3.31,5.12-5.49,8.86-5.81
					l0,0l23.66,12.77l0,0c-2.79,1.31-5.09,3.49-6.55,6.2l-10.57,19.59C192.35,241.28,190.18,243.66,187.54,245.43L187.54,245.43z"/>
				<g>
					<path class="st7" d="M187.54,245.43c0-0.01,0.09-0.08,0.28-0.23c0.19-0.14,0.47-0.35,0.83-0.64c0.71-0.58,1.75-1.48,2.87-2.82
						c0.56-0.67,1.13-1.46,1.69-2.37c0.54-0.91,1.06-1.95,1.66-3.05c1.18-2.21,2.52-4.71,3.99-7.48c1.48-2.77,3.11-5.8,4.85-9.06
						c0.43-0.81,0.87-1.66,1.43-2.45c0.55-0.79,1.2-1.54,1.92-2.24c0.73-0.68,1.53-1.31,2.41-1.85c0.44-0.27,0.89-0.52,1.36-0.74
						l0.04-0.02l0.02-0.01c-0.01,0.84-0.02,0.23-0.02,0.41l-0.08-0.05l-0.17-0.09l-0.34-0.18l-0.68-0.37
						c-3.66-1.97-7.5-4.04-11.48-6.18c-1.99-1.07-4.01-2.16-6.07-3.27c-1.03-0.55-2.06-1.11-3.1-1.67
						c-0.52-0.28-1.04-0.56-1.57-0.85l-0.1-0.05l-0.05-0.03c-0.04-0.01,0.26,0.05,0.12,0.03l-0.03,0l-0.22,0.03l-0.43,0.05
						c-0.29,0.06-0.58,0.09-0.86,0.17c-2.28,0.53-4.35,1.81-5.82,3.55c-0.76,0.86-1.29,1.85-1.82,2.89
						c-0.53,1.02-1.06,2.03-1.58,3.03c-2.1,4-4.12,7.87-6.04,11.55c-0.96,1.83-1.85,3.68-3.07,5.27c-1.19,1.6-2.55,2.99-4,4.15
						c-0.36,0.29-0.73,0.57-1.11,0.83l-0.14,0.1l-0.07,0.05c-0.04-0.72,0-0.19,0-0.35l0.02,0.01l0.04,0.02l0.3,0.16l0.59,0.32
						c0.78,0.43,1.55,0.84,2.3,1.25c1.51,0.82,2.95,1.61,4.33,2.36c5.49,3,9.94,5.44,13.05,7.14c1.51,0.84,2.7,1.5,3.54,1.96
						c0.38,0.22,0.68,0.39,0.91,0.52C187.44,245.36,187.54,245.42,187.54,245.43c0,0.01-0.12-0.04-0.33-0.15
						c-0.24-0.12-0.55-0.28-0.94-0.48c-0.85-0.44-2.05-1.07-3.58-1.88c-3.13-1.67-7.61-4.05-13.13-7c-1.38-0.74-2.84-1.52-4.35-2.33
						c-0.76-0.41-1.53-0.82-2.31-1.24l-0.59-0.32l-0.3-0.16l-0.04-0.02l-0.02-0.01c-0.01-0.16,0.01,0.35-0.04-0.37l0.07-0.05
						l0.14-0.1c0.37-0.26,0.73-0.53,1.08-0.82c1.42-1.15,2.75-2.52,3.91-4.09c1.18-1.55,2.05-3.37,3.01-5.22
						c1.92-3.69,3.93-7.55,6.02-11.56c0.52-1,1.05-2.01,1.58-3.03c0.51-1.01,1.08-2.09,1.88-2.98c1.54-1.83,3.7-3.17,6.09-3.72
						c0.3-0.08,0.6-0.12,0.9-0.18l0.46-0.05l0.23-0.03l0.03,0c-0.12-0.03,0.2,0.04,0.17,0.03l0.05,0.03l0.1,0.05
						c0.52,0.28,1.05,0.56,1.57,0.85c1.04,0.56,2.08,1.12,3.1,1.68c2.05,1.11,4.08,2.2,6.06,3.28c3.97,2.15,7.81,4.23,11.46,6.2
						l0.68,0.37l0.34,0.18l0.17,0.09l0.08,0.05c0,0.19,0.03-0.41,0,0.44l-0.02,0.01l-0.04,0.02c-0.45,0.22-0.9,0.46-1.32,0.72
						c-0.85,0.52-1.63,1.12-2.34,1.79c-0.7,0.67-1.33,1.39-1.87,2.16c-0.54,0.77-0.97,1.59-1.41,2.4c-1.76,3.24-3.41,6.27-4.91,9.03
						c-1.5,2.75-2.86,5.25-4.06,7.44c-0.61,1.09-1.14,2.12-1.7,3.04c-0.57,0.91-1.17,1.7-1.74,2.37c-1.15,1.34-2.22,2.22-2.96,2.77
						c-0.37,0.28-0.66,0.48-0.86,0.6C187.65,245.38,187.54,245.44,187.54,245.43z"/>
				</g>
			</g>
			<g>
				<path class="st7" d="M199.41,219.43c-0.05,0.09-4.23-2.1-9.35-4.89c-5.11-2.79-9.22-5.12-9.17-5.21
					c0.05-0.09,4.23,2.1,9.35,4.89C195.35,217.01,199.46,219.35,199.41,219.43z"/>
			</g>
			<g>
				<path class="st7" d="M198.01,222.99c-0.05,0.09-4.37-2.18-9.66-5.06c-5.29-2.88-9.53-5.29-9.48-5.38
					c0.05-0.09,4.37,2.18,9.66,5.06C193.81,220.49,198.06,222.9,198.01,222.99z"/>
			</g>
			<g>
				<path class="st7" d="M196.32,226.1c-0.05,0.09-4.37-2.18-9.66-5.06c-5.29-2.88-9.53-5.29-9.48-5.38
					c0.05-0.09,4.37,2.18,9.66,5.06C192.12,223.6,196.36,226.01,196.32,226.1z"/>
			</g>
			<g>
				<path class="st7" d="M194.62,229.2c-0.05,0.09-4.37-2.18-9.66-5.06c-5.29-2.88-9.53-5.29-9.48-5.38
					c0.05-0.09,4.37,2.18,9.66,5.06C190.42,226.7,194.67,229.11,194.62,229.2z"/>
			</g>
			<g>
				<path class="st7" d="M192.93,232.3c-0.05,0.09-4.37-2.18-9.66-5.06c-5.29-2.88-9.53-5.29-9.48-5.38
					c0.05-0.09,4.37,2.18,9.66,5.06C188.73,229.81,192.98,232.22,192.93,232.3z"/>
			</g>
			<g>
				<path class="st7" d="M182.03,230.39c-0.02,0.04-0.6-0.22-1.52-0.68c-0.92-0.46-2.17-1.12-3.54-1.87
					c-1.37-0.75-2.6-1.44-3.49-1.96c-0.88-0.52-1.42-0.86-1.39-0.91c0.02-0.04,0.6,0.22,1.52,0.68c0.92,0.46,2.17,1.12,3.54,1.87
					c1.37,0.75,2.6,1.44,3.49,1.96C181.52,230,182.06,230.35,182.03,230.39z"/>
			</g>
			<g>
				<path class="st7" d="M188.06,238.41c-0.03-0.02,0.1-0.25,0.2-0.7c0.1-0.44,0.13-1.15-0.21-1.89c-0.33-0.73-1.11-1.47-2.18-1.61
					c-1.04-0.17-2.3,0.35-2.88,1.44c-0.6,1.08-0.36,2.42,0.35,3.2c0.7,0.81,1.74,1.08,2.54,0.96c0.81-0.11,1.38-0.52,1.71-0.84
					C187.91,238.63,188.03,238.4,188.06,238.41c0.01,0.01-0.07,0.27-0.38,0.64c-0.3,0.37-0.89,0.85-1.77,1
					c-0.86,0.17-2.03-0.09-2.83-0.99c-0.81-0.86-1.1-2.38-0.42-3.6c0.66-1.23,2.09-1.81,3.25-1.6c1.19,0.19,2.04,1.03,2.36,1.84
					c0.35,0.82,0.26,1.58,0.12,2.03C188.25,238.21,188.07,238.42,188.06,238.41z"/>
			</g>
			
				<rect x="181.99" y="207.79" transform="matrix(0.8779 0.4788 -0.4788 0.8779 122.5183 -63.7113)" class="st7" width="8.41" height="1.21"/>
		</g>
		<g>
			<g>
				<g>
					<polygon class="st8" points="163.38,129.68 156.84,122.73 156.84,145.76 170.73,130.17 					"/>
					<polygon class="st9" points="163.38,129.68 156.84,122.73 156.84,145.76 170.73,130.17 					"/>
				</g>
				<polyline class="st8" points="156.99,145.59 165.12,129.79 163.38,129.68 162.31,128.55 156.99,145.59 				"/>
				<g>
					<path class="st7" d="M163.38,129.68c0.07,0.02-0.2,0.96-0.72,2.45c-0.52,1.49-1.29,3.52-2.21,5.73
						c-0.92,2.21-1.8,4.2-2.45,5.63c-0.65,1.43-1.08,2.3-1.15,2.27c-0.07-0.03,0.25-0.95,0.81-2.42c0.57-1.47,1.39-3.47,2.31-5.68
						c0.88-2.12,1.67-4.04,2.35-5.66C162.91,130.54,163.31,129.65,163.38,129.68z"/>
				</g>
			</g>
			<g>
				<g>
					<path class="st7" d="M163.33,126.63c0.14,0.03,0.06,1.15-0.19,2.51c-0.25,1.35-0.56,2.43-0.7,2.41
						c-0.14-0.02-0.06-1.14,0.19-2.51C162.87,127.68,163.18,126.6,163.33,126.63z"/>
				</g>
				<g>
					<path class="st7" d="M165.94,116.98c0.14,0.05-0.08,1.15-0.47,2.47c-0.4,1.32-0.83,2.36-0.97,2.32
						c-0.14-0.04,0.07-1.14,0.47-2.47C165.37,117.98,165.8,116.94,165.94,116.98z"/>
				</g>
				<g>
					<path class="st7" d="M169.62,107.69c0.13,0.06-0.2,1.14-0.74,2.4c-0.54,1.27-1.09,2.25-1.22,2.2c-0.13-0.05,0.2-1.13,0.74-2.4
						C168.94,108.61,169.49,107.63,169.62,107.69z"/>
				</g>
				<g>
					<path class="st7" d="M174.29,98.85c0.12,0.07-0.33,1.11-1,2.3c-0.68,1.2-1.33,2.12-1.46,2.05c-0.13-0.07,0.32-1.1,1-2.31
						C173.52,99.69,174.17,98.78,174.29,98.85z"/>
				</g>
				<g>
					<path class="st7" d="M179.91,90.58c0.11,0.09-0.45,1.06-1.25,2.18c-0.8,1.12-1.55,1.96-1.67,1.88
						c-0.12-0.08,0.44-1.06,1.25-2.18C179.05,91.33,179.8,90.5,179.91,90.58z"/>
				</g>
				<g>
					<path class="st7" d="M186.41,82.99c0.1,0.1-0.56,1.01-1.48,2.03c-0.92,1.02-1.76,1.77-1.87,1.68c-0.11-0.09,0.56-1,1.48-2.03
						C185.47,83.64,186.3,82.89,186.41,82.99z"/>
				</g>
				<g>
					<path class="st7" d="M193.73,76.18c0.09,0.11-0.67,0.94-1.71,1.84c-1.03,0.91-1.95,1.56-2.05,1.45
						c-0.1-0.1,0.67-0.93,1.71-1.84C192.72,76.72,193.64,76.07,193.73,76.18z"/>
				</g>
				<g>
					<path class="st7" d="M201.8,70.29c0.08,0.13-0.81,0.81-1.93,1.61c-1.13,0.79-2.11,1.33-2.2,1.21c-0.09-0.12,0.77-0.85,1.9-1.64
						C200.71,70.66,201.73,70.17,201.8,70.29z"/>
				</g>
				<g>
					<path class="st7" d="M210.53,65.42c0.06,0.13-0.88,0.75-2.1,1.38c-1.22,0.63-2.27,1.05-2.34,0.92
						c-0.07-0.12,0.87-0.74,2.1-1.38C209.42,65.7,210.47,65.29,210.53,65.42z"/>
				</g>
				<g>
					<path class="st7" d="M219.78,61.63c0.05,0.14-0.96,0.64-2.25,1.12c-1.29,0.48-2.38,0.77-2.43,0.64
						c-0.06-0.13,0.95-0.64,2.25-1.12C218.65,61.78,219.74,61.49,219.78,61.63z"/>
				</g>
				<g>
					<path class="st7" d="M229.41,58.94c0.03,0.14-1.03,0.52-2.36,0.85c-1.34,0.33-2.45,0.49-2.49,0.35
						c-0.04-0.14,1.02-0.52,2.36-0.85C228.27,58.96,229.38,58.8,229.41,58.94z"/>
				</g>
				<g>
					<path class="st7" d="M239.29,57.39c0.01,0.14-1.08,0.4-2.45,0.58c-1.37,0.17-2.49,0.2-2.51,0.06c-0.02-0.14,1.07-0.4,2.45-0.58
						C238.15,57.27,239.28,57.24,239.29,57.39z"/>
				</g>
				<g>
					<path class="st7" d="M249.27,56.99c0,0.14-1.12,0.27-2.5,0.29c-1.38,0.01-2.5-0.09-2.5-0.23c-0.01-0.14,1.11-0.27,2.5-0.29
						C248.16,56.74,249.28,56.84,249.27,56.99z"/>
				</g>
				<g>
					<path class="st7" d="M259.23,57.77c-0.02,0.14-1.15,0.14-2.51-0.01c-1.37-0.15-2.47-0.38-2.46-0.53
						c0.01-0.14,1.13-0.14,2.51,0.01C258.15,57.39,259.25,57.62,259.23,57.77z"/>
				</g>
				<g>
					<path class="st7" d="M269.03,59.74c-0.04,0.14-1.15,0-2.49-0.32c-1.34-0.31-2.4-0.68-2.38-0.82c0.03-0.14,1.14,0,2.49,0.32
						C268,59.23,269.07,59.6,269.03,59.74z"/>
				</g>
				<g>
					<path class="st7" d="M278.5,62.93c-0.06,0.13-1.14-0.15-2.43-0.63c-1.29-0.48-2.29-0.98-2.25-1.12
						c0.04-0.14,1.13,0.15,2.43,0.63C277.54,62.3,278.55,62.8,278.5,62.93z"/>
				</g>
				<g>
					<path class="st7" d="M287.42,67.43c-0.08,0.12-1.11-0.32-2.31-0.98c-1.2-0.67-2.12-1.31-2.06-1.44
						c0.06-0.13,1.1,0.31,2.31,0.98C286.57,66.67,287.49,67.31,287.42,67.43z"/>
				</g>
				<g>
					<path class="st7" d="M295.44,73.37c-0.1,0.11-1.04-0.51-2.1-1.38c-1.06-0.87-1.86-1.66-1.77-1.78c0.08-0.12,1.03,0.5,2.1,1.38
						C294.74,72.47,295.54,73.27,295.44,73.37z"/>
				</g>
				<g>
					<path class="st7" d="M302.28,80.62c-0.12,0.08-0.81-0.8-1.68-1.85c-0.87-1.06-1.57-1.92-1.47-2.03c0.1-0.1,0.98,0.62,1.87,1.7
						C301.89,79.51,302.4,80.54,302.28,80.62z"/>
				</g>
			</g>
			<g>
				<g>
					<path class="st7" d="M276.49,186.88c0,0.14-1.13,0.2-2.51,0.12c-1.38-0.08-2.5-0.26-2.48-0.4c0.01-0.14,1.14-0.2,2.51-0.12
						C275.38,186.55,276.49,186.73,276.49,186.88z"/>
				</g>
				<g>
					<path class="st7" d="M286.47,186.38c0.02,0.14-1.09,0.36-2.47,0.48c-1.38,0.12-2.51,0.1-2.51-0.04
						c-0.01-0.14,1.1-0.36,2.47-0.48C285.33,186.22,286.45,186.24,286.47,186.38z"/>
				</g>
				<g>
					<path class="st7" d="M296.23,184.24c0.04,0.14-1.01,0.54-2.35,0.9c-1.34,0.36-2.45,0.54-2.48,0.4
						c-0.03-0.14,1.02-0.54,2.35-0.9C295.07,184.28,296.18,184.11,296.23,184.24z"/>
				</g>
				<g>
					<path class="st7" d="M305.35,180.18c0.07,0.12-0.83,0.8-2.07,1.44c-1.24,0.64-2.32,0.98-2.38,0.85
						c-0.06-0.13,0.92-0.68,2.14-1.31C304.26,180.53,305.27,180.06,305.35,180.18z"/>
				</g>
				<g>
					<path class="st7" d="M313.19,174.03c0.1,0.1-0.59,1-1.63,1.93c-1.03,0.93-2,1.53-2.09,1.41c-0.09-0.12,0.72-0.88,1.74-1.8
						C312.24,174.65,313.09,173.93,313.19,174.03z"/>
				</g>
				<g>
					<path class="st7" d="M319.13,166.01c0.13,0.07-0.3,1.12-1.05,2.29c-0.75,1.17-1.53,2-1.64,1.92c-0.12-0.09,0.46-1.04,1.2-2.2
						C318.38,166.87,319,165.95,319.13,166.01z"/>
				</g>
				<g>
					<path class="st7" d="M322.51,156.65c0.14,0.02,0.06,1.16-0.31,2.5c-0.37,1.34-0.88,2.36-1.01,2.31
						c-0.14-0.05,0.15-1.13,0.51-2.45C322.06,157.7,322.37,156.62,322.51,156.65z"/>
				</g>
				<g>
					<path class="st7" d="M322.86,148.72c0.14-0.02,0.29,0.64,0.33,1.47c0.04,0.83-0.05,1.49-0.19,1.49c-0.14,0-0.29-0.66-0.33-1.47
						C322.63,149.41,322.71,148.74,322.86,148.72z"/>
				</g>
			</g>
			<g>
				<g>
					<path class="st7" d="M200.14,201.34c0.11,0.09-0.51,1.02-1.31,2.13c-0.8,1.11-1.49,2-1.61,1.92c-0.12-0.07,0.37-1.1,1.19-2.22
						C199.22,202.04,200.03,201.25,200.14,201.34z"/>
				</g>
				<g>
					<path class="st7" d="M207.32,194.42c0.09,0.12-0.73,0.88-1.77,1.77c-1.04,0.89-1.92,1.59-2.02,1.48
						c-0.1-0.1,0.62-0.97,1.68-1.88C206.26,194.89,207.23,194.3,207.32,194.42z"/>
				</g>
				<g>
					<path class="st7" d="M215.87,189.25c0.06,0.13-0.87,0.76-2.09,1.41c-1.21,0.65-2.26,1.07-2.33,0.95
						c-0.08-0.12,0.86-0.75,2.09-1.41C214.76,189.54,215.81,189.12,215.87,189.25z"/>
				</g>
				<g>
					<path class="st7" d="M225.33,186.04c0.03,0.14-1.04,0.49-2.36,0.86c-1.32,0.37-2.41,0.62-2.46,0.49
						c-0.05-0.13,0.98-0.62,2.32-0.99C224.17,186.02,225.3,185.9,225.33,186.04z"/>
				</g>
				<g>
					<path class="st7" d="M235.25,185.01c0,0.15-1.12,0.24-2.49,0.3c-1.37,0.06-2.49,0.07-2.5-0.07c-0.02-0.14,1.09-0.38,2.48-0.45
						C234.13,184.73,235.25,184.87,235.25,185.01z"/>
				</g>
				<g>
					<path class="st7" d="M240.85,185.47c-0.02,0.14-0.18,0.24-0.35,0.21c-0.17-0.02-0.29-0.16-0.27-0.3
						c0.02-0.14,0.17-0.24,0.35-0.21C240.75,185.19,240.88,185.32,240.85,185.47z"/>
				</g>
			</g>
			<g>
				<g>
					<path class="st7" d="M212.86,267.97c0.08-0.12,1.08,0.39,2.24,1.14c1.16,0.75,2.04,1.45,1.96,1.57
						c-0.08,0.12-1.08-0.39-2.24-1.14C213.66,268.79,212.78,268.09,212.86,267.97z"/>
				</g>
				<g>
					<path class="st7" d="M204.84,262.01c0.1-0.11,1.04,0.5,2.12,1.35c1.08,0.85,1.88,1.64,1.79,1.76
						c-0.08,0.12-1.03-0.49-2.12-1.35C205.55,262.9,204.74,262.12,204.84,262.01z"/>
				</g>
				<g>
					<path class="st7" d="M198.72,254.18c0.13-0.07,0.75,0.86,1.48,2.02c0.72,1.16,1.31,2.11,1.19,2.2
						c-0.11,0.09-0.9-0.74-1.63-1.92C199.02,255.3,198.6,254.25,198.72,254.18z"/>
				</g>
				<g>
					<path class="st7" d="M194.9,244.95c0.14-0.04,0.62,0.98,1.08,2.27c0.46,1.29,0.73,2.38,0.59,2.44
						c-0.13,0.06-0.62-0.96-1.09-2.27C195.03,246.08,194.77,244.99,194.9,244.95z"/>
				</g>
			</g>
		</g>
	</g>
</g>
<g id="Character">
	<g>
		<g>
			<g>
				<polygon class="st11" points="268.95,358.29 266.89,447.28 262.97,447.28 263.22,358.51 				"/>
				<polygon class="st11" points="283.13,357.3 302.21,447.28 306.59,447.28 290.7,357.3 				"/>
				<polygon class="st11" points="247.35,358.29 226.24,447.28 221.86,447.28 241.03,357.92 				"/>
			</g>
			<g>
				<g>
					<g>
						<g>
							<g>
								<path class="st11" d="M302.27,272.95c0,0,21.07-1.2,18.97,23.18c-2.11,24.38-3.31,49.07-11.14,57.5
									c-7.83,8.43-86.7,8.73-93.32,1.81c-6.62-6.92,12.64-6.62,16.26-6.62c3.61,0,25.89,2.11,33.12-16.86
									C273.37,312.99,271.57,271.75,302.27,272.95z"/>
							</g>
							<g>
								<path class="st11" d="M303.62,272.96c0,0,16.11,3.3,14.6,20.16c-1.51,16.86-5.72,46.36-13.55,53.89
									c-7.83,7.53-38.5,9.17-55.09,8.13c-19.27-1.2-31.43-4.87-31.43-4.87s-3.52,2.26-2.45,3.72c1.07,1.46,10.46,7.31,56,6.34
									c45.54-0.98,42.37-7.69,44.26-15.03c1.89-7.34,5.86-46.47,5.31-55.07C320.73,281.61,316.39,274.47,303.62,272.96z"/>
								<path class="st12" d="M303.62,272.96c0,0,16.11,3.3,14.6,20.16c-1.51,16.86-5.72,46.36-13.55,53.89
									c-7.83,7.53-38.5,9.17-55.09,8.13c-19.27-1.2-31.43-4.87-31.43-4.87s-3.52,2.26-2.45,3.72c1.07,1.46,10.46,7.31,56,6.34
									c45.54-0.98,42.37-7.69,44.26-15.03c1.89-7.34,5.86-46.47,5.31-55.07C320.73,281.61,316.39,274.47,303.62,272.96z"/>
							</g>
						</g>
					</g>
					<g>
						<g>
							<g>
								<path class="st11" d="M290.41,305.78c0,1.23,0.78,2.23,1.75,2.23c0.96,0,1.75-1,1.75-2.23c0-1.23-0.78-2.23-1.75-2.23
									C291.19,303.55,290.41,304.55,290.41,305.78z"/>
							</g>
							<g>
								<g>
									<path class="st11" d="M291.6,295.91c0.11,0.04-0.56,1.21-0.59,3.25c-0.01,1.01,0.19,2.22,0.77,3.42
										c0.29,0.59,0.67,1.2,1.15,1.71c0.24,0.26,0.55,0.51,0.8,0.87c0.27,0.35,0.4,0.89,0.3,1.34c-0.19,0.89-0.67,1.52-0.89,2.19
										c-0.2,0.64-0.27,1.38-0.26,2.03c0.02,1.33,0.41,2.5,0.88,3.39c0.97,1.8,2.12,2.52,2.03,2.6c-0.02,0.03-0.32-0.11-0.78-0.48
										c-0.46-0.37-1.08-0.99-1.63-1.91c-0.54-0.91-1.01-2.15-1.06-3.58c-0.02-0.72,0.02-1.45,0.26-2.24
										c0.26-0.75,0.72-1.42,0.86-2.1c0.16-0.67-0.38-1.14-0.94-1.7c-0.54-0.59-0.92-1.23-1.22-1.88c-0.6-1.3-0.76-2.61-0.69-3.67
										c0.06-1.07,0.32-1.9,0.56-2.44C291.37,296.16,291.57,295.9,291.6,295.91z"/>
								</g>
							</g>
							<g>
								<g>
									<path class="st11" d="M286.82,302.89c0.1,0.01,0.02,0.53,0.25,1.27c0.21,0.74,0.78,1.7,1.75,2.36
										c0.98,0.66,2.07,0.9,2.86,1.02c0.79,0.12,1.3,0.14,1.31,0.23c0.01,0.08-0.5,0.21-1.34,0.2c-0.83-0.01-2.05-0.2-3.17-0.95
										c-1.12-0.76-1.71-1.91-1.83-2.77C286.52,303.38,286.76,302.87,286.82,302.89z"/>
								</g>
							</g>
						</g>
						<g class="st12">
							<g>
								<path d="M290.41,305.78c0,1.23,0.78,2.23,1.75,2.23c0.96,0,1.75-1,1.75-2.23c0-1.23-0.78-2.23-1.75-2.23
									C291.19,303.55,290.41,304.55,290.41,305.78z"/>
							</g>
							<g>
								<g>
									<path d="M291.6,295.91c0.11,0.04-0.56,1.21-0.59,3.25c-0.01,1.01,0.19,2.22,0.77,3.42c0.29,0.59,0.67,1.2,1.15,1.71
										c0.24,0.26,0.55,0.51,0.8,0.87c0.27,0.35,0.4,0.89,0.3,1.34c-0.19,0.89-0.67,1.52-0.89,2.19c-0.2,0.64-0.27,1.38-0.26,2.03
										c0.02,1.33,0.41,2.5,0.88,3.39c0.97,1.8,2.12,2.52,2.03,2.6c-0.02,0.03-0.32-0.11-0.78-0.48
										c-0.46-0.37-1.08-0.99-1.63-1.91c-0.54-0.91-1.01-2.15-1.06-3.58c-0.02-0.72,0.02-1.45,0.26-2.24
										c0.26-0.75,0.72-1.42,0.86-2.1c0.16-0.67-0.38-1.14-0.94-1.7c-0.54-0.59-0.92-1.23-1.22-1.88c-0.6-1.3-0.76-2.61-0.69-3.67
										c0.06-1.07,0.32-1.9,0.56-2.44C291.37,296.16,291.57,295.9,291.6,295.91z"/>
								</g>
							</g>
							<g>
								<g>
									<path d="M286.82,302.89c0.1,0.01,0.02,0.53,0.25,1.27c0.21,0.74,0.78,1.7,1.75,2.36c0.98,0.66,2.07,0.9,2.86,1.02
										c0.79,0.12,1.3,0.14,1.31,0.23c0.01,0.08-0.5,0.21-1.34,0.2c-0.83-0.01-2.05-0.2-3.17-0.95c-1.12-0.76-1.71-1.91-1.83-2.77
										C286.52,303.38,286.76,302.87,286.82,302.89z"/>
								</g>
							</g>
						</g>
					</g>
				</g>
			</g>
		</g>
		<g>
			<g>
				<path class="st7" d="M266.23,212.11c-0.27-0.1-0.62-0.21-1.07-0.33c-1.1-0.28-2.74-0.6-4.79-0.42
					c-2.02,0.17-4.52,0.92-6.51,2.84c-0.99,0.94-1.83,2.16-2.34,3.57c-0.25,0.71-0.4,1.46-0.44,2.24c-0.05,0.78,0.06,1.54,0.02,2.28
					c-0.03,0.74-0.26,1.41-0.78,1.87c-0.5,0.47-1.19,0.74-1.85,1.02c-0.66,0.28-1.37,0.6-1.92,1.09c-0.56,0.48-0.99,1.06-1.31,1.68
					c-0.63,1.25-0.73,2.67-0.37,3.85c0.34,1.19,0.93,2.15,1.43,3.03c0.24,0.38,0.44,0.75,0.63,1.12c0.04,0.31,0.06,0.62,0.03,0.94
					c-0.11,1.38-0.97,2.57-1.9,3.59c-0.93,1.02-1.97,1.97-2.6,3.2c-0.63,1.23-0.74,2.85,0.17,3.89c1.01,1.16,2.77,1.16,4.31,1.12
					c5.36-0.14,10.71,0.38,16.04,0.9l4.32-37.18C266.95,212.3,266.59,212.2,266.23,212.11z M252.76,218.69
					c-0.24,1.47-0.03,3.06-0.73,4.37c-0.75,1.4-2.32,2.1-3.51,3.14c-1.86,1.63-2.77,4.28-2.32,6.71c0.12,0.62,0.31,1.23,0.48,1.84
					c-0.02-0.03-0.04-0.07-0.06-0.1c-0.48-0.88-1.04-1.84-1.33-2.96c-0.31-1.1-0.21-2.38,0.38-3.52c0.3-0.56,0.69-1.1,1.2-1.52
					c0.5-0.44,1.12-0.72,1.79-1c0.66-0.29,1.39-0.56,2-1.11c0.63-0.55,0.92-1.43,0.94-2.22c0.04-0.8-0.07-1.56-0.02-2.28
					c0.03-0.72,0.17-1.43,0.4-2.1c0.48-1.32,1.26-2.49,2.2-3.39c1.87-1.85,4.25-2.61,6.21-2.82c0.54-0.06,1.05-0.08,1.53-0.08
					c-1.18,0.05-2.34,0.24-3.46,0.64C255.65,213.3,253.24,215.73,252.76,218.69z"/>
				<path class="st13" d="M260.1,256.09c0.32-1.71-0.24-8.94-0.24-8.94s-6.4-0.81-6.68-7.34c-0.28-6.54,0.37-21.59,0.37-21.59
					l11.79-5.66l10.29,11.73l0.19,31.69L260.1,256.09z"/>
				<g>
					<path class="st7" d="M255.21,229.22c-0.01,0.46,0.35,0.84,0.8,0.85c0.45,0.01,0.82-0.36,0.83-0.82
						c0.01-0.46-0.35-0.84-0.8-0.85C255.59,228.39,255.22,228.76,255.21,229.22z"/>
					<g>
						<path class="st7" d="M253.87,228.3c0.1,0.11,0.71-0.4,1.59-0.44c0.88-0.05,1.53,0.41,1.62,0.29c0.05-0.05-0.06-0.25-0.34-0.46
							c-0.28-0.21-0.75-0.4-1.3-0.38c-0.55,0.03-1,0.26-1.26,0.49C253.91,228.04,253.82,228.25,253.87,228.3z"/>
					</g>
				</g>
				<g>
					<path class="st7" d="M264.75,229.22c-0.01,0.46,0.35,0.84,0.8,0.85c0.45,0.01,0.82-0.36,0.83-0.82
						c0.01-0.46-0.35-0.84-0.8-0.85C265.13,228.39,264.76,228.76,264.75,229.22z"/>
					<g>
						<path class="st7" d="M263.59,228.47c0.1,0.11,0.71-0.4,1.59-0.44c0.88-0.05,1.53,0.41,1.62,0.29
							c0.05-0.05-0.06-0.25-0.34-0.46c-0.28-0.21-0.75-0.4-1.3-0.38c-0.55,0.03-1,0.26-1.26,0.49
							C263.63,228.21,263.54,228.42,263.59,228.47z"/>
					</g>
				</g>
				<g>
					<path class="st7" d="M260.29,236.01c0-0.05-0.54-0.13-1.43-0.22c-0.22-0.02-0.44-0.06-0.48-0.22
						c-0.06-0.17,0.03-0.43,0.14-0.72c0.2-0.59,0.41-1.21,0.63-1.85c0.88-2.64,1.51-4.8,1.41-4.84c-0.1-0.03-0.89,2.08-1.77,4.71
						c-0.21,0.65-0.41,1.27-0.61,1.86c-0.08,0.28-0.22,0.59-0.1,0.95c0.06,0.18,0.23,0.3,0.37,0.34c0.14,0.04,0.27,0.04,0.38,0.04
						C259.74,236.08,260.29,236.06,260.29,236.01z"/>
				</g>
				<path class="st14" d="M259.86,247.16c0,0,4.28,0.12,8.48-2.78c0,0-1.99,4.76-8.37,4.38L259.86,247.16z"/>
				<path class="st7" d="M291.67,233.01c-0.33,0.08-0.77,0.1-1.24,0.03c-0.74-1.15-2.07-2.01-3.06-3.07
					c-0.18-0.88-0.13-1.88,0.24-2.85c0.16-0.48,0.34-0.99,0.46-1.55c0.12-0.55,0.13-1.18-0.09-1.77c-0.44-1.15-1.52-1.84-2.56-2.35
					c-0.88-1.23-2.49-1.8-3.62-2.84c-0.24-0.57-0.38-1.17-0.5-1.76c-0.2-1-0.35-2.01-0.77-2.87c-0.4-0.87-1.03-1.54-1.66-2.03
					c-0.98-0.75-2-1.06-2.82-1.16c-0.72-0.37-1.5-0.64-2.3-0.77c-2.42-0.38-4.98,0.47-6.72,2.19c-3.52-1.01-7.46-0.25-10.62,1.64
					c-1.39,0.83-2.7,1.92-3.36,3.39c-0.59,1.32-0.62,2.81-0.63,4.25c-0.01,1.03-0.02,2.07-0.03,3.1c0,0.26,0,0.54,0.14,0.76
					c0.23,0.35,0.72,0.4,1.14,0.42c1.6,0.06,3.19,0.12,4.79,0.18c0.33,0.01,0.67,0.02,0.96-0.15c0.49-0.29,0.8-0.94,0.75-1.52
					c-0.04-0.46-0.01-1.38-0.02-1.64c0.21,1.02,0.41,1.22,0.57,1.86c0.16,0.65,0.44,1.34,1.03,1.66c0.41,0.23,0.91,0.23,1.38,0.23
					c0.69,0,1.38-0.02,2.07-0.05c0.34-0.01,0.71-0.04,0.98-0.25c0.44-0.34,0.44-0.99,0.36-1.54c-0.08-0.55-0.31-1.12-0.32-2.14
					c0.62,1.22,0.91,2.73,1.68,2.94c0.83,0.22,2.08-0.1,2.31-0.17c0.77-0.24,1.32-0.44,1.88-0.61c-0.05,0.32-0.12,0.63-0.24,0.94
					c-0.58,1.57-1.88,3.08-1.44,4.69c0.41,1.46,2.07,2.17,2.91,3.44c0.92,1.38,0.73,3.22,0.18,4.79c-0.54,1.56-1.41,3.02-1.77,4.63
					c-0.37,1.62-0.1,3.54,1.22,4.54c1.01,0.77,2.38,0.81,3.66,0.82c3.87,0.04,7.75,0.07,11.62,0.11c0.75,0.01,1.52,0.01,2.23-0.24
					c0.71-0.25,1.35-0.82,1.48-1.56c0.15-0.87-0.43-1.7-1.07-2.31c-0.64-0.61-1.39-1.15-1.77-1.95c-0.61-1.31-0.02-2.84,0.66-4.11
					c0.67-1.28,1.46-2.64,1.21-4.06c-0.06-0.35-0.18-0.67-0.34-0.98c0.43,0.02,0.83-0.04,1.13-0.13c0.43-0.13,0.74-0.31,0.92-0.45
					c0.18-0.15,0.26-0.24,0.25-0.25C292.86,232.46,292.5,232.82,291.67,233.01z M276.81,211.23c0.58,0.2,1.21,0.51,1.82,1
					c0.58,0.48,1.15,1.11,1.49,1.92c0.37,0.8,0.5,1.76,0.69,2.78c0.04,0.2,0.08,0.41,0.13,0.62c-0.57-0.97-0.84-2.12-1.33-3.16
					C279,213.11,278,212.02,276.81,211.23z M285.82,222.27c0.75,0.44,1.39,0.99,1.67,1.72c0.37,0.96-0.04,2.01-0.34,2.99
					c-0.29,0.78-0.38,1.59-0.32,2.35c-0.2-0.28-0.37-0.57-0.5-0.89C285.56,226.5,286.51,224.16,285.82,222.27z"/>
				<path class="st14" d="M260.61,238.31c0.1-0.55,0.5-1.04,1.02-1.25c0.36-0.15,0.79-0.16,1.13,0.02c0.34,0.18,0.58,0.58,0.52,0.96
					c-0.07,0.43-0.48,0.75-0.91,0.84c-0.43,0.09-0.87,0.01-1.3-0.09c-0.12-0.03-0.24-0.05-0.34-0.12c-0.1-0.07-0.17-0.19-0.14-0.31"
					/>
				<g>
					<path class="st7" d="M262.78,235.98c0.06-0.01,0.18,0.24,0.15,0.67c-0.03,0.42-0.23,1.02-0.72,1.49
						c-0.49,0.46-1.1,0.63-1.52,0.63c-0.43,0-0.67-0.12-0.66-0.18c0-0.14,1.02-0.07,1.83-0.83
						C262.65,236.99,262.64,235.97,262.78,235.98z"/>
				</g>
			</g>
			<path class="st13" d="M247.56,259.23c0,0-19.37,16.84-19.87,14.79c-2.72-11.15-1.95-25.38-1.52-30.83
				c0.3-0.47,0.65-0.98,1.06-1.55c0.48-0.66,1.07-1.22,1.73-1.69c0.81-0.57,1.91-1.27,2.63-1.48c0.89-0.25,1.04-1.44,0.26-1.73
				c-0.78-0.29-3.25,0.35-5.55,2.27c-2.3,1.92-1.36-2.64-1.05-4.31c0.31-1.67,1.03-6.87,0.59-7.36c-0.64-0.72-1.55-0.14-1.82,1.53
				c-0.27,1.69-1.44,6.64-2.32,6.46c-0.86-0.18,0.83-8.65,0.83-8.65s0.66-1.76-0.35-2.01c-1.81-0.44-2.95,8.68-3.04,9.55
				c-0.06,0.6-1.02,0.44-0.92-0.21c0.1-0.67,1.89-8.42,0.05-8.89c-1.41-0.36-1.01,7.5-2.27,8.92c-1.27,1.42,0.3-6-1.06-6.29
				c-0.51-0.11-0.9-0.12-1.19,4.26c-0.15,2.35,0.1,6.84,0.38,10.57c-1.21,12.03-3.56,48.85,13.08,47.58
				c19.63-1.5,24.15-16.97,24.15-16.97L247.56,259.23z"/>
			<g>
				<g>
					<path class="st8" d="M301.82,285.97l-3.36-16.85c-2.48-13.79-21.8-14.74-21.8-14.74l-15.17-0.25c0,0-10.1-0.32-18.19,6.31
						c-8.13,6.67-13.51,11.73-13.51,11.73l12.7,14.68l7.51-4.96c0,0-2.7,4.88-2.25,9.04c0.43,3.96,4.63,7.06,4.63,7.06l-3.15,33.87
						l49.54-1.99l-6.38-43.91H301.82z"/>
				</g>
				<g>
					<path class="st3" d="M299.46,272.84c0,0-0.15,0.45-0.59,1.24c-0.44,0.78-1.18,1.9-2.42,3.1c-1.23,1.18-2.99,2.44-5.33,3.18
						c-2.32,0.74-5.22,0.95-8.19,0.09c-1.47-0.44-2.98-1.14-4.27-2.25c-1.27-1.1-2.38-2.67-2.5-4.57c-0.09-1.84,0.75-3.89,2.57-4.87
						c0.89-0.48,2.02-0.56,2.99-0.2c0.99,0.34,1.81,1.05,2.42,1.91c0.6,0.86,0.98,1.9,1.01,2.98c0.02,1.07-0.22,2.15-0.67,3.14
						c-0.9,1.99-2.48,3.61-4.29,4.88c-3.63,2.56-8.46,3.69-13.1,2.82c-2.32-0.45-4.52-1.36-6.37-2.74
						c-1.85-1.37-3.35-3.22-4.07-5.36c-0.71-2.13-0.68-4.49,0.21-6.48c0.86-1.99,2.67-3.58,4.79-3.88c2.1-0.32,4.34,1.01,4.81,3.04
						c0.24,1-0.02,2.04-0.5,2.87c-0.49,0.83-1.2,1.5-2.01,1.97c-1.65,0.92-3.54,0.9-5.18,0.65c-1.66-0.28-3.2-0.75-4.64-1.27
						c-2.88-1.04-5.31-2.59-6.87-4.49c-1.59-1.89-2.17-4.05-2.23-5.75c-0.07-1.73,0.43-3.04,0.86-3.82c0.46-0.78,0.82-1.1,0.82-1.1
						c0.03,0.02-0.3,0.37-0.73,1.15c-0.39,0.79-0.85,2.07-0.75,3.76c0.09,1.66,0.68,3.76,2.25,5.57c1.54,1.83,3.93,3.32,6.77,4.33
						c1.42,0.5,2.96,0.96,4.57,1.22c1.6,0.24,3.4,0.23,4.9-0.63c0.74-0.43,1.4-1.05,1.84-1.82c0.44-0.76,0.66-1.67,0.44-2.54
						c-0.4-1.76-2.43-2.97-4.3-2.67c-1.91,0.27-3.6,1.74-4.4,3.6c-0.83,1.87-0.86,4.1-0.18,6.12c0.69,2.02,2.12,3.8,3.9,5.11
						c1.78,1.33,3.92,2.22,6.16,2.65c4.5,0.84,9.19-0.25,12.71-2.72c1.76-1.23,3.28-2.8,4.13-4.67c0.43-0.93,0.65-1.93,0.64-2.92
						c-0.03-0.98-0.37-1.93-0.92-2.72c-0.55-0.79-1.3-1.43-2.18-1.74c-0.86-0.32-1.84-0.25-2.63,0.16
						c-1.61,0.84-2.43,2.75-2.35,4.44c0.1,1.73,1.13,3.23,2.34,4.29c1.23,1.07,2.68,1.76,4.11,2.2c2.89,0.86,5.72,0.69,8-0.01
						c2.29-0.7,4.04-1.91,5.27-3.05c1.24-1.16,1.99-2.25,2.46-3c0.23-0.38,0.4-0.68,0.5-0.88
						C299.4,272.94,299.46,272.83,299.46,272.84z"/>
				</g>
				<g>
					<path class="st3" d="M297.39,324.3c0,0.01-0.09,0.05-0.27,0.12c-0.18,0.06-0.45,0.18-0.81,0.28c-0.72,0.22-1.82,0.48-3.26,0.56
						c-1.44,0.09-3.22-0.03-5.2-0.6c-1.96-0.58-4.12-1.64-6-3.44c-1.87-1.79-3.44-4.28-4.21-7.24c-0.38-1.48-0.55-3.07-0.46-4.69
						c0.11-1.62,0.45-3.32,1.38-4.82c0.47-0.74,1.09-1.42,1.88-1.88c0.79-0.46,1.71-0.7,2.65-0.66c0.93,0.04,1.9,0.43,2.55,1.17
						c0.65,0.74,0.95,1.73,0.95,2.69c0.01,0.97-0.29,1.95-0.83,2.77c-0.53,0.83-1.27,1.5-2.07,2.05c-1.62,1.09-3.51,1.75-5.47,2.09
						c-3.94,0.61-7.94-0.29-11.13-2.24c-1.6-0.98-2.99-2.23-4.07-3.67c-1.08-1.44-1.89-3.08-2.1-4.83c-0.23-1.74,0.28-3.53,1.36-4.8
						c0.54-0.63,1.24-1.14,2.02-1.4c0.78-0.27,1.63-0.26,2.39-0.06c0.76,0.2,1.47,0.6,1.99,1.17c0.53,0.57,0.82,1.32,0.84,2.06
						c0.07,1.53-0.86,2.77-1.81,3.62c-0.98,0.88-2.14,1.42-3.24,1.78c-1.11,0.37-2.2,0.57-3.23,0.64c-2.06,0.12-3.83-0.28-5.17-0.8
						c-1.34-0.54-2.28-1.16-2.87-1.64c-0.31-0.22-0.51-0.43-0.66-0.56c-0.14-0.13-0.21-0.2-0.21-0.21c0.02-0.02,0.32,0.24,0.92,0.68
						c0.6,0.44,1.55,1.03,2.88,1.53c1.33,0.48,3.07,0.84,5.08,0.7c1-0.08,2.06-0.29,3.14-0.66c1.08-0.37,2.17-0.89,3.1-1.74
						c0.9-0.82,1.73-2,1.65-3.33c-0.01-1.34-1.15-2.51-2.54-2.84c-0.69-0.18-1.45-0.18-2.13,0.06c-0.69,0.23-1.32,0.7-1.82,1.28
						c-0.99,1.17-1.46,2.83-1.24,4.45c0.2,1.63,0.98,3.2,2.02,4.59c1.05,1.39,2.39,2.6,3.94,3.54c3.09,1.89,6.97,2.75,10.78,2.16
						c1.88-0.33,3.72-0.98,5.26-2.01c1.53-1.01,2.72-2.61,2.68-4.39c0-0.87-0.27-1.73-0.82-2.36c-0.55-0.63-1.37-0.97-2.2-1.01
						c-0.83-0.04-1.67,0.17-2.38,0.59c-0.71,0.41-1.28,1.03-1.72,1.71c-0.87,1.39-1.22,3.03-1.33,4.59
						c-0.1,1.58,0.06,3.12,0.42,4.56c0.73,2.88,2.24,5.33,4.04,7.08c1.81,1.77,3.91,2.83,5.83,3.43c1.93,0.58,3.69,0.73,5.1,0.67
						c1.42-0.06,2.51-0.27,3.24-0.46C297,324.41,297.38,324.28,297.39,324.3z"/>
				</g>
				<g>
					<path class="st7" d="M280.62,268.1c0.04,0,0.13,0.38,0.27,1.08c0.16,0.81,0.36,1.79,0.58,2.95c0.51,2.62,1.17,6.01,1.89,9.75
						c0.72,3.82,1.35,7.28,1.74,9.79c0.2,1.26,0.34,2.28,0.42,2.99c0.08,0.71,0.1,1.1,0.07,1.11c-0.04,0-0.13-0.38-0.27-1.08
						c-0.16-0.81-0.35-1.79-0.58-2.95c-0.51-2.62-1.17-6.01-1.89-9.76c-0.72-3.81-1.35-7.27-1.74-9.79
						c-0.2-1.26-0.34-2.28-0.42-2.99C280.61,268.5,280.58,268.1,280.62,268.1z"/>
				</g>
				<g>
					<path class="st7" d="M302.13,286.14c0,0.14-4.1,0.28-9.15,0.29c-5.06,0.02-9.15-0.08-9.15-0.23c0-0.14,4.1-0.27,9.15-0.29
						C298.03,285.9,302.13,286,302.13,286.14z"/>
				</g>
				<g>
					<path class="st7" d="M242.48,286.87c-0.11,0.09-2.93-3.17-6.3-7.29c-3.37-4.12-6.01-7.53-5.9-7.62
						c0.11-0.09,2.93,3.17,6.3,7.29C239.95,283.36,242.59,286.78,242.48,286.87z"/>
				</g>
				<g>
					<path class="st7" d="M275.31,254.47c0,0.07-0.87,0.17-2.29,0.26c-1.42,0.08-3.38,0.13-5.55,0.1c-2.17-0.03-4.13-0.15-5.54-0.27
						c-1.41-0.12-2.28-0.26-2.28-0.33c0.01-0.07,0.88-0.07,2.3-0.04c1.62,0.03,3.48,0.07,5.53,0.12c2.05,0.02,3.91,0.04,5.53,0.05
						C274.43,254.38,275.31,254.4,275.31,254.47z"/>
				</g>
				<g>
					<path class="st7" d="M247.85,286.25c-0.06-0.03,0.28-0.81,0.88-2.04c0.34-0.67,0.7-1.39,1.08-2.15
						c0.4-0.83,0.96-1.61,0.75-2.61c-0.37-2.02-0.72-3.9-0.93-5.24c-0.22-1.35-0.31-2.19-0.24-2.21c0.07-0.01,0.3,0.8,0.61,2.13
						c0.3,1.34,0.71,3.16,1.09,5.24c0.07,0.52,0.08,1.15-0.18,1.61c-0.21,0.5-0.44,0.9-0.66,1.29c-0.42,0.74-0.81,1.44-1.17,2.09
						C248.37,285.57,247.92,286.29,247.85,286.25z"/>
				</g>
			</g>
			<g>
				<g>
					<path class="st8" d="M207.69,441.87l0-10.31l18.48-0.12l0.15,15.42l-1.15,0.08c-5.1,0.33-25.94,0.97-29.35-0.09
						C192.01,445.67,207.69,441.87,207.69,441.87z"/>
				</g>
				<g>
					<g>
						<path class="st7" d="M195.38,445.91c0,0.17,6.91,0.31,15.43,0.31c8.53,0,15.44-0.14,15.44-0.31c0-0.17-6.91-0.31-15.44-0.31
							C202.29,445.59,195.38,445.74,195.38,445.91z"/>
					</g>
				</g>
				<g>
					<g>
						<path class="st7" d="M207.36,443.98c0.15-0.08,0.02-0.62-0.38-1.16c-0.4-0.54-0.88-0.83-1-0.7c-0.12,0.12,0.13,0.58,0.49,1.08
							C206.85,443.68,207.21,444.06,207.36,443.98z"/>
					</g>
				</g>
				<g>
					<g>
						<path class="st7" d="M206.18,444.66c0.16-0.06,0.08-0.67-0.29-1.31c-0.36-0.65-0.84-1.03-0.98-0.92
							c-0.14,0.11,0.09,0.63,0.43,1.23C205.69,444.25,206.02,444.72,206.18,444.66z"/>
					</g>
				</g>
				<g>
					<g>
						<path class="st7" d="M220.69,445.84c0.07,0.05,0.35-0.22,0.75-0.67c0.4-0.45,0.93-1.09,1.62-1.62c0.69-0.54,1.44-0.8,2-0.87
							c0.56-0.08,0.93,0.01,0.96-0.08c0.03-0.07-0.31-0.33-0.98-0.37c-0.66-0.04-1.58,0.21-2.37,0.82c-0.78,0.61-1.28,1.33-1.6,1.86
							C220.76,445.43,220.62,445.79,220.69,445.84z"/>
					</g>
				</g>
				<g>
					<g>
						<path class="st7" d="M207.31,442.04c-0.09,0.15,0.23,0.5,0.75,0.7c0.53,0.2,1,0.13,1.03-0.04c0.03-0.17-0.35-0.38-0.81-0.55
							C207.81,441.98,207.4,441.89,207.31,442.04z"/>
					</g>
				</g>
				<g>
					<g>
						<path class="st7" d="M207.6,441.04c-0.02,0.17,0.48,0.32,1.1,0.33c0.62,0.01,1.12-0.13,1.11-0.3c-0.01-0.17-0.5-0.32-1.1-0.33
							C208.11,440.74,207.61,440.87,207.6,441.04z"/>
					</g>
				</g>
			</g>
			<g>
				<g>
					<path class="st8" d="M246.69,441.87l0-10.31l18.48-0.12l0.15,15.42l-1.15,0.08c-5.1,0.33-25.94,0.97-29.35-0.09
						C231.01,445.67,246.69,441.87,246.69,441.87z"/>
				</g>
				<g>
					<g>
						<path class="st7" d="M234.39,445.91c0,0.17,6.91,0.31,15.43,0.31c8.53,0,15.44-0.14,15.44-0.31c0-0.17-6.91-0.31-15.44-0.31
							C241.3,445.59,234.39,445.74,234.39,445.91z"/>
					</g>
				</g>
				<g>
					<g>
						<path class="st7" d="M246.36,443.98c0.15-0.08,0.02-0.62-0.38-1.16c-0.4-0.54-0.88-0.83-1-0.7c-0.12,0.12,0.13,0.58,0.49,1.08
							C245.85,443.68,246.21,444.06,246.36,443.98z"/>
					</g>
				</g>
				<g>
					<g>
						<path class="st7" d="M245.18,444.66c0.16-0.06,0.08-0.67-0.29-1.31c-0.36-0.65-0.84-1.03-0.98-0.92
							c-0.14,0.11,0.09,0.63,0.43,1.23C244.69,444.25,245.02,444.72,245.18,444.66z"/>
					</g>
				</g>
				<g>
					<g>
						<path class="st7" d="M259.69,445.84c0.07,0.05,0.35-0.22,0.75-0.67c0.4-0.45,0.93-1.09,1.62-1.62c0.69-0.54,1.44-0.8,2-0.87
							c0.56-0.08,0.93,0.01,0.96-0.08c0.03-0.07-0.31-0.33-0.98-0.37c-0.66-0.04-1.58,0.21-2.37,0.82c-0.78,0.61-1.28,1.33-1.6,1.86
							C259.76,445.43,259.62,445.79,259.69,445.84z"/>
					</g>
				</g>
				<g>
					<g>
						<path class="st7" d="M246.31,442.04c-0.09,0.15,0.23,0.5,0.75,0.7c0.53,0.2,1,0.13,1.03-0.04c0.03-0.17-0.35-0.38-0.81-0.55
							C246.82,441.98,246.4,441.89,246.31,442.04z"/>
					</g>
				</g>
				<g>
					<g>
						<path class="st7" d="M246.6,441.04c-0.02,0.17,0.48,0.32,1.1,0.33c0.62,0.01,1.12-0.13,1.11-0.3c-0.01-0.17-0.5-0.32-1.1-0.33
							C247.11,440.74,246.61,440.87,246.6,441.04z"/>
					</g>
				</g>
			</g>
			<path class="st13" d="M303.89,299.48c-0.98-8.09-2.06-13.31-2.06-13.31l-17.62,0.26c0,0,1.58,8.9,1.09,11.28
				c-0.42,2.07-34.41,3.45-43.27,3.59c-0.53-0.4-1.29,0.27-1.98-0.32c-0.6-0.53-1.11-1.16-1.51-1.86c-0.48-0.85-1.08-2.01-1.21-2.75
				c-0.17-0.91-1.33-1.14-1.68-0.38c-0.35,0.76,0.04,3.28,1.73,5.72c1.68,2.44-2.73,1.17-4.34,0.74c-1.62-0.43-6.68-1.53-7.2-1.12
				c-0.77,0.59-0.29,1.54,1.34,1.94c1.64,0.4,6.41,1.92,6.15,2.79c-0.26,0.85-8.45-1.46-8.45-1.46s-1.67-0.79-2.01,0.2
				c-0.6,1.78,8.28,3.59,9.13,3.74c0.59,0.1,0.34,1.05-0.29,0.91c-0.65-0.15-8.12-2.5-8.76-0.7c-0.48,1.39,7.3,1.55,8.59,2.93
				c1.29,1.37-5.89-0.74-6.3,0.6c-0.15,0.5,2.83,0.73,7.13,1.34c4.02,0.57,11.48,0.51,13.27,0.47c9.96,0.55,45.15,1.27,52.66,0.74
				C307.06,314.2,304.22,302.26,303.89,299.48z"/>
			<g>
				<g>
					<path class="st7" d="M222.77,328c25.48-2.5,45.62-0.57,45.62-0.57l-19.28,27.68l-17.4,0.07l-3.64,85.08h-23.08l2.2-94.89
						C207.39,336.52,214.01,329.16,222.77,328L222.77,328z"/>
					<path class="st12" d="M222.77,328c25.48-2.5,45.62-0.57,45.62-0.57l-19.28,27.68l-17.4,0.07l-3.64,85.08h-23.08l2.2-94.89
						C207.39,336.52,214.01,329.16,222.77,328L222.77,328z"/>
				</g>
				<path class="st7" d="M265.13,357.29c0,0,34.47,2.34,33.61-28.61c0,0-47.93-5.83-57.12,4.06c-7.7,8.29-0.66,107.52-0.66,107.52
					L266.6,439"/>
				<g>
					<path class="st11" d="M272.3,326.98c0,0.02-0.23,0.03-0.68,0.04c-0.5,0.02-1.14,0.05-1.95,0.08c-1.69,0.08-4.13,0.22-7.15,0.43
						c-1.51,0.12-3.16,0.25-4.93,0.39c-1.77,0.17-3.67,0.32-5.61,0.67c-1.95,0.4-4,0.86-6.01,1.64c-1.98,0.77-4.02,1.92-4.98,4
						c-1,2.03-1.41,4.27-1.71,6.4c-0.27,2.15-0.38,4.24-0.43,6.23c-0.1,4.01-0.29,7.6-0.41,10.63c-0.12,2.98-0.22,5.41-0.29,7.16
						c-0.03,0.8-0.05,1.45-0.07,1.95c-0.02,0.45-0.04,0.68-0.06,0.68s-0.03-0.23-0.05-0.68c-0.02-0.45-0.02-1.1-0.03-1.95
						c0-1.69,0.03-4.14,0.12-7.17c0.08-3.03,0.23-6.63,0.3-10.62c0.03-2,0.13-4.11,0.4-6.29c0.3-2.16,0.7-4.44,1.75-6.57
						c0.52-1.06,1.32-2.01,2.27-2.67c0.94-0.68,1.97-1.16,2.99-1.56c2.06-0.79,4.13-1.24,6.1-1.63c2-0.34,3.89-0.47,5.67-0.62
						c1.78-0.14,3.43-0.24,4.94-0.33c3.02-0.16,5.47-0.25,7.17-0.26c0.85-0.01,1.51,0,1.95,0.02
						C272.06,326.94,272.3,326.96,272.3,326.98z"/>
				</g>
				<g>
					<path class="st11" d="M266.8,432.54c0,0.04-0.36,0.09-1.02,0.15c-0.66,0.06-1.61,0.14-2.79,0.22
						c-2.36,0.17-5.61,0.36-9.21,0.54c-3.6,0.18-6.86,0.32-9.22,0.39c-1.18,0.04-2.14,0.06-2.8,0.06c-0.66,0-1.03-0.01-1.03-0.05
						c0-0.04,0.36-0.09,1.02-0.15c0.66-0.06,1.61-0.14,2.79-0.22c2.36-0.17,5.61-0.36,9.21-0.54c3.6-0.18,6.86-0.32,9.22-0.39
						c1.18-0.04,2.14-0.06,2.8-0.06C266.43,432.49,266.8,432.51,266.8,432.54z"/>
				</g>
				<g>
					<path class="st11" d="M228.83,433.7c0,0.14-5.35,0.26-11.96,0.26c-6.61,0-11.96-0.12-11.96-0.26c0-0.14,5.35-0.26,11.96-0.26
						C223.48,433.44,228.83,433.55,228.83,433.7z"/>
				</g>
				<g>
					<path class="st11" d="M239.42,338.19c0,0.01-0.1,0.01-0.29-0.01c-0.22-0.02-0.5-0.04-0.85-0.07c-0.75-0.06-1.85-0.15-3.26-0.22
						c-1.42-0.06-3.16-0.12-5.17-0.02c-1,0.05-2.08,0.14-3.2,0.32c-1.11,0.2-2.31,0.46-3.37,1.08c-0.52,0.31-1.01,0.72-1.25,1.3
						c-0.27,0.59-0.47,1.23-0.65,1.9c-0.36,1.33-0.65,2.74-0.84,4.21c-0.28,2.96-0.55,6.16-0.78,9.5
						c-0.48,6.7-0.83,14.09-1.11,21.84c-0.52,15.52-1.12,29.56-1.53,39.73c-0.22,5.05-0.41,9.15-0.53,12.04
						c-0.07,1.39-0.13,2.49-0.17,3.27c-0.02,0.35-0.04,0.63-0.06,0.85c-0.02,0.19-0.03,0.29-0.04,0.29c-0.01,0-0.01-0.1-0.02-0.29
						c0-0.22,0-0.5,0.01-0.85c0.02-0.79,0.04-1.88,0.07-3.28c0.09-2.88,0.21-6.99,0.37-12.04c0.35-10.2,0.84-24.23,1.38-39.73
						c0.28-7.76,0.64-15.15,1.15-21.86c0.25-3.36,0.53-6.53,0.83-9.52c0.2-1.5,0.51-2.91,0.88-4.26c0.19-0.67,0.4-1.33,0.69-1.95
						c0.29-0.66,0.85-1.13,1.42-1.46c1.15-0.65,2.37-0.9,3.51-1.09c1.14-0.18,2.23-0.25,3.24-0.29c2.03-0.07,3.77,0.02,5.19,0.11
						c1.42,0.1,2.52,0.22,3.26,0.32c0.35,0.05,0.62,0.09,0.84,0.12C239.33,338.16,239.42,338.18,239.42,338.19z"/>
				</g>
				<g>
					<path class="st11" d="M292.99,328.09c0.01,0,0.01,0.12-0.01,0.35c-0.03,0.23-0.05,0.58-0.12,1.03c-0.16,0.9-0.51,2.23-1.4,3.74
						c-0.89,1.49-2.36,3.16-4.58,4.32c-1.1,0.57-2.38,1.01-3.78,1.21c-1.41,0.19-2.89,0.11-4.43,0.13c-3.1,0-6.49,0.01-10.12,0.01
						c-1.82,0-3.7,0-5.64,0c-0.96,0.01-1.96-0.02-2.94,0.02c-0.97,0.04-1.94,0.26-2.84,0.67c-1.81,0.81-3.32,2.4-4.02,4.35
						c-0.37,0.98-0.48,2.02-0.47,3.1c0,1.09,0,2.2,0,3.31c0,4.45,0,9.06,0.01,13.79c-0.03,18.88-0.06,35.97-0.08,48.38
						c-0.03,6.17-0.06,11.17-0.08,14.66c-0.02,1.71-0.04,3.04-0.05,3.99c-0.01,0.43-0.02,0.78-0.03,1.04
						c-0.01,0.23-0.02,0.35-0.03,0.35c-0.01,0-0.02-0.12-0.03-0.35c-0.01-0.26-0.01-0.6-0.03-1.04c-0.01-0.94-0.03-2.28-0.05-3.99
						c-0.02-3.49-0.05-8.5-0.08-14.66c-0.02-12.41-0.05-29.5-0.08-48.38c0-4.72,0-9.33,0-13.79c0-1.11,0-2.22,0-3.31
						c-0.02-1.1,0.11-2.24,0.5-3.27c0.75-2.08,2.37-3.76,4.29-4.62c0.96-0.43,1.99-0.67,3.02-0.71c1.02-0.03,1.99,0,2.96,0
						c1.94,0.01,3.82,0.02,5.64,0.03c3.64,0.02,7.03,0.04,10.12,0.05c1.55-0.01,3.03,0.08,4.39-0.09c1.36-0.18,2.61-0.59,3.69-1.14
						c2.17-1.11,3.64-2.72,4.54-4.17c0.89-1.47,1.27-2.77,1.47-3.66c0.09-0.44,0.13-0.79,0.17-1.02
						C292.97,328.21,292.98,328.09,292.99,328.09z"/>
				</g>
				<g>
					<path class="st11" d="M265.47,350.43c0.14,0.01,0.16,1.78,0.04,3.97c-0.12,2.18-0.34,3.95-0.48,3.94
						c-0.14-0.01-0.16-1.78-0.04-3.97C265.11,352.19,265.33,350.43,265.47,350.43z"/>
				</g>
			</g>
		</g>
		<g>
			<path class="st7" d="M122.35,293.29c0,0-1.11-8.83-0.23-8.83c0.88,0,1.4,8.83,1.4,8.83h-1.46"/>
			<g>
				<path class="st8" d="M125.23,293.29c0,0-1.11-8.83-0.23-8.83c0.88,0,1.4,8.83,1.4,8.83h-1.46"/>
				<path class="st10" d="M125.23,293.29c0,0-1.11-8.83-0.23-8.83c0.88,0,1.4,8.83,1.4,8.83h-1.46"/>
			</g>
			<path class="st7" d="M129.64,293.29c0,0-1.11-8.83-0.23-8.83c0.88,0,1.4,8.83,1.4,8.83h-1.46"/>
			<path class="st11" d="M127.06,293.75c0,0,0-8.9,0.87-8.79c0.87,0.11,0.29,8.93,0.29,8.93l-1.45-0.18"/>
			<g>
				<path class="st8" d="M124.36,293.29c0,0-1.11-8.83-0.23-8.83c0.88,0,1.4,8.83,1.4,8.83h-1.46"/>
				<path class="st9" d="M124.36,293.29c0,0-1.11-8.83-0.23-8.83c0.88,0,1.4,8.83,1.4,8.83h-1.46"/>
			</g>
			<polygon class="st8" points="122.17,307.18 120.7,293.29 132.48,293.29 132.48,307.18 			"/>
		</g>
		<polygon class="st7" points="372.64,307.24 112.35,307.24 112.35,314.19 126.27,314.19 119.06,446.83 123.03,446.83 
			130.24,314.19 358.44,314.19 364.59,446.81 368.98,447.04 362.41,314.19 372.64,314.19 		"/>
		<g>
			<g>
				<polygon class="st7" points="197.57,266.19 212,308.37 277.35,308.37 276.87,306.19 250.45,305.38 238.27,266.17 				"/>
			</g>
			<g>
				<path class="st3" d="M226.53,286c0.43,1.73-0.31,3.42-1.65,3.78c-1.34,0.36-2.78-0.75-3.22-2.48c-0.43-1.73,0.31-3.42,1.65-3.78
					C224.66,283.16,226.1,284.27,226.53,286z"/>
			</g>
		</g>
		<g>
			<g>
				<path class="st8" d="M352.99,294.34c-1.26-1.07-2.99-1.21-4.06-1.17c0.01-0.78-0.03-1.26-0.03-1.26h-22.12
					c0,0-0.7,14.61,10.49,15.12c5.01,0.23,7.87-2.01,9.51-4.84c0.53,0.13,1.46,0.31,2.51,0.31c1.17,0,2.46-0.22,3.48-0.99
					c0.76-0.57,1.66-1.68,1.66-3.74C354.44,295.95,353.65,294.9,352.99,294.34z M351.48,299.77c-0.94,0.71-2.64,0.6-3.74,0.4
					c0.62-1.67,0.93-3.37,1.08-4.8c0.76-0.05,2.03,0.02,2.77,0.64c0.45,0.38,0.68,0.96,0.68,1.77
					C352.26,298.72,352.01,299.38,351.48,299.77z"/>
			</g>
			<g>
				<path class="st7" d="M347.08,290.37c0,0-0.23-0.18-0.53-0.62c-0.3-0.44-0.7-1.15-0.91-2.16c-0.21-1-0.24-2.32,0.33-3.69
					c0.55-1.4,1.82-2.56,3.1-3.8c1.31-1.22,2.41-2.9,2.8-4.96c0.42-2.03,0.08-4.37-1.19-6.34c-0.62-0.98-1.46-1.87-2.46-2.56
					c-1-0.7-2.19-1.12-3.42-1.54c-1.22-0.43-2.54-0.86-3.61-1.82c-0.52-0.47-0.97-1.03-1.28-1.69c-0.3-0.66-0.44-1.43-0.26-2.17
					c0.03-0.1,0.06-0.21,0.08-0.3l0.33,0.33c-1.2,0.41-1.88,1.71-2.02,2.95c-0.15,1.26,0.29,2.52,0.82,3.66
					c0.54,1.15,1.22,2.23,1.72,3.4c0.5,1.16,0.84,2.41,0.7,3.66c-0.13,1.26-0.81,2.35-1.65,3.15c-0.84,0.81-1.8,1.39-2.77,1.85
					c-1.95,0.88-3.85,1.4-5.37,2.31c-1.53,0.88-2.56,2.18-3.12,3.46c-0.58,1.28-0.76,2.51-0.75,3.49c0.03,2,0.66,3,0.57,3.02
					c-0.01,0-0.04-0.06-0.1-0.18c-0.05-0.12-0.16-0.3-0.24-0.55c-0.19-0.5-0.39-1.27-0.44-2.28c-0.04-1.01,0.12-2.28,0.69-3.61
					c0.55-1.33,1.62-2.72,3.2-3.66c1.56-0.97,3.49-1.51,5.38-2.38c0.93-0.45,1.86-1.02,2.64-1.78c0.77-0.76,1.38-1.75,1.49-2.88
					c0.13-1.13-0.19-2.3-0.68-3.41c-0.48-1.12-1.16-2.2-1.73-3.38c-0.55-1.17-1.04-2.51-0.88-3.94c0.08-0.7,0.29-1.39,0.68-2
					c0.38-0.62,0.97-1.13,1.68-1.38l0.47-0.17l-0.14,0.5c-0.02,0.08-0.05,0.16-0.07,0.25c-0.3,1.24,0.44,2.52,1.38,3.35
					c0.95,0.86,2.22,1.29,3.43,1.72c1.22,0.42,2.48,0.86,3.53,1.61c1.06,0.73,1.93,1.67,2.58,2.71c1.33,2.08,1.67,4.56,1.21,6.68
					c-0.42,2.15-1.62,3.92-2.97,5.14c-1.32,1.24-2.55,2.34-3.09,3.65c-0.56,1.29-0.57,2.56-0.4,3.53
					C346.22,289.54,347.16,290.34,347.08,290.37z"/>
			</g>
		</g>
		<g>
			<g>
				<g>
					<g>
						<polygon class="st7" points="142.8,270.88 142.67,261.32 176.18,264.16 177.13,272.69 						"/>
					</g>
				</g>
				<g>
					<path class="st11" d="M146.49,271.08c-0.14,0-0.34-2.11-0.44-4.71c-0.1-2.6-0.07-4.72,0.08-4.73c0.14-0.01,0.34,2.1,0.44,4.71
						C146.67,268.96,146.63,271.08,146.49,271.08z"/>
				</g>
				<g>
					<path class="st11" d="M147.75,261.75c0.14,0,0.31,2.1,0.36,4.7c0.06,2.6-0.01,4.71-0.16,4.71c-0.14,0-0.31-2.1-0.36-4.7
						C147.53,263.86,147.61,261.75,147.75,261.75z"/>
				</g>
				<g>
					<path class="st3" d="M150.8,265.96c5.84,0.64,12.71,1.01,18.64,1.54"/>
					<g>
						<path class="st11" d="M169.44,267.5c-0.01,0.07-1.05,0.04-2.74-0.04c-1.69-0.09-4.02-0.23-6.6-0.42
							c-2.58-0.19-4.91-0.41-6.59-0.62c-1.68-0.2-2.72-0.39-2.71-0.46c0.01-0.07,1.05-0.02,2.74,0.09c1.86,0.13,4.11,0.29,6.59,0.46
							c2.57,0.19,4.91,0.39,6.59,0.57C168.41,267.27,169.45,267.43,169.44,267.5z"/>
					</g>
				</g>
				<g>
					<path class="st11" d="M171.89,272.41c-0.14,0.01-0.35-1.9-0.47-4.27c-0.12-2.36-0.09-4.29,0.05-4.29
						c0.14-0.01,0.35,1.9,0.47,4.27C172.05,270.49,172.03,272.41,171.89,272.41z"/>
				</g>
				<g>
					<path class="st11" d="M173.95,272.52c-0.14,0.01-0.45-1.89-0.68-4.26c-0.23-2.37-0.31-4.3-0.16-4.31
						c0.14-0.01,0.45,1.89,0.68,4.26C174.02,270.58,174.09,272.51,173.95,272.52z"/>
				</g>
				<g>
					<path class="st3" d="M155.77,268.1c3.69,0.25,6.5,0.44,9.45,0.5"/>
					<g>
						<path class="st11" d="M165.21,268.6c0,0.14-2.12,0.15-4.73,0.01c-2.61-0.14-4.72-0.37-4.71-0.51
							c0.01-0.14,2.13-0.15,4.73-0.01C163.11,268.23,165.22,268.46,165.21,268.6z"/>
					</g>
				</g>
			</g>
			<g>
				<g>
					<polygon class="st8" points="149.28,307.36 148.37,297.84 181.99,297.9 183.82,307.24 					"/>
					<polygon class="st9" points="149.28,307.36 148.37,297.84 181.99,297.9 183.82,307.24 					"/>
				</g>
				
					<rect x="165.69" y="291.9" transform="matrix(1.681547e-03 -1 1 1.681547e-03 -136.149 468.4597)" class="st7" width="1.72" height="21.03"/>
			</g>
			<g>
				<g>
					<polygon class="st7" points="144.54,298.64 143.73,289.12 177.35,289.53 178.92,297.98 					"/>
					<polygon class="st3" points="143.84,290.41 144.37,296.84 177.07,296.51 176.03,290.63 					"/>
					<g>
						<path class="st7" d="M174.31,293.26c0,0.04-0.42,0.06-1.18,0.08c-0.87,0.01-1.94,0.02-3.22,0.03c-2.72,0-6.47-0.03-10.61-0.1
							c-4.14-0.07-7.89-0.16-10.61-0.26c-1.27-0.05-2.35-0.1-3.21-0.14c-0.76-0.04-1.18-0.08-1.18-0.12c0-0.04,0.42-0.06,1.18-0.08
							c0.87-0.01,1.94-0.02,3.22-0.03c2.72,0,6.47,0.03,10.61,0.1c4.14,0.07,7.89,0.16,10.61,0.26c1.27,0.05,2.35,0.1,3.21,0.14
							C173.89,293.18,174.31,293.22,174.31,293.26z"/>
					</g>
					<g>
						<path class="st7" d="M174.31,294.07c0,0.04-0.42,0.08-1.19,0.12c-0.87,0.04-1.96,0.08-3.24,0.13
							c-2.73,0.09-6.51,0.17-10.68,0.23c-4.17,0.06-7.95,0.08-10.69,0.08c-1.28-0.01-2.36-0.03-3.24-0.04
							c-0.76-0.02-1.19-0.05-1.19-0.09c0-0.04,0.42-0.08,1.19-0.12c0.87-0.03,1.96-0.08,3.24-0.13c2.73-0.09,6.51-0.17,10.69-0.23
							c4.17-0.06,7.95-0.08,10.68-0.08c1.28,0.01,2.37,0.03,3.24,0.04C173.88,294.01,174.31,294.04,174.31,294.07z"/>
					</g>
				</g>
			</g>
			<g>
				<g>
					<polygon class="st11" points="145.04,289.55 144.41,280.01 178.02,281.07 179.42,289.54 					"/>
					<polygon class="st3" points="146.37,288.35 179.08,287.88 178.17,281.94 145.76,281.34 					"/>
				</g>
			</g>
			<g>
				<polygon class="st8" points="145.96,280.2 145.65,270.64 179.2,272.83 180.32,281.34 				"/>
				
					<rect x="162.64" y="265.85" transform="matrix(0.0648 -0.9979 0.9979 0.0648 -122.8777 421.602)" class="st7" width="1.72" height="21.03"/>
			</g>
			<g>
				<path class="st7" d="M178.5,284.39c0,0.04-0.46,0.07-1.28,0.11c-0.93,0.03-2.1,0.06-3.5,0.1c-2.95,0.06-7.03,0.1-11.54,0.12
					c-4.51,0.02-8.59,0-11.54-0.03c-1.4-0.03-2.57-0.05-3.5-0.07c-0.83-0.03-1.28-0.06-1.29-0.1c0-0.04,0.46-0.07,1.28-0.11
					c0.93-0.03,2.1-0.06,3.5-0.1c2.95-0.06,7.04-0.1,11.55-0.12c4.51-0.02,8.59,0,11.55,0.03c1.4,0.03,2.57,0.05,3.5,0.07
					C178.05,284.32,178.5,284.35,178.5,284.39z"/>
			</g>
			<g>
				<path class="st7" d="M178.89,286.24c0,0.04-0.46,0.06-1.29,0.08c-0.94,0.01-2.12,0.02-3.52,0.03
					c-2.98,0.01-7.08-0.02-11.62-0.08c-4.54-0.06-8.65-0.15-11.62-0.24c-1.41-0.05-2.59-0.1-3.52-0.13
					c-0.83-0.04-1.29-0.08-1.29-0.12c0-0.04,0.46-0.06,1.29-0.08c0.94-0.01,2.12-0.02,3.52-0.03c2.98-0.01,7.09,0.02,11.63,0.08
					c4.54,0.06,8.65,0.15,11.62,0.24c1.41,0.05,2.58,0.1,3.52,0.13C178.43,286.16,178.89,286.2,178.89,286.24z"/>
			</g>
		</g>
	</g>
</g>
</svg>
