<?xml version="1.0" standalone="no"?>
<!DOCTYPE svg PUBLIC "-//W3C//DTD SVG 1.1//EN" "http://www.w3.org/Graphics/SVG/1.1/DTD/svg11.dtd" >
<svg>
<metadata>
Created by FontForge 20090622 at Wed May 25 12:01:12 2016
 By deploy user
Copyright (c) 2012 by Khon Kaen University. All rights reserved.
</metadata>
<defs>
<font id="MorKhor" horiz-adv-x="0" >
  <font-face 
    font-family="MorKhor 1"
    font-weight="400"
    font-stretch="normal"
    units-per-em="1000"
    panose-1="2 11 5 0 4 2 0 2 0 3"
    ascent="800"
    descent="-200"
    x-height="339"
    cap-height="476"
    bbox="-502.08 -256 828 842.614"
    underline-thickness="30"
    underline-position="-20"
    unicode-range="U+0020-U+FB02"
  />
<missing-glyph horiz-adv-x="582" 
d="M532 728v-728h-482v728h482zM135 653v-577h312v577h-312z" />
    <glyph glyph-name="igrave" unicode="i&#x300;" horiz-adv-x="184" 
d="M88 527l34 -155h-58l-44 155h68zM134 340v-340h-84v340h84z" />
    <glyph glyph-name="iacute" unicode="i&#x301;" horiz-adv-x="184" 
d="M168 527l-44 -155h-58l34 155h68zM134 340v-340h-84v340h84z" />
    <glyph glyph-name="Itilde" unicode="I&#x303;" horiz-adv-x="235" 
d="M160 476v-476h-85v476h85zM49 602q48 9 94 -28q27 -22 40.5 -15.5t28.5 35.5l55 -28l-7.5 -11.5t-14.5 -18.5t-21 -18.5t-28 -12.5q-23 -5 -47 1.5t-47 26.5q-26 22 -45.5 13.5t-35.5 -33.5l-51 28q0 1 5.5 9.5t16 19t25 20t32.5 12.5z" />
    <glyph glyph-name="itilde" unicode="i&#x303;" horiz-adv-x="184" 
d="M24 466q48 9 94 -28q27 -22 40.5 -15.5t28.5 35.5l55 -28l-7.5 -11.5t-14.5 -18.5t-21 -18.5t-28 -12.5q-23 -5 -47 1.5t-47 26.5q-26 22 -45.5 13.5t-35.5 -33.5l-51 28q0 1 5.5 9.5t16 19t25 20t32.5 12.5zM134 340v-340h-84v340h84z" />
    <glyph glyph-name="PSK" unicode="PSK&#x2e;Design&#x28;c&#x29;" 
 />
    <glyph glyph-name="Agrave" unicode="A&#x300;" horiz-adv-x="427" 
d="M222 663l34 -155h-58l-44 155h68zM354 0h67l-124 417q-8 28 -28.5 48t-49.5 20q-35 0 -55.5 -22.5t-30.5 -54.5q-3 -11 -10 -34l-16 -53.5l-19 -66l-20 -71.5l-51 -183h67l43 137h183zM137 183l63 225q1 2 3 5q5 5 12 5t12 -5q2 -3 3 -5l71 -225h-164z" />
    <glyph glyph-name="Aacute" unicode="A&#x301;" horiz-adv-x="427" 
d="M291 663l-44 -155h-58l34 155h68zM354 0h67l-124 417q-8 28 -28.5 48t-49.5 20q-35 0 -55.5 -22.5t-30.5 -54.5q-3 -11 -10 -34l-16 -53.5l-19 -66l-20 -71.5l-51 -183h67l43 137h183zM137 183l63 225q1 2 3 5q5 5 12 5t12 -5q2 -3 3 -5l71 -225h-164z" />
    <glyph glyph-name="Atilde" unicode="A&#x303;" horiz-adv-x="427" 
d="M148 602q48 9 94 -28q27 -22 40.5 -15.5t28.5 35.5l55 -28l-7.5 -11.5t-14.5 -18.5t-21 -18.5t-28 -12.5q-23 -5 -47 1.5t-47 26.5q-26 22 -45.5 13.5t-35.5 -33.5l-51 28q0 1 5.5 9.5t16 19t25 20t32.5 12.5zM354 0h67l-124 417q-8 28 -28.5 48t-49.5 20
q-35 0 -55.5 -22.5t-30.5 -54.5q-3 -11 -10 -34l-16 -53.5l-19 -66l-20 -71.5l-51 -183h67l43 137h183zM137 183l63 225q1 2 3 5q5 5 12 5t12 -5q2 -3 3 -5l71 -225h-164z" />
    <glyph glyph-name="Egrave" unicode="E&#x300;" horiz-adv-x="451" 
d="M233 663l34 -155h-58l-44 155h68zM384 419v57h-323v-476h323v58h-259v145h218v58h-218v158h259v0z" />
    <glyph glyph-name="Eacute" unicode="E&#x301;" horiz-adv-x="451" 
d="M312 663l-44 -155h-58l34 155h68zM384 419v57h-323v-476h323v58h-259v145h218v58h-218v158h259v0z" />
    <glyph glyph-name="Igrave" unicode="I&#x300;" horiz-adv-x="188" 
d="M95 663l34 -155h-58l-44 155h68zM61 0h64v476h-64v-476v0z" />
    <glyph glyph-name="Iacute" unicode="I&#x301;" horiz-adv-x="188" 
d="M166 663l-44 -155h-58l34 155h68zM61 0h64v476h-64v-476v0z" />
    <glyph glyph-name="Ograve" unicode="O&#x300;" horiz-adv-x="484" 
d="M230 663l34 -155h-58l-44 155h68zM469 270q-1 54 -18.5 93t-46.5 66q-31 29 -70 43.5t-78 14.5q-40 0 -78.5 -14.5t-68.5 -43.5q-29 -27 -47 -66t-18 -93v-67q3 -47 19 -86.5t43.5 -68.5t65 -45t84.5 -16q49 0 88 16t66.5 44.5t42.5 68.5t16 87v67zM398 190
q0 -24 -7.5 -45.5t-21 -39.5t-31 -31.5t-36.5 -20.5q-11 -3 -22.5 -5t-23.5 -2t-23.5 2t-22.5 5q-19 7 -36.5 20.5t-31 31.5t-21 39.5t-7.5 45.5l-1 102q3 41 29.5 75.5t61.5 48.5q24 8 52 10q14 -1 27 -3t25 -7q35 -14 61.5 -48.5t29.5 -75.5z" />
    <glyph glyph-name="Oacute" unicode="O&#x301;" horiz-adv-x="484" 
d="M318 663l-44 -155h-58l34 155h68zM469 270q-1 54 -18.5 93t-46.5 66q-31 29 -70 43.5t-78 14.5q-40 0 -78.5 -14.5t-68.5 -43.5q-29 -27 -47 -66t-18 -93v-67q3 -47 19 -86.5t43.5 -68.5t65 -45t84.5 -16q49 0 88 16t66.5 44.5t42.5 68.5t16 87v67zM398 190
q0 -24 -7.5 -45.5t-21 -39.5t-31 -31.5t-36.5 -20.5q-11 -3 -22.5 -5t-23.5 -2t-23.5 2t-22.5 5q-19 7 -36.5 20.5t-31 31.5t-21 39.5t-7.5 45.5l-1 102q3 41 29.5 75.5t61.5 48.5q24 8 52 10q14 -1 27 -3t25 -7q35 -14 61.5 -48.5t29.5 -75.5z" />
    <glyph glyph-name="Otilde" unicode="O&#x303;" horiz-adv-x="484" 
d="M182 602q48 9 94 -28q27 -22 40.5 -15.5t28.5 35.5l55 -28l-7.5 -11.5t-14.5 -18.5t-21 -18.5t-28 -12.5q-23 -5 -47 1.5t-47 26.5q-26 22 -45.5 13.5t-35.5 -33.5l-51 28q0 1 5.5 9.5t16 19t25 20t32.5 12.5zM469 270q-1 54 -18.5 93t-46.5 66q-31 29 -70 43.5t-78 14.5
q-40 0 -78.5 -14.5t-68.5 -43.5q-29 -27 -47 -66t-18 -93v-67q3 -47 19 -86.5t43.5 -68.5t65 -45t84.5 -16q49 0 88 16t66.5 44.5t42.5 68.5t16 87v67zM398 190q0 -24 -7.5 -45.5t-21 -39.5t-31 -31.5t-36.5 -20.5q-11 -3 -22.5 -5t-23.5 -2t-23.5 2t-22.5 5
q-19 7 -36.5 20.5t-31 31.5t-21 39.5t-7.5 45.5l-1 102q3 41 29.5 75.5t61.5 48.5q24 8 52 10q14 -1 27 -3t25 -7q35 -14 61.5 -48.5t29.5 -75.5z" />
    <glyph glyph-name="Ugrave" unicode="U&#x300;" horiz-adv-x="505" 
d="M243 663l34 -155h-58l-44 155h68zM218 52q24 0 45.5 9t38 23t26.5 33.5t10 40.5v318h64v-328q0 -34 -16 -63t-42 -50t-59 -32.5t-67 -11.5t-67 12t-59.5 33t-42.5 49.5t-16 62.5v328h64v-319q0 -21 10 -40t27 -33.5t39 -23t45 -8.5z" />
    <glyph glyph-name="Uacute" unicode="U&#x301;" horiz-adv-x="505" 
d="M329 663l-44 -155h-58l34 155h68zM218 52q24 0 45.5 9t38 23t26.5 33.5t10 40.5v318h64v-328q0 -34 -16 -63t-42 -50t-59 -32.5t-67 -11.5t-67 12t-59.5 33t-42.5 49.5t-16 62.5v328h64v-319q0 -21 10 -40t27 -33.5t39 -23t45 -8.5z" />
    <glyph glyph-name="Yacute" unicode="Y&#x301;" horiz-adv-x="417" 
d="M283 663l-44 -155h-58l34 155h68zM239 0h64v174l209 302h-71l-169 -242l-170 242h-69l206 -300v-176z" />
    <glyph glyph-name="agrave" unicode="a&#x300;" horiz-adv-x="379" 
d="M199 527l34 -155h-58l-44 155h68zM279 0l-10 39q-19 -19 -42 -30.5t-51 -12.5q-24 -1 -48 5t-43.5 19t-31.5 33.5t-12 49.5q-1 46 22.5 76t58 43t73 8.5t68.5 -26.5v26q0 33 -21 51.5t-61 18.5q-29 0 -53.5 -12.5t-32.5 -38.5l-46 30q19 32 52 51.5t75 19.5q30 0 58.5 -8
t50 -23.5t34.5 -37.5t13 -49v-1v-231h-53zM262 140q-2 12 -11.5 21t-24 13.5t-31.5 5t-34 -3.5q-30 -7 -44.5 -28.5t-13.5 -44.5t18 -41t52 -18q18 0 35 9t29.5 23.5t19.5 31.5t5 32z" />
    <glyph glyph-name="aacute" unicode="a&#x301;" horiz-adv-x="379" 
d="M261 527l-44 -155h-58l34 155h68zM279 0l-10 39q-19 -19 -42 -30.5t-51 -12.5q-24 -1 -48 5t-43.5 19t-31.5 33.5t-12 49.5q-1 46 22.5 76t58 43t73 8.5t68.5 -26.5v26q0 33 -21 51.5t-61 18.5q-29 0 -53.5 -12.5t-32.5 -38.5l-46 30q19 32 52 51.5t75 19.5q30 0 58.5 -8
t50 -23.5t34.5 -37.5t13 -49v-1v-231h-53zM262 140q-2 12 -11.5 21t-24 13.5t-31.5 5t-34 -3.5q-30 -7 -44.5 -28.5t-13.5 -44.5t18 -41t52 -18q18 0 35 9t29.5 23.5t19.5 31.5t5 32z" />
    <glyph glyph-name="atilde" unicode="a&#x303;" horiz-adv-x="379" 
d="M125 466q48 9 94 -28q27 -22 40.5 -15.5t28.5 35.5l55 -28l-7.5 -11.5t-14.5 -18.5t-21 -18.5t-28 -12.5q-23 -5 -47 1.5t-47 26.5q-26 22 -45.5 13.5t-35.5 -33.5l-51 28q0 1 5.5 9.5t16 19t25 20t32.5 12.5zM279 0l-10 39q-19 -19 -42 -30.5t-51 -12.5q-24 -1 -48 5
t-43.5 19t-31.5 33.5t-12 49.5q-1 46 22.5 76t58 43t73 8.5t68.5 -26.5v26q0 33 -21 51.5t-61 18.5q-29 0 -53.5 -12.5t-32.5 -38.5l-46 30q19 32 52 51.5t75 19.5q30 0 58.5 -8t50 -23.5t34.5 -37.5t13 -49v-1v-231h-53zM262 140q-2 12 -11.5 21t-24 13.5t-31.5 5t-34 -3.5
q-30 -7 -44.5 -28.5t-13.5 -44.5t18 -41t52 -18q18 0 35 9t29.5 23.5t19.5 31.5t5 32z" />
    <glyph glyph-name="egrave" unicode="e&#x300;" horiz-adv-x="397" 
d="M197 527l34 -155h-58l-44 155h68zM98 161h88h89q21 0 33 5.5t18.5 13.5t8 16.5t1.5 15.5q0 33 -14.5 59t-37 44t-50 27t-54.5 9q-28 -1 -55 -11t-48 -29.5t-34 -48.5t-13 -68v-49q0 -39 14 -68t37 -48.5t52.5 -29.5t62.5 -10q47 0 86 30.5t51 86.5h-62
q-9 -32 -33.5 -47.5t-51.5 -15.5q-15 0 -30.5 5.5t-28 15.5t-20.5 24.5t-8 33.5zM180 294q33 2 61.5 -19t32.5 -63h-88h-88q4 40 27 60.5t55 21.5z" />
    <glyph glyph-name="eacute" unicode="e&#x301;" horiz-adv-x="397" 
d="M277 527l-44 -155h-58l34 155h68zM98 161h88h89q21 0 33 5.5t18.5 13.5t8 16.5t1.5 15.5q0 33 -14.5 59t-37 44t-50 27t-54.5 9q-28 -1 -55 -11t-48 -29.5t-34 -48.5t-13 -68v-49q0 -39 14 -68t37 -48.5t52.5 -29.5t62.5 -10q47 0 86 30.5t51 86.5h-62
q-9 -32 -33.5 -47.5t-51.5 -15.5q-15 0 -30.5 5.5t-28 15.5t-20.5 24.5t-8 33.5zM180 294q33 2 61.5 -19t32.5 -63h-88h-88q4 40 27 60.5t55 21.5z" />
    <glyph glyph-name="ograve" unicode="o&#x300;" horiz-adv-x="394" 
d="M196 527l34 -155h-58l-44 155h68zM359 194q0 39 -14 68.5t-36.5 49t-50.5 29.5t-58 10q-29 0 -57.5 -10t-51 -29.5t-36 -49t-13.5 -68.5q0 -1 0.5 -15t0.5 -34q0 -39 13.5 -68.5t35.5 -49t50 -29t58 -9.5t58.5 9.5t51 29t36 49t13.5 68.5v49zM293 136q0 -23 -8 -40.5
t-21 -29t-29.5 -17.5t-34.5 -6t-34.5 6t-29.5 18t-21 29t-8 40v73q0 22 8 38.5t21.5 27t30 15.5t33.5 5t33.5 -5t30 -15.5t22 -27t8.5 -38.5z" />
    <glyph glyph-name="oacute" unicode="o&#x301;" horiz-adv-x="394" 
d="M275 527l-44 -155h-58l34 155h68zM359 194q0 39 -14 68.5t-36.5 49t-50.5 29.5t-58 10q-29 0 -57.5 -10t-51 -29.5t-36 -49t-13.5 -68.5q0 -1 0.5 -15t0.5 -34q0 -39 13.5 -68.5t35.5 -49t50 -29t58 -9.5t58.5 9.5t51 29t36 49t13.5 68.5v49zM293 136q0 -23 -8 -40.5
t-21 -29t-29.5 -17.5t-34.5 -6t-34.5 6t-29.5 18t-21 29t-8 40v73q0 22 8 38.5t21.5 27t30 15.5t33.5 5t33.5 -5t30 -15.5t22 -27t8.5 -38.5z" />
    <glyph glyph-name="otilde" unicode="o&#x303;" horiz-adv-x="394" 
d="M128 466q48 9 94 -28q27 -22 40.5 -15.5t28.5 35.5l55 -28l-7.5 -11.5t-14.5 -18.5t-21 -18.5t-28 -12.5q-23 -5 -47 1.5t-47 26.5q-26 22 -45.5 13.5t-35.5 -33.5l-51 28q0 1 5.5 9.5t16 19t25 20t32.5 12.5zM359 194q0 39 -14 68.5t-36.5 49t-50.5 29.5t-58 10
q-29 0 -57.5 -10t-51 -29.5t-36 -49t-13.5 -68.5q0 -1 0.5 -15t0.5 -34q0 -39 13.5 -68.5t35.5 -49t50 -29t58 -9.5t58.5 9.5t51 29t36 49t13.5 68.5v49zM293 136q0 -23 -8 -40.5t-21 -29t-29.5 -17.5t-34.5 -6t-34.5 6t-29.5 18t-21 29t-8 40v73q0 22 8 38.5t21.5 27
t30 15.5t33.5 5t33.5 -5t30 -15.5t22 -27t8.5 -38.5z" />
    <glyph glyph-name="ugrave" unicode="u&#x300;" horiz-adv-x="385" 
d="M195 527l34 -155h-58l-44 155h68zM268 340h64v-340h-55l-9 50q-12 -23 -30.5 -39.5t-58.5 -16.5q-39 0 -65.5 13.5t-43 35.5t-24 48t-7.5 52v197h64q0 -36 0.5 -56t0.5 -36v-35.5v-54.5q0 -15 3.5 -33.5t12 -35t23.5 -27.5t39 -11q26 0 43 10t27 26t13.5 35t3.5 37z" />
    <glyph glyph-name="uacute" unicode="u&#x301;" horiz-adv-x="385" 
d="M271 527l-44 -155h-58l34 155h68zM268 340h64v-340h-55l-9 50q-12 -23 -30.5 -39.5t-58.5 -16.5q-39 0 -65.5 13.5t-43 35.5t-24 48t-7.5 52v197h64q0 -36 0.5 -56t0.5 -36v-35.5v-54.5q0 -15 3.5 -33.5t12 -35t23.5 -27.5t39 -11q26 0 43 10t27 26t13.5 35t3.5 37z" />
    <glyph glyph-name="yacute" unicode="y&#x301;" horiz-adv-x="353" 
d="M258 527l-44 -155h-58l34 155h68zM194 -170q-18 0 -31 10.5t-21.5 26.5t-13 36t-5.5 38h-57q1 -32 9.5 -61t25 -51.5t40 -35.5t55.5 -13q25 0 47.5 8t39.5 27.5t27 51.5t10 80v393h-65v-258q-61 24 -94 43t-48 44.5t-17.5 65t-2.5 105.5h-65q0 -56 3 -96t11 -69
t23.5 -49.5t40.5 -37.5t61.5 -32.5l87.5 -35.5v-65q0 -60 -16 -92.5t-45 -32.5z" />
    <glyph glyph-name="Utilde" unicode="U&#x303;" horiz-adv-x="505" 
d="M182 602q48 9 94 -28q27 -22 40.5 -15.5t28.5 35.5l55 -28l-7.5 -11.5t-14.5 -18.5t-21 -18.5t-28 -12.5q-23 -5 -47 1.5t-47 26.5q-26 22 -45.5 13.5t-35.5 -33.5l-51 28q0 1 5.5 9.5t16 19t25 20t32.5 12.5zM218 52q24 0 45.5 9t38 23t26.5 33.5t10 40.5v318h64v-328
q0 -34 -16 -63t-42 -50t-59 -32.5t-67 -11.5t-67 12t-59.5 33t-42.5 49.5t-16 62.5v328h64v-319q0 -21 10 -40t27 -33.5t39 -23t45 -8.5z" />
    <glyph glyph-name="utilde" unicode="u&#x303;" horiz-adv-x="385" 
d="M124 466q48 9 94 -28q27 -22 40.5 -15.5t28.5 35.5l55 -28l-7.5 -11.5t-14.5 -18.5t-21 -18.5t-28 -12.5q-23 -5 -47 1.5t-47 26.5q-26 22 -45.5 13.5t-35.5 -33.5l-51 28q0 1 5.5 9.5t16 19t25 20t32.5 12.5zM268 340h64v-340h-55l-9 50q-12 -23 -30.5 -39.5
t-58.5 -16.5q-39 0 -65.5 13.5t-43 35.5t-24 48t-7.5 52v197h64q0 -36 0.5 -56t0.5 -36v-35.5v-54.5q0 -15 3.5 -33.5t12 -35t23.5 -27.5t39 -11q26 0 43 10t27 26t13.5 35t3.5 37z" />
    <glyph glyph-name="uni1EA0" unicode="A&#x323;" horiz-adv-x="427" 
d="M311 137h-183l-43 -137h-67l51 183l20 71.5l19 66l16 53.5t10 34q10 32 30.5 54.5t55.5 22.5q29 0 49.5 -20t28.5 -48l124 -417h-67zM302 183l-71 225q-1 2 -3 5q-5 5 -12 5t-12 -5q-2 -3 -3 -5l-63 -225h164zM267 -137q0 24 17.5 41t41.5 17t41 -17t17 -41t-17 -41.5
t-41 -17.5t-41.5 17.5t-17.5 41.5z" />
    <glyph glyph-name="uni1EA1" unicode="a&#x323;" horiz-adv-x="379" 
d="M279 0l-10 39q-19 -19 -42 -30.5t-51 -12.5q-24 -1 -48 5t-43.5 19t-31.5 33.5t-12 49.5q-1 46 22.5 76t58 43t73 8.5t68.5 -26.5v26q0 33 -21 51.5t-61 18.5q-29 0 -53.5 -12.5t-32.5 -38.5l-46 30q19 32 52 51.5t75 19.5q30 0 58.5 -8t50 -23.5t34.5 -37.5t13 -49v-1
v-231h-53zM262 140q-2 12 -11.5 21t-24 13.5t-31.5 5t-34 -3.5q-30 -7 -44.5 -28.5t-13.5 -44.5t18 -41t52 -18q18 0 35 9t29.5 23.5t19.5 31.5t5 32zM190 -137q0 24 17.5 41t41.5 17t41 -17t17 -41t-17 -41.5t-41 -17.5t-41.5 17.5t-17.5 41.5z" />
    <glyph glyph-name="uni1EA2" unicode="A&#x309;" horiz-adv-x="427" 
d="M311 137h-183l-43 -137h-67l51 183l20 71.5l19 66l16 53.5t10 34q10 32 30.5 54.5t55.5 22.5q29 0 49.5 -20t28.5 -48l124 -417h-67zM302 183l-71 225q-1 2 -3 5q-5 5 -12 5t-12 -5q-2 -3 -3 -5l-63 -225h164zM261 568q-20 -19 -26 -31.5t-7 -18.5h-50q0 14 9.5 35.5
t39.5 50.5q21 20 14 39q-9 20 -29 20q-19 0 -26.5 -9.5t-8.5 -11.5l-47 19q2 7 8.5 16t16.5 17t24 14t33 6q25 0 45 -14.5t30 -38.5q11 -25 3 -49t-29 -44z" />
    <glyph glyph-name="uni1EA3" unicode="a&#x309;" horiz-adv-x="379" 
d="M279 0l-10 39q-19 -19 -42 -30.5t-51 -12.5q-24 -1 -48 5t-43.5 19t-31.5 33.5t-12 49.5q-1 46 22.5 76t58 43t73 8.5t68.5 -26.5v26q0 33 -21 51.5t-61 18.5q-29 0 -53.5 -12.5t-32.5 -38.5l-46 30q19 32 52 51.5t75 19.5q30 0 58.5 -8t50 -23.5t34.5 -37.5t13 -49v-1
v-231h-53zM262 140q-2 12 -11.5 21t-24 13.5t-31.5 5t-34 -3.5q-30 -7 -44.5 -28.5t-13.5 -44.5t18 -41t52 -18q18 0 35 9t29.5 23.5t19.5 31.5t5 32zM224.697 426.811q-18.001 -17.1006 -23.4004 -28.3506q-5.40039 -11.251 -6.30078 -16.6504h-45.001
q0 12.6006 8.5498 31.9502q8.55078 19.3506 35.5518 45.4512q18.9004 18.001 12.5996 35.1016q-8.09961 18 -26.1006 18q-17.1006 0 -23.8506 -8.5498t-7.65039 -10.3506l-42.3008 17.1006q1.7998 6.2998 7.65039 14.4004q5.84961 8.10059 14.8506 15.3008
q9 7.2002 21.6006 12.6006q12.5996 5.39941 29.7002 5.39941q22.501 0 40.501 -13.0498q18.001 -13.0508 27.001 -34.6514q9.90039 -22.501 2.7002 -44.1006q-7.2002 -21.6016 -26.1006 -39.6016z" />
    <glyph glyph-name="uni1EA4" unicode="&#xc2;&#x301;" horiz-adv-x="427" 
d="M311 137h-183l-43 -137h-67l51 183l20 71.5l19 66l16 53.5t10 34q10 32 30.5 54.5t55.5 22.5q29 0 49.5 -20t28.5 -48l124 -417h-67zM302 183l-71 225q-1 2 -3 5q-5 5 -12 5t-12 -5q-2 -3 -3 -5l-63 -225h164zM198 599l-59 -79h-60q77 101 83 108q15 16 26.5 21t28.5 5
q29 1 52 -28q7 -9 77 -106h-58l-56 79q-7 8 -15 8q-12 0 -19 -8zM351.199 830.614l-47.7012 -170.104h-36.9004l36.9004 170.104h47.7012z" />
    <glyph glyph-name="uni1EA5" unicode="&#xe2;&#x301;" horiz-adv-x="379" 
d="M279 0l-10 39q-19 -19 -42 -30.5t-51 -12.5q-24 -1 -48 5t-43.5 19t-31.5 33.5t-12 49.5q-1 46 22.5 76t58 43t73 8.5t68.5 -26.5v26q0 33 -21 51.5t-61 18.5q-29 0 -53.5 -12.5t-32.5 -38.5l-46 30q19 32 52 51.5t75 19.5q30 0 58.5 -8t50 -23.5t34.5 -37.5t13 -49v-1
v-231h-53zM262 140q-2 12 -11.5 21t-24 13.5t-31.5 5t-34 -3.5q-30 -7 -44.5 -28.5t-13.5 -44.5t18 -41t52 -18q18 0 35 9t29.5 23.5t19.5 31.5t5 32zM172 463l-59 -79h-60q77 101 83 108q15 16 26.5 21t28.5 5q29 1 52 -28q7 -9 77 -106h-58l-56 79q-7 8 -15 8
q-12 0 -19 -8zM313.199 694.614l-47.7012 -170.104h-36.9004l36.9004 170.104h47.7012z" />
    <glyph glyph-name="uni1EA6" unicode="&#xc2;&#x300;" horiz-adv-x="427" 
d="M311 137h-183l-43 -137h-67l51 183l20 71.5l19 66l16 53.5t10 34q10 32 30.5 54.5t55.5 22.5q29 0 49.5 -20t28.5 -48l124 -417h-67zM302 183l-71 225q-1 2 -3 5q-5 5 -12 5t-12 -5q-2 -3 -3 -5l-63 -225h164zM198 599l-59 -79h-60q77 101 83 108q15 16 26.5 21t28.5 5
q29 1 52 -28q7 -9 77 -106h-58l-56 79q-7 8 -15 8q-12 0 -19 -8zM144.698 816.214l36.001 -167.404h-36.001l-47.7021 167.404h47.7021z" />
    <glyph glyph-name="uni1EA7" unicode="&#xe2;&#x300;" horiz-adv-x="379" 
d="M279 0l-10 39q-19 -19 -42 -30.5t-51 -12.5q-24 -1 -48 5t-43.5 19t-31.5 33.5t-12 49.5q-1 46 22.5 76t58 43t73 8.5t68.5 -26.5v26q0 33 -21 51.5t-61 18.5q-29 0 -53.5 -12.5t-32.5 -38.5l-46 30q19 32 52 51.5t75 19.5q30 0 58.5 -8t50 -23.5t34.5 -37.5t13 -49v-1
v-231h-53zM262 140q-2 12 -11.5 21t-24 13.5t-31.5 5t-34 -3.5q-30 -7 -44.5 -28.5t-13.5 -44.5t18 -41t52 -18q18 0 35 9t29.5 23.5t19.5 31.5t5 32zM170 463l-59 -79h-60q77 101 83 108q15 16 26.5 21t28.5 5q29 1 52 -28q7 -9 77 -106h-58l-56 79q-7 8 -15 8
q-12 0 -19 -8zM118.698 676.214l36.001 -167.404h-36.001l-47.7021 167.404h47.7021z" />
    <glyph glyph-name="uni1EA8" unicode="&#xc2;&#x309;" horiz-adv-x="427" 
d="M311 137h-183l-43 -137h-67l51 183l20 71.5l19 66l16 53.5t10 34q10 32 30.5 54.5t55.5 22.5q29 0 49.5 -20t28.5 -48l124 -417h-67zM302 183l-71 225q-1 2 -3 5q-5 5 -12 5t-12 -5q-2 -3 -3 -5l-63 -225h164zM200 599l-59 -79h-60q77 101 83 108q15 16 26.5 21t28.5 5
q29 1 52 -28q7 -9 77 -106h-58l-56 79q-7 8 -15 8q-12 0 -19 -8zM374.697 694.811q-18.001 -17.1006 -23.4004 -28.3506q-5.40039 -11.251 -6.30078 -16.6504h-45.001q0 12.6006 8.5498 31.9502q8.55078 19.3506 35.5518 45.4512q18.9004 18.001 12.5996 35.1016
q-8.09961 18 -26.1006 18q-17.1006 0 -23.8506 -8.5498t-7.65039 -10.3506l-42.3008 17.1006q1.7998 6.2998 7.65039 14.4004q5.84961 8.10059 14.8506 15.3008q9 7.2002 21.6006 12.6006q12.5996 5.39941 29.7002 5.39941q22.501 0 40.501 -13.0498
q18.001 -13.0508 27.001 -34.6514q9.90039 -22.501 2.7002 -44.1006q-7.2002 -21.6016 -26.1006 -39.6016z" />
    <glyph glyph-name="uni1EA9" unicode="&#xe2;&#x309;" horiz-adv-x="379" 
d="M279 0l-10 39q-19 -19 -42 -30.5t-51 -12.5q-24 -1 -48 5t-43.5 19t-31.5 33.5t-12 49.5q-1 46 22.5 76t58 43t73 8.5t68.5 -26.5v26q0 33 -21 51.5t-61 18.5q-29 0 -53.5 -12.5t-32.5 -38.5l-46 30q19 32 52 51.5t75 19.5q30 0 58.5 -8t50 -23.5t34.5 -37.5t13 -49v-1
v-231h-53zM262 140q-2 12 -11.5 21t-24 13.5t-31.5 5t-34 -3.5q-30 -7 -44.5 -28.5t-13.5 -44.5t18 -41t52 -18q18 0 35 9t29.5 23.5t19.5 31.5t5 32zM172 463l-59 -79h-60q77 101 83 108q15 16 26.5 21t28.5 5q29 1 52 -28q7 -9 77 -106h-58l-56 79q-7 8 -15 8
q-12 0 -19 -8zM330.697 540.811q-18.001 -17.1006 -23.4004 -28.3506q-5.40039 -11.251 -6.30078 -16.6504h-45.001q0 12.6006 8.5498 31.9502q8.55078 19.3506 35.5518 45.4512q18.9004 18.001 12.5996 35.1016q-8.09961 18 -26.1006 18q-17.1006 0 -23.8506 -8.5498
t-7.65039 -10.3506l-42.3008 17.1006q1.7998 6.2998 7.65039 14.4004q5.84961 8.10059 14.8506 15.3008q9 7.2002 21.6006 12.6006q12.5996 5.39941 29.7002 5.39941q22.501 0 40.501 -13.0498q18.001 -13.0508 27.001 -34.6514q9.90039 -22.501 2.7002 -44.1006
q-7.2002 -21.6016 -26.1006 -39.6016z" />
    <glyph glyph-name="uni1EAA" unicode="&#xc2;&#x303;" horiz-adv-x="427" 
d="M311 137h-183l-43 -137h-67l51 183l20 71.5l19 66l16 53.5t10 34q10 32 30.5 54.5t55.5 22.5q29 0 49.5 -20t28.5 -48l124 -417h-67zM302 183l-71 225q-1 2 -3 5q-5 5 -12 5t-12 -5q-2 -3 -3 -5l-63 -225h164zM197 599l-59 -79h-60q77 101 83 108q15 16 26.5 21t28.5 5
q29 1 52 -28q7 -9 77 -106h-58l-56 79q-7 8 -15 8q-12 0 -19 -8zM151 777q42 7 85 -27q29 -25 54 -20q8 2 14.5 7t11.5 10q5 6 9 14l42 -26l-9 -12t-16.5 -20t-18 -16.5t-25.5 -11.5q-40 -9 -85 27q-29 24 -56 20q-19 -4 -33 -18q-7 -7 -12 -15l-36 33q0 1 8 10t16.5 17.5
t21 16.5t29.5 11z" />
    <glyph glyph-name="uni1EAB" unicode="&#xe2;&#x303;" horiz-adv-x="379" 
d="M279 0l-10 39q-19 -19 -42 -30.5t-51 -12.5q-24 -1 -48 5t-43.5 19t-31.5 33.5t-12 49.5q-1 46 22.5 76t58 43t73 8.5t68.5 -26.5v26q0 33 -21 51.5t-61 18.5q-29 0 -53.5 -12.5t-32.5 -38.5l-46 30q19 32 52 51.5t75 19.5q30 0 58.5 -8t50 -23.5t34.5 -37.5t13 -49v-1
v-231h-53zM262 140q-2 12 -11.5 21t-24 13.5t-31.5 5t-34 -3.5q-30 -7 -44.5 -28.5t-13.5 -44.5t18 -41t52 -18q18 0 35 9t29.5 23.5t19.5 31.5t5 32zM170 463l-59 -79h-60q77 101 83 108q15 16 26.5 21t28.5 5q29 1 52 -28q7 -9 77 -106h-58l-56 79q-7 8 -15 8
q-12 0 -19 -8zM121 640q42 7 85 -27q29 -25 54 -20q8 2 14.5 7t11.5 10q5 6 9 14l42 -26l-9 -12t-16.5 -20t-18 -16.5t-25.5 -11.5q-40 -9 -85 27q-29 24 -56 20q-19 -4 -33 -18q-7 -7 -12 -15l-36 33q0 1 8 10t16.5 17.5t21 16.5t29.5 11z" />
    <glyph glyph-name="uni1EAC" unicode="&#xc2;&#x323;" horiz-adv-x="427" 
d="M311 137h-183l-43 -137h-67l51 183l20 71.5l19 66l16 53.5t10 34q10 32 30.5 54.5t55.5 22.5q29 0 49.5 -20t28.5 -48l124 -417h-67zM302 183l-71 225q-1 2 -3 5q-5 5 -12 5t-12 -5q-2 -3 -3 -5l-63 -225h164zM257 -137q0 24 17.5 41t41.5 17t41 -17t17 -41t-17 -41.5
t-41 -17.5t-41.5 17.5t-17.5 41.5zM196 599l-59 -79h-60q77 101 83 108q15 16 26.5 21t28.5 5q29 1 52 -28q7 -9 77 -106h-58l-56 79q-7 8 -15 8q-12 0 -19 -8z" />
    <glyph glyph-name="uni1EAD" unicode="&#xe2;&#x323;" horiz-adv-x="379" 
d="M279 0l-10 39q-19 -19 -42 -30.5t-51 -12.5q-24 -1 -48 5t-43.5 19t-31.5 33.5t-12 49.5q-1 46 22.5 76t58 43t73 8.5t68.5 -26.5v26q0 33 -21 51.5t-61 18.5q-29 0 -53.5 -12.5t-32.5 -38.5l-46 30q19 32 52 51.5t75 19.5q30 0 58.5 -8t50 -23.5t34.5 -37.5t13 -49v-1
v-231h-53zM262 140q-2 12 -11.5 21t-24 13.5t-31.5 5t-34 -3.5q-30 -7 -44.5 -28.5t-13.5 -44.5t18 -41t52 -18q18 0 35 9t29.5 23.5t19.5 31.5t5 32zM199 -137q0 24 17.5 41t41.5 17t41 -17t17 -41t-17 -41.5t-41 -17.5t-41.5 17.5t-17.5 41.5zM172 463l-59 -79h-60
q77 101 83 108q15 16 26.5 21t28.5 5q29 1 52 -28q7 -9 77 -106h-58l-56 79q-7 8 -15 8q-12 0 -19 -8z" />
    <glyph glyph-name="uni1EAE" unicode="&#x102;&#x301;" horiz-adv-x="427" 
d="M311 137h-183l-43 -137h-67l51 183l20 71.5l19 66l16 53.5t10 34q10 32 30.5 54.5t55.5 22.5q29 0 49.5 -20t28.5 -48l124 -417h-67zM302 183l-71 225q-1 2 -3 5q-5 5 -12 5t-12 -5q-2 -3 -3 -5l-63 -225h164zM264 602q10 17 13 39h69q-2 -9 -8 -27t-17 -35
q-37 -61 -101 -61q-32 0 -58 16.5t-43 44.5q-10 17 -15.5 35.5t-7.5 26.5h67q2 -8 6 -20t8 -19q19 -32 43 -32q25 0 44 32zM269.199 830.614l-47.7012 -170.104h-36.9004l36.9004 170.104h47.7012z" />
    <glyph glyph-name="uni1EAF" unicode="&#x103;&#x301;" horiz-adv-x="379" 
d="M279 0l-10 39q-19 -19 -42 -30.5t-51 -12.5q-24 -1 -48 5t-43.5 19t-31.5 33.5t-12 49.5q-1 46 22.5 76t58 43t73 8.5t68.5 -26.5v26q0 33 -21 51.5t-61 18.5q-29 0 -53.5 -12.5t-32.5 -38.5l-46 30q19 32 52 51.5t75 19.5q30 0 58.5 -8t50 -23.5t34.5 -37.5t13 -49v-1
v-231h-53zM262 140q-2 12 -11.5 21t-24 13.5t-31.5 5t-34 -3.5q-30 -7 -44.5 -28.5t-13.5 -44.5t18 -41t52 -18q18 0 35 9t29.5 23.5t19.5 31.5t5 32zM242 460q10 17 13 39h69q-2 -9 -8 -27t-17 -35q-37 -61 -101 -61q-32 0 -58 16.5t-43 44.5q-10 17 -15.5 35.5t-7.5 26.5
h67q2 -8 6 -20t8 -19q19 -32 43 -32q25 0 44 32zM250.199 690.614l-47.7012 -170.104h-36.9004l36.9004 170.104h47.7012z" />
    <glyph glyph-name="uni1EB0" unicode="&#x102;&#x300;" horiz-adv-x="427" 
d="M311 137h-183l-43 -137h-67l51 183l20 71.5l19 66l16 53.5t10 34q10 32 30.5 54.5t55.5 22.5q29 0 49.5 -20t28.5 -48l124 -417h-67zM302 183l-71 225q-1 2 -3 5q-5 5 -12 5t-12 -5q-2 -3 -3 -5l-63 -225h164zM265 602q10 17 13 39h69q-2 -9 -8 -27t-17 -35
q-37 -61 -101 -61q-32 0 -58 16.5t-43 44.5q-10 17 -15.5 35.5t-7.5 26.5h67q2 -8 6 -20t8 -19q19 -32 43 -32q25 0 44 32zM201.698 816.214l36.001 -167.404h-36.001l-47.7021 167.404h47.7021z" />
    <glyph glyph-name="uni1EB1" unicode="&#x103;&#x300;" horiz-adv-x="379" 
d="M279 0l-10 39q-19 -19 -42 -30.5t-51 -12.5q-24 -1 -48 5t-43.5 19t-31.5 33.5t-12 49.5q-1 46 22.5 76t58 43t73 8.5t68.5 -26.5v26q0 33 -21 51.5t-61 18.5q-29 0 -53.5 -12.5t-32.5 -38.5l-46 30q19 32 52 51.5t75 19.5q30 0 58.5 -8t50 -23.5t34.5 -37.5t13 -49v-1
v-231h-53zM262 140q-2 12 -11.5 21t-24 13.5t-31.5 5t-34 -3.5q-30 -7 -44.5 -28.5t-13.5 -44.5t18 -41t52 -18q18 0 35 9t29.5 23.5t19.5 31.5t5 32zM238 460q10 17 13 39h69q-2 -9 -8 -27t-17 -35q-37 -61 -101 -61q-32 0 -58 16.5t-43 44.5q-10 17 -15.5 35.5t-7.5 26.5
h67q2 -8 6 -20t8 -19q19 -32 43 -32q25 0 44 32zM164.698 679.214l36.001 -167.404h-36.001l-47.7021 167.404h47.7021z" />
    <glyph glyph-name="uni1EB2" unicode="&#x102;&#x309;" horiz-adv-x="427" 
d="M311 137h-183l-43 -137h-67l51 183l20 71.5l19 66l16 53.5t10 34q10 32 30.5 54.5t55.5 22.5q29 0 49.5 -20t28.5 -48l124 -417h-67zM302 183l-71 225q-1 2 -3 5q-5 5 -12 5t-12 -5q-2 -3 -3 -5l-63 -225h164zM265 596q10 17 13 39h69q-2 -9 -8 -27t-17 -35
q-37 -61 -101 -61q-32 0 -58 16.5t-43 44.5q-10 17 -15.5 35.5t-7.5 26.5h67q2 -8 6 -20t8 -19q19 -32 43 -32q25 0 44 32zM261.697 692.811q-18.001 -17.1006 -23.4004 -28.3506q-5.40039 -11.251 -6.30078 -16.6504h-45.001q0 12.6006 8.5498 31.9502
q8.55078 19.3506 35.5518 45.4512q18.9004 18.001 12.5996 35.1016q-8.09961 18 -26.1006 18q-17.1006 0 -23.8506 -8.5498t-7.65039 -10.3506l-42.3008 17.1006q1.7998 6.2998 7.65039 14.4004q5.84961 8.10059 14.8506 15.3008q9 7.2002 21.6006 12.6006
q12.5996 5.39941 29.7002 5.39941q22.501 0 40.501 -13.0498q18.001 -13.0508 27.001 -34.6514q9.90039 -22.501 2.7002 -44.1006q-7.2002 -21.6016 -26.1006 -39.6016z" />
    <glyph glyph-name="uni1EB3" unicode="&#x103;&#x309;" horiz-adv-x="379" 
d="M279 0l-10 39q-19 -19 -42 -30.5t-51 -12.5q-24 -1 -48 5t-43.5 19t-31.5 33.5t-12 49.5q-1 46 22.5 76t58 43t73 8.5t68.5 -26.5v26q0 33 -21 51.5t-61 18.5q-29 0 -53.5 -12.5t-32.5 -38.5l-46 30q19 32 52 51.5t75 19.5q30 0 58.5 -8t50 -23.5t34.5 -37.5t13 -49v-1
v-231h-53zM262 140q-2 12 -11.5 21t-24 13.5t-31.5 5t-34 -3.5q-30 -7 -44.5 -28.5t-13.5 -44.5t18 -41t52 -18q18 0 35 9t29.5 23.5t19.5 31.5t5 32zM240 460q10 17 13 39h69q-2 -9 -8 -27t-17 -35q-37 -61 -101 -61q-32 0 -58 16.5t-43 44.5q-10 17 -15.5 35.5t-7.5 26.5
h67q2 -8 6 -20t8 -19q19 -32 43 -32q25 0 44 32zM231.697 560.811q-18.001 -17.1006 -23.4004 -28.3506q-5.40039 -11.251 -6.30078 -16.6504h-45.001q0 12.6006 8.5498 31.9502q8.55078 19.3506 35.5518 45.4512q18.9004 18.001 12.5996 35.1016q-8.09961 18 -26.1006 18
q-17.1006 0 -23.8506 -8.5498t-7.65039 -10.3506l-42.3008 17.1006q1.7998 6.2998 7.65039 14.4004q5.84961 8.10059 14.8506 15.3008q9 7.2002 21.6006 12.6006q12.5996 5.39941 29.7002 5.39941q22.501 0 40.501 -13.0498q18.001 -13.0508 27.001 -34.6514
q9.90039 -22.501 2.7002 -44.1006q-7.2002 -21.6016 -26.1006 -39.6016z" />
    <glyph glyph-name="uni1EB4" unicode="&#x102;&#x303;" horiz-adv-x="427" 
d="M311 137h-183l-43 -137h-67l51 183l20 71.5l19 66l16 53.5t10 34q10 32 30.5 54.5t55.5 22.5q29 0 49.5 -20t28.5 -48l124 -417h-67zM302 183l-71 225q-1 2 -3 5q-5 5 -12 5t-12 -5q-2 -3 -3 -5l-63 -225h164zM268 605q10 17 13 39h69q-2 -9 -8 -27t-17 -35
q-37 -61 -101 -61q-32 0 -58 16.5t-43 44.5q-10 17 -15.5 35.5t-7.5 26.5h67q2 -8 6 -20t8 -19q19 -32 43 -32q25 0 44 32zM147 757q42 7 85 -27q29 -25 54 -20q8 2 14.5 7t11.5 10q5 6 9 14l42 -26l-9 -12t-16.5 -20t-18 -16.5t-25.5 -11.5q-40 -9 -85 27q-29 24 -56 20
q-19 -4 -33 -18q-7 -7 -12 -15l-36 33q0 1 8 10t16.5 17.5t21 16.5t29.5 11z" />
    <glyph glyph-name="uni1EB5" unicode="&#x103;&#x303;" horiz-adv-x="379" 
d="M279 0l-10 39q-19 -19 -42 -30.5t-51 -12.5q-24 -1 -48 5t-43.5 19t-31.5 33.5t-12 49.5q-1 46 22.5 76t58 43t73 8.5t68.5 -26.5v26q0 33 -21 51.5t-61 18.5q-29 0 -53.5 -12.5t-32.5 -38.5l-46 30q19 32 52 51.5t75 19.5q30 0 58.5 -8t50 -23.5t34.5 -37.5t13 -49v-1
v-231h-53zM262 140q-2 12 -11.5 21t-24 13.5t-31.5 5t-34 -3.5q-30 -7 -44.5 -28.5t-13.5 -44.5t18 -41t52 -18q18 0 35 9t29.5 23.5t19.5 31.5t5 32zM244 460q10 17 13 39h69q-2 -9 -8 -27t-17 -35q-37 -61 -101 -61q-32 0 -58 16.5t-43 44.5q-10 17 -15.5 35.5t-7.5 26.5
h67q2 -8 6 -20t8 -19q19 -32 43 -32q25 0 44 32zM123 619q42 7 85 -27q29 -25 54 -20q8 2 14.5 7t11.5 10q5 6 9 14l42 -26l-9 -12t-16.5 -20t-18 -16.5t-25.5 -11.5q-40 -9 -85 27q-29 24 -56 20q-19 -4 -33 -18q-7 -7 -12 -15l-36 33q0 1 8 10t16.5 17.5t21 16.5t29.5 11z
" />
    <glyph glyph-name="uni1EB6" unicode="&#x102;&#x323;" horiz-adv-x="427" 
d="M311 137h-183l-43 -137h-67l51 183l20 71.5l19 66l16 53.5t10 34q10 32 30.5 54.5t55.5 22.5q29 0 49.5 -20t28.5 -48l124 -417h-67zM302 183l-71 225q-1 2 -3 5q-5 5 -12 5t-12 -5q-2 -3 -3 -5l-63 -225h164zM270 -137q0 24 17.5 41t41.5 17t41 -17t17 -41t-17 -41.5
t-41 -17.5t-41.5 17.5t-17.5 41.5zM264 596q10 17 13 39h69q-2 -9 -8 -27t-17 -35q-37 -61 -101 -61q-32 0 -58 16.5t-43 44.5q-10 17 -15.5 35.5t-7.5 26.5h67q2 -8 6 -20t8 -19q19 -32 43 -32q25 0 44 32z" />
    <glyph glyph-name="uni1EB7" unicode="&#x103;&#x323;" horiz-adv-x="379" 
d="M279 0l-10 39q-19 -19 -42 -30.5t-51 -12.5q-24 -1 -48 5t-43.5 19t-31.5 33.5t-12 49.5q-1 46 22.5 76t58 43t73 8.5t68.5 -26.5v26q0 33 -21 51.5t-61 18.5q-29 0 -53.5 -12.5t-32.5 -38.5l-46 30q19 32 52 51.5t75 19.5q30 0 58.5 -8t50 -23.5t34.5 -37.5t13 -49v-1
v-231h-53zM262 140q-2 12 -11.5 21t-24 13.5t-31.5 5t-34 -3.5q-30 -7 -44.5 -28.5t-13.5 -44.5t18 -41t52 -18q18 0 35 9t29.5 23.5t19.5 31.5t5 32zM199 -137q0 24 17.5 41t41.5 17t41 -17t17 -41t-17 -41.5t-41 -17.5t-41.5 17.5t-17.5 41.5zM239 460q10 17 13 39h69
q-2 -9 -8 -27t-17 -35q-37 -61 -101 -61q-32 0 -58 16.5t-43 44.5q-10 17 -15.5 35.5t-7.5 26.5h67q2 -8 6 -20t8 -19q19 -32 43 -32q25 0 44 32z" />
    <glyph glyph-name="uni1EB8" unicode="E&#x323;" horiz-adv-x="451" 
d="M384 419h-259v-158h218v-58h-218v-145h259v-58h-323v476h323v-57v0zM272 -137q0 24 17.5 41t41.5 17t41 -17t17 -41t-17 -41.5t-41 -17.5t-41.5 17.5t-17.5 41.5z" />
    <glyph glyph-name="uni1EB9" unicode="e&#x323;" horiz-adv-x="397" 
d="M100 122q0 -19 8 -33.5t20.5 -24.5t28 -15.5t30.5 -5.5q27 0 51.5 15.5t33.5 47.5h62q-12 -56 -51 -86.5t-86 -30.5q-33 0 -62.5 10t-52.5 29.5t-37 48.5t-14 68v49q0 39 13 68t34 48.5t48 29.5t55 11q27 0 54.5 -9t50 -27t37 -44t14.5 -59q0 -7 -1.5 -15.5t-8 -16.5
t-18.5 -13.5t-33 -5.5h-89h-88zM181 294q-32 -1 -55 -21.5t-27 -60.5h88h88q-4 42 -32.5 63t-61.5 19zM224 -137q0 24 17.5 41t41.5 17t41 -17t17 -41t-17 -41.5t-41 -17.5t-41.5 17.5t-17.5 41.5z" />
    <glyph glyph-name="uni1EBA" unicode="E&#x309;" horiz-adv-x="451" 
d="M384 419h-259v-158h218v-58h-218v-145h259v-58h-323v476h323v-57v0zM280 568q-20 -19 -26 -31.5t-7 -18.5h-50q0 14 9.5 35.5t39.5 50.5q21 20 14 39q-9 20 -29 20q-19 0 -26.5 -9.5t-8.5 -11.5l-47 19q2 7 8.5 16t16.5 17t24 14t33 6q25 0 45 -14.5t30 -38.5
q11 -25 3 -49t-29 -44z" />
    <glyph glyph-name="uni1EBB" unicode="e&#x309;" horiz-adv-x="397" 
d="M100 122q0 -19 8 -33.5t20.5 -24.5t28 -15.5t30.5 -5.5q27 0 51.5 15.5t33.5 47.5h62q-12 -56 -51 -86.5t-86 -30.5q-33 0 -62.5 10t-52.5 29.5t-37 48.5t-14 68v49q0 39 13 68t34 48.5t48 29.5t55 11q27 0 54.5 -9t50 -27t37 -44t14.5 -59q0 -7 -1.5 -15.5t-8 -16.5
t-18.5 -13.5t-33 -5.5h-89h-88zM181 294q-32 -1 -55 -21.5t-27 -60.5h88h88q-4 42 -32.5 63t-61.5 19zM241.697 426.811q-18.001 -17.1006 -23.4004 -28.3506q-5.40039 -11.251 -6.30078 -16.6504h-45.001q0 12.6006 8.5498 31.9502q8.55078 19.3506 35.5518 45.4512
q18.9004 18.001 12.5996 35.1016q-8.09961 18 -26.1006 18q-17.1006 0 -23.8506 -8.5498t-7.65039 -10.3506l-42.3008 17.1006q1.7998 6.2998 7.65039 14.4004q5.84961 8.10059 14.8506 15.3008q9 7.2002 21.6006 12.6006q12.5996 5.39941 29.7002 5.39941
q22.501 0 40.501 -13.0498q18.001 -13.0508 27.001 -34.6514q9.90039 -22.501 2.7002 -44.1006q-7.2002 -21.6016 -26.1006 -39.6016z" />
    <glyph glyph-name="uni1EBC" unicode="E&#x303;" horiz-adv-x="451" 
d="M384 419h-259v-158h218v-58h-218v-145h259v-58h-323v476h323v-57v0zM161 601q42 7 85 -27q29 -25 54 -20q8 2 14.5 7t11.5 10q5 6 9 14l42 -26l-9 -12t-16.5 -20t-18 -16.5t-25.5 -11.5q-40 -9 -85 27q-29 24 -56 20q-19 -4 -33 -18q-7 -7 -12 -15l-36 33q0 1 8 10
t16.5 17.5t21 16.5t29.5 11z" />
    <glyph glyph-name="uni1EBD" unicode="e&#x303;" horiz-adv-x="397" 
d="M100 122q0 -19 8 -33.5t20.5 -24.5t28 -15.5t30.5 -5.5q27 0 51.5 15.5t33.5 47.5h62q-12 -56 -51 -86.5t-86 -30.5q-33 0 -62.5 10t-52.5 29.5t-37 48.5t-14 68v49q0 39 13 68t34 48.5t48 29.5t55 11q27 0 54.5 -9t50 -27t37 -44t14.5 -59q0 -7 -1.5 -15.5t-8 -16.5
t-18.5 -13.5t-33 -5.5h-89h-88zM181 294q-32 -1 -55 -21.5t-27 -60.5h88h88q-4 42 -32.5 63t-61.5 19zM128 465q42 7 85 -27q29 -25 54 -20q8 2 14.5 7t11.5 10q5 6 9 14l42 -26l-9 -12t-16.5 -20t-18 -16.5t-25.5 -11.5q-40 -9 -85 27q-29 24 -56 20q-19 -4 -33 -18
q-7 -7 -12 -15l-36 33q0 1 8 10t16.5 17.5t21 16.5t29.5 11z" />
    <glyph glyph-name="uni1EBE" unicode="&#xca;&#x301;" horiz-adv-x="451" 
d="M384 419h-259v-158h218v-58h-218v-145h259v-58h-323v476h323v-57v0zM214 599l-59 -79h-60q77 101 83 108q15 16 26.5 21t28.5 5q29 1 52 -28q7 -9 77 -106h-58l-56 79q-7 8 -15 8q-12 0 -19 -8zM398.199 830.614l-47.7012 -170.104h-36.9004l36.9004 170.104h47.7012z
" />
    <glyph glyph-name="uni1EBF" unicode="&#xea;&#x301;" horiz-adv-x="397" 
d="M100 122q0 -19 8 -33.5t20.5 -24.5t28 -15.5t30.5 -5.5q27 0 51.5 15.5t33.5 47.5h62q-12 -56 -51 -86.5t-86 -30.5q-33 0 -62.5 10t-52.5 29.5t-37 48.5t-14 68v49q0 39 13 68t34 48.5t48 29.5t55 11q27 0 54.5 -9t50 -27t37 -44t14.5 -59q0 -7 -1.5 -15.5t-8 -16.5
t-18.5 -13.5t-33 -5.5h-89h-88zM181 294q-32 -1 -55 -21.5t-27 -60.5h88h88q-4 42 -32.5 63t-61.5 19zM179 463l-59 -79h-60q77 101 83 108q15 16 26.5 21t28.5 5q29 1 52 -28q7 -9 77 -106h-58l-56 79q-7 8 -15 8q-12 0 -19 -8zM362.199 679.614l-47.7012 -170.104
h-36.9004l36.9004 170.104h47.7012z" />
    <glyph glyph-name="uni1EC0" unicode="&#xca;&#x300;" horiz-adv-x="451" 
d="M384 419h-259v-158h218v-58h-218v-145h259v-58h-323v476h323v-57v0zM212 599l-59 -79h-60q77 101 83 108q15 16 26.5 21t28.5 5q29 1 52 -28q7 -9 77 -106h-58l-56 79q-7 8 -15 8q-12 0 -19 -8zM129.698 790.214l36.001 -167.404h-36.001l-47.7021 167.404h47.7021z" />
    <glyph glyph-name="uni1EC1" unicode="&#xea;&#x300;" horiz-adv-x="397" 
d="M100 122q0 -19 8 -33.5t20.5 -24.5t28 -15.5t30.5 -5.5q27 0 51.5 15.5t33.5 47.5h62q-12 -56 -51 -86.5t-86 -30.5q-33 0 -62.5 10t-52.5 29.5t-37 48.5t-14 68v49q0 39 13 68t34 48.5t48 29.5t55 11q27 0 54.5 -9t50 -27t37 -44t14.5 -59q0 -7 -1.5 -15.5t-8 -16.5
t-18.5 -13.5t-33 -5.5h-89h-88zM181 294q-32 -1 -55 -21.5t-27 -60.5h88h88q-4 42 -32.5 63t-61.5 19zM192 463l-59 -79h-60q77 101 83 108q15 16 26.5 21t28.5 5q29 1 52 -28q7 -9 77 -106h-58l-56 79q-7 8 -15 8q-12 0 -19 -8zM125 695l40 -186h-40l-53 186h53z" />
    <glyph glyph-name="uni1EC2" unicode="&#xca;&#x309;" horiz-adv-x="451" 
d="M384 419h-259v-158h218v-58h-218v-145h259v-58h-323v476h323v-57v0zM209 599l-59 -79h-60q77 101 83 108q15 16 26.5 21t28.5 5q29 1 52 -28q7 -9 77 -106h-58l-56 79q-7 8 -15 8q-12 0 -19 -8zM367.697 680.811q-18.001 -17.1006 -23.4004 -28.3506
q-5.40039 -11.251 -6.30078 -16.6504h-45.001q0 12.6006 8.5498 31.9502q8.55078 19.3506 35.5518 45.4512q18.9004 18.001 12.5996 35.1016q-8.09961 18 -26.1006 18q-17.1006 0 -23.8506 -8.5498t-7.65039 -10.3506l-42.3008 17.1006q1.7998 6.2998 7.65039 14.4004
q5.84961 8.10059 14.8506 15.3008q9 7.2002 21.6006 12.6006q12.5996 5.39941 29.7002 5.39941q22.501 0 40.501 -13.0498q18.001 -13.0508 27.001 -34.6514q9.90039 -22.501 2.7002 -44.1006q-7.2002 -21.6016 -26.1006 -39.6016z" />
    <glyph glyph-name="uni1EC3" unicode="&#xea;&#x309;" horiz-adv-x="397" 
d="M100 122q0 -19 8 -33.5t20.5 -24.5t28 -15.5t30.5 -5.5q27 0 51.5 15.5t33.5 47.5h62q-12 -56 -51 -86.5t-86 -30.5q-33 0 -62.5 10t-52.5 29.5t-37 48.5t-14 68v49q0 39 13 68t34 48.5t48 29.5t55 11q27 0 54.5 -9t50 -27t37 -44t14.5 -59q0 -7 -1.5 -15.5t-8 -16.5
t-18.5 -13.5t-33 -5.5h-89h-88zM181 294q-32 -1 -55 -21.5t-27 -60.5h88h88q-4 42 -32.5 63t-61.5 19zM191 463l-59 -79h-60q77 101 83 108q15 16 26.5 21t28.5 5q29 1 52 -28q7 -9 77 -106h-58l-56 79q-7 8 -15 8q-12 0 -19 -8zM333.697 559.811
q-18.001 -17.1006 -23.4004 -28.3506q-5.40039 -11.251 -6.30078 -16.6504h-45.001q0 12.6006 8.5498 31.9502q8.55078 19.3506 35.5518 45.4512q18.9004 18.001 12.5996 35.1016q-8.09961 18 -26.1006 18q-17.1006 0 -23.8506 -8.5498t-7.65039 -10.3506l-42.3008 17.1006
q1.7998 6.2998 7.65039 14.4004q5.84961 8.10059 14.8506 15.3008q9 7.2002 21.6006 12.6006q12.5996 5.39941 29.7002 5.39941q22.501 0 40.501 -13.0498q18.001 -13.0508 27.001 -34.6514q9.90039 -22.501 2.7002 -44.1006q-7.2002 -21.6016 -26.1006 -39.6016z" />
    <glyph glyph-name="uni1EC4" unicode="&#xca;&#x303;" horiz-adv-x="451" 
d="M384 419h-259v-158h218v-58h-218v-145h259v-58h-323v476h323v-57v0zM208 599l-59 -79h-60q77 101 83 108q15 16 26.5 21t28.5 5q29 1 52 -28q7 -9 77 -106h-58l-56 79q-7 8 -15 8q-12 0 -19 -8zM161 774q42 7 85 -27q29 -25 54 -20q8 2 14.5 7t11.5 10q5 6 9 14l42 -26
l-9 -12t-16.5 -20t-18 -16.5t-25.5 -11.5q-40 -9 -85 27q-29 24 -56 20q-19 -4 -33 -18q-7 -7 -12 -15l-36 33q0 1 8 10t16.5 17.5t21 16.5t29.5 11z" />
    <glyph glyph-name="uni1EC5" unicode="&#xea;&#x303;" horiz-adv-x="397" 
d="M100 122q0 -19 8 -33.5t20.5 -24.5t28 -15.5t30.5 -5.5q27 0 51.5 15.5t33.5 47.5h62q-12 -56 -51 -86.5t-86 -30.5q-33 0 -62.5 10t-52.5 29.5t-37 48.5t-14 68v49q0 39 13 68t34 48.5t48 29.5t55 11q27 0 54.5 -9t50 -27t37 -44t14.5 -59q0 -7 -1.5 -15.5t-8 -16.5
t-18.5 -13.5t-33 -5.5h-89h-88zM181 294q-32 -1 -55 -21.5t-27 -60.5h88h88q-4 42 -32.5 63t-61.5 19zM178 463l-59 -79h-60q77 101 83 108q15 16 26.5 21t28.5 5q29 1 52 -28q7 -9 77 -106h-58l-56 79q-7 8 -15 8q-12 0 -19 -8zM128 636q42 7 85 -27q29 -25 54 -20
q8 2 14.5 7t11.5 10q5 6 9 14l42 -26l-9 -12t-16.5 -20t-18 -16.5t-25.5 -11.5q-40 -9 -85 27q-29 24 -56 20q-19 -4 -33 -18q-7 -7 -12 -15l-36 33q0 1 8 10t16.5 17.5t21 16.5t29.5 11z" />
    <glyph glyph-name="uni1EC6" unicode="&#xca;&#x323;" horiz-adv-x="451" 
d="M384 419h-259v-158h218v-58h-218v-145h259v-58h-323v476h323v-57v0zM272 -137q0 24 17.5 41t41.5 17t41 -17t17 -41t-17 -41.5t-41 -17.5t-41.5 17.5t-17.5 41.5zM213 599l-59 -79h-60q77 101 83 108q15 16 26.5 21t28.5 5q29 1 52 -28q7 -9 77 -106h-58l-56 79
q-7 8 -15 8q-12 0 -19 -8z" />
    <glyph glyph-name="uni1EC7" unicode="&#xea;&#x323;" horiz-adv-x="397" 
d="M100 122q0 -19 8 -33.5t20.5 -24.5t28 -15.5t30.5 -5.5q27 0 51.5 15.5t33.5 47.5h62q-12 -56 -51 -86.5t-86 -30.5q-33 0 -62.5 10t-52.5 29.5t-37 48.5t-14 68v49q0 39 13 68t34 48.5t48 29.5t55 11q27 0 54.5 -9t50 -27t37 -44t14.5 -59q0 -7 -1.5 -15.5t-8 -16.5
t-18.5 -13.5t-33 -5.5h-89h-88zM181 294q-32 -1 -55 -21.5t-27 -60.5h88h88q-4 42 -32.5 63t-61.5 19zM217 -137q0 24 17.5 41t41.5 17t41 -17t17 -41t-17 -41.5t-41 -17.5t-41.5 17.5t-17.5 41.5zM189 463l-59 -79h-60q77 101 83 108q15 16 26.5 21t28.5 5q29 1 52 -28
q7 -9 77 -106h-58l-56 79q-7 8 -15 8q-12 0 -19 -8z" />
    <glyph glyph-name="uni1EC8" unicode="I&#x309;" horiz-adv-x="188" 
d="M61 0v476h64v-476h-64v0zM147 568q-20 -19 -26 -31.5t-7 -18.5h-50q0 14 9.5 35.5t39.5 50.5q21 20 14 39q-9 20 -29 20q-19 0 -26.5 -9.5t-8.5 -11.5l-47 19q2 7 8.5 16t16.5 17t24 14t33 6q25 0 45 -14.5t30 -38.5q11 -25 3 -49t-29 -44z" />
    <glyph glyph-name="uni1EC9" unicode="i&#x309;" horiz-adv-x="158" 
d="M126 432q-20 -19 -26 -31.5t-7 -18.5h-50q0 14 9.5 35.5t39.5 50.5q21 20 14 39q-9 20 -29 20q-19 0 -26.5 -9.5t-8.5 -11.5l-47 19q2 7 8.5 16t16.5 17t24 14t33 6q25 0 45 -14.5t30 -38.5q11 -25 3 -49t-29 -44zM134 340v-340h-84v340h84z" />
    <glyph glyph-name="uni1ECA" unicode="I&#x323;" horiz-adv-x="188" 
d="M61 0v476h64v-476h-64v0zM10 -137q0 24 17.5 41t41.5 17t41 -17t17 -41t-17 -41.5t-41 -17.5t-41.5 17.5t-17.5 41.5z" />
    <glyph glyph-name="uni1ECB" unicode="i&#x323;" horiz-adv-x="158" 
d="M48 340h64v-340h-64v340zM78 522q23 0 38.5 -15.5t15.5 -37.5q0 -23 -15.5 -38.5t-38.5 -15.5q-22 0 -37.5 15.5t-15.5 38.5q0 22 15.5 37.5t37.5 15.5zM12 -137q0 24 17.5 41t41.5 17t41 -17t17 -41t-17 -41.5t-41 -17.5t-41.5 17.5t-17.5 41.5z" />
    <glyph glyph-name="uni1ECC" unicode="O&#x323;" horiz-adv-x="484" 
d="M470 203q-1 -47 -16 -87t-42.5 -68.5t-66.5 -44.5t-88 -16q-47 0 -84.5 16t-65 45t-43.5 68.5t-19 86.5v67q0 54 18 93t47 66q30 29 68.5 43.5t78.5 14.5q39 0 78 -14.5t70 -43.5q29 -27 46.5 -66t18.5 -93v-67zM400 292q-3 41 -29.5 75.5t-61.5 48.5q-12 5 -25 7t-27 3
q-28 -2 -52 -10q-35 -14 -61.5 -48.5t-29.5 -75.5l1 -102q0 -24 7.5 -45.5t21 -39.5t31 -31.5t36.5 -20.5q11 -3 22.5 -5t23.5 -2t23.5 2t22.5 5q19 7 36.5 20.5t31 31.5t21 39.5t7.5 45.5zM297 -137q0 24 17.5 41t41.5 17t41 -17t17 -41t-17 -41.5t-41 -17.5t-41.5 17.5
t-17.5 41.5z" />
    <glyph glyph-name="uni1ECD" unicode="o&#x323;" horiz-adv-x="394" 
d="M360 145q0 -39 -13.5 -68.5t-36 -49t-51 -29t-58.5 -9.5t-58 9.5t-50 29t-35.5 49t-13.5 68.5q0 20 -0.5 34t-0.5 15q0 39 13.5 68.5t36 49t51 29.5t57.5 10q30 0 58 -10t50.5 -29.5t36.5 -49t14 -68.5v-49zM295 209q0 22 -8.5 38.5t-22 27t-30 15.5t-33.5 5t-33.5 -5
t-30 -15.5t-21.5 -27t-8 -38.5v-73q0 -23 8 -40t21 -29t29.5 -18t34.5 -6t34.5 6t29.5 17.5t21 29t8 40.5zM206 -137q0 24 17.5 41t41.5 17t41 -17t17 -41t-17 -41.5t-41 -17.5t-41.5 17.5t-17.5 41.5z" />
    <glyph glyph-name="uni1ECE" unicode="O&#x309;" horiz-adv-x="484" 
d="M470 203q-1 -47 -16 -87t-42.5 -68.5t-66.5 -44.5t-88 -16q-47 0 -84.5 16t-65 45t-43.5 68.5t-19 86.5v67q0 54 18 93t47 66q30 29 68.5 43.5t78.5 14.5q39 0 78 -14.5t70 -43.5q29 -27 46.5 -66t18.5 -93v-67zM400 292q-3 41 -29.5 75.5t-61.5 48.5q-12 5 -25 7t-27 3
q-28 -2 -52 -10q-35 -14 -61.5 -48.5t-29.5 -75.5l1 -102q0 -24 7.5 -45.5t21 -39.5t31 -31.5t36.5 -20.5q11 -3 22.5 -5t23.5 -2t23.5 2t22.5 5q19 7 36.5 20.5t31 31.5t21 39.5t7.5 45.5zM287 568q-20 -19 -26 -31.5t-7 -18.5h-50q0 14 9.5 35.5t39.5 50.5q21 20 14 39
q-9 20 -29 20q-19 0 -26.5 -9.5t-8.5 -11.5l-47 19q2 7 8.5 16t16.5 17t24 14t33 6q25 0 45 -14.5t30 -38.5q11 -25 3 -49t-29 -44z" />
    <glyph glyph-name="uni1ECF" unicode="o&#x309;" horiz-adv-x="394" 
d="M360 145q0 -39 -13.5 -68.5t-36 -49t-51 -29t-58.5 -9.5t-58 9.5t-50 29t-35.5 49t-13.5 68.5q0 20 -0.5 34t-0.5 15q0 39 13.5 68.5t36 49t51 29.5t57.5 10q30 0 58 -10t50.5 -29.5t36.5 -49t14 -68.5v-49zM295 209q0 22 -8.5 38.5t-22 27t-30 15.5t-33.5 5t-33.5 -5
t-30 -15.5t-21.5 -27t-8 -38.5v-73q0 -23 8 -40t21 -29t29.5 -18t34.5 -6t34.5 6t29.5 17.5t21 29t8 40.5zM249 432q-20 -19 -26 -31.5t-7 -18.5h-50q0 14 9.5 35.5t39.5 50.5q21 20 14 39q-9 20 -29 20q-19 0 -26.5 -9.5t-8.5 -11.5l-47 19q2 7 8.5 16t16.5 17t24 14t33 6
q25 0 45 -14.5t30 -38.5q11 -25 3 -49t-29 -44z" />
    <glyph glyph-name="uni1ED0" unicode="&#xd4;&#x301;" horiz-adv-x="484" 
d="M470 203q-1 -47 -16 -87t-42.5 -68.5t-66.5 -44.5t-88 -16q-47 0 -84.5 16t-65 45t-43.5 68.5t-19 86.5v67q0 54 18 93t47 66q30 29 68.5 43.5t78.5 14.5q39 0 78 -14.5t70 -43.5q29 -27 46.5 -66t18.5 -93v-67zM400 292q-3 41 -29.5 75.5t-61.5 48.5q-12 5 -25 7t-27 3
q-28 -2 -52 -10q-35 -14 -61.5 -48.5t-29.5 -75.5l1 -102q0 -24 7.5 -45.5t21 -39.5t31 -31.5t36.5 -20.5q11 -3 22.5 -5t23.5 -2t23.5 2t22.5 5q19 7 36.5 20.5t31 31.5t21 39.5t7.5 45.5zM223 599l-59 -79h-60q77 101 83 108q15 16 26.5 21t28.5 5q29 1 52 -28
q7 -9 77 -106h-58l-56 79q-7 8 -15 8q-12 0 -19 -8zM389.199 842.614l-47.7012 -170.104h-36.9004l36.9004 170.104h47.7012z" />
    <glyph glyph-name="uni1ED1" unicode="&#xf4;&#x301;" horiz-adv-x="394" 
d="M360 145q0 -39 -13.5 -68.5t-36 -49t-51 -29t-58.5 -9.5t-58 9.5t-50 29t-35.5 49t-13.5 68.5q0 20 -0.5 34t-0.5 15q0 39 13.5 68.5t36 49t51 29.5t57.5 10q30 0 58 -10t50.5 -29.5t36.5 -49t14 -68.5v-49zM295 209q0 22 -8.5 38.5t-22 27t-30 15.5t-33.5 5t-33.5 -5
t-30 -15.5t-21.5 -27t-8 -38.5v-73q0 -23 8 -40t21 -29t29.5 -18t34.5 -6t34.5 6t29.5 17.5t21 29t8 40.5zM178 463l-59 -79h-60q77 101 83 108q15 16 26.5 21t28.5 5q29 1 52 -28q7 -9 77 -106h-58l-56 79q-7 8 -15 8q-12 0 -19 -8zM333.199 690.614l-47.7012 -170.104
h-36.9004l36.9004 170.104h47.7012z" />
    <glyph glyph-name="uni1ED2" unicode="&#xd4;&#x300;" horiz-adv-x="484" 
d="M470 203q-1 -47 -16 -87t-42.5 -68.5t-66.5 -44.5t-88 -16q-47 0 -84.5 16t-65 45t-43.5 68.5t-19 86.5v67q0 54 18 93t47 66q30 29 68.5 43.5t78.5 14.5q39 0 78 -14.5t70 -43.5q29 -27 46.5 -66t18.5 -93v-67zM400 292q-3 41 -29.5 75.5t-61.5 48.5q-12 5 -25 7t-27 3
q-28 -2 -52 -10q-35 -14 -61.5 -48.5t-29.5 -75.5l1 -102q0 -24 7.5 -45.5t21 -39.5t31 -31.5t36.5 -20.5q11 -3 22.5 -5t23.5 -2t23.5 2t22.5 5q19 7 36.5 20.5t31 31.5t21 39.5t7.5 45.5zM225 599l-59 -79h-60q77 101 83 108q15 16 26.5 21t28.5 5q29 1 52 -28
q7 -9 77 -106h-58l-56 79q-7 8 -15 8q-12 0 -19 -8zM146.698 820.214l36.001 -167.404h-36.001l-47.7021 167.404h47.7021z" />
    <glyph glyph-name="uni1ED3" unicode="&#xf4;&#x300;" horiz-adv-x="394" 
d="M360 145q0 -39 -13.5 -68.5t-36 -49t-51 -29t-58.5 -9.5t-58 9.5t-50 29t-35.5 49t-13.5 68.5q0 20 -0.5 34t-0.5 15q0 39 13.5 68.5t36 49t51 29.5t57.5 10q30 0 58 -10t50.5 -29.5t36.5 -49t14 -68.5v-49zM295 209q0 22 -8.5 38.5t-22 27t-30 15.5t-33.5 5t-33.5 -5
t-30 -15.5t-21.5 -27t-8 -38.5v-73q0 -23 8 -40t21 -29t29.5 -18t34.5 -6t34.5 6t29.5 17.5t21 29t8 40.5zM177 463l-59 -79h-60q77 101 83 108q15 16 26.5 21t28.5 5q29 1 52 -28q7 -9 77 -106h-58l-56 79q-7 8 -15 8q-12 0 -19 -8zM106.698 666.214l36.001 -167.404
h-36.001l-47.7021 167.404h47.7021z" />
    <glyph glyph-name="uni1ED4" unicode="&#xd4;&#x309;" horiz-adv-x="484" 
d="M470 203q-1 -47 -16 -87t-42.5 -68.5t-66.5 -44.5t-88 -16q-47 0 -84.5 16t-65 45t-43.5 68.5t-19 86.5v67q0 54 18 93t47 66q30 29 68.5 43.5t78.5 14.5q39 0 78 -14.5t70 -43.5q29 -27 46.5 -66t18.5 -93v-67zM400 292q-3 41 -29.5 75.5t-61.5 48.5q-12 5 -25 7t-27 3
q-28 -2 -52 -10q-35 -14 -61.5 -48.5t-29.5 -75.5l1 -102q0 -24 7.5 -45.5t21 -39.5t31 -31.5t36.5 -20.5q11 -3 22.5 -5t23.5 -2t23.5 2t22.5 5q19 7 36.5 20.5t31 31.5t21 39.5t7.5 45.5zM221 599l-59 -79h-60q77 101 83 108q15 16 26.5 21t28.5 5q29 1 52 -28
q7 -9 77 -106h-58l-56 79q-7 8 -15 8q-12 0 -19 -8zM403.697 680.811q-18.001 -17.1006 -23.4004 -28.3506q-5.40039 -11.251 -6.30078 -16.6504h-45.001q0 12.6006 8.5498 31.9502q8.55078 19.3506 35.5518 45.4512q18.9004 18.001 12.5996 35.1016
q-8.09961 18 -26.1006 18q-17.1006 0 -23.8506 -8.5498t-7.65039 -10.3506l-42.3008 17.1006q1.7998 6.2998 7.65039 14.4004q5.84961 8.10059 14.8506 15.3008q9 7.2002 21.6006 12.6006q12.5996 5.39941 29.7002 5.39941q22.501 0 40.501 -13.0498
q18.001 -13.0508 27.001 -34.6514q9.90039 -22.501 2.7002 -44.1006q-7.2002 -21.6016 -26.1006 -39.6016z" />
    <glyph glyph-name="uni1ED5" unicode="&#xf4;&#x309;" horiz-adv-x="394" 
d="M360 145q0 -39 -13.5 -68.5t-36 -49t-51 -29t-58.5 -9.5t-58 9.5t-50 29t-35.5 49t-13.5 68.5q0 20 -0.5 34t-0.5 15q0 39 13.5 68.5t36 49t51 29.5t57.5 10q30 0 58 -10t50.5 -29.5t36.5 -49t14 -68.5v-49zM295 209q0 22 -8.5 38.5t-22 27t-30 15.5t-33.5 5t-33.5 -5
t-30 -15.5t-21.5 -27t-8 -38.5v-73q0 -23 8 -40t21 -29t29.5 -18t34.5 -6t34.5 6t29.5 17.5t21 29t8 40.5zM178 463l-59 -79h-60q77 101 83 108q15 16 26.5 21t28.5 5q29 1 52 -28q7 -9 77 -106h-58l-56 79q-7 8 -15 8q-12 0 -19 -8zM332.697 528.811
q-18.001 -17.1006 -23.4004 -28.3506q-5.40039 -11.251 -6.30078 -16.6504h-45.001q0 12.6006 8.5498 31.9502q8.55078 19.3506 35.5518 45.4512q18.9004 18.001 12.5996 35.1016q-8.09961 18 -26.1006 18q-17.1006 0 -23.8506 -8.5498t-7.65039 -10.3506l-42.3008 17.1006
q1.7998 6.2998 7.65039 14.4004q5.84961 8.10059 14.8506 15.3008q9 7.2002 21.6006 12.6006q12.5996 5.39941 29.7002 5.39941q22.501 0 40.501 -13.0498q18.001 -13.0508 27.001 -34.6514q9.90039 -22.501 2.7002 -44.1006q-7.2002 -21.6016 -26.1006 -39.6016z" />
    <glyph glyph-name="uni1ED6" unicode="&#xd4;&#x303;" horiz-adv-x="484" 
d="M470 203q-1 -47 -16 -87t-42.5 -68.5t-66.5 -44.5t-88 -16q-47 0 -84.5 16t-65 45t-43.5 68.5t-19 86.5v67q0 54 18 93t47 66q30 29 68.5 43.5t78.5 14.5q39 0 78 -14.5t70 -43.5q29 -27 46.5 -66t18.5 -93v-67zM400 292q-3 41 -29.5 75.5t-61.5 48.5q-12 5 -25 7t-27 3
q-28 -2 -52 -10q-35 -14 -61.5 -48.5t-29.5 -75.5l1 -102q0 -24 7.5 -45.5t21 -39.5t31 -31.5t36.5 -20.5q11 -3 22.5 -5t23.5 -2t23.5 2t22.5 5q19 7 36.5 20.5t31 31.5t21 39.5t7.5 45.5zM222 599l-59 -79h-60q77 101 83 108q15 16 26.5 21t28.5 5q29 1 52 -28
q7 -9 77 -106h-58l-56 79q-7 8 -15 8q-12 0 -19 -8zM172 777q42 7 85 -27q29 -25 54 -20q8 2 14.5 7t11.5 10q5 6 9 14l42 -26l-9 -12t-16.5 -20t-18 -16.5t-25.5 -11.5q-40 -9 -85 27q-29 24 -56 20q-19 -4 -33 -18q-7 -7 -12 -15l-36 33q0 1 8 10t16.5 17.5t21 16.5
t29.5 11z" />
    <glyph glyph-name="uni1ED7" unicode="&#xf4;&#x303;" horiz-adv-x="394" 
d="M360 145q0 -39 -13.5 -68.5t-36 -49t-51 -29t-58.5 -9.5t-58 9.5t-50 29t-35.5 49t-13.5 68.5q0 20 -0.5 34t-0.5 15q0 39 13.5 68.5t36 49t51 29.5t57.5 10q30 0 58 -10t50.5 -29.5t36.5 -49t14 -68.5v-49zM295 209q0 22 -8.5 38.5t-22 27t-30 15.5t-33.5 5t-33.5 -5
t-30 -15.5t-21.5 -27t-8 -38.5v-73q0 -23 8 -40t21 -29t29.5 -18t34.5 -6t34.5 6t29.5 17.5t21 29t8 40.5zM177 463l-59 -79h-60q77 101 83 108q15 16 26.5 21t28.5 5q29 1 52 -28q7 -9 77 -106h-58l-56 79q-7 8 -15 8q-12 0 -19 -8zM130 640q42 7 85 -27q29 -25 54 -20
q8 2 14.5 7t11.5 10q5 6 9 14l42 -26l-9 -12t-16.5 -20t-18 -16.5t-25.5 -11.5q-40 -9 -85 27q-29 24 -56 20q-19 -4 -33 -18q-7 -7 -12 -15l-36 33q0 1 8 10t16.5 17.5t21 16.5t29.5 11z" />
    <glyph glyph-name="uni1ED8" unicode="&#xd4;&#x323;" horiz-adv-x="484" 
d="M470 203q-1 -47 -16 -87t-42.5 -68.5t-66.5 -44.5t-88 -16q-47 0 -84.5 16t-65 45t-43.5 68.5t-19 86.5v67q0 54 18 93t47 66q30 29 68.5 43.5t78.5 14.5q39 0 78 -14.5t70 -43.5q29 -27 46.5 -66t18.5 -93v-67zM400 292q-3 41 -29.5 75.5t-61.5 48.5q-12 5 -25 7t-27 3
q-28 -2 -52 -10q-35 -14 -61.5 -48.5t-29.5 -75.5l1 -102q0 -24 7.5 -45.5t21 -39.5t31 -31.5t36.5 -20.5q11 -3 22.5 -5t23.5 -2t23.5 2t22.5 5q19 7 36.5 20.5t31 31.5t21 39.5t7.5 45.5zM291 -137q0 24 17.5 41t41.5 17t41 -17t17 -41t-17 -41.5t-41 -17.5t-41.5 17.5
t-17.5 41.5zM227 599l-59 -79h-60q77 101 83 108q15 16 26.5 21t28.5 5q29 1 52 -28q7 -9 77 -106h-58l-56 79q-7 8 -15 8q-12 0 -19 -8z" />
    <glyph glyph-name="uni1ED9" unicode="&#xf4;&#x323;" horiz-adv-x="394" 
d="M360 145q0 -39 -13.5 -68.5t-36 -49t-51 -29t-58.5 -9.5t-58 9.5t-50 29t-35.5 49t-13.5 68.5q0 20 -0.5 34t-0.5 15q0 39 13.5 68.5t36 49t51 29.5t57.5 10q30 0 58 -10t50.5 -29.5t36.5 -49t14 -68.5v-49zM295 209q0 22 -8.5 38.5t-22 27t-30 15.5t-33.5 5t-33.5 -5
t-30 -15.5t-21.5 -27t-8 -38.5v-73q0 -23 8 -40t21 -29t29.5 -18t34.5 -6t34.5 6t29.5 17.5t21 29t8 40.5zM206 -137q0 24 17.5 41t41.5 17t41 -17t17 -41t-17 -41.5t-41 -17.5t-41.5 17.5t-17.5 41.5zM177 463l-59 -79h-60q77 101 83 108q15 16 26.5 21t28.5 5q29 1 52 -28
q7 -9 77 -106h-58l-56 79q-7 8 -15 8q-12 0 -19 -8z" />
    <glyph glyph-name="uni1EDA" unicode="&#x1a0;&#x301;" horiz-adv-x="504" 
d="M50 307q0 40 20.5 72.5t52 56t70.5 36.5t77 13q44 0 84 -15t75 -44l1 -1q10 13 10 37v49h85v-49q0 -32 -12.5 -57.5t-33.5 -41.5q7 -14 9 -28t2 -28v-136q0 -40 -20 -73t-52 -56t-71 -36t-77 -13q-37 0 -75 12.5t-69.5 35.5t-52.5 56t-23 74v136zM135 171q0 -23 13 -41.5
t33.5 -32t44 -21t44.5 -7.5t44 7t43 20t33 32t15 43v136q0 23 -13 41.5t-33.5 32t-44 21t-44.5 7.5t-44 -7t-42.5 -20.5t-33.5 -32t-15 -42.5v-136zM317 720l-53 -189h-41l41 189h53z" />
    <glyph glyph-name="uni1EDB" unicode="&#x1a1;&#x301;" horiz-adv-x="435" 
d="M274 340q25 0 46 -9t37 -24q10 10 10 36v48h84v-48q0 -37 -15.5 -63.5t-42.5 -41.5q1 -4 1 -7.5v-6.5v-108q0 -24 -9.5 -45t-26 -37t-38 -25t-46.5 -9h-104q-25 0 -47 9t-38 25t-25.5 37t-9.5 45v108q0 24 9.5 45t25.5 37t38 25t47 9h104zM133 116q0 -17 11 -29.5
t26 -12.5h104q15 0 26 12.5t11 29.5v108q0 17 -11 29.5t-26 12.5h-104q-15 0 -26 -12.5t-11 -29.5v-108zM283 584l-53 -189h-41l41 189h53z" />
    <glyph glyph-name="uni1EDC" unicode="&#x1a0;&#x300;" horiz-adv-x="504" 
d="M50 307q0 40 20.5 72.5t52 56t70.5 36.5t77 13q44 0 84 -15t75 -44l1 -1q10 13 10 37v49h85v-49q0 -32 -12.5 -57.5t-33.5 -41.5q7 -14 9 -28t2 -28v-136q0 -40 -20 -73t-52 -56t-71 -36t-77 -13q-37 0 -75 12.5t-69.5 35.5t-52.5 56t-23 74v136zM135 171q0 -23 13 -41.5
t33.5 -32t44 -21t44.5 -7.5t44 7t43 20t33 32t15 43v136q0 23 -13 41.5t-33.5 32t-44 21t-44.5 7.5t-44 -7t-42.5 -20.5t-33.5 -32t-15 -42.5v-136zM212 704l40 -186h-40l-53 186h53z" />
    <glyph glyph-name="uni1EDD" unicode="&#x1a1;&#x300;" horiz-adv-x="435" 
d="M274 340q25 0 46 -9t37 -24q10 10 10 36v48h84v-48q0 -37 -15.5 -63.5t-42.5 -41.5q1 -4 1 -7.5v-6.5v-108q0 -24 -9.5 -45t-26 -37t-38 -25t-46.5 -9h-104q-25 0 -47 9t-38 25t-25.5 37t-9.5 45v108q0 24 9.5 45t25.5 37t38 25t47 9h104zM133 116q0 -17 11 -29.5
t26 -12.5h104q15 0 26 12.5t11 29.5v108q0 17 -11 29.5t-26 12.5h-104q-15 0 -26 -12.5t-11 -29.5v-108zM168 568l40 -186h-40l-53 186h53z" />
    <glyph glyph-name="uni1EDE" unicode="&#x1a0;&#x309;" horiz-adv-x="504" 
d="M50 307q0 40 20.5 72.5t52 56t70.5 36.5t77 13q44 0 84 -15t75 -44l1 -1q10 13 10 37v49h85v-49q0 -32 -12.5 -57.5t-33.5 -41.5q7 -14 9 -28t2 -28v-136q0 -40 -20 -73t-52 -56t-71 -36t-77 -13q-37 0 -75 12.5t-69.5 35.5t-52.5 56t-23 74v136zM135 171q0 -23 13 -41.5
t33.5 -32t44 -21t44.5 -7.5t44 7t43 20t33 32t15 43v136q0 23 -13 41.5t-33.5 32t-44 21t-44.5 7.5t-44 -7t-42.5 -20.5t-33.5 -32t-15 -42.5v-136zM287 568q-20 -19 -26 -31.5t-7 -18.5h-50q0 14 9.5 35.5t39.5 50.5q21 20 14 39q-9 20 -29 20q-19 0 -26.5 -9.5t-8.5 -11.5
l-47 19q2 7 8.5 16t16.5 17t24 14t33 6q25 0 45 -14.5t30 -38.5q11 -25 3 -49t-29 -44z" />
    <glyph glyph-name="uni1EDF" unicode="&#x1a1;&#x309;" horiz-adv-x="435" 
d="M274 340q25 0 46 -9t37 -24q10 10 10 36v48h84v-48q0 -37 -15.5 -63.5t-42.5 -41.5q1 -4 1 -7.5v-6.5v-108q0 -24 -9.5 -45t-26 -37t-38 -25t-46.5 -9h-104q-25 0 -47 9t-38 25t-25.5 37t-9.5 45v108q0 24 9.5 45t25.5 37t38 25t47 9h104zM133 116q0 -17 11 -29.5
t26 -12.5h104q15 0 26 12.5t11 29.5v108q0 17 -11 29.5t-26 12.5h-104q-15 0 -26 -12.5t-11 -29.5v-108zM251.697 426.811q-18.001 -17.1006 -23.4004 -28.3506q-5.40039 -11.251 -6.30078 -16.6504h-45.001q0 12.6006 8.5498 31.9502q8.55078 19.3506 35.5518 45.4512
q18.9004 18.001 12.5996 35.1016q-8.09961 18 -26.1006 18q-17.1006 0 -23.8506 -8.5498t-7.65039 -10.3506l-42.3008 17.1006q1.7998 6.2998 7.65039 14.4004q5.84961 8.10059 14.8506 15.3008q9 7.2002 21.6006 12.6006q12.5996 5.39941 29.7002 5.39941
q22.501 0 40.501 -13.0498q18.001 -13.0508 27.001 -34.6514q9.90039 -22.501 2.7002 -44.1006q-7.2002 -21.6016 -26.1006 -39.6016z" />
    <glyph glyph-name="uni1EE0" unicode="&#x1a0;&#x303;" horiz-adv-x="504" 
d="M50 307q0 40 20.5 72.5t52 56t70.5 36.5t77 13q44 0 84 -15t75 -44l1 -1q10 13 10 37v49h85v-49q0 -32 -12.5 -57.5t-33.5 -41.5q7 -14 9 -28t2 -28v-136q0 -40 -20 -73t-52 -56t-71 -36t-77 -13q-37 0 -75 12.5t-69.5 35.5t-52.5 56t-23 74v136zM135 171q0 -23 13 -41.5
t33.5 -32t44 -21t44.5 -7.5t44 7t43 20t33 32t15 43v136q0 23 -13 41.5t-33.5 32t-44 21t-44.5 7.5t-44 -7t-42.5 -20.5t-33.5 -32t-15 -42.5v-136zM194 601q42 7 85 -27q29 -25 54 -20q8 2 14.5 7t11.5 10q5 6 9 14l42 -26l-9 -12t-16.5 -20t-18 -16.5t-25.5 -11.5
q-40 -9 -85 27q-29 24 -56 20q-19 -4 -33 -18q-7 -7 -12 -15l-36 33q0 1 8 10t16.5 17.5t21 16.5t29.5 11z" />
    <glyph glyph-name="uni1EE1" unicode="&#x1a1;&#x303;" horiz-adv-x="435" 
d="M274 340q25 0 46 -9t37 -24q10 10 10 36v48h84v-48q0 -37 -15.5 -63.5t-42.5 -41.5q1 -4 1 -7.5v-6.5v-108q0 -24 -9.5 -45t-26 -37t-38 -25t-46.5 -9h-104q-25 0 -47 9t-38 25t-25.5 37t-9.5 45v108q0 24 9.5 45t25.5 37t38 25t47 9h104zM133 116q0 -17 11 -29.5
t26 -12.5h104q15 0 26 12.5t11 29.5v108q0 17 -11 29.5t-26 12.5h-104q-15 0 -26 -12.5t-11 -29.5v-108zM147 465q42 7 85 -27q29 -25 54 -20q8 2 14.5 7t11.5 10q5 6 9 14l42 -26l-9 -12t-16.5 -20t-18 -16.5t-25.5 -11.5q-40 -9 -85 27q-29 24 -56 20q-19 -4 -33 -18
q-7 -7 -12 -15l-36 33q0 1 8 10t16.5 17.5t21 16.5t29.5 11z" />
    <glyph glyph-name="uni1EE2" unicode="&#x1a0;&#x323;" horiz-adv-x="504" 
d="M50 307q0 40 20.5 72.5t52 56t70.5 36.5t77 13q44 0 84 -15t75 -44l1 -1q10 13 10 37v49h85v-49q0 -32 -12.5 -57.5t-33.5 -41.5q7 -14 9 -28t2 -28v-136q0 -40 -20 -73t-52 -56t-71 -36t-77 -13q-37 0 -75 12.5t-69.5 35.5t-52.5 56t-23 74v136zM135 171q0 -23 13 -41.5
t33.5 -32t44 -21t44.5 -7.5t44 7t43 20t33 32t15 43v136q0 23 -13 41.5t-33.5 32t-44 21t-44.5 7.5t-44 -7t-42.5 -20.5t-33.5 -32t-15 -42.5v-136zM340 -137q0 24 17.5 41t41.5 17t41 -17t17 -41t-17 -41.5t-41 -17.5t-41.5 17.5t-17.5 41.5z" />
    <glyph glyph-name="uni1EE3" unicode="&#x1a1;&#x323;" horiz-adv-x="435" 
d="M274 340q25 0 46 -9t37 -24q10 10 10 36v48h84v-48q0 -37 -15.5 -63.5t-42.5 -41.5q1 -4 1 -7.5v-6.5v-108q0 -24 -9.5 -45t-26 -37t-38 -25t-46.5 -9h-104q-25 0 -47 9t-38 25t-25.5 37t-9.5 45v108q0 24 9.5 45t25.5 37t38 25t47 9h104zM133 116q0 -17 11 -29.5
t26 -12.5h104q15 0 26 12.5t11 29.5v108q0 17 -11 29.5t-26 12.5h-104q-15 0 -26 -12.5t-11 -29.5v-108zM266 -137q0 24 17.5 41t41.5 17t41 -17t17 -41t-17 -41.5t-41 -17.5t-41.5 17.5t-17.5 41.5z" />
    <glyph glyph-name="uni1EE4" unicode="U&#x323;" horiz-adv-x="505" 
d="M219 52q24 0 45.5 9t38 23t26.5 33.5t10 40.5v318h64v-328q0 -34 -16 -63t-42 -50t-59 -32.5t-67 -11.5t-67 12t-59.5 33t-42.5 49.5t-16 62.5v328h64v-319q0 -21 10 -40t27 -33.5t39 -23t45 -8.5zM326 -137q0 24 17.5 41t41.5 17t41 -17t17 -41t-17 -41.5t-41 -17.5
t-41.5 17.5t-17.5 41.5z" />
    <glyph glyph-name="uni1EE5" unicode="u&#x323;" horiz-adv-x="385" 
d="M269 340h64v-340h-55l-9 50q-12 -23 -30.5 -39.5t-58.5 -16.5q-39 0 -65.5 13.5t-43 35.5t-24 48t-7.5 52v197h64q0 -36 0.5 -56t0.5 -36v-35.5v-54.5q0 -15 3.5 -33.5t12 -35t23.5 -27.5t39 -11q26 0 43 10t27 26t13.5 35t3.5 37zM202 -137q0 24 17.5 41t41.5 17t41 -17
t17 -41t-17 -41.5t-41 -17.5t-41.5 17.5t-17.5 41.5z" />
    <glyph glyph-name="uni1EE6" unicode="U&#x309;" horiz-adv-x="505" 
d="M219 52q24 0 45.5 9t38 23t26.5 33.5t10 40.5v318h64v-328q0 -34 -16 -63t-42 -50t-59 -32.5t-67 -11.5t-67 12t-59.5 33t-42.5 49.5t-16 62.5v328h64v-319q0 -21 10 -40t27 -33.5t39 -23t45 -8.5zM307 568q-20 -19 -26 -31.5t-7 -18.5h-50q0 14 9.5 35.5t39.5 50.5
q21 20 14 39q-9 20 -29 20q-19 0 -26.5 -9.5t-8.5 -11.5l-47 19q2 7 8.5 16t16.5 17t24 14t33 6q25 0 45 -14.5t30 -38.5q11 -25 3 -49t-29 -44z" />
    <glyph glyph-name="uni1EE7" unicode="u&#x309;" horiz-adv-x="385" 
d="M269 340h64v-340h-55l-9 50q-12 -23 -30.5 -39.5t-58.5 -16.5q-39 0 -65.5 13.5t-43 35.5t-24 48t-7.5 52v197h64q0 -36 0.5 -56t0.5 -36v-35.5v-54.5q0 -15 3.5 -33.5t12 -35t23.5 -27.5t39 -11q26 0 43 10t27 26t13.5 35t3.5 37zM237.697 426.811
q-18.001 -17.1006 -23.4004 -28.3506q-5.40039 -11.251 -6.30078 -16.6504h-45.001q0 12.6006 8.5498 31.9502q8.55078 19.3506 35.5518 45.4512q18.9004 18.001 12.5996 35.1016q-8.09961 18 -26.1006 18q-17.1006 0 -23.8506 -8.5498t-7.65039 -10.3506l-42.3008 17.1006
q1.7998 6.2998 7.65039 14.4004q5.84961 8.10059 14.8506 15.3008q9 7.2002 21.6006 12.6006q12.5996 5.39941 29.7002 5.39941q22.501 0 40.501 -13.0498q18.001 -13.0508 27.001 -34.6514q9.90039 -22.501 2.7002 -44.1006q-7.2002 -21.6016 -26.1006 -39.6016z" />
    <glyph glyph-name="uni1EE8" unicode="&#x1af;&#x301;" horiz-adv-x="559" 
d="M510 476v-54q9 0 18 8.5t9 31.5v49h85v-49q0 -20 -10 -40t-26 -35.5t-36 -25.5t-40 -10v-181q0 -36 -12 -67t-33.5 -54t-52.5 -36t-69 -13h-132q-36 0 -65.5 13t-50.5 35.5t-32.5 53.5t-12.5 67v307h85v-307q0 -38 17 -65.5t59 -27.5h132q30 0 46.5 13.5t24.5 30t9.5 32
t1.5 18.5v306h85zM323 720l-53 -189h-41l41 189h53z" />
    <glyph glyph-name="uni1EE9" unicode="&#x1b0;&#x301;" horiz-adv-x="434" 
d="M496 391v-48q0 -20 -9.5 -39.5t-24.5 -35t-34 -25t-38 -9.5v-106q0 -27 -9.5 -50t-26.5 -40.5t-40 -27.5t-51 -10h-91q-56 0 -89 36t-33 92v212h83v-212q0 -20 7.5 -36t31.5 -18h91q22 0 32 16.5t11 37.5v212h84v-41q17 0 25 12t8 32v48h73zM266 584l-53 -189h-41l41 189
h53z" />
    <glyph glyph-name="uni1EEA" unicode="&#x1af;&#x300;" horiz-adv-x="559" 
d="M510 476v-54q9 0 18 8.5t9 31.5v49h85v-49q0 -20 -10 -40t-26 -35.5t-36 -25.5t-40 -10v-181q0 -36 -12 -67t-33.5 -54t-52.5 -36t-69 -13h-132q-36 0 -65.5 13t-50.5 35.5t-32.5 53.5t-12.5 67v307h85v-307q0 -38 17 -65.5t59 -27.5h132q30 0 46.5 13.5t24.5 30t9.5 32
t1.5 18.5v306h85zM228 704l40 -186h-40l-53 186h53z" />
    <glyph glyph-name="uni1EEB" unicode="&#x1b0;&#x300;" horiz-adv-x="434" 
d="M496 391v-48q0 -20 -9.5 -39.5t-24.5 -35t-34 -25t-38 -9.5v-106q0 -27 -9.5 -50t-26.5 -40.5t-40 -27.5t-51 -10h-91q-56 0 -89 36t-33 92v212h83v-212q0 -20 7.5 -36t31.5 -18h91q22 0 32 16.5t11 37.5v212h84v-41q17 0 25 12t8 32v48h73zM176 568l40 -186h-40l-53 186
h53z" />
    <glyph glyph-name="uni1EEC" unicode="&#x1af;&#x309;" horiz-adv-x="559" 
d="M510 476v-54q9 0 18 8.5t9 31.5v49h85v-49q0 -20 -10 -40t-26 -35.5t-36 -25.5t-40 -10v-181q0 -36 -12 -67t-33.5 -54t-52.5 -36t-69 -13h-132q-36 0 -65.5 13t-50.5 35.5t-32.5 53.5t-12.5 67v307h85v-307q0 -38 17 -65.5t59 -27.5h132q30 0 46.5 13.5t24.5 30t9.5 32
t1.5 18.5v306h85zM301 568q-20 -19 -26 -31.5t-7 -18.5h-50q0 14 9.5 35.5t39.5 50.5q21 20 14 39q-9 20 -29 20q-19 0 -26.5 -9.5t-8.5 -11.5l-47 19q2 7 8.5 16t16.5 17t24 14t33 6q25 0 45 -14.5t30 -38.5q11 -25 3 -49t-29 -44z" />
    <glyph glyph-name="uni1EED" unicode="&#x1b0;&#x309;" horiz-adv-x="434" 
d="M496 391v-48q0 -20 -9.5 -39.5t-24.5 -35t-34 -25t-38 -9.5v-106q0 -27 -9.5 -50t-26.5 -40.5t-40 -27.5t-51 -10h-91q-56 0 -89 36t-33 92v212h83v-212q0 -20 7.5 -36t31.5 -18h91q22 0 32 16.5t11 37.5v212h84v-41q17 0 25 12t8 32v48h73zM238.697 426.811
q-18.001 -17.1006 -23.4004 -28.3506q-5.40039 -11.251 -6.30078 -16.6504h-45.001q0 12.6006 8.5498 31.9502q8.55078 19.3506 35.5518 45.4512q18.9004 18.001 12.5996 35.1016q-8.09961 18 -26.1006 18q-17.1006 0 -23.8506 -8.5498t-7.65039 -10.3506l-42.3008 17.1006
q1.7998 6.2998 7.65039 14.4004q5.84961 8.10059 14.8506 15.3008q9 7.2002 21.6006 12.6006q12.5996 5.39941 29.7002 5.39941q22.501 0 40.501 -13.0498q18.001 -13.0508 27.001 -34.6514q9.90039 -22.501 2.7002 -44.1006q-7.2002 -21.6016 -26.1006 -39.6016z" />
    <glyph glyph-name="uni1EEE" unicode="&#x1af;&#x303;" horiz-adv-x="559" 
d="M510 476v-54q9 0 18 8.5t9 31.5v49h85v-49q0 -20 -10 -40t-26 -35.5t-36 -25.5t-40 -10v-181q0 -36 -12 -67t-33.5 -54t-52.5 -36t-69 -13h-132q-36 0 -65.5 13t-50.5 35.5t-32.5 53.5t-12.5 67v307h85v-307q0 -38 17 -65.5t59 -27.5h132q30 0 46.5 13.5t24.5 30t9.5 32
t1.5 18.5v306h85zM195 601q42 7 85 -27q29 -25 54 -20q8 2 14.5 7t11.5 10q5 6 9 14l42 -26l-9 -12t-16.5 -20t-18 -16.5t-25.5 -11.5q-40 -9 -85 27q-29 24 -56 20q-19 -4 -33 -18q-7 -7 -12 -15l-36 33q0 1 8 10t16.5 17.5t21 16.5t29.5 11z" />
    <glyph glyph-name="uni1EEF" unicode="&#x1b0;&#x303;" horiz-adv-x="434" 
d="M496 391v-48q0 -20 -9.5 -39.5t-24.5 -35t-34 -25t-38 -9.5v-106q0 -27 -9.5 -50t-26.5 -40.5t-40 -27.5t-51 -10h-91q-56 0 -89 36t-33 92v212h83v-212q0 -20 7.5 -36t31.5 -18h91q22 0 32 16.5t11 37.5v212h84v-41q17 0 25 12t8 32v48h73zM140 465q42 7 85 -27
q29 -25 54 -20q8 2 14.5 7t11.5 10q5 6 9 14l42 -26l-9 -12t-16.5 -20t-18 -16.5t-25.5 -11.5q-40 -9 -85 27q-29 24 -56 20q-19 -4 -33 -18q-7 -7 -12 -15l-36 33q0 1 8 10t16.5 17.5t21 16.5t29.5 11z" />
    <glyph glyph-name="uni1EF0" unicode="&#x1af;&#x323;" horiz-adv-x="559" 
d="M510 476v-54q9 0 18 8.5t9 31.5v49h85v-49q0 -20 -10 -40t-26 -35.5t-36 -25.5t-40 -10v-181q0 -36 -12 -67t-33.5 -54t-52.5 -36t-69 -13h-132q-36 0 -65.5 13t-50.5 35.5t-32.5 53.5t-12.5 67v307h85v-307q0 -38 17 -65.5t59 -27.5h132q30 0 46.5 13.5t24.5 30t9.5 32
t1.5 18.5v306h85zM380 -137q0 24 17.5 41t41.5 17t41 -17t17 -41t-17 -41.5t-41 -17.5t-41.5 17.5t-17.5 41.5z" />
    <glyph glyph-name="uni1EF1" unicode="&#x1b0;&#x323;" horiz-adv-x="434" 
d="M496 391v-48q0 -20 -9.5 -39.5t-24.5 -35t-34 -25t-38 -9.5v-106q0 -27 -9.5 -50t-26.5 -40.5t-40 -27.5t-51 -10h-91q-56 0 -89 36t-33 92v212h83v-212q0 -20 7.5 -36t31.5 -18h91q22 0 32 16.5t11 37.5v212h84v-41q17 0 25 12t8 32v48h73zM263 -137q0 24 17.5 41
t41.5 17t41 -17t17 -41t-17 -41.5t-41 -17.5t-41.5 17.5t-17.5 41.5z" />
    <glyph glyph-name="Ygrave" unicode="Y&#x300;" horiz-adv-x="417" 
d="M239 176l-206 300h69l170 -242l169 242h71l-209 -302v-174h-64v176zM184 704l40 -186h-40l-53 186h53z" />
    <glyph glyph-name="ygrave" unicode="y&#x300;" horiz-adv-x="353" 
d="M195 -170q29 0 45 32.5t16 92.5v65l-87.5 35.5t-61.5 32.5t-40.5 37.5t-23.5 49.5t-11 69t-3 96h65q0 -66 2.5 -105.5t17.5 -65t48 -44.5t94 -43v258h65v-393q0 -48 -10 -80t-27 -51.5t-39.5 -27.5t-47.5 -8q-32 0 -55.5 13t-40 35.5t-25 51.5t-9.5 61h57q1 -18 5.5 -38
t13 -36t21.5 -26.5t31 -10.5zM163 568l40 -186h-40l-53 186h53z" />
    <glyph glyph-name="uni1EF4" unicode="Y&#x323;" horiz-adv-x="417" 
d="M239 176l-206 300h69l170 -242l169 242h71l-209 -302v-174h-64v176zM250 -137q0 24 17.5 41t41.5 17t41 -17t17 -41t-17 -41.5t-41 -17.5t-41.5 17.5t-17.5 41.5z" />
    <glyph glyph-name="uni1EF5" unicode="y&#x323;" horiz-adv-x="353" 
d="M195 -170q29 0 45 32.5t16 92.5v65l-87.5 35.5t-61.5 32.5t-40.5 37.5t-23.5 49.5t-11 69t-3 96h65q0 -66 2.5 -105.5t17.5 -65t48 -44.5t94 -43v258h65v-393q0 -48 -10 -80t-27 -51.5t-39.5 -27.5t-47.5 -8q-32 0 -55.5 13t-40 35.5t-25 51.5t-9.5 61h57q1 -18 5.5 -38
t13 -36t21.5 -26.5t31 -10.5zM183 -192q0 24 17.5 41t41.5 17t41 -17t17 -41t-17 -41.5t-41 -17.5t-41.5 17.5t-17.5 41.5z" />
    <glyph glyph-name="uni1EF6" unicode="Y&#x309;" horiz-adv-x="417" 
d="M239 176l-206 300h69l170 -242l169 242h71l-209 -302v-174h-64v176zM257 568q-20 -19 -26 -31.5t-7 -18.5h-50q0 14 9.5 35.5t39.5 50.5q21 20 14 39q-9 20 -29 20q-19 0 -26.5 -9.5t-8.5 -11.5l-47 19q2 7 8.5 16t16.5 17t24 14t33 6q25 0 45 -14.5t30 -38.5
q11 -25 3 -49t-29 -44z" />
    <glyph glyph-name="uni1EF7" unicode="y&#x309;" horiz-adv-x="353" 
d="M195 -170q29 0 45 32.5t16 92.5v65l-87.5 35.5t-61.5 32.5t-40.5 37.5t-23.5 49.5t-11 69t-3 96h65q0 -66 2.5 -105.5t17.5 -65t48 -44.5t94 -43v258h65v-393q0 -48 -10 -80t-27 -51.5t-39.5 -27.5t-47.5 -8q-32 0 -55.5 13t-40 35.5t-25 51.5t-9.5 61h57q1 -18 5.5 -38
t13 -36t21.5 -26.5t31 -10.5zM220.697 426.811q-18.001 -17.1006 -23.4004 -28.3506q-5.40039 -11.251 -6.30078 -16.6504h-45.001q0 12.6006 8.5498 31.9502q8.55078 19.3506 35.5518 45.4512q18.9004 18.001 12.5996 35.1016q-8.09961 18 -26.1006 18
q-17.1006 0 -23.8506 -8.5498t-7.65039 -10.3506l-42.3008 17.1006q1.7998 6.2998 7.65039 14.4004q5.84961 8.10059 14.8506 15.3008q9 7.2002 21.6006 12.6006q12.5996 5.39941 29.7002 5.39941q22.501 0 40.501 -13.0498q18.001 -13.0508 27.001 -34.6514
q9.90039 -22.501 2.7002 -44.1006q-7.2002 -21.6016 -26.1006 -39.6016z" />
    <glyph glyph-name="uni1EF8" unicode="Y&#x303;" horiz-adv-x="417" 
d="M239 176l-206 300h69l170 -242l169 242h71l-209 -302v-174h-64v176zM140 601q42 7 85 -27q29 -25 54 -20q8 2 14.5 7t11.5 10q5 6 9 14l42 -26l-9 -12t-16.5 -20t-18 -16.5t-25.5 -11.5q-40 -9 -85 27q-29 24 -56 20q-19 -4 -33 -18q-7 -7 -12 -15l-36 33q0 1 8 10
t16.5 17.5t21 16.5t29.5 11z" />
    <glyph glyph-name="uni1EF9" unicode="y&#x303;" horiz-adv-x="353" 
d="M195 -170q29 0 45 32.5t16 92.5v65l-87.5 35.5t-61.5 32.5t-40.5 37.5t-23.5 49.5t-11 69t-3 96h65q0 -66 2.5 -105.5t17.5 -65t48 -44.5t94 -43v258h65v-393q0 -48 -10 -80t-27 -51.5t-39.5 -27.5t-47.5 -8q-32 0 -55.5 13t-40 35.5t-25 51.5t-9.5 61h57q1 -18 5.5 -38
t13 -36t21.5 -26.5t31 -10.5zM110 465q42 7 85 -27q29 -25 54 -20q8 2 14.5 7t11.5 10q5 6 9 14l42 -26l-9 -12t-16.5 -20t-18 -16.5t-25.5 -11.5q-40 -9 -85 27q-29 24 -56 20q-19 -4 -33 -18q-7 -7 -12 -15l-36 33q0 1 8 10t16.5 17.5t21 16.5t29.5 11z" />
    <glyph glyph-name="uni0E4F.liga" unicode="&#xe4f;&#x22;" horiz-adv-x="479" 
d="M309 383q22 0 42 -8.5t35 -23t24 -34.5t9 -42v-141q0 -23 -9 -43t-24 -35t-35 -23.5t-42 -8.5h-139q-23 0 -43 8.5t-35 23.5t-23.5 35t-8.5 43v141q0 22 8.5 42t23.5 34.5t35 23t43 8.5h139zM100 127q0 -11 5.5 -22t14.5 -20t20.5 -15t22.5 -6h153q11 0 22 6t20 15t15 20
t6 22v154q0 21 -17 41.5t-46 20.5h-153q-31 0 -47 -20.5t-16 -41.5v-154zM272 296q25 0 42.5 -17.5t17.5 -40.5v-67q0 -25 -17.5 -42t-42.5 -17h-65q-25 0 -42.5 17t-17.5 42v67q0 23 17.5 40.5t42.5 17.5h65zM187 168q0 -16 17 -16h71q7 0 12 4.5t5 11.5v73q0 6 -5 10.5
t-12 4.5h-71q-8 0 -12.5 -4.5t-4.5 -10.5v-73zM179 575l30 -141h-45l-40 141h55zM269 575l30 -141h-43l-40 141h53z" />
    <glyph glyph-name="uni0E24.liga" unicode="&#xe24;&#xe32;" horiz-adv-x="724" 
d="M195 421q33 0 64.5 -11t56 -30.5t39.5 -46.5t15 -60v-472h-64v463q0 27 -10 45.5t-26.5 30.5t-37.5 17t-41 5q-13 0 -27 -3.5t-27 -10t-23 -16t-14 -21.5q5 -3 9 -7q4 -3 8.5 -7t7.5 -8q8 -11 9 -24t1 -25q0 -62 -0.5 -107t-0.5 -68q0 -7 4 -14t13 -7q9 1 12.5 7t3.5 14
v31h45v-31q0 -33 -17 -53t-50 -20q-40 0 -57.5 24.5t-17.5 57.5v203h-51q3 30 19 56t41 45.5t55 31t61 11.5zM522.725 417.869q32.2051 0 60.3838 -11.5791q28.1797 -11.5791 49.3145 -31.2139t33.2109 -47.3242q12.0771 -27.6895 12.0771 -59.9102v-469.214h-64.4102
v469.214q0 19.1309 -7.04492 36.248t-19.1211 30.207q-12.0771 13.0898 -28.6836 20.6416q-16.6055 7.55176 -35.7266 7.55176q-18.1162 0 -35.2246 -7.04883q-17.1094 -7.04785 -30.6953 -19.1309q-13.5869 -12.083 -21.6377 -27.6895q-8.05176 -15.6074 -9.05762 -33.7314
h-55.3525q1.00586 31.2139 13.083 57.3936q12.0771 26.1787 32.2051 44.8066t47.3008 29.7031q27.1738 11.0762 59.3789 11.0762z" />
    <glyph glyph-name="uni0E26.liga" unicode="&#xe26;&#xe32;" horiz-adv-x="764" 
d="M555.324 417.908q32.9414 0 61.7656 -11.8291q28.8232 -11.8291 50.4414 -31.8877q21.6172 -20.0576 33.9707 -48.3447q12.3525 -28.2881 12.3525 -61.2041v-479.339h-65.8828v479.339q0 19.5439 -7.20605 37.0312q-7.20508 17.4863 -19.5586 30.8584
q-12.3525 13.3721 -29.3379 21.0869q-16.9863 7.71484 -36.5449 7.71484q-18.5293 0 -36.0293 -7.2002q-17.5 -7.20117 -31.3975 -19.5439q-13.8975 -12.3438 -22.1328 -28.2871q-8.23535 -15.9443 -9.26465 -34.459h-56.6182q1.0293 31.8867 13.3828 58.6309
q12.3525 26.7451 32.9414 45.7744q20.5879 19.0293 48.3828 30.3447q27.7939 11.3145 60.7354 11.3145zM226 421q33 0 64.5 -11t56.5 -30.5t40 -46.5t15 -59v-1v-474h-65v465q0 27 -10 45.5t-26.5 30.5t-37.5 17t-41 5q-26 0 -53.5 -13t-37.5 -37q5 -3 9 -7q4 -3 8.5 -7
t7.5 -8q8 -11 9 -24t1 -26v-165q0 -33 -17.5 -57t-58.5 -24q-33 0 -49.5 19.5t-16.5 52.5v32h45l-1 -31q1 -8 4.5 -14.5t12.5 -6.5t12.5 7t3.5 14v210h-51q3 30 19 56t41 45.5t55 31t61 11.5z" />
    <glyph glyph-name="fi" unicode="fi" horiz-adv-x="290" 
d="M259 341v-341h-50v292h-88v-292h-64v292h-57v49h57v71q0 16 5 33t16.5 31t30.5 22.5t47 8.5q23 0 40 -8.5t28 -22t16.5 -30.5t5.5 -34v-7h-52v12q0 3 -0.5 10t-4 14t-11 12.5t-21.5 5.5t-21 -5.5t-10.5 -12.5t-4 -14t-0.5 -10v-76h138z" />
    <glyph glyph-name="fl" unicode="fl" horiz-adv-x="339" 
d="M289 0h-52v459h-86q-11 -2 -17 -7.5t-9 -12t-3.5 -13t-0.5 -9.5v-75h66v-50h-66v-292h-64v292h-57v50h57v70q0 16 4.5 32.5t15.5 30t29 22.5t45 10h138v-507z" />
    <glyph glyph-name=".notdef" horiz-adv-x="582" 
d="M532 728v-728h-482v728h482zM135 653v-577h312v577h-312z" />
    <glyph glyph-name="nonbreakingspace" unicode="&#xa0;" horiz-adv-x="216" 
 />
    <glyph glyph-name=".null" 
 />
    <glyph glyph-name="nonmarkingreturn" horiz-adv-x="216" 
 />
    <glyph glyph-name="uni0E4E.alt1" 
d="M-175 593l-41 -41l-42 41q-2 2 -7 2t-9 -4t-5 -9t2 -8l17 -17l-31 -31l-17 17q-3 3 -8 2t-9 -4q-3 -3 -4.5 -8.5t2.5 -8.5l41 -42l-41 -41l-39 40q-19 19 -18.5 43t17.5 41t31 17.5t21 -1.5q-2 7 -0.5 22t17.5 31q17 17 41.5 16t43.5 -20z" />
    <glyph glyph-name="exclamdown" unicode="&#xa1;" horiz-adv-x="203" 
d="M60 -143v374h83v-374h-83zM55 323q0 20 13 33t33 13t33.5 -13t13.5 -33t-13.5 -33.5t-33.5 -13.5t-33 13.5t-13 33.5z" />
    <glyph glyph-name="sterling" unicode="&#xa3;" horiz-adv-x="464" 
d="M414 0h-364v74h85v153h-54v74h54v64q0 51 32 84.5t84 33.5h99v-74h-99q-11 0 -22 -10t-11 -34v-64h98v-74h-98v-153h196v-74z" />
    <glyph glyph-name="currency" unicode="&#xa4;" horiz-adv-x="528" 
d="M458 178q0 -33 -17 -62l24.5 -25t22.5 -22l-55 -55l-49 47q-29 -13 -60 -13h-119q-32 0 -60 14l-49 -49l-56 56l48 47q-17 27 -17 62v118q0 17 3.5 32.5t12.5 29.5l-47 48l56 55l49 -49q28 14 60 14h119q31 0 60 -13l48 48l56 -55l-46 -48q16 -26 16 -62v-118zM324 122
q20 0 35.5 16.5t15.5 39.5v118q0 23 -15.5 39.5t-35.5 16.5h-119q-21 0 -36 -16.5t-15 -39.5v-118q0 -23 15 -39.5t36 -16.5h119z" />
    <glyph glyph-name="yen" unicode="&#xa5;" horiz-adv-x="484" 
d="M120 238l-103 238h92l89 -207q4 -10 8 -17.5l7 -13.5h58q7 10 15 30l89 208h91l-102 -237q0 -1 -1 -1h48v-64h-90q-17 -16 -37 -20v-28h127v-64h-127v-62h-85v62h-122v64h122v28q-11 2 -20 7t-17 13h-85v64h43z" />
    <glyph glyph-name="brokenbar" unicode="&#xa6;" horiz-adv-x="203" 
d="M143 136v-253h-83v253h83zM143 478v-253h-83v253h83z" />
    <glyph glyph-name="section" unicode="&#xa7;" horiz-adv-x="425" 
d="M380 223q0 -37 -28 -64q20 -20 25.5 -46.5t-4.5 -54.5q-6 -16 -17 -27t-26 -18t-31.5 -10t-32.5 -3h-219v74h208q18 0 28.5 5.5t13 13t-5 16t-26.5 15.5l-139 44h1q-29 9 -46 23t-26 30.5t-10 34t4 34.5q2 9 9 19t15 17q-23 20 -27 45t3 47q20 64 114 64h184v-74h-184
q-7 0 -19 -2t-15 -10q-6 -20 22 -29l137 -44q17 -5 33.5 -13.5t29.5 -21t21 -28.5t8 -37zM264 202q8 -2 17.5 2t13.5 10q5 14 -5.5 24t-24.5 15l-89 28q-16 5 -30 0t-17 -13q-6 -21 22 -30z" />
    <glyph glyph-name="dieresis" unicode="&#xa8;" horiz-adv-x="293" 
d="M23 442q0 20 13 33.5t33 13.5t33.5 -13.5t13.5 -33.5t-13.5 -33t-33.5 -13t-33 13t-13 33zM173 442q0 20 13 33.5t33 13.5t33.5 -13.5t13.5 -33.5t-13.5 -33t-33.5 -13t-33 13t-13 33z" />
    <glyph glyph-name="guillemotleft" unicode="&#xab;" horiz-adv-x="520" 
d="M280 80v-66l-164 92q-38 22 -57 42.5t-19 52.5q0 29 22 49t51 37l167 98v-68l-137 -81q-20 -12 -27.5 -19.5t-7.5 -15.5q0 -9 7 -18.5t30 -23.5zM480 80v-66l-164 92q-38 22 -57 42.5t-19 52.5q0 29 22 49t51 37l167 98v-68l-137 -81q-20 -12 -27.5 -19.5t-7.5 -15.5
q0 -9 7 -18.5t30 -23.5z" />
    <glyph glyph-name="logicalnot" unicode="&#xac;" horiz-adv-x="581" 
d="M531 233v-152h-83v78h-398v74h481z" />
    <glyph glyph-name="macron" unicode="&#xaf;" horiz-adv-x="496" 
d="M458 618v-90h-425v90h425z" />
    <glyph glyph-name="degree" unicode="&#xb0;" horiz-adv-x="241" 
d="M129 490q30 0 51 -19.5t21 -47.5v-17q0 -29 -21 -48t-51 -19h-17q-29 0 -50.5 19t-21.5 48v17q0 28 21.5 47.5t50.5 19.5h17zM97 406q0 -6 2.5 -10.5t7.5 -4.5h27q5 0 7.5 4.5t2.5 10.5v17q0 6 -2.5 10.5t-7.5 4.5h-27q-5 0 -7.5 -4.5t-2.5 -10.5v-17z" />
    <glyph glyph-name="plusminus" unicode="&#xb1;" horiz-adv-x="465" 
d="M415 299v-74h-141v-109h-84v109h-140v74h140v110h84v-110h141zM50 74h365v-74h-365v74z" />
    <glyph glyph-name="acute" unicode="&#xb4;" horiz-adv-x="212" 
d="M169 660l-47 -167h-73l35 167h85z" />
    <glyph glyph-name="mu" unicode="&#xb5;" horiz-adv-x="475" 
d="M391 92q0 -18 44 -18v-74q-38 0 -60.5 7t-34.5 15q-13 -9 -31.5 -15.5t-44.5 -6.5h-91q-12 0 -21 1t-18 4v-135h-84v470h84v-213q0 -20 8 -35.5t31 -17.5h91q21 0 32 15.5t12 36.5v214h83v-248v0z" />
    <glyph glyph-name="paragraph" unicode="&#xb6;" horiz-adv-x="482" 
d="M432 476v-529h-83v455h-49v-455h-83v218q0 15 -8 19t-25 4h-10q-37 0 -62.5 15.5t-41.5 38t-23 49t-7 49.5q0 21 7 43.5t21 41.5q36 51 98 51h266z" />
    <glyph glyph-name="periodcentered" unicode="&#xb7;" horiz-adv-x="173" 
d="M140 182q0 -22 -15.5 -37.5t-37.5 -15.5q-23 0 -38 15.5t-15 37.5t15 37.5t38 15.5q22 0 37.5 -15.5t15.5 -37.5z" />
    <glyph glyph-name="onesuperior" unicode="&#xb9;" horiz-adv-x="197" 
d="M95 476q20 0 38.5 -15t18.5 -44v-225h-62v225q0 2 -0.5 4t-5.5 2h-39v53h50z" />
    <glyph glyph-name="ordmasculine" unicode="&#xba;" horiz-adv-x="332" 
d="M217 476q29 0 49.5 -19.5t20.5 -45.5v-122q0 -27 -20.5 -46t-49.5 -19h-103q-29 0 -49 19t-20 46v122q0 26 20 45.5t49 19.5h103zM108 289q0 -5 1.5 -8.5t4.5 -3.5h103q4 0 6 3.5t2 8.5v122q0 12 -8 12h-103q-6 0 -6 -12v-122z" />
    <glyph glyph-name="guillemotright" unicode="&#xbb;" horiz-adv-x="520" 
d="M385 159q23 14 30 23.5t7 18.5q0 8 -7.5 15.5t-27.5 19.5l-137 81v68l167 -98q29 -17 51 -37t22 -49q0 -32 -19 -52.5t-57 -42.5l-164 -92v66zM185 159q23 14 30 23.5t7 18.5q0 8 -7.5 15.5t-27.5 19.5l-137 81v68l167 -98q29 -17 51 -37t22 -49q0 -32 -19 -52.5
t-57 -42.5l-164 -92v66z" />
    <glyph glyph-name="onequarter" unicode="&#xbc;" horiz-adv-x="646" 
d="M94 476q20 0 38.5 -15t18.5 -44v-225h-62v225q0 6 -5 6h-39v53h49zM439 529l-235 -569h-73l235 569h73zM474 253q16 14 32.5 24t37.5 10q24 0 39.5 -16t17.5 -42v-229h-63v49h-112q-26 0 -43 11.5t-23.5 28.5t-1.5 37.5t23 37.5zM517 214q-10 -9 -25 -24l-30 -29.5
l-26.5 -25.5l-13.5 -13q-7 -6 -7 -13t11 -7h112v117q0 6 -2.5 6.5t-6 -1.5t-7 -5.5t-5.5 -4.5z" />
    <glyph glyph-name="onehalf" unicode="&#xbd;" horiz-adv-x="671" 
d="M94 476q20 0 38.5 -15t18.5 -44v-225h-62v225q0 6 -5 6h-39v53h49zM439 529l-235 -569h-73l235 569h73zM542 283q36 0 59 -13.5t31 -37.5q7 -26 -6 -53.5t-56 -41.5l-112 -36q-12 -4 -21.5 -12.5t-4.5 -21.5q3 -8 16 -11t21 -3h157v-53h-157q-3 0 -15.5 0.5t-27.5 5
t-30 14t-22 26.5q-7 19 -4.5 35.5t12 30t25 24t34.5 17.5l110 34q26 8 20 30q-2 9 -13 11t-16 2h-119v53h119z" />
    <glyph glyph-name="threequarters" unicode="&#xbe;" horiz-adv-x="756" 
d="M550 529l-235 -569h-73l235 569h73zM585 253q16 14 32.5 24t37.5 10q24 0 39.5 -16t17.5 -42v-229h-63v49h-112q-26 0 -43 11.5t-23.5 28.5t-1.5 37.5t23 37.5zM628 214q-10 -9 -25 -24l-30 -29.5l-26.5 -25.5l-13.5 -13q-7 -6 -7 -13t11 -7h112v117q0 6 -2.5 6.5
t-6 -1.5t-7 -5.5t-5.5 -4.5zM267 396q0 -20 -11 -39q16 -12 24.5 -30.5t8.5 -39.5q0 -19 -7 -36t-19.5 -29.5t-29 -20t-34.5 -7.5h-166v53h166q11 0 19.5 11.5t8.5 28.5q0 13 -5 23.5t-19 10.5h-91v48h80q8 0 10 9t2 17q0 11 -4 19.5t-12 8.5h-135v53h135q16 0 30.5 -6.5
t25 -17.5t17 -25.5t6.5 -30.5z" />
    <glyph glyph-name="questiondown" unicode="&#xbf;" horiz-adv-x="378" 
d="M313 -41q-6 -13 -16.5 -26t-26 -23.5t-37 -17.5t-49.5 -7q-27 0 -51 10.5t-42.5 29t-29.5 42.5t-11 51q0 25 11.5 49t31.5 43q20 20 32.5 40.5t12.5 46.5v35h84v-35q0 -42 -18 -75.5t-54 -66.5q-10 -8 -13 -18.5t-3 -18.5q0 -20 13.5 -39.5t36.5 -19.5q37 0 54 33
q3 7 5 16.5l4 18.5q2 11 3 22h82q0 -1 -0.5 -10t-2.5 -22.5t-5.5 -29t-10.5 -28.5zM224 312q0 -20 -13 -33.5t-33 -13.5t-33.5 13.5t-13.5 33.5t13.5 33t33.5 13t33 -13t13 -33z" />
    <glyph glyph-name="Eth" unicode="&#xd0;" horiz-adv-x="567" 
d="M95 282v194h270q34 0 62 -12t48 -33t31 -50t11 -63v-179q0 -67 -39.5 -103t-112.5 -36h-270v208h-46v74h46zM180 400v-118h163v-74h-163v-132h185q31 0 49 15t18 48v179q0 39 -17.5 60.5t-49.5 21.5h-185z" />
    <glyph glyph-name="Thorn" unicode="&#xde;" horiz-adv-x="403" 
d="M214 413q31 0 58.5 -9.5t47.5 -27.5t31.5 -45t11.5 -61q0 -33 -11 -60t-31 -46t-48 -29.5t-62 -10.5q-14 0 -31 1.5t-45 6.5v-132h-85v493h85v-89q17 6 37.5 7.5t41.5 1.5zM212 200q66 0 66 70q0 31 -14.5 50t-49.5 19q-21 0 -41 -4t-38 -10v-114q36 -11 77 -11z" />
    <glyph glyph-name="germandbls" unicode="&#xdf;" horiz-adv-x="464" 
d="M50 329q0 46 18.5 76t44.5 47t54 23.5t47 6.5q26 0 55.5 -9t54 -26t41 -42t16.5 -58q0 -20 -7 -40.5t-21 -37.5q32 -20 49 -52t17 -72q0 -42 -17.5 -70t-45 -44.5t-62.5 -23.5t-70 -7q-10 0 -21.5 0.5t-34.5 2.5l8 82q21 -3 48.5 -4t52 4.5t42 19.5t17.5 40
q0 35 -23 56.5t-58 21.5h-33v68h32q18 0 31 18t13 38q0 17 -7 29t-18.5 19t-25.5 10t-28 3q-37 0 -60.5 -23t-25.5 -57v-470h-83v471v0z" />
    <glyph glyph-name="icircumflex" unicode="&#xee;" horiz-adv-x="184" 
d="M42 385h-81l80 104q9 12 24.5 18.5t32.5 6.5q34 0 55 -27l75 -102h-80l-49 69q-3 2 -5 0zM134 340v-340h-84v340h84z" />
    <glyph glyph-name="idieresis" unicode="&#xef;" horiz-adv-x="184" 
d="M134 340v-340h-84v340h84zM-27 442q0 20 13 33.5t33 13.5t33.5 -13.5t13.5 -33.5t-13.5 -33t-33.5 -13t-33 13t-13 33zM123 442q0 20 13 33.5t33 13.5t33.5 -13.5t13.5 -33.5t-13.5 -33t-33.5 -13t-33 13t-13 33z" />
    <glyph glyph-name="eth" unicode="&#xf0;" horiz-adv-x="458" 
d="M340 277l23 -34.5t22 -39t16.5 -42t6.5 -42.5q0 -26 -9.5 -48t-26 -37.5t-39.5 -24.5t-49 -9h-114q-21 0 -42.5 9t-39 24t-28 35.5t-10.5 43.5q0 31 16 58t38 49l110 106l-28 36l-62 -60l-50 51l71 69l-45 55l55 50l42 -55l43 41l49 -50l-49 -50zM284 66q21 0 37 15.5
t16 37.5q0 15 -6 31.5t-15 32t-19 30l-18 26.5l-21 30l-100 -98q-12 -11 -22 -26.5t-10 -32.5t14.5 -31.5t31.5 -14.5h112z" />
    <glyph glyph-name="thorn" unicode="&#xfe;" horiz-adv-x="443" 
d="M393 126q0 -53 -25.5 -88.5t-80.5 -37.5h-154v-127h-83v601h83v-119h147q48 -1 79.5 -30t33.5 -81v-118zM310 243q0 16 -12.5 27t-28.5 11h-136v-207h139q21 0 29 16t9 36v117z" />
    <glyph glyph-name="dotlessi" unicode="&#x131;" horiz-adv-x="184" 
d="M134 340v-340h-84v340h84z" />
    <glyph glyph-name="Lslash" unicode="&#x141;" horiz-adv-x="505" 
d="M154 476v-177l26.5 15l29 15.5l27 14l20.5 10.5v-84l-103 -56v-76q0 -38 10 -49q9 -13 41 -13h250v-76h-250q-46 0 -73 13.5t-41 33.5t-18 44.5t-4 46.5v32l-36 -18v81l36 20v223h85z" />
    <glyph glyph-name="lslash" unicode="&#x142;" horiz-adv-x="317" 
d="M267 274l-81 -45v-229h-84v185l-30 -15.5t-23 -12.5v82l53 28v209h84v-164l81 44v-82z" />
    <glyph glyph-name="caron" unicode="&#x2c7;" horiz-adv-x="334" 
d="M167 445q2 -3 5 0l49 69h80l-75 -102q-21 -27 -55 -27q-17 0 -32.5 6.5t-24.5 18.5l-80 104h81z" />
    <glyph glyph-name="breve" unicode="&#x2d8;" horiz-adv-x="318" 
d="M202 460q10 17 13 39h69q-2 -9 -8 -27t-17 -35q-37 -61 -101 -61q-32 0 -58 16.5t-43 44.5q-10 17 -15.5 35.5t-7.5 26.5h67q2 -8 6 -20t8 -19q19 -32 43 -32q25 0 44 32z" />
    <glyph glyph-name="uni0E00" unicode="&#xe00;" 
 />
    <glyph glyph-name="fraction" unicode="&#x2044;" horiz-adv-x="292" 
d="M307 528l-234 -567h-90l236 567h88z" />
    <glyph glyph-name="uni2113" unicode="&#x2113;" horiz-adv-x="379" 
d="M102 380q0 28 10.5 50.5t27.5 38t37.5 24t40.5 8.5q28 0 50.5 -11.5t38 -30t23.5 -41t8 -44.5q0 -23 -2.5 -50.5t-10.5 -53t-23.5 -46.5t-41.5 -32l-75 -31v-161h-83v125l-54 -21l-31 69l85 35v172zM185 239l32 14q24 12 30.5 41.5t7.5 89.5q0 8 -1.5 17.5t-5.5 17.5
t-12 13t-21 5q-8 0 -13.5 -5t-9 -12t-5.5 -15.5t-2 -15.5v-150z" />
    <glyph glyph-name="Ohm" unicode="&#x2126;" horiz-adv-x="545" 
d="M56 276q0 44 17 81.5t46.5 65t68.5 43t84 15.5t84 -15.5t68 -43t46 -65t17 -81.5q0 -50 -24.5 -95t-64.5 -76v-30h97v-75h-182v147q44 24 66 58t22 71q0 28 -10 52t-27.5 41t-41 27t-50.5 10t-51 -10t-41.5 -27t-28 -41t-10.5 -52q0 -38 23 -72t68 -59v-145h-183v75h98
v30q-44 31 -67.5 75t-23.5 96z" />
    <glyph glyph-name="estimated" unicode="&#x212e;" horiz-adv-x="373" 
d="M221 387q24 0 44 -10.5t34.5 -27.5t22 -38.5t7.5 -43.5q0 -21 -7.5 -40t-21 -33.5t-33.5 -23.5t-44 -10h-90v-12q0 -34 15 -53t48 -21h94v-74h-94q-71 0 -108.5 40.5t-37.5 115.5v119q0 52 36 81t89 31h46zM133 227h80q17 0 28 10.5t11 33.5q0 15 -10 28.5t-31 13.5h-35
q-18 0 -30 -9.5t-13 -29.5v-47z" />
    <glyph glyph-name="partialdiff" unicode="&#x2202;" horiz-adv-x="373" 
d="M234 450q24 9 41 5.5t27.5 -15.5t15.5 -31.5t5 -42.5v-201q0 -36 -9.5 -68t-29 -55.5t-49 -37t-70.5 -13.5q-21 0 -41.5 4.5t-37 15t-26.5 27.5t-10 42q0 30 19 62t47.5 59.5t61.5 48.5t62 29v96l-77 -82l-47 49l49 52q30 30 45.5 41t23.5 15zM134 68q4 -7 13 -9.5
t18 -2.5q22 0 36 8.5t22.5 23t12 33t4.5 39.5v53q-8 -3 -20.5 -12.5t-26 -22.5t-26.5 -28.5t-22 -30.5t-12.5 -28.5t1.5 -22.5z" />
    <glyph glyph-name="Delta" unicode="&#x2206;" horiz-adv-x="564" 
d="M279 525l262 -525h-525zM279 344l-135 -270h269z" />
    <glyph glyph-name="product" unicode="&#x220f;" horiz-adv-x="461" 
d="M411 479v-555h-83v481h-195v-481h-83v555h361z" />
    <glyph glyph-name="summation" unicode="&#x2211;" horiz-adv-x="506" 
d="M442 478v-74h-295l118 -109q12 -11 20.5 -23.5t9.5 -30.5q0 -17 -8.5 -30.5t-20.5 -25.5l-126 -138h302v-74h-326q-23 0 -40 10.5t-24.5 27t-4.5 36.5t20 38l140 153q2 2 0 5l-149 136q-18 16 -22 33t2 32q6 13 16.5 20t22.5 10t22.5 3.5t16.5 0.5h326z" />
    <glyph glyph-name="minus" unicode="&#x2212;" horiz-adv-x="394" 
d="M20 149v62h352v-62h-352z" />
    <glyph glyph-name="radical" unicode="&#x221a;" horiz-adv-x="438" 
d="M331 476h88l-189 -476q-5 -10 -16 -16t-23 -6q-14 0 -24 6.5t-14 17.5l-28 75l-22.5 59.5t-16.5 43.5h-57v74h64q30 0 46.5 -14t21.5 -26q4 -13 9 -25q4 -11 9.5 -24t10.5 -27l3 -47l3 47z" />
    <glyph glyph-name="infinity" unicode="&#x221e;" horiz-adv-x="622" 
d="M489 345q83 0 83 -74v-92q0 -14 -2.5 -30t-10 -29t-21.5 -21.5t-38 -8.5h-60q-38 0 -56 7t-34 25l-39 48l-25 -30l-15 -18q-16 -17 -35 -24.5t-55 -7.5h-59q-21 0 -34.5 7.5t-22 20t-12 28.5t-3.5 33v92q0 74 83 74h71q27 0 46.5 -12t35.5 -32l25 -30l24 30
q14 18 33.5 30t48.5 14h72zM270 220l-52 60q-7 7 -16 7h-69q-7 0 -11 -2.5t-5 -13.5v-100q0 -23 18 -23h46q22 0 28 3t11 9zM504 271q0 10 -3.5 13t-12.5 3h-58q-11 0 -18.5 -1t-11.5 -6l-49 -60l49 -59q6 -7 12 -10t28 -3h43q14 0 17.5 6t3.5 17v100z" />
    <glyph glyph-name="integral" unicode="&#x222b;" horiz-adv-x="425" 
d="M220 414q5 28 17.5 48t28.5 33.5t34.5 20t35.5 6.5q15 0 31 -4.5t31 -13.5t27.5 -23.5t19.5 -33.5l-70 -25q-5 14 -17.5 20t-21.5 6l-5.5 -0.5t-13 -5t-14.5 -14t-10 -27.5q-2 -14 -7 -39l-10.5 -54t-12 -59l-11.5 -54.5l-8.5 -41.5t-3.5 -19v1q-7 -33 -18 -69.5t-30 -67
t-48 -51t-71 -20.5q-20 0 -36.5 6.5t-29 15.5t-21.5 19.5t-13 18.5l65 34q1 -1 9.5 -10.5t25.5 -9.5q25 0 41 15.5t26 38.5t16 48.5l11 45.5q0 1 3.5 16.5t8.5 40.5l11 55l12 59.5t10.5 54.5t7.5 39z" />
    <glyph glyph-name="approxequal" unicode="&#x2248;" horiz-adv-x="374" 
d="M116 295q47 9 93 -28q14 -11 24.5 -14t19 0.5t14.5 12.5t11 21l55 -28l-7.5 -11.5t-14 -18.5t-21 -18.5t-27.5 -12.5q-47 -11 -95 28q-24 23 -44 14t-37 -34l-51 28q0 1 5.5 9.5t16 19t25 20t33.5 12.5zM116 176q47 9 93 -28q14 -11 24.5 -14t19 0.5t14.5 12.5t11 21
l55 -28l-7.5 -11.5t-14 -18.5t-21 -18.5t-27.5 -12.5q-47 -11 -95 28q-24 23 -44 14t-37 -34l-51 28q0 1 5.5 9.5t16 19t25 20t33.5 12.5z" />
    <glyph glyph-name="notequal" unicode="&#x2260;" horiz-adv-x="434" 
d="M162 159l25 61h-137v74h167l43 102h88l-42 -102h78v-74h-108l-25 -61h133v-74h-164l-50 -124h-90l51 124h-81v74h112z" />
    <glyph glyph-name="lessequal" unicode="&#x2264;" horiz-adv-x="449" 
d="M399 58v-58h-341v58h341zM163 197q16 -6 45 -15l60.5 -18.5l61 -18l47.5 -13.5v-61q-12 3 -42.5 12l-67 20l-72 22t-55.5 18q-39 14 -64.5 33t-25.5 51q0 15 9 27.5t22.5 22.5t29 17t28.5 11l238 76v-62l-216 -69q-27 -8 -35.5 -14.5t-8.5 -8.5t0.5 -5t5 -6.5t14 -8
t26.5 -10.5z" />
    <glyph glyph-name="greaterequal" unicode="&#x2265;" horiz-adv-x="449" 
d="M401 58v-58h-341v58h341zM296 197q17 6 26.5 10.5t14 8t5 6.5t0.5 5t-8.5 8.5t-35.5 14.5l-216 69v62l238 -76q13 -4 28.5 -11t29 -17t22.5 -22.5t9 -27.5q0 -32 -25.5 -51t-64.5 -33q-20 -7 -55.5 -18l-72 -22l-67 -20t-42.5 -12v61l47.5 13.5l61 18l60 18.5t45.5 15z
" />
    <glyph glyph-name="lozenge" unicode="&#x25ca;" horiz-adv-x="565" 
d="M319 0h-71l-197 242l197 241h71l197 -241zM154 243l130 -160l129 159l-130 160z" />
    <glyph glyph-name="dottedcircle" unicode="&#x25cc;" horiz-adv-x="548" 
d="M456 298q0 -14 -10.5 -24.5t-24.5 -10.5t-24 10.5t-10 24.5t10 24t24 10t24.5 -10t10.5 -24zM367 362q0 -14 -10 -24t-24 -10t-24.5 10t-10.5 24q0 15 10.5 25.5t24.5 10.5t24 -10.5t10 -25.5zM260 367q0 -14 -10.5 -24.5t-25.5 -10.5q-14 0 -24 10.5t-10 24.5t10 24.5
t24 10.5q15 0 25.5 -10.5t10.5 -24.5zM164 309q0 -14 -10 -24.5t-24 -10.5q-15 0 -25.5 10.5t-10.5 24.5t10.5 24t25.5 10q14 0 24 -10t10 -24zM119 200q0 -14 -10.5 -24t-24.5 -10t-24 10t-10 24t10 24.5t24 10.5t24.5 -10.5t10.5 -24.5zM161 92q0 -14 -10 -24.5t-24 -10.5
t-24.5 10.5t-10.5 24.5t10.5 24.5t24.5 10.5t24 -10.5t10 -24.5zM252 29q0 -14 -10.5 -24t-24.5 -10t-24 10t-10 24t10 24.5t24 10.5t24.5 -10.5t10.5 -24.5zM360 28q0 -14 -10 -24t-24 -10q-15 0 -25 10t-10 24t10 24.5t25 10.5q14 0 24 -10.5t10 -24.5zM454 88
q0 -14 -10.5 -24t-24.5 -10q-15 0 -25 10t-10 24t10 24.5t25 10.5q14 0 24.5 -10.5t10.5 -24.5zM498 197q0 -14 -10 -24.5t-24 -10.5t-24.5 10.5t-10.5 24.5t10.5 24t24.5 10t24 -10t10 -24z" />
    <glyph glyph-name="fi.001" horiz-adv-x="374" 
d="M242 484v-74h-70q-21 0 -30 -11.5t-9 -38.5v-20h191v-340h-84v266h-107v-266h-83v360q0 39 11 63t29 37.5t39.5 18.5t42.5 5h70z" />
    <glyph glyph-name="fl.001" horiz-adv-x="398" 
d="M348 484v-484h-84v410h-92q-21 0 -30 -11.5t-9 -38.5v-20h59v-74h-59v-266h-83v360q0 39 11 63t29 37.5t39.5 18.5t42.5 5h176z" />
    <glyph glyph-name="franc" unicode="&#x20a3;" horiz-adv-x="520" 
d="M99 146v183q0 31 10 58t28.5 47t44.5 31t59 11h244v-76h-244q-30 0 -43.5 -20.5t-13.5 -50.5v-65h210v-75h-210v-43h170v-69h-170v-77h-85v77h-39v69h39z" />
    <glyph glyph-name="dong" unicode="&#x20ab;" horiz-adv-x="496" 
d="M461 385h-68v-385h-222q-54 0 -87.5 36t-33.5 91v115q0 24 10 44t27 34.5t39.5 23t47.5 8.5h136v33h-118v64h118v59h83v-59h68v-64zM310 278h-136q-16 0 -27.5 -10.5t-13.5 -27.5v-113q0 -20 7.5 -35.5t30.5 -17.5h139v204zM458 -39v-80h-425v80h425z" />
    <glyph glyph-name="Dcroat" unicode="&#x110;" horiz-adv-x="567" 
d="M95 282v194h270q34 0 62 -12t48 -33t31 -50t11 -63v-179q0 -67 -39.5 -103t-112.5 -36h-270v208h-46v74h46zM180 400v-118h163v-74h-163v-132h185q31 0 49 15t18 48v179q0 39 -17.5 60.5t-49.5 21.5h-185z" />
    <glyph glyph-name="dcroat" unicode="&#x111;" horiz-adv-x="496" 
d="M461 385h-68v-385h-222q-54 0 -87.5 36t-33.5 91v115q0 24 10 44t27 34.5t39.5 23t47.5 8.5h136v33h-118v64h118v59h83v-59h68v-64zM310 278h-136q-16 0 -27.5 -10.5t-13.5 -27.5v-113q0 -20 7.5 -35.5t30.5 -17.5h139v204z" />
    <glyph glyph-name="Idotaccent" unicode="&#x130;" horiz-adv-x="235" 
d="M160 476v-476h-85v476h85zM72 547q0 20 13 33.5t33 13.5t33.5 -13.5t13.5 -33.5t-13.5 -33t-33.5 -13t-33 13t-13 33z" />
    <glyph glyph-name="Ohorn" unicode="&#x1a0;" horiz-adv-x="555" 
d="M50 307q0 40 20.5 72.5t52 56t70.5 36.5t77 13q44 0 84 -15t75 -44l1 -1q10 13 10 37v49h85v-49q0 -32 -12.5 -57.5t-33.5 -41.5q7 -14 9 -28t2 -28v-136q0 -40 -20 -73t-52 -56t-71 -36t-77 -13q-37 0 -75 12.5t-69.5 35.5t-52.5 56t-23 74v136zM135 171q0 -23 13 -41.5
t33.5 -32t44 -21t44.5 -7.5t44 7t43 20t33 32t15 43v136q0 23 -13 41.5t-33.5 32t-44 21t-44.5 7.5t-44 -7t-42.5 -20.5t-33.5 -32t-15 -42.5v-136z" />
    <glyph glyph-name="ohorn" unicode="&#x1a1;" horiz-adv-x="483" 
d="M274 340q25 0 46 -9t37 -24q10 10 10 36v48h84v-48q0 -37 -15.5 -63.5t-42.5 -41.5q1 -4 1 -7.5v-6.5v-108q0 -24 -9.5 -45t-26 -37t-38 -25t-46.5 -9h-104q-25 0 -47 9t-38 25t-25.5 37t-9.5 45v108q0 24 9.5 45t25.5 37t38 25t47 9h104zM133 116q0 -17 11 -29.5
t26 -12.5h104q15 0 26 12.5t11 29.5v108q0 17 -11 29.5t-26 12.5h-104q-15 0 -26 -12.5t-11 -29.5v-108z" />
    <glyph glyph-name="Uhorn" unicode="&#x1af;" horiz-adv-x="647" 
d="M510 476v-54q9 0 18 8.5t9 31.5v49h85v-49q0 -20 -10 -40t-26 -35.5t-36 -25.5t-40 -10v-181q0 -36 -12 -67t-33.5 -54t-52.5 -36t-69 -13h-132q-36 0 -65.5 13t-50.5 35.5t-32.5 53.5t-12.5 67v307h85v-307q0 -38 17 -65.5t59 -27.5h132q30 0 46.5 13.5t24.5 30t9.5 32
t1.5 18.5v306h85z" />
    <glyph glyph-name="uhorn" unicode="&#x1b0;" horiz-adv-x="516" 
d="M496 391v-48q0 -20 -9.5 -39.5t-24.5 -35t-34 -25t-38 -9.5v-106q0 -27 -9.5 -50t-26.5 -40.5t-40 -27.5t-51 -10h-91q-56 0 -89 36t-33 92v212h83v-212q0 -20 7.5 -36t31.5 -18h91q22 0 32 16.5t11 37.5v212h84v-41q17 0 25 12t8 32v48h73z" />
    <glyph glyph-name="oneeighth" unicode="&#x215b;" horiz-adv-x="707" 
d="M631 186q0 -11 -5.5 -22t-17.5 -18q14 -6 24 -22.5t10 -31.5v-16q0 -15 -6.5 -29t-17 -24.5t-24 -16.5t-28.5 -6h-111q-31 0 -53.5 23t-22.5 53v16q0 15 10.5 32t23.5 22q-11 6 -17 17.5t-6 22.5v26q0 29 22 49.5t53 20.5h90q32 0 54 -20.5t22 -49.5v-26zM453 182
q0 -8 3.5 -13.5t8.5 -5.5h90q6 0 10 5.5t4 13.5v30q0 7 -4 12t-10 5h-90q-5 0 -8.5 -5t-3.5 -12v-30zM579 96q0 9 -4 15.5t-9 6.5h-111q-5 0 -9.5 -6.5t-4.5 -15.5v-20q0 -9 4.5 -16t9.5 -7h111q5 0 9 7t4 16v20zM94 476q20 0 38.5 -15t18.5 -44v-225h-62v225q0 6 -5 6h-39
v53h49zM439 529l-235 -569h-73l235 569h73z" />
    <glyph glyph-name="threeeighths" unicode="&#x215c;" horiz-adv-x="797" 
d="M539 529l-235 -569h-73l235 569h73zM267 396q0 -20 -11 -39q16 -12 24.5 -30.5t8.5 -39.5q0 -19 -7 -36t-19.5 -29.5t-29 -20t-34.5 -7.5h-166v53h166q11 0 19.5 11.5t8.5 28.5q0 13 -5 23.5t-19 10.5h-91v48h80q8 0 10 9t2 17q0 11 -4 19.5t-12 8.5h-135v53h135
q16 0 30.5 -6.5t25 -17.5t17 -25.5t6.5 -30.5zM721 186q0 -11 -5.5 -22t-17.5 -18q14 -6 24 -22.5t10 -31.5v-16q0 -15 -6.5 -29t-17 -24.5t-24 -16.5t-28.5 -6h-111q-31 0 -53.5 23t-22.5 53v16q0 15 10.5 32t23.5 22q-11 6 -17 17.5t-6 22.5v26q0 29 22 49.5t53 20.5h90
q32 0 54 -20.5t22 -49.5v-26zM543 182q0 -8 3.5 -13.5t8.5 -5.5h90q6 0 10 5.5t4 13.5v30q0 7 -4 12t-10 5h-90q-5 0 -8.5 -5t-3.5 -12v-30zM669 96q0 9 -4 15.5t-9 6.5h-111q-5 0 -9.5 -6.5t-4.5 -15.5v-20q0 -9 4.5 -16t9.5 -7h111q5 0 9 7t4 16v20z" />
    <glyph glyph-name="fiveeighths" unicode="&#x215d;" horiz-adv-x="827" 
d="M559 529l-235 -569h-73l235 569h73zM273 476v-53h-148q-8 0 -18 -5.5t-10 -24.5q0 -15 5 -23t25 -8h94q38 0 59 -22.5t21 -60.5q0 -19 -7 -34.5t-18.5 -27t-26 -18t-28.5 -6.5h-175v53h175q5 0 11.5 8.5t6.5 24.5q0 20 -6 25t-12 5h-94q-39 0 -66 20t-27 64q0 38 27 60
t64 23h148zM751 186q0 -11 -5.5 -22t-17.5 -18q14 -6 24 -22.5t10 -31.5v-16q0 -15 -6.5 -29t-17 -24.5t-24 -16.5t-28.5 -6h-111q-31 0 -53.5 23t-22.5 53v16q0 15 10.5 32t23.5 22q-11 6 -17 17.5t-6 22.5v26q0 29 22 49.5t53 20.5h90q32 0 54 -20.5t22 -49.5v-26z
M573 182q0 -8 3.5 -13.5t8.5 -5.5h90q6 0 10 5.5t4 13.5v30q0 7 -4 12t-10 5h-90q-5 0 -8.5 -5t-3.5 -12v-30zM699 96q0 9 -4 15.5t-9 6.5h-111q-5 0 -9.5 -6.5t-4.5 -15.5v-20q0 -9 4.5 -16t9.5 -7h111q5 0 9 7t4 16v20z" />
    <glyph glyph-name="seveneighths" unicode="&#x215e;" horiz-adv-x="746" 
d="M268 448q6 -11 7 -29.5t-15 -45.5l-21 -32.5l-30 -47.5l-32.5 -52.5l-29.5 -46.5h-71l67 108l63 99q2 3 5 12.5t-6 9.5h-169v53h176q40 0 56 -28zM489 529l-235 -569h-73l235 569h73zM681 186q0 -11 -5.5 -22t-17.5 -18q14 -6 24 -22.5t10 -31.5v-16q0 -15 -6.5 -29
t-17 -24.5t-24 -16.5t-28.5 -6h-111q-31 0 -53.5 23t-22.5 53v16q0 15 10.5 32t23.5 22q-11 6 -17 17.5t-6 22.5v26q0 29 22 49.5t53 20.5h90q32 0 54 -20.5t22 -49.5v-26zM503 182q0 -8 3.5 -13.5t8.5 -5.5h90q6 0 10 5.5t4 13.5v30q0 7 -4 12t-10 5h-90q-5 0 -8.5 -5
t-3.5 -12v-30zM629 96q0 9 -4 15.5t-9 6.5h-111q-5 0 -9.5 -6.5t-4.5 -15.5v-20q0 -9 4.5 -16t9.5 -7h111q5 0 9 7t4 16v20z" />
    <glyph glyph-name="space" unicode=" " horiz-adv-x="216" 
 />
    <glyph glyph-name="onethird" unicode="&#x2153;" horiz-adv-x="705" 
d="M94 476q20 0 38.5 -15t18.5 -44v-225h-62v225q0 6 -5 6h-39v53h49zM439 529l-235 -569h-73l235 569h73zM633 202q0 -20 -11 -39q16 -12 24.5 -30.5t8.5 -39.5q0 -19 -7 -36t-19.5 -29.5t-29 -20t-34.5 -7.5h-166v53h166q11 0 19.5 11.5t8.5 28.5q0 13 -5 23.5t-19 10.5
h-91v48h80q8 0 10 9t2 17q0 11 -4 19.5t-12 8.5h-135v53h135q16 0 30.5 -6.5t25 -17.5t17 -25.5t6.5 -30.5z" />
    <glyph glyph-name="twothirds" unicode="&#x2154;" horiz-adv-x="848" 
d="M579 529l-235 -569h-73l235 569h73zM773 202q0 -20 -11 -39q16 -12 24.5 -30.5t8.5 -39.5q0 -19 -7 -36t-19.5 -29.5t-29 -20t-34.5 -7.5h-166v53h166q11 0 19.5 11.5t8.5 28.5q0 13 -5 23.5t-19 10.5h-91v48h80q8 0 10 9t2 17q0 11 -4 19.5t-12 8.5h-135v53h135
q16 0 30.5 -6.5t25 -17.5t17 -25.5t6.5 -30.5zM205 476q36 0 59 -13.5t31 -37.5q7 -26 -6 -53.5t-56 -41.5l-112 -36q-12 -4 -21.5 -12.5t-4.5 -21.5q3 -8 16 -11t21 -3h157v-53h-157q-3 0 -15.5 0.5t-27.5 5t-30 14t-22 26.5q-7 19 -4.5 35.5t12 30t25 24t34.5 17.5l110 34
q26 8 20 30q-2 9 -13 11t-16 2h-119v53h119z" />
    <glyph glyph-name="uni2155" unicode="&#x2155;" horiz-adv-x="704" 
d="M611 283v-53h-148q-8 0 -18 -5.5t-10 -24.5q0 -15 5 -23t25 -8h94q38 0 59 -22.5t21 -60.5q0 -19 -7 -34.5t-18.5 -27t-26 -18t-28.5 -6.5h-175v53h175q5 0 11.5 8.5t6.5 24.5q0 20 -6 25t-12 5h-94q-39 0 -66 20t-27 64q0 38 27 60t64 23h148zM94 476q20 0 38.5 -15
t18.5 -44v-225h-62v225q0 6 -5 6h-39v53h49zM439 529l-235 -569h-73l235 569h73z" />
    <glyph glyph-name="uni2156" unicode="&#x2156;" horiz-adv-x="834" 
d="M741 283v-53h-148q-8 0 -18 -5.5t-10 -24.5q0 -15 5 -23t25 -8h94q38 0 59 -22.5t21 -60.5q0 -19 -7 -34.5t-18.5 -27t-26 -18t-28.5 -6.5h-175v53h175q5 0 11.5 8.5t6.5 24.5q0 20 -6 25t-12 5h-94q-39 0 -66 20t-27 64q0 38 27 60t64 23h148zM569 529l-235 -569h-73
l235 569h73zM205 476q36 0 59 -13.5t31 -37.5q7 -26 -6 -53.5t-56 -41.5l-112 -36q-12 -4 -21.5 -12.5t-4.5 -21.5q3 -8 16 -11t21 -3h157v-53h-157q-3 0 -15.5 0.5t-27.5 5t-30 14t-22 26.5q-7 19 -4.5 35.5t12 30t25 24t34.5 17.5l110 34q26 8 20 30q-2 9 -13 11t-16 2
h-119v53h119z" />
    <glyph glyph-name="uni2157" unicode="&#x2157;" horiz-adv-x="804" 
d="M711 283v-53h-148q-8 0 -18 -5.5t-10 -24.5q0 -15 5 -23t25 -8h94q38 0 59 -22.5t21 -60.5q0 -19 -7 -34.5t-18.5 -27t-26 -18t-28.5 -6.5h-175v53h175q5 0 11.5 8.5t6.5 24.5q0 20 -6 25t-12 5h-94q-39 0 -66 20t-27 64q0 38 27 60t64 23h148zM539 529l-235 -569h-73
l235 569h73zM267 396q0 -20 -11 -39q16 -12 24.5 -30.5t8.5 -39.5q0 -19 -7 -36t-19.5 -29.5t-29 -20t-34.5 -7.5h-166v53h166q11 0 19.5 11.5t8.5 28.5q0 13 -5 23.5t-19 10.5h-91v48h80q8 0 10 9t2 17q0 11 -4 19.5t-12 8.5h-135v53h135q16 0 30.5 -6.5t25 -17.5t17 -25.5
t6.5 -30.5z" />
    <glyph glyph-name="uni2158" unicode="&#x2158;" horiz-adv-x="824" 
d="M731 283v-53h-148q-8 0 -18 -5.5t-10 -24.5q0 -15 5 -23t25 -8h94q38 0 59 -22.5t21 -60.5q0 -19 -7 -34.5t-18.5 -27t-26 -18t-28.5 -6.5h-175v53h175q5 0 11.5 8.5t6.5 24.5q0 20 -6 25t-12 5h-94q-39 0 -66 20t-27 64q0 38 27 60t64 23h148zM559 529l-235 -569h-73
l235 569h73zM149 447q16 14 32.5 24t37.5 10q24 0 39.5 -16t17.5 -42v-229h-63v49h-112q-26 0 -43 11.5t-23.5 28.5t-1.5 37.5t23 37.5zM192 408q-10 -9 -25 -24l-30 -29.5l-26.5 -25.5l-13.5 -13q-7 -6 -7 -13t11 -7h112v117q0 6 -2.5 6.5t-6 -1.5t-7 -5.5t-5.5 -4.5z" />
    <glyph glyph-name="uni2159" unicode="&#x2159;" horiz-adv-x="708" 
d="M94 476q20 0 38.5 -15t18.5 -44v-225h-62v225q0 6 -5 6h-39v53h49zM439 529l-235 -569h-73l235 569h73zM554 282q24 0 41 -7.5t28.5 -18.5t17 -24t5.5 -24v-10h-62v10q0 3 -5.5 12t-24.5 9h-67q-17 0 -25 -7t-8 -30v-30h127q10 0 23.5 -4.5t25.5 -14.5t20.5 -24.5
t8.5 -35.5q0 -20 -7.5 -35.5t-20 -26t-28 -16t-31.5 -5.5h-94q-85 0 -86 84v108q0 43 25 65.5t70 24.5h67zM454 114v-38q0 -14 3.5 -18.5t17.5 -4.5h97q7 0 16 7t9 25q0 11 -6.5 20t-16.5 9h-120z" />
    <glyph glyph-name="uni215A" unicode="&#x215a;" horiz-adv-x="779" 
d="M676 282q24 0 41 -7.5t28.5 -18.5t17 -24t5.5 -24v-10h-62v10q0 3 -5.5 12t-24.5 9h-67q-17 0 -25 -7t-8 -30v-30h127q10 0 23.5 -4.5t25.5 -14.5t20.5 -24.5t8.5 -35.5q0 -20 -7.5 -35.5t-20 -26t-28 -16t-31.5 -5.5h-94q-85 0 -86 84v108q0 43 25 65.5t70 24.5h67z
M576 114v-38q0 -14 3.5 -18.5t17.5 -4.5h97q7 0 16 7t9 25q0 11 -6.5 20t-16.5 9h-120zM559 529l-235 -569h-73l235 569h73zM273 476v-53h-148q-8 0 -18 -5.5t-10 -24.5q0 -15 5 -23t25 -8h94q38 0 59 -22.5t21 -60.5q0 -19 -7 -34.5t-18.5 -27t-26 -18t-28.5 -6.5h-175v53
h175q5 0 11.5 8.5t6.5 24.5q0 20 -6 25t-12 5h-94q-39 0 -66 20t-27 64q0 38 27 60t64 23h148z" />
    <glyph glyph-name="uni0E4D.alt1.001" 
d="M-255 607q30 0 51 -19.5t21 -47.5v-17q0 -29 -21 -48t-51 -19h-17q-29 0 -50.5 19t-21.5 48v17q0 28 21.5 47.5t50.5 19.5h17zM-287 523q0 -6 2.5 -10.5t7.5 -4.5h27q5 0 7.5 4.5t2.5 10.5v17q0 6 -2.5 10.5t-7.5 4.5h-27q-5 0 -7.5 -4.5t-2.5 -10.5v-17z" />
    <glyph glyph-name="uni0E47.alt1.001" 
d="M-184 549q0 -34 -22 -56.5t-57 -22.5q-25 0 -35.5 9t-15.5 16q-5 -7 -16.5 -16t-34.5 -9q-34 0 -55.5 22t-23.5 58v24q0 15 5.5 29.5t18 26t32.5 19t49 7.5h154v-55h-154q-13 0 -25 -4.5t-12 -19.5v-34q0 -5 3 -12.5t13 -7.5t13.5 6t3.5 14v17h59v-17q0 -7 4 -13.5
t12 -6.5q10 0 13.5 6t3.5 14v17h67v-11v0z" />
    <glyph glyph-name="uni0E48.alt3.001" 
d="M-180 726v-94h-67v94h67z" />
    <glyph glyph-name="uni0E49.alt3.001" 
d="M-350 732q28 0 48.5 -10.5t24.5 -40.5h90v-49h-147v16q0 20 -5 23.5t-11 3.5h-22v57h22z" />
    <glyph glyph-name="uni0E4A.alt3.001" 
d="M-286 741q31 0 50 -13t19 -45h44v-51h-101v44q0 6 -3.5 12t-13.5 6q-7 0 -11 -5t-4 -13v-16h-47v16q0 6 -3.5 12t-11.5 6q-15 0 -15 -18v-44h-59v44q0 30 17 47.5t52 17.5q19 0 28.5 -8t14.5 -14q5 6 14.5 14t29.5 8z" />
    <glyph glyph-name="uni0E4B.alt3.001" 
d="M-137 680h-51v-48h-60v48h-51v47h51v48h60v-48h51v-47z" />
    <glyph glyph-name="uni0E4C.alt3.001" 
d="M-74 725v-61h-69q-29 0 -35 -17t-8 -45h-72q0 54 30 88.5t85 34.5h69z" />
    <glyph glyph-name="uni0E38.alt1.001" 
d="M-196 -119q22 0 44.5 -1t41 -7t30 -19.5t11.5 -38.5v-63h-76v45q0 11 -4.5 17t-11.5 8t-15.5 2t-15.5 -1z" />
    <glyph glyph-name="uni0E39.alt1.001" 
d="M-69 -121v-36q0 -38 -25 -65t-70 -27q-20 0 -37.5 7t-30.5 19.5t-20.5 29.5t-7.5 36v36h70v-46q0 -9 7.5 -17.5t18.5 -8.5q7 0 16.5 4.5t9.5 21.5v46h69z" />
    <glyph glyph-name="uni0E3A.alt1.001" 
d="M-162 -195q0 20 13 33.5t33 13.5t33.5 -13.5t13.5 -33.5t-13.5 -33t-33.5 -13t-33 13t-13 33z" />
    <glyph glyph-name="uni0E0E.alt1.001" horiz-adv-x="511" 
d="M309 412q54 -2 90.5 -36.5t36.5 -91.5v-278q0 -22 -8 -42.5t-22 -36t-34 -25t-44 -9.5q-38 0 -66 22q-28 -22 -72 -22h-105v64h105q15 0 26 10t11 28h71q0 -38 30 -38q8 0 16 9.5t8 29.5v288q0 20 -10 35.5t-33 17.5h-107q-22 0 -29.5 -15.5t-8.5 -36.5v-191
q0 -29 -9.5 -47.5t-26 -28.5t-39.5 -14t-49 -4v74q26 0 33 7t7 27v177q0 27 8.5 50t24.5 40t38.5 27t50.5 10h107z" />
    <glyph glyph-name="uni0E0F.alt1.001" horiz-adv-x="510" 
d="M308 412q32 0 56 -11.5t39.5 -30t23.5 -41.5t8 -45v-278q0 -51 -27 -84q-26 -28 -71 -28q-36 0 -62 17q-11 -9 -26.5 -13t-32.5 -4q-22 0 -37.5 6t-27.5 17q-35 -23 -101 -23v64q12 0 24 1t21.5 4.5t16 11t6.5 20.5h74q0 -9 4 -23t20 -14q15 0 19 12t4 25h73q0 -11 3 -24
t17 -13q11 0 15 13.5t4 24.5v288q0 17 -10 35t-33 18h-106q-24 0 -31 -16t-7 -36v-191q0 -29 -9.5 -47t-26 -28.5t-39 -14.5t-49.5 -4v74q21 0 30.5 5.5t9.5 32.5v173q0 56 28.5 89t93.5 38h106z" />
    <glyph glyph-name="uni0E2C.alt1.001" horiz-adv-x="563" 
d="M537 434q-18 -34 -36.5 -59.5t-39.5 -39.5l-4 -3v-275q0 -22 -11 -34t-29 -18t-42 -7t-50 -1l-60 184l-58 -184q-24 0 -48 1t-42.5 7t-30 18t-11.5 34v355h85v-334l69 202h72l71 -204v233q-26 -3 -45.5 -3h-20.5v63q28 0 50 3.5t39 11t30.5 20t25.5 30.5h86z" />
    <glyph glyph-name="uni0E4F.liga.001" horiz-adv-x="479" 
d="M308 383q22 0 42 -8.5t35 -23t24 -34.5t9 -42v-141q0 -23 -9 -43t-24 -35t-35 -23.5t-42 -8.5h-139q-23 0 -43 8.5t-35 23.5t-23.5 35t-8.5 43v141q0 22 8.5 42t23.5 34.5t35 23t43 8.5h139zM116 134q0 -22 15 -37.5t38 -15.5h139q22 0 37.5 15.5t15.5 37.5v141
q0 21 -15.5 36t-37.5 15h-139q-23 0 -38 -15t-15 -36v-141zM271 296q25 0 42.5 -17.5t17.5 -40.5v-67q0 -25 -17.5 -42t-42.5 -17h-65q-25 0 -42.5 17t-17.5 42v67q0 23 17.5 40.5t42.5 17.5h65zM189 171q0 -16 17 -16h65q7 0 12 4.5t5 11.5v67q0 6 -5 10.5t-12 4.5h-65
q-8 0 -12.5 -4.5t-4.5 -10.5v-67zM218 405h-73l-47 168h85zM349 405h-73l-47 168h85z" />
    <glyph glyph-name="uni0E24.liga.001" horiz-adv-x="769" 
d="M554 412q75 0 107 -30t32 -99v-484h-84v484q0 37 -9 43q-10 11 -46 11h-112q11 -31 11 -73v-465h-83v465q0 26 -3.5 40.5t-9.5 22t-13.5 9t-15.5 1.5h-123q-17 0 -27.5 -8t-10.5 -28q0 -39 42 -40h49v-68h-53q-12 0 -21 -5.5t-15 -13.5t-8.5 -17.5t-2.5 -16.5
q0 -66 44 -66h56v-74h-56q-58 0 -92.5 32t-34.5 92q0 41 9.5 62t29.5 38q-13 12 -21.5 31t-8.5 46q0 25 9.5 45.5t26 35t38.5 22.5t47 8h349z" />
    <glyph glyph-name="uni0E26.liga.001" horiz-adv-x="764" 
d="M550 412q75 0 107 -30t32 -99v-484h-84v484q0 37 -9 43q-10 11 -46 11h-116q5 -14 7.5 -30.5t2.5 -36.5v-471h-83v471q0 21 -3 34t-7 20t-9.5 9.5t-9.5 3.5h-137q-14 0 -25.5 -7.5t-11.5 -24.5q0 -38 42 -39h49v-74h-52q-14 0 -21.5 -6.5t-11.5 -15.5t-5 -18.5t-1 -15.5
v-72q0 -30 -16.5 -46.5t-52.5 -17.5h-52v75h38v61q0 31 9 53.5t21 36.5q-12 12 -21 31t-9 48q0 24 9.5 43.5t26 33t38.5 21.5t46 9h355z" />
    <glyph glyph-name="exclam" unicode="!" horiz-adv-x="176" 
d="M43 476h93l-21 -346h-47zM42 43q0 21 14.5 36t35.5 15t36 -15t15 -36t-15 -35.5t-36 -14.5t-35.5 14.5t-14.5 35.5z" />
    <glyph glyph-name="quotedbl" unicode="&#x22;" horiz-adv-x="193" 
d="M62 528l30 -141h-45l-40 141h55zM152 528l30 -141h-43l-40 141h53z" />
    <glyph glyph-name="numbersign" unicode="#" horiz-adv-x="537" 
d="M364 186h138l-18 -69h-138l-35 -117l-74 1l34 117l-69 -1l-35 -117h-79l34 117h-138l19 69h138l34 116h-138l19 61h137l33 118h80l-33 -118h68l34 119l75 -1l-33 -118h138l-18 -61h-139zM290 187l34 116l-70 -1l-33 -116z" />
    <glyph glyph-name="dollar" unicode="$" horiz-adv-x="412" 
d="M274 199q-28 15 -66 27.5t-72.5 27.5t-59 35.5t-26.5 50.5t10.5 52.5t34 38.5t51 23.5t61.5 7.5q30 0 56 -6.5t47 -18.5t36 -27t22 -31l-41 -30q-11 35 -44 49.5t-69 14.5q-40 0 -65.5 -12t-33.5 -29.5t4 -37.5t47 -36q28 -13 61.5 -22.5t63.5 -23t52.5 -34t29.5 -56.5
q5 -36 -8 -63.5t-37 -46.5t-55.5 -28t-63.5 -9q-29 0 -56.5 9.5t-52 25t-44 35t-32.5 39.5l47 37q28 -46 63.5 -66t69 -21t61 11.5t40.5 32.5t7.5 42t-38.5 39zM191 530h57v-590h-57v590z" />
    <glyph glyph-name="percent" unicode="%" horiz-adv-x="465" 
d="M434 507l-316 -540h-80l317 540h79zM129 441q25 0 45 -20t20 -45v-18q0 -25 -20 -45t-45 -20h-18q-25 0 -45 20t-20 45v18q0 25 20 45t45 20h18zM91 358q0 -10 4.5 -15t15.5 -5h18q11 0 15.5 5t4.5 15v18q0 11 -4.5 15.5t-15.5 4.5h-18q-11 0 -15.5 -4.5t-4.5 -15.5v-18z
M365 183q25 0 45 -20t20 -45v-18q0 -25 -20 -45t-45 -20h-18q-25 0 -45 20t-20 45v18q0 25 20 45t45 20h18zM327 100q0 -10 4.5 -15t15.5 -5h18q11 0 15.5 5t4.5 15v18q0 11 -4.5 15.5t-15.5 4.5h-18q-11 0 -15.5 -4.5t-4.5 -15.5v-18z" />
    <glyph glyph-name="ampersand" unicode="&#x26;" horiz-adv-x="480" 
d="M348 49q-21 -20 -53.5 -39.5t-77.5 -19.5q-35 0 -65 11.5t-52.5 31.5t-35.5 47.5t-13 60.5q0 47 25.5 79t63.5 59l39 27q-28 42 -36.5 62.5t-8.5 36.5q0 19 9 35.5t23 28t31.5 18t35.5 6.5q31 0 55 -15t36.5 -37.5t11 -49t-21.5 -50.5q-12 -16 -28 -32l-30 -30l100 -142
q8 6 17.5 15l17.5 16.5l14 13.5l6 6l36 -43l-27.5 -30t-27.5 -27l45 -67l-48 -34zM188 244q-30 -17 -52 -43.5t-20 -58.5q2 -42 26 -67.5t72 -24.5q26 0 50 13t49 35l-111 155zM196 398q0 -10 2 -16.5t9 -17.5l21 -30q20 14 33.5 29.5t13.5 38.5q0 17 -11 26t-28 10
t-28.5 -10.5t-11.5 -29.5z" />
    <glyph glyph-name="quotesingle" unicode="'" horiz-adv-x="120" 
d="M73 528l30 -141h-45l-40 141h55z" />
    <glyph glyph-name="parenleft" unicode="(" horiz-adv-x="262" 
d="M222 514l-10 -12.5t-24.5 -34.5t-30.5 -53.5t-27 -69.5q-26 -90 -11 -178q20 -110 104 -214l-59 -25q-46 56 -73.5 114.5t-38.5 118.5q-17 98 12 197q12 42 29 75.5t32.5 57t27 37t12.5 14.5z" />
    <glyph glyph-name="parenright" unicode=")" horiz-adv-x="298" 
d="M117 541q1 -1 12.5 -14.5t27 -37t32.5 -57t29 -75.5q29 -99 12 -197q-11 -60 -38.5 -118.5t-73.5 -114.5l-59 25q84 104 104 214q15 88 -11 178q-11 38 -27 69.5t-30.5 53.5t-24.5 34.5l-10 12.5z" />
    <glyph glyph-name="asterisk" unicode="*" horiz-adv-x="250" 
d="M238 399v-46h-65l50 -64l-36 -28l-61 78l-61 -78l-36 28l49 64h-64v46h64l-49 64l36 28l61 -77l61 77l36 -28l-50 -64h65z" />
    <glyph glyph-name="plus" unicode="+" horiz-adv-x="479" 
d="M422 220v-58h-154v-136h-66v136h-157v58h157v134h66v-134h154z" />
    <glyph glyph-name="comma" unicode="," horiz-adv-x="177" 
d="M83 -16q-20 1 -34 15t-14 34q0 21 14.5 35.5t34.5 14.5q22 0 34 -10t17 -24.5t4.5 -29.5t-3.5 -24q-5 -22 -23.5 -54t-62.5 -69l-30 30q22 15 38.5 35.5t24.5 46.5z" />
    <glyph glyph-name="hyphen" unicode="-" horiz-adv-x="477" 
d="M422 220v-58h-377v58h377z" />
    <glyph glyph-name="period" unicode="." horiz-adv-x="157" 
d="M130 37q0 -20 -16 -35t-36 -15q-22 0 -37 15t-15 35q0 22 15 38t37 16q20 0 36 -16t16 -38z" />
    <glyph glyph-name="slash" unicode="/" horiz-adv-x="329" 
d="M239 522h83l-236 -572h-84z" />
    <glyph glyph-name="zero" unicode="0" horiz-adv-x="534" 
d="M267 492q53 0 100 -20t81.5 -54.5t54.5 -81.5t20 -100t-20 -99.5t-54.5 -81.5t-81.5 -55t-100 -20t-99.5 20t-81.5 55t-55 81.5t-20 99.5t20 100t55 81.5t81.5 54.5t99.5 20zM265 44q40 0 74.5 15t60.5 41t41 61t15 74q0 40 -15 74.5t-41 60.5t-60.5 41t-74.5 15
q-39 0 -74 -15t-61 -41t-41 -60.5t-15 -74.5q0 -39 15 -74t41 -61t61 -41t74 -15z" />
    <glyph glyph-name="one" unicode="1" horiz-adv-x="232" 
d="M84 476q46 0 71 -20t25 -59v-397h-66v378q0 22 -9.5 30.5t-20.5 8.5h-63v59h63z" />
    <glyph glyph-name="two" unicode="2" horiz-adv-x="523" 
d="M336 475q55 0 88.5 -20t47.5 -55q7 -22 3 -44t-16 -41.5t-32.5 -35t-46.5 -23.5l-187 -67q-18 -6 -35.5 -15.5t-29.5 -22.5t-16 -30t5 -38q5 -12 17.5 -17t28 -7t32 -1.5t30.5 0.5h247v-59h-274q-19 0 -41 3t-42.5 10.5t-37.5 21.5t-25 35q-11 27 -7.5 53.5t18 48.5
t38 39t52.5 26l194 68q23 8 38.5 16.5t23.5 23.5q6 12 4 25t-13 23t-32.5 16.5t-52.5 6.5h-203v60h224z" />
    <glyph glyph-name="three" unicode="3" horiz-adv-x="523" 
d="M446 244q33 -36 33 -97q0 -60 -37 -102q-41 -45 -97 -45h-290v60h267q39 0 66.5 21t27.5 66t-23 67.5t-63 22.5h-137v54h116q32 0 47 18q9 11 13.5 22t4.5 28q0 34 -21 45.5t-51 11.5h-242v60h242q73 0 104 -33t31 -84q0 -54 -31 -85q23 -10 40 -30z" />
    <glyph glyph-name="four" unicode="4" horiz-adv-x="541" 
d="M538 101h-94v-101h-65v101h-246q-35 0 -58.5 15.5t-32 39t-1.5 51.5t32 53l10 9.5l25.5 24.5l35 33.5l39 37.5l37 36l30.5 29q24 22 49.5 39t53.5 17q25 0 42.5 -8t28 -20.5t15.5 -28.5t5 -32v-239h94v-57zM285 375l-45.5 -43.5l-54 -52l-46.5 -44.5l-23 -22
q-8 -7 -13 -16.5t-4 -18t9 -14.5t26 -6h245v223q0 11 -4.5 25t-21.5 15q-10 0 -19.5 -5t-18.5 -12t-16.5 -15z" />
    <glyph glyph-name="five" unicode="5" horiz-adv-x="541" 
d="M487 143q0 -30 -11 -55.5t-30.5 -45t-45.5 -31t-56 -11.5h-281v61h281q34 0 57.5 23.5t23.5 58.5q0 33 -23 56.5t-56 24.5l-169 1q-26 0 -48.5 10t-39.5 27t-27 40t-10 49t10 48.5t27 39.5t39.5 27t48.5 10h268v-61h-268q-27 0 -46 -19t-19 -45t18.5 -45t46.5 -20h167
q30 0 56 -11t45.5 -30.5t30.5 -45.5t11 -56z" />
    <glyph glyph-name="six" unicode="6" horiz-adv-x="541" 
d="M348 285q30 0 56 -11t45.5 -30.5t30.5 -45.5t11 -56q0 -29 -11 -55t-30.5 -45.5t-45.5 -30.5t-55 -11h-151q-29 0 -55 11t-45 30t-30.5 44.5t-11.5 54.5v210q0 26 10 48.5t27 39.5t39.5 27t48.5 10h269v-60h-269q-27 0 -45.5 -19t-18.5 -46v-65h231zM348 60q34 0 57.5 24
t23.5 58q0 33 -23 56.5t-56 24.5h-89q-37 0 -77 0.5t-67 0.5v-82q0 -34 24 -58t58 -24h149z" />
    <glyph glyph-name="seven" unicode="7" horiz-adv-x="471" 
d="M416 440q14 -23 9.5 -55t-25.5 -67l-34 -55.5l-50.5 -83.5l-57 -93.5l-53.5 -85.5h-76l52.5 87l61 99.5l56 91l37.5 60.5q15 25 19.5 37t-3.5 26q-9 15 -35 15h-266v60h299q25 0 40.5 -9t25.5 -27z" />
    <glyph glyph-name="eight" unicode="8" horiz-adv-x="534" 
d="M433 257q26 -20 41.5 -49.5t15.5 -64.5q0 -29 -11 -55t-30.5 -45.5t-45.5 -30.5t-56 -11h-161q-30 0 -55.5 11t-45 30.5t-30.5 45.5t-11 55q0 35 15 64.5t41 49.5q-19 17 -30 41.5t-11 52.5q0 26 10 48.5t27 39.5t39.5 27t48.5 10h166q26 0 48.5 -10t39.5 -27t27 -39.5
t10 -48.5q0 -28 -11 -52.5t-31 -41.5zM184 416q-27 0 -46 -19t-19 -46q0 -26 18.5 -45t46.5 -20h166q26 0 45 19t19 46t-19 46t-45 19h-166zM347 61q34 0 57.5 24t23.5 58q0 33 -23 56.5t-56 24.5l-12 0.5t-30.5 0.5h-40h-40t-30.5 -0.5l-12 -0.5q-33 -1 -56 -24.5
t-23 -56.5q0 -34 24 -58t58 -24h160z" />
    <glyph glyph-name="nine" unicode="9" horiz-adv-x="534" 
d="M191 191q-30 0 -56 11t-45.5 30.5t-30.5 45.5t-11 56q0 29 11 55t30.5 45.5t45.5 30.5t55 11h151q29 0 55 -11t45 -30t30.5 -44.5t11.5 -54.5v-210q0 -26 -10 -48.5t-27 -39.5t-39.5 -27t-48.5 -10h-249v60h249q27 0 45.5 19t18.5 46v65h-231zM191 416q-34 0 -57.5 -24
t-23.5 -58q0 -33 23 -56.5t56 -24.5q46 -1 89 -1h144v82q0 34 -24 58t-58 24h-149z" />
    <glyph glyph-name="colon" unicode=":" horiz-adv-x="258" 
d="M186 113q0 -21 -16 -37t-37 -16t-36.5 16t-15.5 37t15.5 37t36.5 16t37 -16t16 -37zM186 349q0 -21 -16 -37t-37 -16t-36.5 16t-15.5 37t15.5 37t36.5 16t37 -16t16 -37z" />
    <glyph glyph-name="semicolon" unicode=";" horiz-adv-x="258" 
d="M186 349q0 -21 -16 -37t-37 -16t-36.5 16t-15.5 37t15.5 37t36.5 16t37 -16t16 -37zM137 62q-8 -26 -24.5 -46.5t-38.5 -35.5l30 -30q44 37 62.5 69t23.5 54q3 9 3.5 24t-4.5 29.5t-17 24.5t-34 10q-20 0 -34.5 -14.5t-14.5 -35.5q0 -20 14 -34t34 -15z" />
    <glyph glyph-name="less" unicode="&#x3c;" horiz-adv-x="421" 
d="M362 68v-57q-266 100 -302.5 126t-33.5 62q2 36 37 60.5t299 126.5v-61q-241 -93 -256 -104.5t-15 -21.5q0 -6 1.5 -12t7.5 -12t262 -107z" />
    <glyph glyph-name="equal" unicode="=" horiz-adv-x="581" 
d="M464 278v-58h-377v58h377zM464 163v-58h-377v58h377z" />
    <glyph glyph-name="greater" unicode="&#x3e;" horiz-adv-x="421" 
d="M59 68q256 101 262 107t7.5 12t1.5 12q0 10 -15 21.5t-256 104.5v61q264 -102 299 -126.5t37 -60.5q3 -36 -33.5 -62t-302.5 -126v57v0z" />
    <glyph glyph-name="question" unicode="?" horiz-adv-x="363" 
d="M190 76q17 0 29.5 -11.5t12.5 -30.5q0 -17 -12.5 -29.5t-29.5 -12.5q-19 0 -31 12.5t-12 29.5q0 19 12 30.5t31 11.5zM44 394q6 12 20 27.5t28 25t33.5 16t45.5 6.5q47 2 86 -26q14 -11 25 -25t17 -31q14 -41 6.5 -75t-30.5 -60q-57 -54 -57 -120v-18h-59v18q0 84 70 149
q13 12 18.5 25t6.5 24.5t-1.5 20.5t-4.5 15q-9 24 -29.5 39t-43.5 15q-57 0 -81 -46q-5 -10 -7.5 -18.5t-4.5 -16.5q-2 -9 -2 -16l-53 1q0 1 2.5 23t14.5 47z" />
    <glyph glyph-name="at" unicode="@" horiz-adv-x="536" 
d="M436 332q33 -33 50.5 -75t17.5 -90q0 -32 -8.5 -57.5t-22 -44t-30.5 -28.5t-34 -10q-26 0 -39 8t-18 19q-6 12 -5 28q-17 -20 -41 -30t-46 -10q-20 -1 -39.5 3.5t-35.5 13.5t-25.5 24t-9.5 35q0 33 18.5 54.5t46.5 30.5t59 6t56 -19v19q0 23 -17.5 36.5t-49.5 13.5
q-23 0 -43 -9t-26 -27l-37 21q14 23 41 37t62 14q24 0 46.5 -5.5t40 -16.5t28 -27t10.5 -35v-1v-124q0 -17 7.5 -19t16.5 0q7 1 16.5 8t18 19t14.5 30t6 43q0 38 -14.5 73.5t-41.5 63.5q-28 27 -63.5 41.5t-73.5 14.5q-40 0 -75.5 -15.5t-61.5 -41.5t-41.5 -61t-15.5 -75
t15 -75t41.5 -61t61.5 -41t75 -15q27 0 52.5 4t48.5 18l21 -34q-28 -17 -59 -22.5t-63 -5.5q-48 0 -90.5 18t-74 49.5t-50 74t-18.5 90.5t18.5 90.5t50 74t74.5 50t91 18.5t90 -17.5t75 -50.5zM256 76q15 0 30.5 5.5t27.5 15.5t18.5 22t3.5 26q-2 9 -11 15t-22 9t-28 3.5
t-28 -2.5q-24 -5 -36 -20t-11.5 -31.5t14.5 -29.5t42 -13z" />
    <glyph glyph-name="A" unicode="A" horiz-adv-x="489" 
d="M340 137h-183l-43 -137h-67l51 183l20 71.5l19 66l16 53.5t10 34q10 32 30.5 54.5t55.5 22.5q29 0 49.5 -20t28.5 -48l124 -417h-67zM331 183l-71 225q-1 2 -3 5q-5 5 -12 5t-12 -5q-2 -3 -3 -5l-63 -225h164z" />
    <glyph glyph-name="B" unicode="B" horiz-adv-x="443" 
d="M338 247q37 -22 49 -51t12 -67q0 -26 -9 -49.5t-25 -41t-38 -28t-49 -10.5h-225v475h155q45 0 77 -10.5t52.5 -28t29.5 -41.5t9 -51q0 -17 -2 -30t-6.5 -23.5t-11.5 -21t-18 -22.5zM114 426v-157h131q32 0 51.5 20t19.5 55q0 82 -89 82h-113zM245 49q16 0 32.5 5t30 15.5
t22 25t8.5 34.5q0 19 -8.5 34t-22 25.5t-30 16t-32.5 5.5h-131v-161h131z" />
    <glyph glyph-name="C" unicode="C" horiz-adv-x="511" 
d="M468 144q-19 -79 -75 -118t-126 -39q-41 0 -80 13.5t-70 40.5t-49.5 67.5t-18.5 94.5v67q0 54 18 93t47 66q27 25 60.5 39.5t69.5 17.5t71.5 -5t65.5 -27.5t53 -50t34 -72.5h-62q-11 29 -32.5 51.5t-47.5 33.5q-28 10 -58.5 10t-58.5 -10q-35 -14 -61.5 -48.5
t-29.5 -75.5l1 -102q0 -24 7.5 -45.5t21 -39.5t31 -31.5t36.5 -20.5q52 -16 105 0q28 11 51.5 35.5t35.5 55.5h61z" />
    <glyph glyph-name="D" unicode="D" horiz-adv-x="464" 
d="M415 238v-25t1 -12h-1q-1 -51 -18 -90t-46 -65q-26 -24 -65 -35t-87 -11h-146v476h146q48 0 87 -11.5t65 -35.5q29 -26 46 -65t18 -90v-36zM346 292q-1 23 -7 44t-20 37.5t-37 27t-57 12.5q-24 1 -53 1.5t-54 0.5v-355q25 0 54 0.5t53 1.5q34 1 57 12t37 27.5t20 38
t7 44.5v108z" />
    <glyph glyph-name="E" unicode="E" horiz-adv-x="430" 
d="M377 419h-259v-158h218v-58h-218v-145h259v-58h-323v476h323v-57v0z" />
    <glyph glyph-name="F" unicode="F" horiz-adv-x="416" 
d="M115 419v-158h218v-58h-218v-203h-64v476h323v-57h-259z" />
    <glyph glyph-name="G" unicode="G" horiz-adv-x="520" 
d="M476 203q-1 -47 -16 -86.5t-42.5 -68t-66.5 -44.5t-87 -16q-45 0 -82.5 16t-66 44.5t-45 68.5t-19.5 87v67q1 49 17 89t44 68.5t67 44t85 15.5q74 0 125 -36t73 -98h-76q-20 35 -52 53.5t-70 19.5q-30 0 -54.5 -11t-43.5 -29t-30.5 -42t-14.5 -52l1 -102q0 -30 12 -56.5
t31.5 -46.5t45 -31t53.5 -10q28 -1 53 10.5t44.5 32.5t31.5 49.5t13 63.5h-95v58h165v-58z" />
    <glyph glyph-name="H" unicode="H" horiz-adv-x="464" 
d="M350 206h-236v-206h-64v476h64v-210h236v210h64v-476h-64v206z" />
    <glyph glyph-name="I" unicode="I" horiz-adv-x="188" 
d="M61 0v476h64v-476h-64v0z" />
    <glyph glyph-name="J" unicode="J" horiz-adv-x="281" 
d="M228 80q0 -41 -31 -67.5t-82 -26.5q-21 0 -41 7t-35 19t-24 28.5t-9 36.5v8.5t-0.5 0.5t-0.5 2v13h58v-25q0 -19 15.5 -28.5t31.5 -9.5q12 0 22 4.5t17 11.5t11 14t4 12l-1 338h-66v58h131v-396z" />
    <glyph glyph-name="K" unicode="K" horiz-adv-x="457" 
d="M115 0h-65v476h65v-231l224 231h73l-45 -51.5l-37.5 -42l-33 -37l-31.5 -35.5l66 -69t49 -62t30.5 -74t10.5 -105h-64q0 52 -8.5 88t-26 65t-43.5 56.5l-61 63.5q-38 -39 -58.5 -64.5t-30.5 -52t-12 -62t-2 -94.5z" />
    <glyph glyph-name="L" unicode="L" horiz-adv-x="419" 
d="M373 58v-58h-323v476h64v-418h259v0z" />
    <glyph glyph-name="M" unicode="M" horiz-adv-x="626" 
d="M438 492q59 0 98 -39t39 -117v-335h-64v337q-3 42 -22 68.5t-62 26.5q-33 0 -57.5 -26t-26.5 -69v-337h-1h-62h-1v251v85q-2 42 -22.5 69t-64.5 27q-33 0 -54.5 -26.5t-24.5 -68.5v-337h-62v30.5v64t-0.5 79.5t-0.5 77.5v59.5v24q2 78 40.5 117t97.5 39q36 0 69 -14.5
t56 -43.5q23 29 56 43.5t69 14.5z" />
    <glyph glyph-name="N" unicode="N" horiz-adv-x="472" 
d="M358 476h64v-476h-67l-241 378v-378h-64v476h67l241 -380v380v0z" />
    <glyph glyph-name="O" unicode="O" horiz-adv-x="509" 
d="M470 203q-1 -47 -16 -87t-42.5 -68.5t-66.5 -44.5t-88 -16q-47 0 -84.5 16t-65 45t-43.5 68.5t-19 86.5v67q0 54 18 93t47 66q30 29 68.5 43.5t78.5 14.5q39 0 78 -14.5t70 -43.5q29 -27 46.5 -66t18.5 -93v-67zM400 292q-3 41 -29.5 75.5t-61.5 48.5q-12 5 -25 7t-27 3
q-28 -2 -52 -10q-35 -14 -61.5 -48.5t-29.5 -75.5l1 -102q0 -24 7.5 -45.5t21 -39.5t31 -31.5t36.5 -20.5q11 -3 22.5 -5t23.5 -2t23.5 2t22.5 5q19 7 36.5 20.5t31 31.5t21 39.5t7.5 45.5z" />
    <glyph glyph-name="P" unicode="P" horiz-adv-x="422" 
d="M319 205q-26 -11 -45 -13t-43 -2h-118v-190h-65v476h177q43 0 75 -12.5t53.5 -33.5t32 -47t10.5 -53q0 -32 -19 -68.5t-58 -56.5zM233 242q21 0 40 6.5t33.5 18.5t23 28t8.5 35q0 18 -8 35.5t-21.5 30.5t-33 21t-41.5 8h-121v-183h120z" />
    <glyph glyph-name="Q" unicode="Q" horiz-adv-x="513" 
d="M469 203q0 -51 -16.5 -89.5t-44.5 -65.5l44 -43l-40 -40l-49 50q-49 -27 -107 -28q-44 0 -82 16t-66 45t-44.5 68.5t-19.5 86.5v67q0 54 18 93t47 66q29 28 67 42.5t80 15.5q39 0 78 -14.5t70 -43.5q29 -27 46.5 -66t18.5 -93v-67zM361 95q17 19 27.5 43.5t9.5 51.5
l1 102q-3 28 -15.5 52.5t-32 43t-44 29t-51.5 9.5q-27 0 -51.5 -10.5t-44 -29t-32 -43t-15.5 -51.5l1 -102q0 -24 8 -45.5t21.5 -39.5t30.5 -31.5t36 -20.5q11 -3 23 -5t23 -2q12 0 23.5 2t22.5 5q7 2 15 7l-40 41l39 39z" />
    <glyph glyph-name="R" unicode="R" horiz-adv-x="440" 
d="M338 229q23 -18 37.5 -39t14.5 -54v-13v-123h-64v141q-2 34 -21.5 53.5t-51.5 19.5h-140v-214h-65v476h231q27 0 49.5 -10t39 -28t26 -41.5t9.5 -50.5q0 -32 -13 -64.5t-52 -52.5zM252 266q17 0 33.5 5.5t30 16t21.5 25t8 33.5q0 18 -8 33t-21 25t-29.5 15.5t-33.5 5.5
h-140v-159h139z" />
    <glyph glyph-name="S" unicode="S" horiz-adv-x="410" 
d="M321 229q64 -37 64 -102q0 -29 -11 -54.5t-33 -44.5t-55.5 -29.5t-77.5 -9.5q-36 1 -67.5 12t-55 29.5t-36.5 43t-13 53.5v2h58v-4q0 -17 10 -32t26.5 -26t37.5 -17.5t43 -6.5t42.5 6.5t36.5 17.5t25.5 26t9.5 32q0 66 -112 81q-85 14 -133.5 46.5t-48.5 95.5
q0 28 13 53.5t35.5 44t54 29.5t67.5 11q37 0 69 -11t56 -29.5t37.5 -44t13.5 -53.5v-4h-61q0 1 0.5 1t0.5 1q0 17 -9.5 32t-25.5 26t-36 17.5t-42 6.5t-42 -6.5t-35.5 -17.5t-24.5 -26t-9 -32q0 -34 33.5 -53.5t84.5 -28.5q21 -4 52.5 -11.5t57.5 -23.5z" />
    <glyph glyph-name="T" unicode="T" horiz-adv-x="450" 
d="M416 476v-54h-160v-421h-65v421h-157v54h382v0z" />
    <glyph glyph-name="U" unicode="U" horiz-adv-x="464" 
d="M232 52q24 0 45.5 9t38 23t26.5 33.5t10 40.5v318h64v-328q0 -34 -16 -63t-42 -50t-59 -32.5t-67 -11.5t-67 12t-59.5 33t-42.5 49.5t-16 62.5v328h64v-319q0 -21 10 -40t27 -33.5t39 -23t45 -8.5z" />
    <glyph glyph-name="V" unicode="V" horiz-adv-x="459" 
d="M26 476h70l116 -410q5 -14 17 -14q13 0 16 14l117 410h72l-54 -187l-21 -72l-19 -66.5l-15.5 -53t-9.5 -31.5q-11 -38 -32 -58t-54 -20q-34 0 -52.5 16.5t-29.5 49.5z" />
    <glyph glyph-name="W" unicode="W" horiz-adv-x="709" 
d="M681 476l-120 -422q-12 -33 -30.5 -49.5t-51.5 -16.5q-34 0 -55 20t-32 58q-2 6 -5 20.5t-7.5 34.5l-9.5 44l-10 48q-5 -24 -9.5 -48t-9 -44l-8 -34.5t-5.5 -20.5q-11 -38 -32 -58t-54 -20q-34 0 -52.5 16.5t-30.5 49.5l-120 422h69l117 -410q5 -14 17 -14q13 0 16 14
l67 234h71l66 -234q5 -14 17 -14q11 0 16 14l117 410h69z" />
    <glyph glyph-name="X" unicode="X" horiz-adv-x="539" 
d="M525 476l-212 -241l207 -235h-84l-164 188l-165 -188h-84l207 235l-212 241h84l170 -193l169 193h84v0z" />
    <glyph glyph-name="Y" unicode="Y" horiz-adv-x="545" 
d="M239 176l-206 300h69l170 -242l169 242h71l-209 -302v-174h-64v176z" />
    <glyph glyph-name="Z" unicode="Z" horiz-adv-x="534" 
d="M142 55h346v-55h-174.5h-103.5t-62 0.5t-50 0.5q-29 0 -38.5 10.5t-8.5 23.5q2 11 7 20l6 8l341 358h-361v54l390 1q21 -3 33 -12q11 -8 15.5 -22.5t-9.5 -38.5z" />
    <glyph glyph-name="bracketleft" unicode="[" horiz-adv-x="178" 
d="M161 574v-44h-81v-574h81v-44h-136v662h136z" />
    <glyph glyph-name="backslash" unicode="\" horiz-adv-x="245" 
d="M29 530l237 -572h-54l-236 572h53z" />
    <glyph glyph-name="bracketright" unicode="]" horiz-adv-x="219" 
d="M161 574v-662h-136v44h81v574h-81v44h136z" />
    <glyph glyph-name="asciicircum" unicode="^" horiz-adv-x="390" 
d="M64 198h-57q100 266 126 302.5t62 33.5q36 -2 60.5 -37t126.5 -299h-61q-93 241 -104.5 256t-21.5 15q-6 0 -12 -1.5t-12 -7.5t-107 -262z" />
    <glyph glyph-name="underscore" unicode="_" horiz-adv-x="371" 
d="M361 -37v-50h-351v50h351z" />
    <glyph glyph-name="grave" unicode="`" horiz-adv-x="120" 
d="M73 528l30 -141h-45l-40 141h55z" />
    <glyph glyph-name="a" unicode="a" horiz-adv-x="374" 
d="M275 0l-10 39q-19 -19 -42 -30.5t-51 -12.5q-24 -1 -48 5t-43.5 19t-31.5 33.5t-12 49.5q-1 46 22.5 76t58 43t73 8.5t68.5 -26.5v26q0 33 -21 51.5t-61 18.5q-29 0 -53.5 -12.5t-32.5 -38.5l-46 30q19 32 52 51.5t75 19.5q30 0 58.5 -8t50 -23.5t34.5 -37.5t13 -49v-1
v-231h-53zM258 140q-2 12 -11.5 21t-24 13.5t-31.5 5t-34 -3.5q-30 -7 -44.5 -28.5t-13.5 -44.5t18 -41t52 -18q18 0 35 9t29.5 23.5t19.5 31.5t5 32z" />
    <glyph glyph-name="b" unicode="b" horiz-adv-x="402" 
d="M43 476h64v-157q23 16 50 23t55 5.5t54 -12t47 -29.5q21 -20 33.5 -48.5t13.5 -66.5q0 -1 -0.5 -15t-0.5 -34q0 -39 -13 -68.5t-35.5 -49t-51 -29t-58.5 -9.5q-28 0 -55 8.5t-48.5 26t-36 44t-17.5 62.5zM108 133q0 -47 29 -70t64.5 -23t64.5 23t29 70v73q-2 28 -16 47.5
t-34.5 28.5t-43 9t-43 -9.5t-34.5 -28t-16 -47.5v-73z" />
    <glyph glyph-name="c" unicode="c" horiz-adv-x="378" 
d="M344 86q-9 -25 -24.5 -43.5t-35 -31t-42.5 -18.5t-47 -6q-30 0 -58 9.5t-50 29t-35.5 48.5t-13.5 69q0 16 -0.5 32t-0.5 17q0 43 12.5 68.5t33.5 45.5q30 28 71 38t80.5 0.5t71.5 -37.5t43 -75h-66q-11 33 -40.5 47.5t-61 11.5t-56 -24t-24.5 -60l1 -73q0 -26 8 -43.5
t21 -28.5t29.5 -16t34.5 -5q25 0 47 11t35 34h67z" />
    <glyph glyph-name="d" unicode="d" horiz-adv-x="402" 
d="M354 128q-3 -36 -17.5 -62.5t-36 -44t-48.5 -26t-55 -8.5q-30 0 -58.5 9.5t-51 29t-35.5 49t-13 68.5q0 20 -0.5 34t-0.5 15q1 38 13.5 66.5t33.5 48.5q21 19 47 29.5t53.5 12t55 -5.5t50.5 -23v156h64zM290 207q-2 28 -16 47t-34.5 28.5t-43 9.5t-43 -9t-34.5 -28.5
t-16 -47.5v-73q0 -47 29 -70t64.5 -23t64.5 23t29 70v73z" />
    <glyph glyph-name="e" unicode="e" horiz-adv-x="385" 
d="M106 122q0 -19 8 -33.5t20.5 -24.5t28 -15.5t30.5 -5.5q27 0 51.5 15.5t33.5 47.5h62q-12 -56 -51 -86.5t-86 -30.5q-33 0 -62.5 10t-52.5 29.5t-37 48.5t-14 68v49q0 39 13 68t34 48.5t48 29.5t55 11q27 0 54.5 -9t50 -27t37 -44t14.5 -59q0 -7 -1.5 -15.5t-8 -16.5
t-18.5 -13.5t-33 -5.5h-89h-88zM187 294q-32 -1 -55 -21.5t-27 -60.5h88h88q-4 42 -32.5 63t-61.5 19z" />
    <glyph glyph-name="f" unicode="f" horiz-adv-x="211" 
d="M211 292h-90v-292h-64v292h-57v50h57v70q0 16 5 33t16.5 31t30.5 22.5t47 8.5q23 0 40 -8.5t28 -22t16.5 -30.5t5.5 -34v-7h-52v12q0 3 -0.5 10t-4 14t-11 12.5t-21.5 5.5t-21 -5.5t-10.5 -12.5t-4 -14t-0.5 -10v-75h90v-50z" />
    <glyph glyph-name="g" unicode="g" horiz-adv-x="395" 
d="M355 142v-196q0 -48 -13 -80t-33.5 -51.5t-46 -27.5t-50.5 -8q-32 0 -58.5 13t-46.5 35.5t-32 51.5t-13 61h58q1 -18 8.5 -36.5t19.5 -33t28 -23.5t34 -9q17 0 31.5 5.5t25.5 19t17.5 35.5t6.5 56v62q-42 -27 -94 -27q-30 0 -58 9.5t-50.5 29t-36 49t-13.5 68.5v49
q0 39 14 68.5t36 49t50.5 29.5t57.5 10q30 0 58 -10t50.5 -29.5t36 -49t13.5 -68.5v-52zM197 43q18 0 34.5 6t30 17.5t21 29t7.5 40.5l1 73q-3 43 -31.5 64.5t-62.5 21.5t-62 -21.5t-31 -64.5v-73q0 -23 7.5 -40.5t21 -29t30 -17.5t34.5 -6z" />
    <glyph glyph-name="h" unicode="h" horiz-adv-x="381" 
d="M112 0h-65v476h65v-220q23 42 52.5 69.5t69.5 28.5q24 0 43.5 -8t34 -21t22 -30t7.5 -35v-260h-65v234q0 61 -46 55q-32 -3 -54.5 -25t-37 -54.5t-21 -71.5t-5.5 -76v-62z" />
    <glyph glyph-name="i" unicode="i" horiz-adv-x="173" 
d="M54 340h64v-340h-64v340zM84 522q23 0 38.5 -15.5t15.5 -37.5q0 -23 -15.5 -38.5t-38.5 -15.5q-22 0 -37.5 15.5t-15.5 38.5q0 22 15.5 37.5t37.5 15.5z" />
    <glyph glyph-name="j" unicode="j" horiz-adv-x="232" 
d="M188 -86q0 -34 -24 -58.5t-66 -24.5q-34 0 -61 20t-27 54v95h56v-89q0 -4 0.5 -10t3.5 -11t9 -9t16 -4t16 4t8.5 9.5t3 11.5t0.5 9l1 429h64v-426zM154 482q23 0 38.5 -15.5t15.5 -37.5q0 -23 -15.5 -38.5t-38.5 -15.5t-38 15.5t-15 38.5q0 22 15 37.5t38 15.5z" />
    <glyph glyph-name="k" unicode="k" horiz-adv-x="374" 
d="M106 67q0 -15 1 -32.5t0 -34.5h-65v477h65v-292l151 156h72q-13 -14 -23 -26l-21 -24l-24.5 -26l-32.5 -33l47.5 -46.5t34.5 -43t21.5 -56.5t7.5 -86h-64q0 42 -5.5 67.5t-16.5 44t-27 34.5t-37 40q-20 -21 -35.5 -35.5t-26 -27t-16.5 -25.5t-6 -31z" />
    <glyph glyph-name="l" unicode="l" horiz-adv-x="152" 
d="M42 0v476h64v-476h-64v0z" />
    <glyph glyph-name="m" unicode="m" horiz-adv-x="478" 
d="M330 347q21 0 41.5 -7t36.5 -21.5t26 -35.5t10 -49v-234h-64v235q-2 31 -17.5 43.5t-39.5 12.5q-25 0 -39.5 -12t-16.5 -44v-235h-1h-55h-1v173v61q-1 31 -17.5 44t-41.5 13q-17 0 -33.5 -12.5t-18.5 -43.5v-235h-64v21.5v44.5t-0.5 55.5t-0.5 54.5v41.5v16.5q0 28 10 49
t26 35.5t36.5 21.5t41.5 7q26 0 50.5 -10.5t41.5 -31.5q16 21 40 31.5t50 10.5z" />
    <glyph glyph-name="n" unicode="n" horiz-adv-x="381" 
d="M109 0h-65v340h65v-84q23 42 52.5 69.5t69.5 28.5q24 0 43.5 -8t34 -21t22 -30t7.5 -35v-260h-65v234q0 61 -46 55q-32 -3 -54.5 -25t-37 -54.5t-21 -71.5t-5.5 -76v-62z" />
    <glyph glyph-name="o" unicode="o" horiz-adv-x="402" 
d="M362 145q0 -39 -13.5 -68.5t-36 -49t-51 -29t-58.5 -9.5t-58 9.5t-50 29t-35.5 49t-13.5 68.5q0 20 -0.5 34t-0.5 15q0 39 13.5 68.5t36 49t51 29.5t57.5 10q30 0 58 -10t50.5 -29.5t36.5 -49t14 -68.5v-49zM297 209q0 22 -8.5 38.5t-22 27t-30 15.5t-33.5 5t-33.5 -5
t-30 -15.5t-21.5 -27t-8 -38.5v-73q0 -23 8 -40t21 -29t29.5 -18t34.5 -6t34.5 6t29.5 17.5t21 29t8 40.5z" />
    <glyph glyph-name="p" unicode="p" horiz-adv-x="399" 
d="M46 212q3 36 17.5 62.5t36 44t48.5 26t55 8.5q30 0 58.5 -9.5t51 -29t35.5 -49t13 -68.5q0 -20 0.5 -34t0.5 -15q-1 -38 -13.5 -66.5t-33.5 -48.5q-21 -19 -47 -29.5t-54 -12t-55 5.5t-50 23v-240h-64zM110 133q2 -28 16 -47.5t34.5 -28.5t43 -9.5t43 9.5t34.5 28.5
t16 47.5v73q0 46 -29 69.5t-64.5 23.5t-64.5 -23.5t-29 -69.5v-73z" />
    <glyph glyph-name="q" unicode="q" horiz-adv-x="409" 
d="M482 -60v-18.5v-22t-0.5 -21.5t-0.5 -16q0 -16 -5 -31t-15.5 -26.5t-28 -18.5t-41.5 -7q-28 0 -46.5 8.5t-29 23.5t-15 34.5t-4.5 42.5v128q-41 -27 -93 -27q-30 0 -58 9.5t-50.5 29t-36 49t-13.5 68.5v1v48q0 40 14.5 69.5t37 49t51.5 29t59 9t58 -11t50 -30.5
q21 -20 33.5 -48.5t12.5 -66.5v-240v-22.5v-27v-25v-18.5q0 -11 4 -17.5t9 -9.5t10.5 -4t8.5 -1q2 0 7 1t10.5 4.5t10 10t4.5 17.5v78h57zM161 52q21 -9 44.5 -8.5t44 11t33.5 31t13 50.5l1 73q-2 28 -16.5 47t-34.5 28.5t-43 9.5t-43 -9t-34 -28.5t-16 -47.5v-73
q0 -31 13.5 -49t37.5 -35z" />
    <glyph glyph-name="r" unicode="r" horiz-adv-x="273" 
d="M110 0h-64v339l65 1v-99q23 42 52.5 69.5t68.5 28.5h9.5t9.5 -1v-63q-5 -1 -10 0t-12 -1q-28 -3 -50 -19t-37.5 -39.5t-23.5 -52.5t-8 -57v-106z" />
    <glyph glyph-name="s" unicode="s" horiz-adv-x="340" 
d="M257 174q24 -13 38.5 -34.5t14.5 -46.5q0 -20 -7.5 -39t-24.5 -34t-45 -24t-69 -9q-32 0 -58 9t-44 24t-28 34t-10 39v4h66v-6q0 -24 22 -41.5t54 -17.5q16 0 30.5 4.5t26 13t18.5 19t7 22.5q0 25 -20 38t-61 18q-38 4 -63.5 13t-41 22.5t-22 31.5t-6.5 40q0 20 6 39
t21 33.5t40 23t63 8.5q35 0 62 -8.5t46 -23t28.5 -33.5t9.5 -39v-11h-62v9q0 25 -25 40t-57 15t-54 -15t-22 -40q0 -23 19.5 -33.5t46.5 -16t55.5 -10.5t45.5 -18z" />
    <glyph glyph-name="t" unicode="t" horiz-adv-x="250" 
d="M206 289h-75v-228q0 -7 7.5 -13t14.5 -6t14.5 6t7.5 13v52h53v-51q0 -34 -23.5 -52.5t-56.5 -18.5q-34 0 -57.5 23.5t-23.5 56.5v218h-57v50h57v137h64v-137h75v-50z" />
    <glyph glyph-name="u" unicode="u" horiz-adv-x="388" 
d="M278 340h64v-340h-55l-9 50q-12 -23 -30.5 -39.5t-58.5 -16.5q-39 0 -65.5 13.5t-43 35.5t-24 48t-7.5 52v197h64q0 -36 0.5 -56t0.5 -36v-35.5v-54.5q0 -15 3.5 -33.5t12 -35t23.5 -27.5t39 -11q26 0 43 10t27 26t13.5 35t3.5 37z" />
    <glyph glyph-name="v" unicode="v" horiz-adv-x="363" 
d="M245 43q-5 -15 -15 -26q-8 -10 -21 -18t-30 -8q-19 -1 -31.5 6.5t-20.5 16.5q-9 11 -14 24l-101 302h62l84 -262q2 -10 6 -17q3 -6 6.5 -11.5t8.5 -4.5q4 0 7.5 5t6.5 12q4 7 6 17l85 261h62l-101 -297v0z" />
    <glyph glyph-name="w" unicode="w" horiz-adv-x="557" 
d="M548 339l-81 -285q-12 -33 -28.5 -49.5t-49.5 -16.5q-34 0 -50.5 19.5t-27.5 57.5q-3 11 -11 46.5l-18 83.5q-9 -48 -19 -83.5t-14 -46.5q-11 -38 -25 -57.5t-47 -19.5q-34 0 -52 16.5t-30 49.5l-82 285h69l79 -277q5 -14 17 -14q13 0 16 14l67 235h41l66 -235
q5 -14 17 -14q11 0 16 14l78 277h69z" />
    <glyph glyph-name="x" unicode="x" horiz-adv-x="396" 
d="M385 0h-84l-103 120l-103 -120h-84l145 170l-145 170h84l103 -121l103 121h84l-145 -170l145 -170v0z" />
    <glyph glyph-name="y" unicode="y" horiz-adv-x="381" 
d="M208 -170q29 0 45 32.5t16 92.5v65l-87.5 35.5t-61.5 32.5t-40.5 37.5t-23.5 49.5t-11 69t-3 96h65q0 -66 2.5 -105.5t17.5 -65t48 -44.5t94 -43v258h65v-393q0 -48 -10 -80t-27 -51.5t-39.5 -27.5t-47.5 -8q-32 0 -55.5 13t-40 35.5t-25 51.5t-9.5 61h57q1 -18 5.5 -38
t13 -36t21.5 -26.5t31 -10.5z" />
    <glyph glyph-name="z" unicode="z" horiz-adv-x="447" 
d="M144 55h255v-55h-119h-73h-40.5h-22t-17.5 0.5t-27 0.5q-29 0 -38.5 10.5t-8.5 23.5q2 11 7 20l6 8l250 223h-262v54l291 1q21 -3 33 -12q11 -8 15.5 -22.5t-9.5 -38.5z" />
    <glyph glyph-name="braceleft" unicode="{" horiz-adv-x="246" 
d="M183 439q-14 0 -31 -2.5t-26 -13.5q-13 -14 -8 -49q8 -51 10.5 -94.5t-18.5 -68.5q-2 -2 0 -4q21 -26 18.5 -69t-10.5 -94q-5 -35 8 -49q9 -11 26 -14t31 -3h19v-42h-29q-20 0 -45 6.5t-42 26.5q-26 29 -17 82l6 39t3.5 38t-1.5 31.5t-8 21.5q-2 2 -7 5t-16 3h-17v40h17
q11 0 16 2.5t7 5.5q6 7 8 21t1.5 31.5t-3.5 37.5l-6 40q-9 53 17 82q17 20 42 26t45 6h29v-42h-19z" />
    <glyph glyph-name="bar" unicode="|" horiz-adv-x="149" 
d="M100 555v-705h-55v705h55z" />
    <glyph glyph-name="braceright" unicode="}" horiz-adv-x="271" 
d="M54 439v42h29q20 0 45 -6t42 -26q26 -29 17 -82l-6 -40t-3.5 -37.5t1.5 -31.5t8 -21q2 -3 7 -5.5t16 -2.5h17v-40h-17q-11 0 -16 -3t-7 -5q-6 -8 -8 -21.5t-1.5 -31.5t3.5 -38l6 -39q9 -53 -17 -82q-17 -20 -42 -26.5t-45 -6.5h-29v42h19q14 0 31 3t26 14q13 14 8 49
q-8 51 -10.5 94t18.5 69q2 2 0 4q-21 25 -18.5 68.5t10.5 94.5q5 35 -8 49q-9 11 -26 13.5t-31 2.5h-19z" />
    <glyph glyph-name="asciitilde" unicode="~" horiz-adv-x="442" 
d="M121 262q55 13 118 -31q47 -33 86 -24q14 3 25 10.5t18.5 15t12 13.5l4.5 6l34 -35q0 -1 -5.5 -9.5t-16.5 -19.5t-27 -21t-36 -14q-59 -12 -118 31q-47 33 -85 24q-14 -3 -24.5 -10.5t-18.5 -15.5q-9 -9 -16 -19l-35 34q0 1 5.5 9.5t16 19t26 21t36.5 15.5z" />
    <glyph glyph-name="Euro" unicode="&#x20ac;" horiz-adv-x="543" 
d="M79 318h51v158h362v-57h-298v-101h217v-56h-217v-65h218v-58h-218v-81h298v-58h-362v140h-51v56h51v66h-51v56z" />
    <glyph glyph-name="quotesinglbase" unicode="&#x201a;" horiz-adv-x="139" 
d="M122 13q-9 -49 -25.5 -79.5t-53.5 -63.5l-31 34q31 26 43 48.5t16 40.5q-19 0 -32 13.5t-13 31.5q0 19 13 31t32 12q54 0 51 -68z" />
    <glyph glyph-name="florin" unicode="&#x192;" horiz-adv-x="406" 
d="M297 437q23 11 48 9q24 -2 44.5 -10.5t46.5 -25.5l-26 -35l-8 6t-20.5 11.5t-28 7t-31.5 -5.5q-23 -11 -38.5 -43.5t-27.5 -80.5h65l-9 -43h-66q-17 -89 -29 -139t-20 -65q-26 -62 -64 -82q-37 -20 -66.5 -17t-45.5 11q-16 9 -23 15.5t-11 11.5l16 37q26 -23 51.5 -26
t42.5 5q34 16 57.5 76t40.5 173h-57l9 43h58l9.5 35t10.5 32q14 37 32 63.5t40 36.5z" />
    <glyph glyph-name="quotedblbase" unicode="&#x201e;" horiz-adv-x="280" 
d="M122 13q-9 -49 -25.5 -79.5t-53.5 -63.5l-31 34q31 26 43 48.5t16 40.5q-19 0 -32 13.5t-13 31.5q0 19 13 31t32 12q54 0 51 -68zM244 13q-9 -49 -25.5 -79.5t-53.5 -63.5l-31 34q31 26 43 48.5t16 40.5q-19 0 -32 13.5t-13 31.5q0 19 13 31t32 12q54 0 51 -68z" />
    <glyph glyph-name="ellipsis" unicode="&#x2026;" horiz-adv-x="824" 
d="M201 37q0 -21 -16.5 -36.5t-37.5 -15.5t-36.5 15.5t-15.5 36.5t15.5 37.5t36.5 16.5t37.5 -16.5t16.5 -37.5zM473 37q0 -21 -16.5 -36.5t-37.5 -15.5q-22 0 -37 15.5t-15 36.5t15 37.5t37 16.5q21 0 37.5 -16.5t16.5 -37.5zM746 37q0 -21 -16 -36.5t-38 -15.5
q-21 0 -36.5 15.5t-15.5 36.5t15.5 37.5t36.5 16.5q22 0 38 -16.5t16 -37.5z" />
    <glyph glyph-name="dagger" unicode="&#x2020;" horiz-adv-x="400" 
d="M170 335v160h60v-160l125 3v-50l-125 3v-331h-60v331l-126 -3v50z" />
    <glyph glyph-name="daggerdbl" unicode="&#x2021;" horiz-adv-x="400" 
d="M175 333v162h50v-162l135 3v-48l-135 3v-117l135 3v-48l-135 3v-172h-50v172l-136 -3v48l136 -3v117l-136 -3v48z" />
    <glyph glyph-name="circumflex" unicode="&#x2c6;" horiz-adv-x="312" 
d="M134 463l-59 -79h-60q77 101 83 108q15 16 26.5 21t28.5 5q29 1 52 -28q7 -9 77 -106h-58l-56 79q-7 8 -15 8q-12 0 -19 -8z" />
    <glyph glyph-name="perthousand" unicode="&#x2030;" horiz-adv-x="633" 
d="M349 178q25 0 42.5 -17.5t17.5 -42.5v-18q0 -25 -17.5 -42.5t-42.5 -17.5h-18q-25 0 -42.5 17.5t-17.5 42.5v18q0 25 17.5 42.5t42.5 17.5h18zM306 100q0 -10 7 -17.5t18 -7.5h18q11 0 18 7.5t7 17.5v18q0 11 -7 18t-18 7h-18q-11 0 -18 -7t-7 -18v-18zM426 507
l-316 -540h-61l317 540h60zM129 436q25 0 42.5 -17.5t17.5 -42.5v-18q0 -25 -17.5 -42.5t-42.5 -17.5h-18q-25 0 -42.5 17.5t-17.5 42.5v18q0 25 17.5 42.5t42.5 17.5h18zM86 358q0 -10 7 -17.5t18 -7.5h18q11 0 18 7.5t7 17.5v18q0 11 -7 18t-18 7h-18q-11 0 -18 -7t-7 -18
v-18zM515 178q25 0 42.5 -17.5t17.5 -42.5v-18q0 -25 -17.5 -42.5t-42.5 -17.5h-18q-25 0 -42.5 17.5t-17.5 42.5v18q0 25 17.5 42.5t42.5 17.5h18zM472 100q0 -10 7 -17.5t18 -7.5h18q11 0 18 7.5t7 17.5v18q0 11 -7 18t-18 7h-18q-11 0 -18 -7t-7 -18v-18z" />
    <glyph glyph-name="Scaron" unicode="&#x160;" horiz-adv-x="489" 
d="M234 581q8 -9 22 -9q9 0 17 9l63 90h67q-80 -110 -88 -120q-26 -33 -59 -32q-20 0 -33 5.5t-30 23.5q-7 8 -95 123h69zM358 227q64 -37 64 -102q0 -29 -11 -54.5t-33 -44.5t-55.5 -29.5t-77.5 -9.5q-36 1 -67.5 12t-55 29.5t-36.5 43t-13 53.5v2h58v-4q0 -17 10 -32
t26.5 -26t37.5 -17.5t43 -6.5t42.5 6.5t36.5 17.5t25.5 26t9.5 32q0 66 -112 81q-85 14 -133.5 46.5t-48.5 95.5q0 28 13 53.5t35.5 44t54 29.5t67.5 11q37 0 69 -11t56 -29.5t37.5 -44t13.5 -53.5v-4h-61q0 1 0.5 1t0.5 1q0 17 -9.5 32t-25.5 26t-36 17.5t-42 6.5t-42 -6.5
t-35.5 -17.5t-24.5 -26t-9 -32q0 -34 33.5 -53.5t84.5 -28.5q21 -4 52.5 -11.5t57.5 -23.5z" />
    <glyph glyph-name="guilsinglleft" unicode="&#x2039;" horiz-adv-x="284" 
d="M248 68v-42l-148 83q-36 20 -53.5 39.5t-17.5 50.5q0 27 21 46t48 35l150 88v-43l-135 -82q-24 -15 -34 -24.5t-10 -19.5q0 -6 1.5 -11.5t6 -11.5t13.5 -13.5t25 -16.5z" />
    <glyph glyph-name="OE" unicode="&#x152;" horiz-adv-x="865" 
d="M526 419v-158h218v-58h-218v-145h259v-58h-323v48q-28 -29 -67 -45t-88 -16q-47 0 -84.5 16t-65 45t-43.5 68.5t-19 86.5v67q0 54 18 93t47 66q30 29 68.5 43.5t78.5 14.5q39 0 78 -14.5t70 -43.5l3.5 -3.5l3.5 -3.5v54h323v-57h-259zM450 292q-3 41 -29.5 75.5
t-61.5 48.5q-12 5 -25 7t-27 3q-28 -2 -52 -10q-35 -14 -61.5 -48.5t-29.5 -75.5l1 -102q0 -24 7.5 -45.5t21 -39.5t31 -31.5t36.5 -20.5q11 -3 22.5 -5t23.5 -2t23.5 2t22.5 5q19 7 36.5 20.5t31 31.5t21 39.5t7.5 45.5z" />
    <glyph glyph-name="Zcaron" unicode="&#x17d;" horiz-adv-x="504" 
d="M142 55h346v-55h-174.5h-103.5t-62 0.5t-50 0.5q-29 0 -38.5 10.5t-8.5 23.5q2 11 7 20l6 8l341 358h-361v54l390 1q21 -3 33 -12q11 -8 15.5 -22.5t-9.5 -38.5zM273 581q2 -3 5 0l49 69h80l-75 -102q-21 -27 -55 -27q-17 0 -32.5 6.5t-24.5 18.5l-80 104h81z" />
    <glyph glyph-name="quoteleft" unicode="&#x2018;" horiz-adv-x="216" 
d="M107 451q20 -1 34 -15t14 -34q0 -21 -14.5 -35.5t-34.5 -14.5q-22 0 -34 10t-17 24.5t-4.5 29.5t3.5 24q5 22 23.5 53.5t62.5 69.5l30 -30q-22 -15 -38.5 -35.5t-24.5 -46.5z" />
    <glyph glyph-name="quoteright" unicode="&#x2019;" horiz-adv-x="216" 
d="M103 448q-20 1 -34 15t-14 34q0 21 14.5 35.5t34.5 14.5q22 0 34 -10t17 -24.5t4.5 -29.5t-3.5 -24q-5 -22 -23.5 -54t-62.5 -69l-30 30q22 15 38.5 35.5t24.5 46.5z" />
    <glyph glyph-name="quotedblleft" unicode="&#x201c;" horiz-adv-x="309" 
d="M88 454q20 -1 34 -15t14 -34q0 -21 -14.5 -35.5t-34.5 -14.5q-22 0 -34 10t-17 24.5t-4.5 29.5t3.5 24q5 22 23.5 53.5t62.5 69.5l30 -30q-22 -15 -38.5 -35.5t-24.5 -46.5zM222 454q20 -1 34 -15t14 -34q0 -21 -14.5 -35.5t-34.5 -14.5q-22 0 -34 10t-17 24.5t-4.5 29.5
t3.5 24q5 22 23.5 53.5t62.5 69.5l30 -30q-22 -15 -38.5 -35.5t-24.5 -46.5z" />
    <glyph glyph-name="quotedblright" unicode="&#x201d;" horiz-adv-x="309" 
d="M219 414q-20 1 -34 15t-14 34q0 21 14.5 35.5t34.5 14.5q22 0 34 -10t17 -24.5t4.5 -29.5t-3.5 -24q-5 -22 -23.5 -54t-62.5 -69l-30 30q22 15 38.5 35.5t24.5 46.5zM85 414q-20 1 -34 15t-14 34q0 21 14.5 35.5t34.5 14.5q22 0 34 -10t17 -24.5t4.5 -29.5t-3.5 -24
q-5 -22 -23.5 -54t-62.5 -69l-30 30q22 15 38.5 35.5t24.5 46.5z" />
    <glyph glyph-name="bullet" unicode="&#x2022;" horiz-adv-x="216" 
d="M161 178q0 -22 -15.5 -37t-37.5 -15t-37 15t-15 37t15 37.5t37 15.5t37.5 -15.5t15.5 -37.5z" />
    <glyph glyph-name="endash" unicode="&#x2013;" horiz-adv-x="396" 
d="M372 218v-54h-352v54h352z" />
    <glyph glyph-name="emdash" unicode="&#x2014;" horiz-adv-x="720" 
d="M695 219v-54h-675v54h675z" />
    <glyph glyph-name="tilde" unicode="&#x2dc;" horiz-adv-x="336" 
d="M99 465q42 7 85 -27q29 -25 54 -20q8 2 14.5 7t11.5 10q5 6 9 14l40 -22l-8 -11.5t-15.5 -19.5t-18 -16.5t-25.5 -11.5q-40 -9 -85 27q-29 24 -56 20q-19 -4 -33 -18q-7 -7 -12 -15l-30 33q0 1 5 7.5t13.5 15t21 16.5t29.5 11z" />
    <glyph glyph-name="trademark" unicode="&#x2122;" horiz-adv-x="577" 
d="M462 508q33 0 55 -21.5t22 -65.5v-188h-36v189q-2 23 -12.5 38t-34.5 15q-19 0 -32.5 -14.5t-14.5 -38.5v-189h-1h-35v141v47q-1 24 -12.5 39t-36.5 15q-19 0 -30.5 -15t-13.5 -38v-189h-35v188q1 44 22.5 65.5t54.5 21.5q20 0 38.5 -8t31.5 -24q13 16 31.5 24t38.5 8z
M238 469h-89v-236h-37v236h-88v30h214v-30z" />
    <glyph glyph-name="scaron" unicode="&#x161;" horiz-adv-x="369" 
d="M270 174q24 -13 38.5 -34.5t14.5 -46.5q0 -20 -7.5 -39t-24.5 -34t-45 -24t-69 -9q-32 0 -58 9t-44 24t-28 34t-10 39v4h66v-6q0 -24 22 -41.5t54 -17.5q16 0 30.5 4.5t26 13t18.5 19t7 22.5q0 25 -20 38t-61 18q-38 4 -63.5 13t-41 22.5t-22 31.5t-6.5 40q0 20 6 39
t21 33.5t40 23t63 8.5q35 0 62 -8.5t46 -23t28.5 -33.5t9.5 -39v-11h-62v9q0 25 -25 40t-57 15t-54 -15t-22 -40q0 -23 19.5 -33.5t46.5 -16t55.5 -10.5t45.5 -18zM202 445q2 -3 5 0l49 69h80l-75 -102q-21 -27 -55 -27q-17 0 -32.5 6.5t-24.5 18.5l-80 104h81z" />
    <glyph glyph-name="guilsinglright" unicode="&#x203a;" horiz-adv-x="242" 
d="M162 146q31 19 38.5 30t7.5 23q0 10 -10 19.5t-34 24.5l-135 82v43l150 -88q27 -16 48 -35t21 -46q0 -31 -17.5 -50.5t-53.5 -39.5l-148 -83v42z" />
    <glyph glyph-name="oe" unicode="&#x153;" horiz-adv-x="688" 
d="M476 45q27 0 51.5 15.5t33.5 47.5h62q-12 -56 -51 -86.5t-86 -30.5q-42 0 -78.5 15.5t-59.5 47.5q-23 -32 -58 -47.5t-73 -15.5q-30 0 -58 9.5t-50 29t-35.5 49t-13.5 68.5q0 20 -0.5 34t-0.5 15q0 39 13.5 68.5t36 49t51 29.5t57.5 10q38 0 72.5 -15.5t57.5 -47.5
q22 31 55 46.5t68 16.5q27 0 54.5 -9t50 -27t37 -44t14.5 -59q0 -7 -1.5 -15.5t-8 -16.5t-18.5 -13.5t-33 -5.5h-89h-88l1 -39q0 -19 8 -33.5t20.5 -24.5t28 -15.5t30.5 -5.5zM470 296q-32 -1 -55 -21.5t-27 -60.5h88h88q-4 42 -32.5 63t-61.5 19zM311 211q0 22 -8.5 38.5
t-22 27t-30 15.5t-33.5 5t-33.5 -5t-30 -15.5t-21.5 -27t-8 -38.5v-73q0 -23 8 -40t21 -29t29.5 -18t34.5 -6t34.5 6t29.5 17.5t21 29t8 40.5z" />
    <glyph glyph-name="zcaron" unicode="&#x17e;" horiz-adv-x="447" 
d="M144 55h255v-55h-119h-73h-40.5h-22t-17.5 0.5t-27 0.5q-29 0 -38.5 10.5t-8.5 23.5q2 11 7 20l6 8l250 223h-262v54l291 1q21 -3 33 -12q11 -8 15.5 -22.5t-9.5 -38.5zM236 445q2 -3 5 0l49 69h80l-75 -102q-21 -27 -55 -27q-17 0 -32.5 6.5t-24.5 18.5l-80 104h81z" />
    <glyph glyph-name="Ydieresis" unicode="&#x178;" horiz-adv-x="417" 
d="M239 176l-206 300h69l170 -242l169 242h71l-209 -302v-174h-64v176zM118 575q0 20 13 33.5t33 13.5t33.5 -13.5t13.5 -33.5t-13.5 -33t-33.5 -13t-33 13t-13 33zM268 575q0 20 13 33.5t33 13.5t33.5 -13.5t13.5 -33.5t-13.5 -33t-33.5 -13t-33 13t-13 33z" />
    <glyph glyph-name="cent" unicode="&#xa2;" horiz-adv-x="502" 
d="M233 -10q-36 5 -69.5 20.5t-59 42.5t-40.5 64.5t-15 85.5v67q0 54 18 93t47 66q25 23 55.5 37t63.5 19v75h56v-75q30 -3 58.5 -14.5t52 -30.5t41.5 -46.5t27 -62.5h-62q-11 29 -32.5 51.5t-47.5 33.5q-20 7 -37 8v-378q8 1 15.5 3l15.5 4q28 11 51.5 35.5t35.5 55.5h61
q-17 -73 -66.5 -111.5t-112.5 -44.5v-66h-56v68zM215 53q5 -2 9 -3t9 -2v374q-11 -1 -24 -6q-35 -14 -61.5 -48.5t-29.5 -75.5l1 -102q0 -24 7.5 -45.5t21 -39.5t31 -31.5t36.5 -20.5z" />
    <glyph glyph-name="copyright" unicode="&#xa9;" horiz-adv-x="536" 
d="M93 418q35 35 80 54t96 19q50 0 95 -19t80 -54t54 -80t19 -95q0 -51 -19 -96t-54 -80t-80 -54t-95 -19q-51 0 -96 19t-80 54t-54 80t-19 96q0 50 19 95t54 80zM60 243q0 -44 16.5 -82t44.5 -66t66 -44.5t82 -16.5q43 0 81 16.5t66 44.5t44.5 66t16.5 82q0 43 -16.5 81
t-44.5 66t-66 44.5t-81 16.5q-44 0 -82 -16.5t-66 -44.5t-44.5 -66t-16.5 -81zM329 177q-10 -17 -27 -26t-36 -9q-28 0 -50 16t-22 56l-1 56q0 30 19 46.5t43 19t47 -9t32 -36.5h51q-9 36 -33.5 57.5t-55.5 28.5t-62.5 0t-54.5 -29q-16 -15 -25.5 -35t-9.5 -53v-38
q0 -31 10.5 -53.5t27.5 -37.5t39 -22t45 -7q36 0 68.5 19t46.5 57h-52z" />
    <glyph glyph-name="ordfeminine" unicode="&#xaa;" horiz-adv-x="259" 
d="M182 259l-6 24q-12 -11 -27 -18.5t-33 -8.5q-15 -1 -30 3t-27.5 12.5t-20 21.5t-7.5 31q-1 29 14 48.5t36.5 27.5t46.5 5.5t44 -17.5v17q0 44 -52 44q-19 0 -34.5 -7.5t-20.5 -24.5l-29 19q12 20 33 32.5t47 12.5q19 0 37.5 -5t32 -14.5t22 -23.5t8.5 -32v-147h-34z
M171 348q-2 16 -22 22t-42 1q-19 -5 -28.5 -18.5t-8.5 -28t12 -26t33 -11.5q11 0 22 6t19 15t12 19.5t3 20.5z" />
    <glyph glyph-name="registered" unicode="&#xae;" horiz-adv-x="536" 
d="M90 414q35 35 80 54t96 19q50 0 95 -19t80 -54t54 -80t19 -95q0 -51 -19 -96t-54 -80t-80 -54t-95 -19q-51 0 -96 19t-80 54t-54 80t-19 96q0 50 19 95t54 80zM57 239q0 -44 16.5 -82t44.5 -66t66 -44.5t82 -16.5q43 0 81 16.5t66 44.5t44.5 66t16.5 82q0 43 -16.5 81
t-44.5 66t-66 44.5t-81 16.5q-44 0 -82 -16.5t-66 -44.5t-44.5 -66t-16.5 -81zM333 227q22 11 29 29t7 36q0 30 -19.5 51.5t-49.5 21.5h-128v-265h36v119h78q18 0 28.5 -11t11.5 -30v-78h36v68v8q0 18 -8 29.5t-21 21.5zM285 248h-77v88h78q19 0 35 -11.5t16 -32.5
t-16.5 -32.5t-35.5 -11.5z" />
    <glyph glyph-name="twosuperior" unicode="&#xb2;" horiz-adv-x="306" 
d="M196 476q32 0 52 -12t28 -33q8 -26 -7.5 -50.5t-46.5 -34.5l-111 -40q-11 -3 -21 -8.5t-17 -13.5t-9.5 -18t2.5 -22q3 -7 10.5 -10.5t16.5 -4.5t19 -0.5t18 0.5h146v-35h-162q-11 0 -24.5 2t-25.5 6.5t-22 12.5t-15 20q-6 16 -4 32t10.5 29t22.5 23t31 15l115 40
q14 5 23 10t14 14q8 15 -5 28.5t-51 13.5h-120v36h133z" />
    <glyph glyph-name="threesuperior" unicode="&#xb3;" horiz-adv-x="286" 
d="M248 343q18 -20 18 -55t-21 -57q-23 -26 -54 -26h-164v34h151q22 0 37.5 12t15.5 37q0 26 -13 38.5t-36 12.5h-77v31h65q19 0 27 10q10 11 10 28q0 19 -12 25.5t-29 6.5h-136v34h136q42 0 59 -18.5t17 -47.5q0 -31 -17 -48q11 -5 23 -17z" />
    <glyph glyph-name="cedilla" unicode="&#xb8;" horiz-adv-x="233" 
d="M56 -78l24 19l42 32h59l-12 -9.5l-27.5 -22l-31 -25t-22.5 -19.5q2 0 3.5 -0.5t3.5 -0.5h46q26 0 42 -16t16 -42v-32q0 -26 -20 -44q-7 -6 -20.5 -12t-35.5 -6h-93v40h93q17 0 26.5 5.5t9.5 16.5v32q0 11 -4.5 14.5t-13.5 3.5h-46q-25 0 -34.5 10t-12.5 16q-4 11 -2 21.5
t10 18.5z" />
    <glyph glyph-name="Acircumflex" unicode="&#xc2;" horiz-adv-x="427" 
d="M311 137h-183l-43 -137h-67l51 183l20 71.5l19 66l16 53.5t10 34q10 32 30.5 54.5t55.5 22.5q29 0 49.5 -20t28.5 -48l124 -417h-67zM302 183l-71 225q-1 2 -3 5q-5 5 -12 5t-12 -5q-2 -3 -3 -5l-63 -225h164zM198 599l-59 -79h-60q77 101 83 108q15 16 26.5 21t28.5 5
q29 1 52 -28q7 -9 77 -106h-58l-56 79q-7 8 -15 8q-12 0 -19 -8z" />
    <glyph glyph-name="Adieresis" unicode="&#xc4;" horiz-adv-x="427" 
d="M311 137h-183l-43 -137h-67l51 183l20 71.5l19 66l16 53.5t10 34q10 32 30.5 54.5t55.5 22.5q29 0 49.5 -20t28.5 -48l124 -417h-67zM302 183l-71 225q-1 2 -3 5q-5 5 -12 5t-12 -5q-2 -3 -3 -5l-63 -225h164zM128 578q0 20 13 33.5t33 13.5t33.5 -13.5t13.5 -33.5
t-13.5 -33t-33.5 -13t-33 13t-13 33zM278 578q0 20 13 33.5t33 13.5t33.5 -13.5t13.5 -33.5t-13.5 -33t-33.5 -13t-33 13t-13 33z" />
    <glyph glyph-name="Aring" unicode="&#xc5;" horiz-adv-x="427" 
d="M208 676q30 0 51 -19.5t21 -47.5v-17q0 -29 -21 -48t-51 -19h-17q-29 0 -50.5 19t-21.5 48v17q0 28 21.5 47.5t50.5 19.5h17zM176 592q0 -6 2.5 -10.5t7.5 -4.5h27q5 0 7.5 4.5t2.5 10.5v17q0 6 -2.5 10.5t-7.5 4.5h-27q-5 0 -7.5 -4.5t-2.5 -10.5v-17zM354 0h67
l-124 417q-8 28 -28.5 48t-49.5 20q-35 0 -55.5 -22.5t-30.5 -54.5q-3 -11 -10 -34l-16 -53.5l-19 -66l-20 -71.5l-51 -183h67l43 137h183zM137 183l63 225q1 2 3 5q5 5 12 5t12 -5q2 -3 3 -5l71 -225h-164z" />
    <glyph glyph-name="AE" unicode="&#xc6;" horiz-adv-x="671" 
d="M621 429h-343q11 -10 16.5 -20.5t10.5 -28.5l35 -129h218v-48h-202l40 -156h225v-47h-269l-86 334q-11 44 -22 55.5t-24 11.5h-7h-1q-9 0 -10 -1.5t-8.5 -8t-15 -20t-61 -192t-53.5 -179.5h-56q1 3 59 209t79 231q13 16 29.5 26.5t36.5 10.5h7l402 -1v-47z" />
    <glyph glyph-name="Ccedilla" unicode="&#xc7;" horiz-adv-x="464" 
d="M463 144q-19 -79 -75 -118t-126 -39q-41 0 -80 13.5t-70 40.5t-49.5 67.5t-18.5 94.5v67q0 54 18 93t47 66q27 25 60.5 39.5t69.5 17.5t71.5 -5t65.5 -27.5t53 -50t34 -72.5h-62q-11 29 -32.5 51.5t-47.5 33.5q-28 10 -58.5 10t-58.5 -10q-35 -14 -61.5 -48.5
t-29.5 -75.5l1 -102q0 -24 7.5 -45.5t21 -39.5t31 -31.5t36.5 -20.5q52 -16 105 0q28 11 51.5 35.5t35.5 55.5h61zM165 -64l24 19l42 32h59l-12 -9.5l-27.5 -22l-31 -25t-22.5 -19.5q2 0 3.5 -0.5t3.5 -0.5h46q26 0 42 -16t16 -42v-32q0 -26 -20 -44q-7 -6 -20.5 -12
t-35.5 -6h-93v40h93q17 0 26.5 5.5t9.5 16.5v32q0 11 -4.5 14.5t-13.5 3.5h-46q-25 0 -34.5 10t-12.5 16q-4 11 -2 21.5t10 18.5z" />
    <glyph glyph-name="Ecircumflex" unicode="&#xca;" horiz-adv-x="451" 
d="M384 419h-259v-158h218v-58h-218v-145h259v-58h-323v476h323v-57v0zM209 599l-59 -79h-60q77 101 83 108q15 16 26.5 21t28.5 5q29 1 52 -28q7 -9 77 -106h-58l-56 79q-7 8 -15 8q-12 0 -19 -8z" />
    <glyph glyph-name="Edieresis" unicode="&#xcb;" horiz-adv-x="451" 
d="M384 419h-259v-158h218v-58h-218v-145h259v-58h-323v476h323v-57v0zM135 578q0 20 13 33.5t33 13.5t33.5 -13.5t13.5 -33.5t-13.5 -33t-33.5 -13t-33 13t-13 33zM285 578q0 20 13 33.5t33 13.5t33.5 -13.5t13.5 -33.5t-13.5 -33t-33.5 -13t-33 13t-13 33z" />
    <glyph glyph-name="Icircumflex" unicode="&#xce;" horiz-adv-x="188" 
d="M61 0v476h64v-476h-64v0zM75 599l-59 -79h-60q77 101 83 108q15 16 26.5 21t28.5 5q29 1 52 -28q7 -9 77 -106h-58l-56 79q-7 8 -15 8q-12 0 -19 -8z" />
    <glyph glyph-name="Idieresis" unicode="&#xcf;" horiz-adv-x="188" 
d="M61 0v476h64v-476h-64v0zM5 578q0 20 13 33.5t33 13.5t33.5 -13.5t13.5 -33.5t-13.5 -33t-33.5 -13t-33 13t-13 33zM155 578q0 20 13 33.5t33 13.5t33.5 -13.5t13.5 -33.5t-13.5 -33t-33.5 -13t-33 13t-13 33z" />
    <glyph glyph-name="Ntilde" unicode="&#xd1;" horiz-adv-x="456" 
d="M155 602q48 9 94 -28q27 -22 40.5 -15.5t28.5 35.5l55 -28l-7.5 -11.5t-14.5 -18.5t-21 -18.5t-28 -12.5q-23 -5 -47 1.5t-47 26.5q-26 22 -45.5 13.5t-35.5 -33.5l-51 28q0 1 5.5 9.5t16 19t25 20t32.5 12.5zM357 476v-380l-241 380h-67v-476h64v378l241 -378h67v476
h-64v0z" />
    <glyph glyph-name="Ocircumflex" unicode="&#xd4;" horiz-adv-x="484" 
d="M470 203q-1 -47 -16 -87t-42.5 -68.5t-66.5 -44.5t-88 -16q-47 0 -84.5 16t-65 45t-43.5 68.5t-19 86.5v67q0 54 18 93t47 66q30 29 68.5 43.5t78.5 14.5q39 0 78 -14.5t70 -43.5q29 -27 46.5 -66t18.5 -93v-67zM400 292q-3 41 -29.5 75.5t-61.5 48.5q-12 5 -25 7t-27 3
q-28 -2 -52 -10q-35 -14 -61.5 -48.5t-29.5 -75.5l1 -102q0 -24 7.5 -45.5t21 -39.5t31 -31.5t36.5 -20.5q11 -3 22.5 -5t23.5 -2t23.5 2t22.5 5q19 7 36.5 20.5t31 31.5t21 39.5t7.5 45.5zM224 599l-59 -79h-60q77 101 83 108q15 16 26.5 21t28.5 5q29 1 52 -28
q7 -9 77 -106h-58l-56 79q-7 8 -15 8q-12 0 -19 -8z" />
    <glyph glyph-name="Odieresis" unicode="&#xd6;" horiz-adv-x="484" 
d="M470 203q-1 -47 -16 -87t-42.5 -68.5t-66.5 -44.5t-88 -16q-47 0 -84.5 16t-65 45t-43.5 68.5t-19 86.5v67q0 54 18 93t47 66q30 29 68.5 43.5t78.5 14.5q39 0 78 -14.5t70 -43.5q29 -27 46.5 -66t18.5 -93v-67zM400 292q-3 41 -29.5 75.5t-61.5 48.5q-12 5 -25 7t-27 3
q-28 -2 -52 -10q-35 -14 -61.5 -48.5t-29.5 -75.5l1 -102q0 -24 7.5 -45.5t21 -39.5t31 -31.5t36.5 -20.5q11 -3 22.5 -5t23.5 -2t23.5 2t22.5 5q19 7 36.5 20.5t31 31.5t21 39.5t7.5 45.5zM154 578q0 20 13 33.5t33 13.5t33.5 -13.5t13.5 -33.5t-13.5 -33t-33.5 -13t-33 13
t-13 33zM304 578q0 20 13 33.5t33 13.5t33.5 -13.5t13.5 -33.5t-13.5 -33t-33.5 -13t-33 13t-13 33z" />
    <glyph glyph-name="multiply" unicode="&#xd7;" horiz-adv-x="326" 
d="M123 198l-108 108l39 39l108 -108l110 111l39 -39l-110 -111l101 -100l-39 -39l-101 100l-98 -98l-39 39z" />
    <glyph glyph-name="Oslash" unicode="&#xd8;" horiz-adv-x="563" 
d="M461 418q35 -35 55 -82t20 -101q0 -53 -20 -99.5t-54.5 -81.5t-81.5 -55t-100 -20q-37 0 -71.5 10.5t-63.5 28.5l-39 -50h-75l68 87q-35 35 -55 81t-20 99t20 100t55 81.5t81.5 54.5t99.5 20q76 0 135 -38l46 58h74zM87 234q0 -38 14 -70.5t38 -58.5l234 296
q-21 11 -45 17.5t-50 6.5q-39 0 -74 -15t-61 -41t-41 -60.5t-15 -74.5zM278 43q40 0 74.5 15t60.5 41t41 61t15 74q0 38 -13.5 71t-36.5 59l-234 -296q42 -25 93 -25z" />
    <glyph glyph-name="Ucircumflex" unicode="&#xdb;" horiz-adv-x="505" 
d="M219 52q24 0 45.5 9t38 23t26.5 33.5t10 40.5v318h64v-328q0 -34 -16 -63t-42 -50t-59 -32.5t-67 -11.5t-67 12t-59.5 33t-42.5 49.5t-16 62.5v328h64v-319q0 -21 10 -40t27 -33.5t39 -23t45 -8.5zM232 599l-59 -79h-60q77 101 83 108q15 16 26.5 21t28.5 5q29 1 52 -28
q7 -9 77 -106h-58l-56 79q-7 8 -15 8q-12 0 -19 -8z" />
    <glyph glyph-name="Udieresis" unicode="&#xdc;" horiz-adv-x="505" 
d="M219 52q24 0 45.5 9t38 23t26.5 33.5t10 40.5v318h64v-328q0 -34 -16 -63t-42 -50t-59 -32.5t-67 -11.5t-67 12t-59.5 33t-42.5 49.5t-16 62.5v328h64v-319q0 -21 10 -40t27 -33.5t39 -23t45 -8.5zM164 578q0 20 13 33.5t33 13.5t33.5 -13.5t13.5 -33.5t-13.5 -33
t-33.5 -13t-33 13t-13 33zM314 578q0 20 13 33.5t33 13.5t33.5 -13.5t13.5 -33.5t-13.5 -33t-33.5 -13t-33 13t-13 33z" />
    <glyph glyph-name="acircumflex" unicode="&#xe2;" horiz-adv-x="379" 
d="M279 0l-10 39q-19 -19 -42 -30.5t-51 -12.5q-24 -1 -48 5t-43.5 19t-31.5 33.5t-12 49.5q-1 46 22.5 76t58 43t73 8.5t68.5 -26.5v26q0 33 -21 51.5t-61 18.5q-29 0 -53.5 -12.5t-32.5 -38.5l-46 30q19 32 52 51.5t75 19.5q30 0 58.5 -8t50 -23.5t34.5 -37.5t13 -49v-1
v-231h-53zM262 140q-2 12 -11.5 21t-24 13.5t-31.5 5t-34 -3.5q-30 -7 -44.5 -28.5t-13.5 -44.5t18 -41t52 -18q18 0 35 9t29.5 23.5t19.5 31.5t5 32zM177 463l-59 -79h-60q77 101 83 108q15 16 26.5 21t28.5 5q29 1 52 -28q7 -9 77 -106h-58l-56 79q-7 8 -15 8
q-12 0 -19 -8z" />
    <glyph glyph-name="adieresis" unicode="&#xe4;" horiz-adv-x="379" 
d="M279 0l-10 39q-19 -19 -42 -30.5t-51 -12.5q-24 -1 -48 5t-43.5 19t-31.5 33.5t-12 49.5q-1 46 22.5 76t58 43t73 8.5t68.5 -26.5v26q0 33 -21 51.5t-61 18.5q-29 0 -53.5 -12.5t-32.5 -38.5l-46 30q19 32 52 51.5t75 19.5q30 0 58.5 -8t50 -23.5t34.5 -37.5t13 -49v-1
v-231h-53zM262 140q-2 12 -11.5 21t-24 13.5t-31.5 5t-34 -3.5q-30 -7 -44.5 -28.5t-13.5 -44.5t18 -41t52 -18q18 0 35 9t29.5 23.5t19.5 31.5t5 32zM98 442q0 20 13 33.5t33 13.5t33.5 -13.5t13.5 -33.5t-13.5 -33t-33.5 -13t-33 13t-13 33zM248 442q0 20 13 33.5t33 13.5
t33.5 -13.5t13.5 -33.5t-13.5 -33t-33.5 -13t-33 13t-13 33z" />
    <glyph glyph-name="aring" unicode="&#xe5;" horiz-adv-x="379" 
d="M177 540q30 0 51 -19.5t21 -47.5v-17q0 -29 -21 -48t-51 -19h-17q-29 0 -50.5 19t-21.5 48v17q0 28 21.5 47.5t50.5 19.5h17zM145 456q0 -6 2.5 -10.5t7.5 -4.5h27q5 0 7.5 4.5t2.5 10.5v17q0 6 -2.5 10.5t-7.5 4.5h-27q-5 0 -7.5 -4.5t-2.5 -10.5v-17zM279 0l-10 39
q-19 -19 -42 -30.5t-51 -12.5q-24 -1 -48 5t-43.5 19t-31.5 33.5t-12 49.5q-1 46 22.5 76t58 43t73 8.5t68.5 -26.5v26q0 33 -21 51.5t-61 18.5q-29 0 -53.5 -12.5t-32.5 -38.5l-46 30q19 32 52 51.5t75 19.5q30 0 58.5 -8t50 -23.5t34.5 -37.5t13 -49v-1v-231h-53zM262 140
q-2 12 -11.5 21t-24 13.5t-31.5 5t-34 -3.5q-30 -7 -44.5 -28.5t-13.5 -44.5t18 -41t52 -18q18 0 35 9t29.5 23.5t19.5 31.5t5 32z" />
    <glyph glyph-name="ae" unicode="&#xe6;" horiz-adv-x="665" 
d="M458 41q27 0 51.5 15.5t33.5 47.5h62q-12 -56 -51 -86.5t-86 -30.5q-34 0 -64.5 10.5t-53.5 31.5v-33h-53l-10 39q-19 -19 -42 -30.5t-51 -12.5q-24 -1 -48 5t-43.5 19t-31.5 33.5t-12 49.5q-1 46 22.5 76t58 43t73 8.5t68.5 -26.5v26q0 33 -21 51.5t-61 18.5
q-29 0 -53.5 -12.5t-32.5 -38.5l-46 30q19 32 52 51.5t75 19.5q42 1 79 -14.5t58 -44.5q21 30 53.5 45.5t67.5 16.5q27 0 54.5 -9t50 -27t37 -44t14.5 -59q0 -7 -1.5 -15.5t-8 -16.5t-18.5 -13.5t-33 -5.5h-89h-88l1 -39q0 -19 8 -33.5t20.5 -24.5t28 -15.5t30.5 -5.5z
M452 292q-32 -1 -55 -21.5t-27 -60.5h88h88q-4 42 -32.5 63t-61.5 19zM191 40q18 0 35 9t29.5 23.5t19.5 31.5t5 32q-2 12 -11.5 21t-24 13.5t-31.5 5t-34 -3.5q-30 -7 -44.5 -28.5t-13.5 -44.5t18 -41t52 -18z" />
    <glyph glyph-name="ccedilla" unicode="&#xe7;" horiz-adv-x="371" 
d="M338 86q-9 -25 -24.5 -43.5t-35 -31t-42.5 -18.5t-47 -6q-30 0 -58 9.5t-50 29t-35.5 48.5t-13.5 69q0 16 -0.5 32t-0.5 17q0 43 12.5 68.5t33.5 45.5q30 28 71 38t80.5 0.5t71.5 -37.5t43 -75h-66q-11 33 -40.5 47.5t-61 11.5t-56 -24t-24.5 -60l1 -73q0 -26 8 -43.5
t21 -28.5t29.5 -16t34.5 -5q25 0 47 11t35 34h67zM109.401 -59.2021l21.6006 17.1006l37.8008 28.8008h53.1016l-10.7998 -8.5498l-24.751 -19.8008l-27.9004 -22.501q-13.9512 -11.25 -20.251 -17.5498q1.7998 0 3.15039 -0.450195q1.34961 -0.450195 3.14941 -0.450195
h41.4014q23.4004 0 37.8008 -14.4004t14.4004 -37.8008v-28.8008q0 -23.4014 -18 -39.6016q-6.2998 -5.39941 -18.4502 -10.7998t-31.9512 -5.40039h-83.7021v36.001h83.7021q15.3008 0 23.8506 4.9502t8.5498 14.8506v28.8008q0 9.90039 -4.0498 13.0498
q-4.0498 3.15039 -12.1504 3.15039h-41.4014q-22.5 0 -31.0508 9q-8.5498 9 -11.25 14.4004q-3.59961 9.90039 -1.7998 19.3506t9 16.6504z" />
    <glyph glyph-name="ecircumflex" unicode="&#xea;" horiz-adv-x="397" 
d="M100 122q0 -19 8 -33.5t20.5 -24.5t28 -15.5t30.5 -5.5q27 0 51.5 15.5t33.5 47.5h62q-12 -56 -51 -86.5t-86 -30.5q-33 0 -62.5 10t-52.5 29.5t-37 48.5t-14 68v49q0 39 13 68t34 48.5t48 29.5t55 11q27 0 54.5 -9t50 -27t37 -44t14.5 -59q0 -7 -1.5 -15.5t-8 -16.5
t-18.5 -13.5t-33 -5.5h-89h-88zM181 294q-32 -1 -55 -21.5t-27 -60.5h88h88q-4 42 -32.5 63t-61.5 19zM182 463l-59 -79h-60q77 101 83 108q15 16 26.5 21t28.5 5q29 1 52 -28q7 -9 77 -106h-58l-56 79q-7 8 -15 8q-12 0 -19 -8z" />
    <glyph glyph-name="edieresis" unicode="&#xeb;" horiz-adv-x="397" 
d="M100 122q0 -19 8 -33.5t20.5 -24.5t28 -15.5t30.5 -5.5q27 0 51.5 15.5t33.5 47.5h62q-12 -56 -51 -86.5t-86 -30.5q-33 0 -62.5 10t-52.5 29.5t-37 48.5t-14 68v49q0 39 13 68t34 48.5t48 29.5t55 11q27 0 54.5 -9t50 -27t37 -44t14.5 -59q0 -7 -1.5 -15.5t-8 -16.5
t-18.5 -13.5t-33 -5.5h-89h-88zM181 294q-32 -1 -55 -21.5t-27 -60.5h88h88q-4 42 -32.5 63t-61.5 19zM112 442q0 20 13 33.5t33 13.5t33.5 -13.5t13.5 -33.5t-13.5 -33t-33.5 -13t-33 13t-13 33zM262 442q0 20 13 33.5t33 13.5t33.5 -13.5t13.5 -33.5t-13.5 -33t-33.5 -13
t-33 13t-13 33z" />
    <glyph glyph-name="ntilde" unicode="&#xf1;" horiz-adv-x="367" 
d="M116 466q48 9 94 -28q27 -22 40.5 -15.5t28.5 35.5l55 -28l-7.5 -11.5t-14.5 -18.5t-21 -18.5t-28 -12.5q-23 -5 -47 1.5t-47 26.5q-26 22 -45.5 13.5t-35.5 -33.5l-51 28q0 1 5.5 9.5t16 19t25 20t32.5 12.5zM102 0h-65v340h65v-84q23 42 52.5 69.5t69.5 28.5
q24 0 43.5 -8t34 -21t22 -30t7.5 -35v-260h-65v234q0 61 -46 55q-32 -3 -54.5 -25t-37 -54.5t-21 -71.5t-5.5 -76v-62z" />
    <glyph glyph-name="ocircumflex" unicode="&#xf4;" horiz-adv-x="394" 
d="M360 145q0 -39 -13.5 -68.5t-36 -49t-51 -29t-58.5 -9.5t-58 9.5t-50 29t-35.5 49t-13.5 68.5q0 20 -0.5 34t-0.5 15q0 39 13.5 68.5t36 49t51 29.5t57.5 10q30 0 58 -10t50.5 -29.5t36.5 -49t14 -68.5v-49zM295 209q0 22 -8.5 38.5t-22 27t-30 15.5t-33.5 5t-33.5 -5
t-30 -15.5t-21.5 -27t-8 -38.5v-73q0 -23 8 -40t21 -29t29.5 -18t34.5 -6t34.5 6t29.5 17.5t21 29t8 40.5zM176 463l-59 -79h-60q77 101 83 108q15 16 26.5 21t28.5 5q29 1 52 -28q7 -9 77 -106h-58l-56 79q-7 8 -15 8q-12 0 -19 -8z" />
    <glyph glyph-name="odieresis" unicode="&#xf6;" horiz-adv-x="394" 
d="M360 145q0 -39 -13.5 -68.5t-36 -49t-51 -29t-58.5 -9.5t-58 9.5t-50 29t-35.5 49t-13.5 68.5q0 20 -0.5 34t-0.5 15q0 39 13.5 68.5t36 49t51 29.5t57.5 10q30 0 58 -10t50.5 -29.5t36.5 -49t14 -68.5v-49zM295 209q0 22 -8.5 38.5t-22 27t-30 15.5t-33.5 5t-33.5 -5
t-30 -15.5t-21.5 -27t-8 -38.5v-73q0 -23 8 -40t21 -29t29.5 -18t34.5 -6t34.5 6t29.5 17.5t21 29t8 40.5zM108 442q0 20 13 33.5t33 13.5t33.5 -13.5t13.5 -33.5t-13.5 -33t-33.5 -13t-33 13t-13 33zM258 442q0 20 13 33.5t33 13.5t33.5 -13.5t13.5 -33.5t-13.5 -33
t-33.5 -13t-33 13t-13 33z" />
    <glyph glyph-name="divide" unicode="&#xf7;" horiz-adv-x="561" 
d="M480 225v-64h-410v64h410zM221 314q0 20 14.5 35t36.5 15q20 0 35 -15t15 -35q0 -22 -15 -36.5t-35 -14.5q-22 0 -36.5 14.5t-14.5 36.5zM221 73q0 21 14.5 35.5t36.5 14.5q20 0 35 -14.5t15 -35.5t-15 -36t-35 -15q-22 0 -36.5 15t-14.5 36z" />
    <glyph glyph-name="oslash" unicode="&#xf8;" horiz-adv-x="394" 
d="M313 387l-23 -55q29 -11 47.5 -37.5t18.5 -59.5v-130q0 -22 -8.5 -41t-22.5 -33.5t-33 -22.5t-41 -8h-99l-17 -42h-44l19 46q-33 9 -54.5 37t-21.5 64v130q0 22 8 41t22.5 33t33.5 22.5t41 8.5h111l20 47h43zM74 105q0 -24 14.5 -41.5t36.5 -22.5l108 259h-94
q-27 0 -46 -19t-19 -46v-130zM316 235q0 20 -11.5 36.5t-29.5 23.5l-106 -255h82q27 0 46 19t19 46v130z" />
    <glyph glyph-name="ucircumflex" unicode="&#xfb;" horiz-adv-x="385" 
d="M269 340h64v-340h-55l-9 50q-12 -23 -30.5 -39.5t-58.5 -16.5q-39 0 -65.5 13.5t-43 35.5t-24 48t-7.5 52v197h64q0 -36 0.5 -56t0.5 -36v-35.5v-54.5q0 -15 3.5 -33.5t12 -35t23.5 -27.5t39 -11q26 0 43 10t27 26t13.5 35t3.5 37zM179 463l-59 -79h-60q77 101 83 108
q15 16 26.5 21t28.5 5q29 1 52 -28q7 -9 77 -106h-58l-56 79q-7 8 -15 8q-12 0 -19 -8z" />
    <glyph glyph-name="udieresis" unicode="&#xfc;" horiz-adv-x="385" 
d="M269 340h64v-340h-55l-9 50q-12 -23 -30.5 -39.5t-58.5 -16.5q-39 0 -65.5 13.5t-43 35.5t-24 48t-7.5 52v197h64q0 -36 0.5 -56t0.5 -36v-35.5v-54.5q0 -15 3.5 -33.5t12 -35t23.5 -27.5t39 -11q26 0 43 10t27 26t13.5 35t3.5 37zM100 442q0 20 13 33.5t33 13.5
t33.5 -13.5t13.5 -33.5t-13.5 -33t-33.5 -13t-33 13t-13 33zM250 442q0 20 13 33.5t33 13.5t33.5 -13.5t13.5 -33.5t-13.5 -33t-33.5 -13t-33 13t-13 33z" />
    <glyph glyph-name="ydieresis" unicode="&#xff;" horiz-adv-x="353" 
d="M195 -170q29 0 45 32.5t16 92.5v65l-87.5 35.5t-61.5 32.5t-40.5 37.5t-23.5 49.5t-11 69t-3 96h65q0 -66 2.5 -105.5t17.5 -65t48 -44.5t94 -43v258h65v-393q0 -48 -10 -80t-27 -51.5t-39.5 -27.5t-47.5 -8q-32 0 -55.5 13t-40 35.5t-25 51.5t-9.5 61h57q1 -18 5.5 -38
t13 -36t21.5 -26.5t31 -10.5zM86 442q0 20 13 33.5t33 13.5t33.5 -13.5t13.5 -33.5t-13.5 -33t-33.5 -13t-33 13t-13 33zM236 442q0 20 13 33.5t33 13.5t33.5 -13.5t13.5 -33.5t-13.5 -33t-33.5 -13t-33 13t-13 33z" />
    <glyph glyph-name="uni0E33.alt1" horiz-adv-x="342" 
d="M153 416q65 -1 101.5 -42.5t36.5 -106.5v-267h-64v267q1 38 -17.5 66t-56.5 28q-36 0 -59 -26t-25 -61h-55q2 62 39 101.5t100 40.5zM-290 594q30 0 51.5 -21.5t21.5 -51.5t-21.5 -51.5t-51.5 -21.5t-51.5 21.5t-21.5 51.5t21.5 51.5t51.5 21.5zM-290 488q15 0 23.5 9
t8.5 24t-8.5 24.5t-23.5 9.5t-23.5 -9.5t-8.5 -24.5t8.5 -24t23.5 -9z" />
    <glyph glyph-name="KO_HO" horiz-adv-x="882" 
d="M616 471q8 -12 6.5 -16.5t-8.5 -11.5l-66 -45q-12 -8 -15.5 -8t-8.5 6l78 57q4 2 1 7l-64 94q-1 2 -4 2q-2 1 -4 -1l-61 -68q-2 -2 0 -6l45 -49q2 -3 6 -1l44 29q2 2 2 3q0 3 -1 4l-29 42q-2 2 -4 2q-3 0 -4 -1l-19 -21q-2 -4 1 -7q3 -4 7 0l15 16l22 -32l-36 -24l-38 42
l53 60l58 -86l-75 -55l-68 68q-7 7 -7 9.5t7 10.5l75 94q7 7 9.5 7t9.5 -7zM434 349q14 0 26 -14l-18 -15q-7 -7 -11 -7t-10 7l-17 13l1 1q4 3 8 7q4 3 9 5.5t11 2.5h1zM437 467q0 -1 2 -3l33 -35q-1 0 -1 -1l-28 -71q-1 1 -3 1zM507 391q6 -6 6 -9t-6 -10l-39 -31
q-1 2 -2 2.5t-2 1.5l42 47zM456 351q-2 2 -4 3l27 67l20 -22zM366 402q-1 0 -1 1l18 19l32 -68q-2 -1 -4 -3zM430 358q-4 0 -6 -1l-33 72v1l33 34q1 1 1.5 2t1.5 2zM358 395l45 -49q-2 -2 -3 -2.5t-2 -1.5t-1 -2l-41 32q-6 7 -6 11t6 11l2 2v-1zM352 438q0 1 -0.5 1t-0.5 1
q4 2 12 6.5t16.5 12.5t15.5 19.5t9 26.5l11 -14q7 -8 7 -10.5t-7 -9.5l-49 -49q-4 2 -14 15v1zM371 545q-2 -21 -8.5 -33t-13 -18t-12 -7.5l-5.5 -1.5q-1 0 -1 -1q-2 8 -3.5 17t-3.5 19q5 3 18 13.5t17 27.5zM395 515q0 -17 -6.5 -29t-15 -20t-17 -12.5t-11.5 -5.5
q-7 12 -11 27q2 0 8 2.5t13.5 9t14.5 18t10 30.5l15 -19v-1zM323 531q-1 12 -1 26t2 30v1q5 5 7.5 4t8.5 -7l10 -14v-1q0 -14 -9.5 -24t-17.5 -15zM320 488q-2 0 -7 -0.5t-11 1.5t-13.5 7t-14.5 16l8 13q5 -7 13 -12.5t20 -5.5h1q2 -12 4 -19zM340 437q-5 -2 -15 -4t-22 0.5
t-26.5 11t-28.5 26.5l20 32q11 -16 23 -21t20 -5q7 0 11 2q4 -14 8.5 -24t9.5 -18zM346 429q4 -6 7.5 -9t5.5 -5l-17 -17q-7 -8 -10 -8t-16 8l-66 45q-5 5 -7.5 9t0.5 10q19 -23 38 -31t34 -8q11 0 18.5 2t12.5 4zM315 517q-11 0 -17 5.5t-10 11.5l26 40q-2 -17 -1.5 -31
t2.5 -26zM442 613l59 39l13 -26q5 -11 6 -15.5t-6 -12.5l-46 -64q0 1 -1 1l-27 23l32 27q1 1 1 4q0 1 -2 3zM462 527l-20 -28q-7 -8 -9.5 -8t-8.5 8l-21 28h1l29 25l28 -25h1zM352 598q-7 8 -7 11t7 17l14 29l59 -42l-31 -21q-2 0 -2 -3t2 -4l31 -27l-27 -23zM371 663h-1
l54 110q6 8 8.5 8t9.5 -8l55 -112h-1l-62 -42zM431 686q-10 0 -17.5 -7t-7.5 -18t7.5 -18.5t17.5 -7.5q11 0 18 7.5t7 18.5t-7 18t-18 7zM431 645q-6 0 -10.5 4.5t-4.5 11.5t4.5 11.5t10.5 4.5q15 0 15 -16t-15 -16zM461 588l-28 -24l-28 24l28 19zM225 193q-11 0 -11 11v4
h7v-5q0 -3 3 -3t3 3v1v27v1q0 11 -13 11q-5 0 -9.5 -3.5t-5.5 -8.5h-6q2 19 21 19q9 0 15 -4.5t6 -13.5v-27v-1q0 -11 -10 -11zM266 195h-9v45q0 3 -3 3t-3 -3v-6h-7v5v1q0 10 11 10t11 -10v-9q2 6 6 12.5t11 6.5t10 -3.5t3 -8.5q1 -11 0.5 -21.5t-0.5 -21.5h-8
q0 10 -0.5 20t0.5 19q0 9 -5 9q-3 0 -6 -4t-5.5 -10t-4 -12t-1.5 -10v-3v-9zM413 193q-11 0 -11 11v10q2 11 14 13.5t20 -4.5v7q0 5 -3.5 9.5t-10.5 4.5q-15 0 -15 -13h-8q1 8 7.5 14t15.5 6t15.5 -6t6.5 -15v-35h-8v11q-1 14 -12.5 15.5t-12.5 -9.5v-8q0 -3 3 -3t3 3v4h7
v-4q0 -11 -11 -11zM667 228v21h9v-45q0 -3 2 -3q3 0 3 3v4h8v-4q0 -10 -11 -10t-11 11v23zM694 228v21h9v-45q0 -3 3 -3t3 3v4h7v-4q0 -10 -11 -10t-11 11v23zM534 210v39h8v-38q0 -17 -15 -17q-10 0 -13.5 6t-3.5 14q0 11 5 13.5t5 7.5v5q0 3 -3 3t-3 -3v-6h-7v5v1
q0 11 11 11q10 0 10 -11v-6q0 -7 -5 -9t-5 -9v-6q1 -9 8 -9t8 9zM587 231q0 5 -4 8.5t-11 3.5q-6 0 -9.5 -3.5t-4.5 -8.5v-1h-7q0 8 6 14.5t15 6.5t16.5 -5t7.5 -16v-16q0 -8 -5.5 -14.5t-15.5 -6.5q-9 0 -15 5.5t-6 15.5v2q0 11 10 11q11 0 11 -11v-3h-7v4q0 3 -3 3t-3 -3
v-3q0 -13 13 -13q7 0 9.5 4t2.5 9v17zM754 273h8v-16h-8v16zM373 250q19 0 19 -20v-35h-9v35q0 13 -10 13q-11 0 -11 -12h-7q0 19 18 19zM168 250q8 0 14 -5t6 -13v-37h-9v37q0 11 -11 11t-11 -12h-6q0 19 17 19zM454 240q0 10 11 10t11 -10v-1v-5h-7v6q0 2 -3 2t-3 -2v-1
v-6q0 -7 6 -7h2h6v-8h-8q-6 0 -6 -8q0 -5 4 -7t8.5 -2t8.5 2t4 7v39h8v-37v-5q-2 -8 -8.5 -11t-14 -2.5t-13.5 4.5t-6 12q0 7 5 12q-5 3 -5 10v8zM306 240q0 10 11 10t11 -10v-1v-5h-8v6q0 2 -2 2q-3 0 -3 -2v-1v-6q0 -7 6 -7h2h5l1 -8h-8q-6 0 -6 -8q0 -5 3.5 -7t8 -2
t8.5 2t4 7v39h9v-37v-5q-2 -8 -8.5 -11t-14 -2.5t-13.5 4.5t-6 12q0 7 5 12q-5 3 -5 10v8zM756 195v34q0 8 -5.5 10.5t-10.5 2.5q-3 0 -6.5 -1.5t-5.5 -4.5l3 -3q2 -2 2 -7v-31h-9v13v23h-7q1 8 8.5 13.5t15.5 5.5q9 0 16 -5t7 -16v-34h-8zM467 275v-1q0 -7 -5 -13.5
t-19 -5.5q-5 0 -9.5 2t-4.5 8q0 10 11 10h4v-7h-4q-4 0 -4 -4q1 -2 3.5 -2.5t4.5 -0.5q11 -1 14.5 3.5t3.5 9.5v1h5zM139 231q4 -2 5.5 -5.5t1.5 -6.5v-24h-9v24q0 2 -1 5t-4 4q-6 1 -11.5 -6t-5.5 -13v-14h-8v45q0 3 -3 3t-3 -3v-1v-5h-7v5v1q0 10 11 10q10 0 10 -10v-1
v-14q4 6 12 8q-2 1 -3 3t-1 4q0 5 3.5 8t8.5 2q10 0 10 -11q0 -6 -6 -8zM134 233q3 0 4 2t1 4t-1 4t-4 2q-2 0 -3.5 -2t-1.5 -4q0 -4 5 -6zM78 195l-15 13v-2q0 -12 -11 -12t-11 12q0 13 10 13h1h2v21q0 3 -3 3t-3 -3v-6h-7v5v1q0 10 11 10t11 -11v-22l15 -13v45h8v-54h-8z
M52 201q4 0 4 5v6h-4q-4 0 -4 -6q0 -2 0.5 -4t3.5 -1zM236 259q0 -4 -1 -6q-9 5 -19.5 6t-20.5 -1q-2 8 5.5 14t16.5 5q15 -2 19 -18zM227 262q-2 6 -11 8q-7 1 -13 -5zM817 219q11 -2 11 -12q0 -13 -11 -13h-1q-5 0 -8 4t-2 9v2l-16 -14h-8v38v7q0 2 -3 2t-3 -2v-5l-7 -1v5
v1q0 10 11 10q10 0 10 -10v-36l16 14v31h8v-30h3zM817 200q2 0 2.5 2t0.5 4t-0.5 4.5t-2.5 2.5h-3v-9q0 -4 3 -4zM651 219q5 -1 7.5 -4.5t2.5 -7.5q0 -13 -10 -13h-1q-11 0 -11 13v2l-15 -14h-9v38v7q0 2 -3 2q-2 0 -2 -2v-5l-7 -1v5v1q0 10 10 10q11 0 11 -10v-36l15 14v31
h9v-30h3zM650 200q3 0 3.5 2t0.5 4t-0.5 4.5t-3.5 2.5h-2v-9q0 -4 2 -4zM128 100h-7v32v9v14h7v-25q7 11 14 11q13 0 13 -11v-30h-8v27q0 8 -5 6q-8 -1 -11 -9t-3 -17v-7zM214 100h-7v32v9h7v-11q7 11 14 11q13 0 13 -11v-30h-8v27q0 8 -5 6q-8 -1 -11 -9t-3 -17v-7z
M288 100h-8v55h8v-25l21 25h8q-4 -5 -8 -9.5t-7 -9.5q10 -11 13.5 -16t3.5 -20h-7q0 12 -3.5 16.5t-11.5 13.5q-8 -11 -8.5 -14t-0.5 -16zM416 100h-8v32v9h8v-11q5 11 14 11q12 0 12 -11v-30h-7v27q0 7 -6 6q-7 -1 -10 -9t-3 -17v-7zM494 106q5 0 8.5 3.5t3.5 8.5v37h7v-38
q0 -8 -5.5 -13t-13.5 -5t-13.5 5t-5.5 13v38h8v-37q0 -12 11 -12zM565 141h7v-41h-7v41zM530 100h-7v32v9h7v-11q7 11 14 11q12 0 12 -11v-30h-7v27q0 8 -5 6q-8 -1 -11 -9t-3 -17v-7zM569 147q-6 0 -6 6q0 5 6 5q5 0 5 -5q0 -6 -5 -6zM580 141h8l9 -30l10 30h8l-14 -41h-7z
M667 100h-7v32v9h7v-11q7 11 14 11h2v-8q-1 1 -2 0q-8 -1 -11 -9t-3 -17v-7zM708 117l-12.5 4t-6.5 9q-1 6 4 9t11 3q13 0 15 -8l-4 -3q-2 7 -10 5q-5 0 -8 -3.5t3 -6.5l12 -4t8 -9q1 -7 -4.5 -10.5t-11.5 -3.5q-5 0 -10 3t-8 7l6 5q5 -7 9.5 -8t7.5 0.5t3 4.5t-4 6z
M729 141h8v-41h-8v41zM733 147q-6 0 -6 6q0 5 6 5q5 0 5 -5q0 -6 -5 -6zM770 135h-9v-27q0 -2 2 -2t2 2v1h8v-1q0 -8 -10 -8q-9 0 -9 9v20v6h-6v6h6v14h7v-14h9v-6zM796 82q7 0 7 14v7q-18 7 -22 12.5t-4 25.5h7q0 -16 2.5 -20.5t16.5 -10.5v31h7v-46q0 -11 -4 -15t-10 -4
q-8 -1 -11 4.5t-4 13.5h7q0 -5 1.5 -8.5t6.5 -3.5zM82 100h-7v55h7v-25l21 25h8q-3 -5 -7 -9.5t-8 -9.5q10 -11 13.5 -16t4.5 -20h-8q0 12 -3 16.5t-11 13.5q-9 -11 -9.5 -14t-0.5 -16zM168 136q8 8 19.5 4.5t11.5 -17.5v-5q0 -9 -5.5 -13.5t-12.5 -4.5t-12.5 4.5t-5.5 13.5
v5q0 8 5 13zM191 125q-1 10 -10.5 10t-10.5 -10v-8q0 -7 4.5 -9.5t9.5 -1.5q7 3 7 11v8zM358 127v-6v-2v-19h-7v5q-2 -2 -6 -4l-1 -1h-3h-1q-5 -1 -10.5 2t-5.5 10l1 1v1v2v1q0 1 1 1v1q1 1 1 2h1v1l1 1h1q0 1 1 1v1h2v1h1h1h1q1 1 2 1h1h2h1q1 0 2 -1h1h1l1 -1h1l1 -1h1v3
v1q-1 5 -6 7h-1l-1 1h-1q-9 0 -10 -6l-6 3q5 8 15 8h1h1h1h1h1l6 -3h1q0 -1 1 -1q0 -1 1 -1v-1h1v-1h1v-1q0 -1 1 -1v-1v-1h1v-1v-1v-1zM349 112q1 1 1 4v1l-1 1q-2 2 -4 2q-1 0 -1 1q-4 0 -6 -1q-7 -2 -6.5 -8.5t8.5 -6.5h1l1 1h1h1l1 1q1 0 1 1q1 0 1 1l1 1q0 1 1 1v1z
M400 123v-3h-1h-1v-1h-1h-14h-10v-2v-2v-1q2 -8 10 -8q7 0 10 7h7l-1 -1v-1v-1q0 -1 -1 -1v-1v-1h-1v-1h-1q-3 -6 -11 -6h-1h-1q-13 0 -17 11v1v1v1h-1v1v1v1v1v5q0 9 5.5 13.5t11.5 4.5h1h1h1h1h1h1q0 -1 1 -1h1l1 -1h1q0 -1 1 -1h1v-1l1 -1q1 0 1 -1q4 -4 4 -10v-2z
M393 125q0 4 -2 6l-1 1h-1v1h-1q-2 2 -6 2q-3 0 -6 -2.5t-3 -7.5h10h10zM653 125q2 -4 0 -4v-1h-1h-1v-1h-1h-14h-10v-2v-2v-1l1 -1v-1q3 -6 9 -6q3 0 6 1.5t4 5.5h7q-3 -13 -15 -13h-2q-11 0 -15 8h-1v1v1q0 1 -1 1v1v1v1l-1 1v1v1v1v5q0 9 5.5 13.5t11.5 4.5h1q6 0 11 -4
t6 -12zM646 125q0 10 -11 10q-7 0 -9 -10h10h10z" />
    <glyph glyph-name="Zcaron.001" horiz-adv-x="504" 
d="M142 55h346v-55h-174.5h-103.5t-62 0.5t-50 0.5q-29 0 -38.5 10.5t-8.5 23.5q2 11 7 20l6 8l341 358h-361v54l390 1q21 -3 33 -12q11 -8 15.5 -22.5t-9.5 -38.5zM273 581q2 -3 5 0l49 69h80l-75 -102q-21 -27 -55 -27q-17 0 -32.5 6.5t-24.5 18.5l-80 104h81z" />
    <glyph glyph-name="zcaron.001" horiz-adv-x="447" 
d="M144 55h255v-55h-119h-73h-40.5h-22t-17.5 0.5t-27 0.5q-29 0 -38.5 10.5t-8.5 23.5q2 11 7 20l6 8l250 223h-262v54l291 1q21 -3 33 -12q11 -8 15.5 -22.5t-9.5 -38.5zM236 445q2 -3 5 0l49 69h80l-75 -102q-21 -27 -55 -27q-17 0 -32.5 6.5t-24.5 18.5l-80 104h81z" />
    <glyph glyph-name="Abreve" unicode="&#x102;" horiz-adv-x="427" 
d="M311 137h-183l-43 -137h-67l51 183l20 71.5l19 66l16 53.5t10 34q10 32 30.5 54.5t55.5 22.5q29 0 49.5 -20t28.5 -48l124 -417h-67zM302 183l-71 225q-1 2 -3 5q-5 5 -12 5t-12 -5q-2 -3 -3 -5l-63 -225h164zM270 596q10 17 13 39h69q-2 -9 -8 -27t-17 -35
q-37 -61 -101 -61q-32 0 -58 16.5t-43 44.5q-10 17 -15.5 35.5t-7.5 26.5h67q2 -8 6 -20t8 -19q19 -32 43 -32q25 0 44 32z" />
    <glyph glyph-name="abreve" unicode="&#x103;" horiz-adv-x="379" 
d="M279 0l-10 39q-19 -19 -42 -30.5t-51 -12.5q-24 -1 -48 5t-43.5 19t-31.5 33.5t-12 49.5q-1 46 22.5 76t58 43t73 8.5t68.5 -26.5v26q0 33 -21 51.5t-61 18.5q-29 0 -53.5 -12.5t-32.5 -38.5l-46 30q19 32 52 51.5t75 19.5q30 0 58.5 -8t50 -23.5t34.5 -37.5t13 -49v-1
v-231h-53zM262 140q-2 12 -11.5 21t-24 13.5t-31.5 5t-34 -3.5q-30 -7 -44.5 -28.5t-13.5 -44.5t18 -41t52 -18q18 0 35 9t29.5 23.5t19.5 31.5t5 32zM243 460q10 17 13 39h69q-2 -9 -8 -27t-17 -35q-37 -61 -101 -61q-32 0 -58 16.5t-43 44.5q-10 17 -15.5 35.5t-7.5 26.5
h67q2 -8 6 -20t8 -19q19 -32 43 -32q25 0 44 32z" />
    <glyph glyph-name="Cacute" unicode="&#x106;" horiz-adv-x="464" 
d="M319 663l-44 -155h-58l34 155h68zM401 144q-12 -31 -35.5 -55.5t-51.5 -35.5q-53 -16 -105 0q-19 7 -36.5 20.5t-31 31.5t-21 39.5t-7.5 45.5l-1 102q3 41 29.5 75.5t61.5 48.5q28 10 58.5 10t58.5 -10q26 -11 47.5 -33.5t32.5 -51.5h62q-11 42 -34 72.5t-53 50
t-65.5 27.5t-71.5 5t-69.5 -17.5t-60.5 -39.5q-29 -27 -47 -66t-18 -93v-67q0 -54 18.5 -94.5t49.5 -67.5t70 -40.5t80 -13.5q70 0 126 39t75 118h-61z" />
    <glyph glyph-name="cacute" unicode="&#x107;" horiz-adv-x="371" 
d="M274 527l-44 -155h-58l34 155h68zM270 86q-13 -23 -35 -34t-47 -11q-18 0 -34.5 5t-29.5 16t-21 28.5t-8 43.5l-1 73q0 39 24.5 60t56 24t61 -11.5t40.5 -47.5h66q-11 47 -43 75t-71.5 37.5t-80.5 -0.5t-71 -38q-21 -20 -33.5 -45.5t-12.5 -68.5q0 -1 0.5 -17t0.5 -32
q0 -40 13.5 -69t35.5 -48.5t50 -29t58 -9.5q24 0 47 6t42.5 18.5t35 31t24.5 43.5h-67z" />
    <glyph glyph-name="Ccaron" unicode="&#x10c;" horiz-adv-x="464" 
d="M463 144q-19 -79 -75 -118t-126 -39q-41 0 -80 13.5t-70 40.5t-49.5 67.5t-18.5 94.5v67q0 54 18 93t47 66q27 25 60.5 39.5t69.5 17.5t71.5 -5t65.5 -27.5t53 -50t34 -72.5h-62q-11 29 -32.5 51.5t-47.5 33.5q-28 10 -58.5 10t-58.5 -10q-35 -14 -61.5 -48.5
t-29.5 -75.5l1 -102q0 -24 7.5 -45.5t21 -39.5t31 -31.5t36.5 -20.5q52 -16 105 0q28 11 51.5 35.5t35.5 55.5h61zM262 581q2 -3 5 0l49 69h80l-75 -102q-21 -27 -55 -27q-17 0 -32.5 6.5t-24.5 18.5l-80 104h81z" />
    <glyph glyph-name="ccaron" unicode="&#x10d;" horiz-adv-x="371" 
d="M338 86q-9 -25 -24.5 -43.5t-35 -31t-42.5 -18.5t-47 -6q-30 0 -58 9.5t-50 29t-35.5 48.5t-13.5 69q0 16 -0.5 32t-0.5 17q0 43 12.5 68.5t33.5 45.5q30 28 71 38t80.5 0.5t71.5 -37.5t43 -75h-66q-11 33 -40.5 47.5t-61 11.5t-56 -24t-24.5 -60l1 -73q0 -26 8 -43.5
t21 -28.5t29.5 -16t34.5 -5q25 0 47 11t35 34h67zM210 445q2 -3 5 0l49 69h80l-75 -102q-21 -27 -55 -27q-17 0 -32.5 6.5t-24.5 18.5l-80 104h81z" />
    <glyph glyph-name="Gbreve" unicode="&#x11e;" horiz-adv-x="489" 
d="M476 203q-1 -47 -16 -86.5t-42.5 -68t-66.5 -44.5t-87 -16q-45 0 -82.5 16t-66 44.5t-45 68.5t-19.5 87v67q1 49 17 89t44 68.5t67 44t85 15.5q74 0 125 -36t73 -98h-76q-20 35 -52 53.5t-70 19.5q-30 0 -54.5 -11t-43.5 -29t-30.5 -42t-14.5 -52l1 -102q0 -30 12 -56.5
t31.5 -46.5t45 -31t53.5 -10q28 -1 53 10.5t44.5 32.5t31.5 49.5t13 63.5h-95v58h165v-58zM297 596q10 17 13 39h69q-2 -9 -8 -27t-17 -35q-37 -61 -101 -61q-32 0 -58 16.5t-43 44.5q-10 17 -15.5 35.5t-7.5 26.5h67q2 -8 6 -20t8 -19q19 -32 43 -32q25 0 44 32z" />
    <glyph glyph-name="gbreve" unicode="&#x11f;" horiz-adv-x="395" 
d="M357 142v-196q0 -48 -13 -80t-33.5 -51.5t-46 -27.5t-50.5 -8q-32 0 -58.5 13t-46.5 35.5t-32 51.5t-13 61h58q1 -18 8.5 -36.5t19.5 -33t28 -23.5t34 -9q17 0 31.5 5.5t25.5 19t17.5 35.5t6.5 56v62q-42 -27 -94 -27q-30 0 -58 9.5t-50.5 29t-36 49t-13.5 68.5v49
q0 39 14 68.5t36 49t50.5 29.5t57.5 10q30 0 58 -10t50.5 -29.5t36 -49t13.5 -68.5v-52zM199 43q18 0 34.5 6t30 17.5t21 29t7.5 40.5l1 73q-3 43 -31.5 64.5t-62.5 21.5t-62 -21.5t-31 -64.5v-73q0 -23 7.5 -40.5t21 -29t30 -17.5t34.5 -6zM252 460q10 17 13 39h69
q-2 -9 -8 -27t-17 -35q-37 -61 -101 -61q-32 0 -58 16.5t-43 44.5q-10 17 -15.5 35.5t-7.5 26.5h67q2 -8 6 -20t8 -19q19 -32 43 -32q25 0 44 32z" />
    <glyph glyph-name="Scedilla" unicode="&#x15e;" horiz-adv-x="522" 
d="M323 229q64 -37 64 -102q0 -29 -11 -54.5t-33 -44.5t-55.5 -29.5t-77.5 -9.5q-36 1 -67.5 12t-55 29.5t-36.5 43t-13 53.5v2h58v-4q0 -17 10 -32t26.5 -26t37.5 -17.5t43 -6.5t42.5 6.5t36.5 17.5t25.5 26t9.5 32q0 66 -112 81q-85 14 -133.5 46.5t-48.5 95.5
q0 28 13 53.5t35.5 44t54 29.5t67.5 11q37 0 69 -11t56 -29.5t37.5 -44t13.5 -53.5v-4h-61q0 1 0.5 1t0.5 1q0 17 -9.5 32t-25.5 26t-36 17.5t-42 6.5t-42 -6.5t-35.5 -17.5t-24.5 -26t-9 -32q0 -34 33.5 -53.5t84.5 -28.5q21 -4 52.5 -11.5t57.5 -23.5zM127 -62l24 19
l42 32h59l-12 -9.5l-27.5 -22l-31 -25t-22.5 -19.5q2 0 3.5 -0.5t3.5 -0.5h46q26 0 42 -16t16 -42v-32q0 -26 -20 -44q-7 -6 -20.5 -12t-35.5 -6h-93v40h93q17 0 26.5 5.5t9.5 16.5v32q0 11 -4.5 14.5t-13.5 3.5h-46q-25 0 -34.5 10t-12.5 16q-4 11 -2 21.5t10 18.5z" />
    <glyph glyph-name="scedilla" unicode="&#x15f;" horiz-adv-x="393" 
d="M273 174q24 -13 38.5 -34.5t14.5 -46.5q0 -20 -7.5 -39t-24.5 -34t-45 -24t-69 -9q-32 0 -58 9t-44 24t-28 34t-10 39v4h66v-6q0 -24 22 -41.5t54 -17.5q16 0 30.5 4.5t26 13t18.5 19t7 22.5q0 25 -20 38t-61 18q-38 4 -63.5 13t-41 22.5t-22 31.5t-6.5 40q0 20 6 39
t21 33.5t40 23t63 8.5q35 0 62 -8.5t46 -23t28.5 -33.5t9.5 -39v-11h-62v9q0 25 -25 40t-57 15t-54 -15t-22 -40q0 -23 19.5 -33.5t46.5 -16t55.5 -10.5t45.5 -18zM93.4014 -59.2021l21.6006 17.1006l37.8008 28.8008h53.1016l-10.7998 -8.5498l-24.751 -19.8008
l-27.9004 -22.501q-13.9512 -11.25 -20.251 -17.5498q1.7998 0 3.15039 -0.450195q1.34961 -0.450195 3.14941 -0.450195h41.4014q23.4004 0 37.8008 -14.4004t14.4004 -37.8008v-28.8008q0 -23.4014 -18 -39.6016q-6.2998 -5.39941 -18.4502 -10.7998t-31.9512 -5.40039
h-83.7021v36.001h83.7021q15.3008 0 23.8506 4.9502t8.5498 14.8506v28.8008q0 9.90039 -4.0498 13.0498q-4.0498 3.15039 -12.1504 3.15039h-41.4014q-22.5 0 -31.0508 9q-8.5498 9 -11.25 14.4004q-3.59961 9.90039 -1.7998 19.3506t9 16.6504z" />
    <glyph glyph-name="dotaccent" unicode="&#x2d9;" horiz-adv-x="302" 
d="M207 541q0 -24 -17 -41t-42 -17t-41.5 17t-16.5 41q0 25 16.5 42.5t41.5 17.5t42 -17.5t17 -42.5z" />
    <glyph glyph-name="ring" unicode="&#x2da;" horiz-adv-x="302" 
d="M161 542q31 0 52.5 -22t21.5 -53v-22q0 -31 -21.5 -53t-52.5 -22h-23q-31 0 -53 22t-22 53v22q0 31 22 53t53 22h23zM107 445q0 -13 8.5 -22t22.5 -9h23q13 0 22 9t9 22v22q0 14 -9 22.5t-22 8.5h-23q-14 0 -22.5 -8.5t-8.5 -22.5v-22z" />
    <glyph glyph-name="ogonek" unicode="&#x2db;" horiz-adv-x="278" 
d="M142 -150q28 -3 50 4t41 18v-62q-21 -10 -45 -14t-51 -1q-49 4 -72 41q-12 18 -15.5 41.5t-3 46t4.5 42.5t9 34h57q-4 -14 -8 -32t-6 -37t0 -36.5t9 -28.5q3 -5 9 -10t21 -6z" />
    <glyph glyph-name="hungarumlaut" unicode="&#x2dd;" horiz-adv-x="250" 
d="M40 552h52v-183h-52v183zM207 552v-183h-53v183h53z" />
    <glyph glyph-name="gravecomb" unicode="&#x300;" 
d="M-87 568l40 -186h-40l-53 186h53z" />
    <glyph glyph-name="acutecomb" unicode="&#x301;" 
d="M-22 584l-53 -189h-41l41 189h53z" />
    <glyph glyph-name="tildecomb" unicode="&#x303;" 
d="M-153 465q42 7 85 -27q29 -25 54 -20q8 2 14.5 7t11.5 10q5 6 9 14l42 -26l-9 -12t-16.5 -20t-18 -16.5t-25.5 -11.5q-40 -9 -85 27q-29 24 -56 20q-19 -4 -33 -18q-7 -7 -12 -15l-36 33q0 1 8 10t16.5 17.5t21 16.5t29.5 11z" />
    <glyph glyph-name="hookabovecomb" unicode="&#x309;" 
d="M-117 432q-20 -19 -26 -31.5t-7 -18.5h-50q0 14 9.5 35.5t39.5 50.5q21 20 14 39q-9 20 -29 20q-19 0 -26.5 -9.5t-8.5 -11.5l-47 19q2 7 8.5 16t16.5 17t24 14t33 6q25 0 45 -14.5t30 -38.5q11 -25 3 -49t-29 -44z" />
    <glyph glyph-name="dotbelowcomb" unicode="&#x323;" 
d="M-171 -137q0 24 17.5 41t41.5 17t41 -17t17 -41t-17 -41.5t-41 -17.5t-41.5 17.5t-17.5 41.5z" />
    <glyph glyph-name="uni0E01" unicode="&#xe01;" horiz-adv-x="422" 
d="M309 0v252q0 30 -10 50t-26.5 32t-37.5 17t-41 5q-13 0 -27 -3.5t-27 -9.5t-23 -15.5t-14 -21.5q5 -3 9 -7q4 -3 8.5 -7t7.5 -8q8 -11 9 -24t1 -25v-235h-65v272h-51q3 30 19 56t41 45.5t55.5 31t61.5 11.5q33 0 64 -9t56 -28t40 -49t15 -72v-258h-65z" />
    <glyph glyph-name="uni0E02" unicode="&#xe02;" horiz-adv-x="354" 
d="M239 115v298h65v-289q0 -58 -28 -93t-87 -37q-36 0 -60.5 12t-39.5 32t-22 47t-7 57q1 43 13 67t26 39t26 26t12 30v36q0 6 -4 15t-17 9q-14 0 -17.5 -9.5t-3.5 -14.5v-39h-55v39q0 16 6 31t17.5 25.5t26 17t31.5 6.5q34 0 54.5 -23.5t20.5 -56.5q0 -11 0.5 -22.5
t-0.5 -22.5q0 -24 -12 -38t-25.5 -27t-25 -28t-10.5 -40v-46q1 -34 19 -51t39 -17t38.5 16.5t19.5 50.5z" />
    <glyph glyph-name="uni0E03" unicode="&#xe03;" horiz-adv-x="403" 
d="M356 413v-298q0 -59 -27.5 -89t-87.5 -32q-36 0 -60.5 12t-39.5 32t-21.5 47t-6.5 57q1 43 13 67.5t26 39.5l25.5 26.5t11.5 30.5v55q0 3 -5 11t-16 8q-8 0 -14 -6t-6 -13v-30h-27v30q0 2 -4 10t-15 8t-16.5 -7.5t-5.5 -10.5v-59h-42v59q-1 25 12.5 43t39.5 18
q20 0 28.5 -8t15.5 -13q8 5 18.5 13t33.5 8q35 0 49 -18t14 -43v-64q-1 -24 -13 -38.5t-25.5 -27.5t-25 -28.5t-10.5 -40.5v-46q1 -34 19 -51t39 -17t39 16.5t20 50.5v298h64z" />
    <glyph glyph-name="uni0E04" unicode="&#xe04;" horiz-adv-x="422" 
d="M216 416q32 0 61 -11t50.5 -30.5t34 -46.5t12.5 -60v-268h-64v268q0 19 -7.5 36t-20.5 29.5t-30.5 19.5t-37.5 7q-19 0 -37 -7t-32 -19.5t-22.5 -29.5t-8.5 -36v-150l17.5 32.5l16.5 33.5q14 27 42.5 36.5t55.5 -4.5t36.5 -42.5t-4.5 -55.5l-1 -1l-10 -22l-45 23
q2 2 8.5 15l7.5 15q3 6 0.5 13.5t-11.5 11.5q-8 4 -14 1t-9 -9l-2 -3.5l-10.5 -19l-26.5 -49l-51 -93.5h-64v268q0 33 13.5 60t36 46.5t52.5 30.5t62 11h2z" />
    <glyph glyph-name="uni0E05" unicode="&#xe05;" horiz-adv-x="441" 
d="M291 419q20 -1 38.5 -9t33 -21t23 -30.5t7.5 -37.5v-321h-70v166v61t0.5 53.5t0.5 38.5v15q0 12 -12 21t-27 8q-18 -1 -27 -10t-9 -17q0 -1 -0.5 -8t-0.5 -15v-15.5v-8.5h-51v44q-1 14 -12.5 23t-26.5 9q-13 -1 -26.5 -10t-14.5 -22v-21v-51t0.5 -68t0.5 -71l30 60l3 6
q14 27 42.5 36.5t55.5 -4.5t36.5 -42.5t-4.5 -55.5v-1l-11 -22l-44 23l15 30q3 6 0.5 13.5t-10.5 11.5q-9 4 -15 1t-9 -9q-1 -1 -1.5 -2.5t-1.5 -2.5l-86 -164h-64v40v63.5t-0.5 73.5t-0.5 69.5v51.5v21q-1 20 6 37.5t19.5 31t29.5 21.5t37 8q20 1 42 -6t35 -19q29 27 69 27
z" />
    <glyph glyph-name="uni0E06" unicode="&#xe06;" horiz-adv-x="463" 
d="M348 0l-113 102q0 -4 0.5 -7.5t0.5 -7.5q0 -20 -6.5 -37t-18 -30.5t-26.5 -21t-32 -7.5t-32 7.5t-26 21t-17.5 30.5t-6.5 37q0 40 23 67.5t56 28.5h22v172q0 4 -5 11.5t-16 7.5q-8 0 -14 -5.5t-6 -13.5v-30h-1h-25h-1q-1 8 -0.5 15t0.5 15q0 5 -5 11.5t-16 6.5t-15.5 -7
t-4.5 -11v-59h-42v57v2q-1 26 12.5 44t39.5 18q20 0 28.5 -8.5t15.5 -13.5q8 5 18.5 13t33.5 8q35 0 51 -17.5t15 -43.5v-191l113 -94v341h63v-410zM153 43q20 0 25.5 15t5.5 29q0 9 -0.5 22.5t-0.5 22.5h-24q-17 -1 -26.5 -15.5t-9.5 -29.5q0 -14 6 -29t24 -15z" />
    <glyph glyph-name="uni0E07" unicode="&#xe07;" horiz-adv-x="332" 
d="M281 0h-64l-187 187l42 42l145 -146v206v47q0 10 -7 15t-16 5q-8 0 -13.5 -6.5t-5.5 -12.5v-38h-55v36v1q0 34 24 58t57 24q32 0 55 -23t25 -55v-340z" />
    <glyph glyph-name="uni0E08" unicode="&#xe08;" horiz-adv-x="403" 
d="M190 423q33 0 63 -12.5t53 -34t36.5 -50t13.5 -60.5v-1v-265h-74l-57 104.5l-29.5 55l-11.5 21l-2 3.5q-3 6 -9 9t-14 -1q-9 -5 -11.5 -12.5t0.5 -12.5l7.5 -15t8.5 -15l-45 -23l-11 22v1q-14 27 -4.5 55.5t36.5 42.5t55.5 4.5t42.5 -36.5l29 -57l25 -48v167v1
q0 19 -6.5 37t-19.5 32.5t-32.5 23t-44.5 8.5t-45.5 -8t-35 -21.5t-23 -31t-9.5 -35.5h-54q1 31 15.5 59t37.5 48.5t52 32.5t61 12h1h1v0z" />
    <glyph glyph-name="uni0E09" unicode="&#xe09;" horiz-adv-x="486" 
d="M397 182q38 -8 57 -35t19 -58q0 -38 -22 -65.5t-54 -30.5h-7q-17 0 -32 7.5t-26 20.5t-17.5 30.5t-5.5 37.5l-1 16l-101 -105h-58v109v52q0 8 -6 12.5t-14 4.5t-12.5 -5.5t-4.5 -11.5v-33l-49 -1v32v2q0 30 21 51t51 21q29 0 49.5 -20t22.5 -49v-92l101 101l1 92v1
q0 19 -6.5 37t-19.5 32.5t-32.5 23t-44.5 8.5q-26 0 -46.5 -8t-35 -21.5t-22.5 -31t-9 -35.5h-55q1 31 15.5 59t37.5 48.5t52.5 32.5t61.5 12h1h1q32 0 62 -12.5t53 -34t37 -50t14 -60.5v-1v-82q6 1 12 0.5t12 -1.5zM420 82q0 6 -0.5 15t-3 17.5t-8.5 14t-17 5.5h-18v-65
q0 -13 5.5 -21t14.5 -8q10 0 15.5 4.5t8 10.5t3 13.5t0.5 13.5z" />
    <glyph glyph-name="uni0E0A" unicode="&#xe0a;" horiz-adv-x="357" 
d="M273 328q8 -7 15 -18q5 -9 10 -22t5 -30v-135q0 -58 -28 -93t-87 -37q-36 0 -60.5 12t-39.5 32t-22 47t-7 57q1 43 13 67t26 38.5t26 25.5t12 30v36q0 6 -4 15t-17 9q-14 0 -17.5 -9.5t-3.5 -14.5v-39h-55v37v2q0 16 6 31t17.5 25.5t26 17t31.5 6.5q34 0 54.5 -23.5
t20.5 -56.5q0 -11 0.5 -22.5t-0.5 -22.5q0 -24 -12 -38t-25.5 -26.5t-25 -27.5t-10.5 -40v-46q1 -34 19 -51t39 -17t38.5 16.5t19.5 50.5v154q0 6 -1 13q-2 13 -13 30l-13 13l-9 9l110 110l38 -38z" />
    <glyph glyph-name="uni0E0B" unicode="&#xe0b;" horiz-adv-x="409" 
d="M311 330q8 -7 15 -18q5 -9 10 -22t5 -30v-135q0 -58 -27.5 -93t-87.5 -37q-36 0 -60.5 12t-39.5 32t-21.5 47t-6.5 57q0 31 12 55t26.5 42.5l26.5 33.5t12 30v13.5t-1 41.5q0 3 -5 11t-16 8q-7 0 -13.5 -6t-6.5 -13q0 -8 0.5 -15t-0.5 -15h-1h-25h-1v30q0 2 -4 10t-15 8
t-16.5 -7.5t-5.5 -10.5v-59h-42v57v2q0 25 13 43t39 18q21 0 29 -8t16 -13l18 13t34 8q34 0 48.5 -18t13.5 -43v-64q0 -20 -8.5 -32.5t-19.5 -22.5l-22.5 -19.5t-17.5 -24.5q-3 -5 -4 -16.5t-1 -16.5v-46q1 -34 19 -51t39 -17t38.5 16.5t19.5 50.5v154q0 6 -1 13l-4.5 13.5
t-9.5 16.5l-5.5 5.5l-7.5 7.5l-9 9l110 110l38 -38l-77 -77v0z" />
    <glyph glyph-name="uni0E0C" unicode="&#xe0c;" horiz-adv-x="609" 
d="M496 0l-112 102q0 -4 0.5 -7.5t0.5 -7.5q0 -39 -19 -67.5t-54 -28.5t-54 28.5t-19 67.5q0 40 18.5 67t44.5 29h18v81v1q0 27 -10.5 45.5t-27 30t-37.5 16.5t-41 5q-12 0 -26 -3.5t-27 -9.5t-23 -15.5t-14 -21.5q5 -3 9 -7q8 -7 15 -15q8 -11 9 -24t1 -25v-174q0 -7 4 -14
t12 -7q9 0 13 6.5t4 14.5v31h45v-31q0 -33 -17 -53t-50 -20q-41 0 -58.5 24.5t-17.5 57.5v202h-51q3 30 19 56t41 45.5t55 31t61 11.5h1h1q32 0 63.5 -11t56 -30.5t39.5 -46.5t15 -60v-110l112 -94v343h63l1 -412zM312 33q9 0 13 6t5.5 14.5t1.5 17.5v16v45h-16
q-17 -1 -20.5 -15.5t-3.5 -29.5q0 -7 0.5 -16.5t3 -17.5t6.5 -14t10 -6z" />
    <glyph glyph-name="uni0E0D" unicode="&#xe0d;" horiz-adv-x="612" 
d="M560 -15q0 -45 -27.5 -77t-86.5 -33h-6q-54 1 -82.5 29t-32.5 67h64q5 -18 18 -33t36 -13q28 -1 40.5 18.5t14.5 41.5v22q-24 -11 -53 -11h-7q-60 2 -89 37t-29 93v136q0 27 -10 45.5t-26.5 30t-37.5 16.5t-41 5q-13 0 -27 -3.5t-27 -9.5t-23 -15.5t-14 -21.5q5 -3 9 -7
q4 -3 8.5 -7t7.5 -8q8 -11 9 -24t1 -25q0 -62 -0.5 -105t-0.5 -66q0 -7 4 -14t13 -7t12.5 6.5t3.5 14.5v31h45v-31q0 -33 -17 -53t-50 -20q-40 0 -57.5 24.5t-17.5 57.5v199h-51q3 30 19 56t41 45.5t55 31t61 11.5h1q33 0 64 -11t56 -30.5t40 -46.5t15 -60v-40.5v-33
t-0.5 -32.5t-0.5 -39q1 -14 4.5 -28t10.5 -25.5t17.5 -18.5t24.5 -6q14 0 24.5 7t17 18t10 25t4.5 28v284h63v-425z" />
    <glyph glyph-name="uni0E0E" unicode="&#xe0e;" horiz-adv-x="459" 
d="M231 423q33 0 64 -11t55.5 -30.5t39.5 -46.5t15 -60v-511h-64v1q-6 6 -21.5 19t-32.5 25.5t-32.5 22t-21.5 9.5h-61q-5 0 -10 -4t-5 -12t5 -13t11 -5h65v-45h-65h-2q-27 0 -46.5 19t-19.5 46q0 28 19 47t46 20h63q6 0 21 -7.5t32 -17.5t33 -20.5t22 -17.5v434v1
q0 27 -10.5 45.5t-27 30t-37.5 16.5t-41 5q-12 0 -26 -3.5t-27 -9.5t-23 -15.5t-14 -21.5q5 -3 9 -7q4 -3 8 -7l8 -8q8 -11 8.5 -24t0.5 -25v-165q0 -33 -17.5 -57.5t-57.5 -24.5q-33 0 -50 20t-17 53v31h45v-31q0 -8 3.5 -14.5t12.5 -6.5t13 7t4 14v211h-51q3 30 19 56
t40.5 45.5t54.5 31t61 11.5h1h1v0z" />
    <glyph glyph-name="uni0E0F" unicode="&#xe0f;" horiz-adv-x="463" 
d="M239 417q33 0 64.5 -11t56 -30.5t39.5 -46.5t15 -60v-512h-64v1q-6 7 -22.5 20.5t-35.5 26.5v-48q-4 6 -19.5 18.5l-33 25.5t-33.5 23t-22 10h-61q-5 0 -10 -4t-5 -12q-1 -8 4.5 -13t10.5 -5h65l1 -45h-66h-1q-28 0 -47 19t-19 46q-1 28 18 47t47 20h63q6 0 25.5 -10
t39.5 -22v30q9 -3 23.5 -10.5t30 -17t28.5 -18.5t19 -15v435v1q0 27 -10.5 45.5t-27 30t-37.5 16.5t-41 5q-12 0 -26 -3.5t-27 -9.5t-23 -15.5t-14 -21.5q5 -3 9 -7q8 -7 15 -15q8 -11 9 -24t1 -25v-160q0 -33 -17.5 -57.5t-57.5 -24.5q-33 0 -50 20t-17 53v31h45v-31
q0 -8 3.5 -14.5t12.5 -6.5t13 7t4 14v206h-52q3 30 19 56t41 45.5t55 31t61 11.5h1z" />
    <glyph glyph-name="uni0E10" unicode="&#xe10;" horiz-adv-x="433" 
d="M359 344q25 -38 25 -80v-1v-263l-1 -185h-70v1q-5 7 -22 20.5l-35 26.5v-48q-5 6 -20 18.5t-33 25.5t-34 23t-22 10h-60q-6 0 -11 -4t-5 -12t5.5 -13t10.5 -5h65v-45h-65h-1q-28 0 -47 19t-20 46q0 28 19 47t46 19q1 0 19.5 0.5t43.5 0.5q7 0 26.5 -10t39.5 -22v30
q9 -3 25 -10.5t33.5 -17t32 -19t19.5 -15.5v120l-114 181q-2 6 -8.5 9t-14.5 -1q-8 -5 -10.5 -12.5t-0.5 -12.5q2 -2 8.5 -15l7.5 -15l-44 -23l-11 22l-1 1q-14 27 -4 55.5t36 42.5q28 14 54.5 4t43.5 -36l10 -15.5t9 -15.5l13 -23.5l22 -39.5v156v1q0 19 -6 37t-19 32.5
t-32.5 23t-45.5 8.5q-25 0 -45.5 -8t-35 -21.5t-22.5 -31t-9 -35.5h-55q1 31 15.5 59t37.5 48.5t53 32.5t63 12q29 0 56 -10.5t49 -27.5l60 60l38 -38z" />
    <glyph glyph-name="uni0E11" unicode="&#xe11;" horiz-adv-x="526" 
d="M473 325q3 -78 2 -163t-1 -163h-65q0 73 -0.5 150.5t-0.5 149.5q0 29 -7 47t-28 18q-12 0 -26.5 -15t-28.5 -39t-27.5 -54t-23.5 -60.5t-16 -58.5t-6 -48v-11t-1 -13v-66h-64v345v14q0 3 -5 11t-16 8q-7 0 -13.5 -6t-6.5 -13q0 -8 0.5 -15t-0.5 -15h-1h-25h-1v30
q0 2 -4 10t-15 8t-16.5 -7.5t-5.5 -10.5v-59h-42v57v2q0 25 13 43t39 18q21 0 29 -8t16 -13l18 13t34 8q34 0 48.5 -18t13.5 -43v-30v-5q0 -16 -0.5 -33t-0.5 -19q9 24 21.5 49.5t29 47.5t38 36t48.5 14q49 0 72 -28t25 -65z" />
    <glyph glyph-name="uni0E12" unicode="&#xe12;" horiz-adv-x="620" 
d="M504 0l-112 101q0 -4 0.5 -7.5t0.5 -7.5q0 -39 -19 -67.5t-54 -28.5q-34 0 -53.5 28.5t-19.5 67.5q0 16 3 30l-37 -31.5l-30.5 -26.5l-30 -26.5l-34.5 -31.5h-64q-1 23 -1 65v89v92v75q0 20 8 37.5t22.5 30.5t33 21t38.5 9t37 -6t31 -19q13 13 35.5 20t42.5 6q20 0 37 -8
t29.5 -21.5t19 -31t6.5 -37.5v-21.5t-0.5 -46.5t-0.5 -52v-39l112 -94v344h63l1 -413h-64zM269 157q17 23 41 25h19l-1 153q0 11 -11.5 21t-26.5 9q-19 0 -30 -9.5t-11 -17.5v-7.5t0.5 -11.5t0.5 -11.5v-6.5l-51 -1v6.5t-0.5 11.5t-0.5 11v6q-2 14 -13.5 22.5t-27.5 8.5
q-13 -1 -26 -9.5t-14 -21.5v-6v-30t0.5 -77t0.5 -147l90 81q3 3 5 4q5 4 6 10.5t-5 13.5q-6 8 -13.5 8.5t-12.5 -3.5q-2 -2 -13 -11.5t-13 -11.5l-32 38l18 16l1 1q12 10 25.5 14t27.5 3t27 -7.5t23 -17.5q11 -12 15 -26.5t2 -29.5zM320 32q9 0 13 6t5.5 14.5t1.5 17.5v16
v45h-16q-17 -1 -20.5 -15.5t-3.5 -29.5q0 -7 0.5 -16.5t3 -17.5t6.5 -14t10 -6z" />
    <glyph glyph-name="uni0E13" unicode="&#xe13;" horiz-adv-x="646" 
d="M554 186q39 -8 58 -35t19 -58q0 -19 -6 -36t-16.5 -30.5t-24.5 -22t-30 -9.5h-6q-17 0 -32 8t-26 21.5t-17.5 31t-5.5 37.5l-1 16l-112 -109h-64v262v1q0 27 -7 45.5t-20 30t-31 16.5t-38 5q-12 0 -26 -3.5t-27 -9.5t-23 -15.5t-14 -21.5q5 -3 9 -7q8 -7 15 -15
q8 -11 9 -24t1 -25v-171q0 -7 4 -14t12 -7q9 0 13 6.5t4 14.5v31h45v-31q0 -33 -17 -53t-50 -20q-41 0 -58.5 24.5t-17.5 57.5v21v33.5t0.5 56t0.5 88.5h-52q3 30 19 56t41 45.5t55 31t61 11.5h1h1q32 0 60.5 -11t49.5 -30.5t33 -46.5t12 -60v-41.5v-40t-0.5 -49t-0.5 -69.5
l112 105v234h65v-224q6 1 12 0.5t11 -1.5zM578 86q0 6 -0.5 15t-3 17.5t-8.5 14t-17 5.5h-18v-65q-1 -13 5 -22t15 -9q10 0 15.5 4.5t8 11.5t3 14.5t0.5 13.5z" />
    <glyph glyph-name="uni0E14" unicode="&#xe14;" horiz-adv-x="422" 
d="M213 415q32 0 61.5 -11t52 -30.5t35.5 -46.5t13 -60v-267h-64v267q0 19 -8 36t-21.5 29.5t-31.5 19.5t-37 7h-2q-19 0 -37 -7t-32.5 -19.5t-23 -29.5t-8.5 -36v-193l90 82q2 1 5 4q5 4 6.5 10.5t-4.5 13.5q-6 8 -14 8.5t-13 -3.5q-2 -2 -13 -11.5t-13 -11.5l-32 38l18 16
l1 1q12 10 25.5 14t27.5 3t27 -7.5t23 -17.5q20 -23 17.5 -53t-25.5 -50q-1 -2 -2 -2.5t-2 -1.5l-35 -30l-26.5 -23l-26.5 -22.5t-34 -29.5v-1h-2h-23h-39v267q0 33 13.5 60t36.5 46.5t53 30.5t62 11h2v0z" />
    <glyph glyph-name="uni0E15" unicode="&#xe15;" horiz-adv-x="446" 
d="M303 418q40 -1 66.5 -29t25.5 -68v-78v-84.5t0.5 -83.5t0.5 -75h-71l1 334q0 11 -13 20t-28 9q-18 -1 -28.5 -10t-11.5 -17v-8t0.5 -12.5t0.5 -12.5v-7h-51v7t-0.5 12t-0.5 11.5v6.5q-1 14 -13 23t-28 8q-13 0 -26 -9t-13 -22v-7v-31t0.5 -76.5t0.5 -144.5l95 86
q5 4 6 10.5t-5 13.5q-6 8 -13.5 8.5t-12.5 -3.5q-2 -2 -13 -11.5t-13 -11.5l-32 38l19 17q12 10 25.5 14t27.5 3t27 -7.5t23 -17.5q10 -12 14 -25.5t3 -27.5t-7 -27t-18 -23l-39 -33.5l-27.5 -23l-26 -22.5l-35.5 -31h-63v155.5t-1 163.5q0 40 26.5 68t66.5 30q20 1 41.5 -6
t35.5 -19q14 13 39 20t45 6z" />
    <glyph glyph-name="uni0E16" unicode="&#xe16;" horiz-adv-x="425" 
d="M201 421q33 0 64.5 -11t56 -30.5t39.5 -46.5t15 -60v-273h-64v264q0 27 -10 45.5t-26.5 30.5t-37.5 17t-41 5q-13 0 -27 -3.5t-27 -10t-23 -16t-14 -21.5q5 -3 9 -7q4 -3 8.5 -7t7.5 -8q8 -11 9 -24t1 -25q0 -62 -0.5 -107t-0.5 -68q0 -7 4 -14t13 -7q9 1 12.5 7t3.5 14
v31h45v-31q0 -33 -17 -53t-50 -20q-40 0 -57.5 24.5t-17.5 57.5v203h-51q3 30 19 56t41 45.5t55 31t61 11.5z" />
    <glyph glyph-name="uni0E17" unicode="&#xe17;" horiz-adv-x="474" 
d="M196 0h-65v337q0 6 -3.5 16.5t-17.5 10.5t-17.5 -10t-3.5 -18v-39h-55v38q0 34 24 58t57 24q34 0 57.5 -24t23.5 -58v-11.5t-0.5 -20.5t-0.5 -20.5v-11.5q9 23 20.5 48.5t27.5 47t36.5 35.5t47.5 14q49 0 72.5 -28t24.5 -65q3 -78 2 -161.5t-1 -161.5h-65
q0 73 -0.5 149.5t-0.5 148.5q0 28 -7 46t-28 18q-12 0 -26.5 -14.5t-28.5 -38.5t-27.5 -53.5t-23.5 -60t-16 -58t-6 -47.5v-24v-66z" />
    <glyph glyph-name="uni0E18" unicode="&#xe18;" horiz-adv-x="418" 
d="M364 108q0 -35 -14 -61q-12 -23 -40 -42t-82 -19q-27 0 -47.5 6t-35.5 15.5t-24.5 21.5t-15.5 25q-14 30 -14 69v67h65v-80q2 -20 10 -36q7 -14 20.5 -25t37.5 -11q29 0 44.5 11.5t22.5 25.5q8 17 9 38v40q0 13 -3 27.5t-11.5 27t-22.5 23t-35 16.5q-18 5 -49 7t-60 3
q-34 1 -72 1l-1 44q6 32 23 55t41 37.5t53 21.5t58 7q28 0 53 -9t45 -25.5t34 -38.5t20 -48h-55q-10 27 -39.5 46.5t-67.5 19.5q-36 0 -66 -16t-44 -45q30 -1 66 -3.5t64 -8.5q53 -12 80 -35.5t39 -47.5q14 -28 14 -60v-44z" />
    <glyph glyph-name="uni0E19" unicode="&#xe19;" horiz-adv-x="500" 
d="M403 182q38 -8 57.5 -35t19.5 -58q0 -19 -6.5 -36.5t-18 -30.5t-26.5 -21t-32 -8t-32 7.5t-26.5 20.5t-17.5 30.5t-6 37.5v16l-125 -105h-65v337q0 10 -6.5 15t-15.5 5q-8 0 -14 -6t-6 -13v-38h-54v37q0 34 23.5 58t56.5 24q34 0 57.5 -24t23.5 -58v-265l125 101v237h64
v-227q7 1 13 0.5t11 -1.5zM399 40q10 0 15.5 4.5t8 10.5t3 13.5t0.5 13.5t-0.5 15t-3 17.5t-8 14t-16.5 5.5h-19v-65q0 -13 5.5 -21t14.5 -8z" />
    <glyph glyph-name="uni0E1A" unicode="&#xe1a;" horiz-adv-x="496" 
d="M446 412v-275q0 -32 -12.5 -59t-33.5 -46.5t-49.5 -30.5t-61.5 -11t-62 11t-50 30.5t-33.5 46.5t-12.5 59v202q0 10 -7 15t-16 5q-8 0 -13.5 -6t-5.5 -13v-38h-55v37q0 34 24 58t57 24q34 0 57 -24t23 -58l1 -202q0 -19 7 -36t20 -29.5t30 -19.5t37 -7q19 0 35.5 7
t29 19.5t19.5 29.5t7 36v275h65z" />
    <glyph glyph-name="uni0E1B" unicode="&#xe1b;" horiz-adv-x="492" 
d="M442 632v-495q0 -32 -12.5 -59t-33.5 -46.5t-49.5 -30.5t-61.5 -11t-62 11t-50 30.5t-33.5 46.5t-12.5 59v202q0 10 -7 15t-16 5q-8 0 -13.5 -6t-5.5 -13v-38h-55v37q0 34 24 58t57 24q34 0 57 -24t23 -58l1 -202q0 -19 7 -36t20 -29.5t30 -19.5t37 -7q19 0 35.5 7
t29 19.5t19.5 29.5t7 36v495h65z" />
    <glyph glyph-name="uni0E1C" unicode="&#xe1c;" horiz-adv-x="433" 
d="M384 89q1 -39 -25.5 -67.5t-66.5 -29.5q-20 -1 -41.5 6t-35.5 19q-14 -13 -31.5 -20.5t-37.5 -6.5t-38.5 9t-33 21t-23 30.5t-7.5 37.5v252q0 34 24 57.5t57 23.5q34 0 57.5 -24t23.5 -58v-1v-36h-55v38q0 7 -4.5 13t-12.5 6q-20 0 -20 -20l-1 -265q0 -11 12 -20t27 -8
q18 0 27 9.5t10 17.5v85h51v-83q1 -13 12.5 -22.5t26.5 -8.5q13 0 27 9t14 23v15t-0.5 38.5t-0.5 53.5v62v168h65v-324v0z" />
    <glyph glyph-name="uni0E1D" unicode="&#xe1d;" horiz-adv-x="441" 
d="M391 89q1 -39 -25.5 -67.5t-66.5 -29.5q-20 -1 -41.5 6t-35.5 19q-14 -13 -31.5 -20.5t-37.5 -6.5t-38.5 9t-33 21t-23 30.5t-7.5 37.5v252q0 34 24 57.5t57 23.5q34 0 57.5 -24t23.5 -58v-1v-36h-55v38q0 7 -4.5 13t-12.5 6q-20 0 -20 -20l-1 -265q0 -11 12 -20t27 -8
q18 0 27 9.5t10 17.5v85h51v-83q1 -13 12.5 -22.5t26.5 -8.5q13 0 27 9t14 23v24.5t-0.5 63.5t-0.5 89v102v277h65v-543v0z" />
    <glyph glyph-name="uni0E1E" unicode="&#xe1e;" horiz-adv-x="519" 
d="M467 93q0 -20 -7 -37t-19.5 -30.5t-29.5 -21.5t-36 -8q-20 -1 -42 6t-36 19q-13 -13 -30.5 -20.5t-37.5 -6.5t-38.5 9t-33 21t-23 30.5t-8.5 37.5l0.5 15t0.5 38v51.5v56v50.5v36q0 10 -7 15t-16 5q-8 0 -11.5 -6t-3.5 -13v-38h-54v36v1q0 34 23.5 58t56.5 24
q34 0 58 -23.5t24 -57.5l-1 -262q0 -11 11.5 -20t26.5 -8q19 0 28 9.5t9 17.5v17v39.5t0.5 51.5t0.5 51.5v40v17.5h50v-17v-39.5v-51v-51t0.5 -39.5t0.5 -17q1 -13 12 -22.5t27 -8.5q13 0 26.5 9t14.5 23v14.5t-0.5 38t-0.5 53.5v61v166h64v-40.5v-63.5t0.5 -73t0.5 -69.5
v-52v-21.5z" />
    <glyph glyph-name="uni0E1F" unicode="&#xe1f;" horiz-adv-x="520" 
d="M468 93q0 -20 -7 -37t-19.5 -30.5t-29.5 -21.5t-36 -8q-20 -1 -42 6t-36 19q-13 -13 -30.5 -20.5t-37.5 -6.5t-38.5 9t-33 21t-23 30.5t-8.5 37.5l0.5 15t0.5 38v51.5v56v50.5v36q0 10 -7 15t-16 5q-8 0 -11.5 -6t-3.5 -13v-38h-54v36v1q0 34 23.5 58t56.5 24
q34 0 58 -23.5t24 -57.5l-1 -262q0 -11 11.5 -20t26.5 -8q19 0 28 9.5t9 17.5v17v39.5t0.5 51.5t0.5 51.5v40v17.5h50v-17v-39.5v-51v-51t0.5 -39.5t0.5 -17q1 -13 12 -22.5t27 -8.5q13 0 26.5 9t14.5 23v24t-0.5 63t-0.5 88.5v101.5v276h64v-37v-67.5v-87t0.5 -95.5
t0.5 -93.5v-80.5v-56.5v-22.5z" />
    <glyph glyph-name="uni0E20" unicode="&#xe20;" horiz-adv-x="463" 
d="M240 421q33 0 64.5 -11t56.5 -30.5t40 -46.5t15 -59v-1v-273h-65v264q0 27 -10 45.5t-26.5 30.5t-37.5 17t-41 5q-26 0 -53.5 -13t-37.5 -37q5 -3 9 -7q4 -3 8.5 -7t7.5 -8q8 -11 9 -24t1 -26v-165q0 -33 -17.5 -57t-58.5 -24q-33 0 -49.5 19.5t-16.5 52.5v32h45l-1 -31
q1 -8 4.5 -14.5t12.5 -6.5t12.5 7t3.5 14v210h-51q3 30 19 56t41 45.5t55 31t61 11.5z" />
    <glyph glyph-name="uni0E21" unicode="&#xe21;" horiz-adv-x="436" 
d="M322 0l-124 101q0 -4 0.5 -7.5t0.5 -7.5q0 -20 -6.5 -37t-18 -30.5t-26.5 -21t-32 -7.5t-32.5 7.5t-26.5 21t-17.5 30.5t-6.5 37q0 40 23 67.5t56 28.5h22v163q0 8 -3.5 16t-17.5 8t-17.5 -9t-3.5 -14v-43h-55v36v1q0 34 23 57t58 25q43 0 61.5 -26.5t18.5 -62.5v-170
l124 -94v344h63l1 -413h-64zM116 42q19 0 24.5 15t5.5 29q0 9 -0.5 22.5t-0.5 22.5h-24q-17 -1 -26 -15.5t-9 -29.5q0 -14 5.5 -29t24.5 -15z" />
    <glyph glyph-name="uni0E22" unicode="&#xe22;" horiz-adv-x="415" 
d="M51 338q0 34 23.5 58t56.5 24q34 0 57.5 -24t23.5 -58v-38h-54v39q0 7 -5 14.5t-17 7.5q-11 0 -16 -7.5t-5 -14.5v-49q0 -20 14 -36.5t34 -18.5h54l1 -55l-55 -1q-20 -2 -34 -20t-14 -38q0 -24 13.5 -40t33.5 -24t44 -8.5t44.5 7t34.5 23.5t15 39v293h64v-276v-19t-2 -19
q-7 -37 -33 -61t-60.5 -34.5t-72.5 -8.5t-70.5 17t-53.5 43t-21 68q0 25 9.5 46.5t26.5 37.5q-33 33 -36 80q-1 11 -0.5 26.5t0.5 26.5z" />
    <glyph glyph-name="uni0E23" unicode="&#xe23;" horiz-adv-x="425" 
d="M333 73q0 -34 -23.5 -57.5t-57.5 -23.5q-33 0 -56.5 23.5t-23.5 57.5v28h54v-38q0 -7 6 -13t17 -6t15 6t4 13v108q0 10 -2.5 15.5t-4.5 10.5q-5 8 -14.5 13.5t-18.5 9.5q-11 4 -23 7l-160 29v49q7 31 24.5 53t41 36t51 20.5t56.5 6.5q27 0 52.5 -9t45.5 -25.5t34.5 -38.5
t20.5 -48h-55q-11 27 -35.5 45.5t-62.5 20.5q-29 1 -49.5 -5t-34 -16.5t-20.5 -24t-10 -26.5l143 -24q11 -1 22 -5q9 -3 19.5 -9t19.5 -14q10 -11 15.5 -21.5t7.5 -18.5q3 -10 2 -18v-111z" />
    <glyph glyph-name="uni0E24" unicode="&#xe24;" horiz-adv-x="422" 
d="M198 421q33 0 64.5 -11t56 -30.5t39.5 -46.5t15 -60v-472h-64v463q0 27 -10 45.5t-26.5 30.5t-37.5 17t-41 5q-13 0 -27 -3.5t-27 -10t-23 -16t-14 -21.5q5 -3 9 -7q4 -3 8.5 -7t7.5 -8q8 -11 9 -24t1 -25q0 -62 -0.5 -107t-0.5 -68q0 -7 4 -14t13 -7q9 1 12.5 7t3.5 14
v31h45v-31q0 -33 -17 -53t-50 -20q-40 0 -57.5 24.5t-17.5 57.5v203h-51q3 30 19 56t41 45.5t55 31t61 11.5z" />
    <glyph glyph-name="uni0E25" unicode="&#xe25;" horiz-adv-x="426" 
d="M143 -12q-33 0 -56.5 23.5t-23.5 56.5q-1 4 -1.5 15t-0.5 22.5t0.5 21.5t1.5 13q7 44 36 70t66.5 35t77 0t68.5 -34v54q0 19 -6 37.5t-19 33t-32.5 23t-44.5 8.5q-26 0 -46.5 -8t-35 -21.5t-22.5 -31t-9 -35.5h-55q1 31 15.5 59t37.5 48.5t53 32.5t62 12q33 0 63 -12.5
t53 -34t37 -50t14 -60.5v-1v-265h-65v87q0 32 -13.5 56t-33 37.5t-43 17.5t-44 -2.5t-34.5 -23.5t-16 -46v-57q0 -4 3 -13t16 -8q16 0 19.5 8t3.5 13v29h55v-27q0 -35 -24 -59t-57 -24z" />
    <glyph glyph-name="uni0E26" unicode="&#xe26;" horiz-adv-x="470" 
d="M247 421q33 0 64.5 -11t56.5 -30.5t40 -46.5t15 -59v-1v-474h-65v465q0 27 -10 45.5t-26.5 30.5t-37.5 17t-41 5q-26 0 -53.5 -13t-37.5 -37q5 -3 9 -7q4 -3 8.5 -7t7.5 -8q8 -11 9 -24t1 -26v-165q0 -33 -17.5 -57t-58.5 -24q-33 0 -49.5 19.5t-16.5 52.5v32h45l-1 -31
q1 -8 4.5 -14.5t12.5 -6.5t12.5 7t3.5 14v210h-51q3 30 19 56t41 45.5t55 31t61 11.5z" />
    <glyph glyph-name="uni0E27" unicode="&#xe27;" horiz-adv-x="395" 
d="M263 -8q-34 0 -57.5 23.5t-23.5 58.5v27h55v-38q0 -7 5.5 -13t16.5 -6t15.5 6t4.5 13v221q0 38 -23 60t-71 22q-17 0 -33.5 -7.5t-30 -20t-22.5 -28.5t-12 -32h-58q3 30 16.5 56t35 45.5t49.5 31t60 11.5t60 -9.5t48.5 -27.5t32.5 -43.5t12 -57.5v-211q0 -34 -23.5 -57.5
t-56.5 -23.5z" />
    <glyph glyph-name="uni0E28" unicode="&#xe28;" horiz-adv-x="422" 
d="M356 332q15 -29 15 -65v-267h-64v267q0 19 -7.5 36t-20.5 29.5t-30.5 19.5t-37.5 7q-19 0 -37 -7.5t-32 -20.5t-22.5 -31t-8.5 -39v-143l15.5 29.5l18.5 36.5q14 27 42.5 36.5t55.5 -4.5t36 -42.5t-5 -56.5l-10 -22l-45 23q2 2 8.5 15l7.5 15q3 6 1.5 13.5t-10.5 11.5
q-8 5 -15 1.5t-10 -8.5q0 -1 -2 -4t-10.5 -19l-26.5 -49l-51 -94h-64v267q0 33 13.5 60t36.5 46.5t53 30.5t63 11q32 0 60 -10.5t50 -29.5l71 70l38 -38z" />
    <glyph glyph-name="uni0E29" unicode="&#xe29;" horiz-adv-x="541" 
d="M518 292q0 -32 -13.5 -63t-51.5 -49v-37q0 -32 -12.5 -59t-33.5 -46.5t-50 -30.5t-62 -11t-61.5 11t-49.5 30.5t-33.5 46.5t-12.5 60v41v36t-0.5 45t-0.5 69q0 10 -6 15t-15 5q-8 0 -14 -6t-6 -13v-38h-55v37q0 34 23.5 58t57.5 24q33 0 56.5 -24t23.5 -58l1 -192
q0 -19 7 -36t19.5 -29.5t29.5 -19.5t36 -7t36 7t30 19.5t20 29.5t7 36v21h-26q-14 0 -30.5 4t-30 11.5t-22.5 19.5t-8 30q0 28 19.5 47.5t48.5 19.5h26v-44h-26q-22 -2 -22 -22q0 -11 9.5 -16.5t21.5 -7.5t23.5 -1.5t16.5 0.5v206h65v-185q18 14 23.5 33t4.5 39h37v-6v0z
" />
    <glyph glyph-name="uni0E2A" unicode="&#xe2a;" horiz-adv-x="422" 
d="M348 342q22 -36 22 -76v-266h-64v87q0 32 -13.5 56t-33.5 37.5t-43.5 17.5t-44 -2.5t-34.5 -23.5t-16 -46v-57q0 -4 3.5 -13t16.5 -8q15 0 18.5 8t3.5 13v29h55v-27q0 -35 -23.5 -59t-56.5 -24q-34 0 -57.5 23.5t-23.5 56.5q0 4 -0.5 15t-0.5 22.5t0.5 21.5t0.5 13
q7 44 36.5 70t67 35t77 0t68.5 -34v55q0 19 -6.5 37t-19.5 32.5t-32.5 23t-44.5 8.5t-45.5 -8t-35.5 -21.5t-23 -31t-9 -35.5h-55q1 31 15.5 59t37.5 48.5t53 32.5t63 12q30 0 58 -11t51 -30l64 64l38 -38z" />
    <glyph glyph-name="uni0E2B" unicode="&#xe2b;" horiz-adv-x="463" 
d="M364 273q14 -5 23.5 -16t15.5 -24.5t8.5 -27t2.5 -24.5v-181h-66v94t-2 93q0 8 -2 18t-6.5 19.5t-11.5 16.5t-17 10q-24 3 -46 -11t-39.5 -36.5t-28 -49t-10.5 -48.5v-106h-65v337q0 8 -3 18t-18 10q-14 0 -17.5 -10t-3.5 -18v-39h-54v38q0 34 23.5 58t56.5 24
q34 0 57.5 -24t23.5 -58v-112q5 10 14.5 20t21 18.5t24 15t24.5 9.5q-13 8 -19.5 25t-6.5 29q0 18 8 32t20 24t27 15.5t30 4.5q38 -2 59 -25t21 -58q0 -20 -14.5 -38t-29.5 -23zM324 291q11 0 18 4.5t11.5 11.5t6 14t1.5 11q0 13 -6 27.5t-28 16.5q-10 0 -17.5 -4.5t-12 -11
t-6.5 -14.5t-2 -14q0 -13 9 -26.5t26 -14.5z" />
    <glyph glyph-name="uni0E2C" unicode="&#xe2c;" horiz-adv-x="516" 
d="M464 92q1 -39 -25.5 -67.5t-66.5 -29.5q-20 -1 -41.5 6t-35.5 19q-14 -13 -31.5 -20.5t-37.5 -6.5t-38.5 9t-33 21t-23 30.5t-7.5 37.5v244q0 20 -20 20q-8 0 -12.5 -6t-4.5 -13v-38h-55v37q0 34 24 58t57 24q34 0 57.5 -23.5t23.5 -57.5l-1 -256q0 -11 12 -21.5t27 -9.5
q18 0 27 11t10 19v133h51v-131q1 -13 12.5 -24t26.5 -10q13 0 27 10.5t14 24.5v197h-68q-28 1 -47 20t-18 47q0 27 19 46t47 19h1h88q12 -2 27 -11t15 -31v-37q14 0 26.5 -0.5t18.5 0.5v-52h-45v-188zM399 332v34h-65q-5 0 -10.5 -5t-5.5 -13q1 -8 6 -12t10 -4h61h4z" />
    <glyph glyph-name="uni0E2D" unicode="&#xe2d;" horiz-adv-x="437" 
d="M320 271q0 18 -8 35t-22.5 30t-35 21t-45.5 8q-47 0 -74.5 -29.5t-30.5 -71.5h-53q0 32 12.5 60.5t34 49.5t50.5 33.5t61 12.5q33 0 64.5 -9t56.5 -28t40.5 -49t14.5 -72q-1 -25 -1 -47v-66q0 -33 -10.5 -62t-30.5 -50.5t-49 -33.5t-66 -12q-32 0 -60.5 9.5t-49.5 27
t-33 42.5t-12 56v33q0 34 25 57.5t58 23.5q34 0 55 -23.5t21 -57.5v-21l-55 1v30q0 7 -5 13.5t-16 6.5q-9 1 -15 -6t-6 -14q0 -9 -1 -16.5t0 -14.5q0 -48 23 -69.5t72 -21.5q25 0 42.5 8.5t28.5 23t15.5 33t4.5 37.5v122z" />
    <glyph glyph-name="uni0E2E" unicode="&#xe2e;" horiz-adv-x="433" 
d="M320 271q0 18 -8 35t-22.5 30t-35 21t-45.5 8q-47 0 -74.5 -29.5t-30.5 -71.5h-53q0 32 12.5 60.5t34 49.5t50.5 33.5t61 12.5q28 0 55.5 -6.5t50.5 -20.5l56 55l38 -38l-53 -53q14 -18 21.5 -41.5t7.5 -53.5q-1 -25 -1 -47v-66q0 -33 -10.5 -62t-30.5 -50.5t-49 -33.5
t-66 -12q-32 0 -60.5 9.5t-49.5 27t-33 42.5t-12 56v33q0 34 25 57.5t58 23.5q34 0 55 -23.5t21 -57.5v-21l-55 1v30q0 7 -5 13.5t-16 6.5q-9 1 -15 -6t-6 -14q0 -9 -1 -16.5t0 -14.5q0 -48 23 -69.5t72 -21.5q25 0 42.5 8.5t28.5 23t15.5 33t4.5 37.5v122z" />
    <glyph glyph-name="uni0E2F" unicode="&#xe2f;" horiz-adv-x="433" 
d="M384 387v-387h-62v250q-16 -22 -38 -39q-19 -14 -46 -26t-62 -12q-26 0 -51 6t-45.5 20t-33.5 36t-14 55q-1 20 6.5 37t20.5 30q10 10 24 16t28 9t26.5 4t20.5 1h12v-50h-12q-20 0 -33 -5t-20.5 -12t-10.5 -15.5t-3 -14.5q0 -17 10 -29t24 -19t29.5 -9.5t24.5 -2.5
q29 0 50.5 7.5t38 20.5t29.5 30t25 37v62h62z" />
    <glyph glyph-name="uni0E30" unicode="&#xe30;" horiz-adv-x="329" 
d="M284 340q0 -27 -5 -54.5t-21 -49.5t-46 -35.5t-79 -13.5q-14 1 -30.5 5t-30.5 13.5t-23.5 25t-9.5 38.5q0 32 19.5 51t47.5 19h26v-51h-4h-8.5h-8.5h-5q-9 -1 -15.5 -8t-5.5 -18q1 -9 7.5 -14.5t14.5 -8.5t15.5 -3.5t10.5 -0.5q35 0 56 9t32 23.5t14 33.5t3 39h46z
M284 155q0 -27 -5 -54.5t-21 -49.5t-46 -35.5t-79 -13.5q-14 1 -30.5 5t-30.5 13.5t-23.5 25t-9.5 38.5q0 32 19.5 51t47.5 19h26v-51h-4h-8.5h-8.5h-5q-9 -1 -15.5 -8t-5.5 -18q1 -9 7.5 -14.5t14.5 -8.5t15.5 -3.5t10.5 -0.5q35 0 56 9t32 23.5t14 33.5t3 39h46z" />
    <glyph glyph-name="uni0E31" unicode="&#xe31;" 
d="M10 626q0 -2 0.5 -3t0.5 -3q0 -26 -8 -52.5t-28.5 -48t-55 -35t-87.5 -11.5q-16 1 -34.5 6t-34 15t-25.5 25t-10 36q1 32 23.5 51t54.5 19h1h29v-51h-4.5h-10h-10h-5.5q-11 -1 -18.5 -9t-6.5 -19q1 -9 8.5 -14.5t16.5 -7.5t17.5 -2.5t11.5 -0.5q41 -2 67 6t41 23
t20.5 33.5t5.5 37.5v5h41z" />
    <glyph glyph-name="uni0E32" unicode="&#xe32;" horiz-adv-x="355" 
d="M169 416q65 -1 101.5 -42.5t36.5 -106.5v-267h-64v267q1 38 -17.5 66t-56.5 28q-36 0 -59 -26t-25 -61h-55q2 62 39 101.5t100 40.5z" />
    <glyph glyph-name="uni0E33" unicode="&#xe33;" horiz-adv-x="355" 
d="M168 416q65 -1 101.5 -42.5t36.5 -106.5v-267h-64v267q1 38 -17.5 66t-56.5 28q-36 0 -59 -26t-25 -61h-55q2 62 39 101.5t100 40.5zM-121 594q30 0 51.5 -21.5t21.5 -51.5t-21.5 -51.5t-51.5 -21.5t-51.5 21.5t-21.5 51.5t21.5 51.5t51.5 21.5zM-121 488q15 0 23.5 9
t8.5 24t-8.5 24.5t-23.5 9.5t-23.5 -9.5t-8.5 -24.5t8.5 -24t23.5 -9z" />
    <glyph glyph-name="uni0E34" unicode="&#xe34;" 
d="M-36 438q-72 38 -146.5 47.5t-155.5 -7.5q-1 33 13.5 60t38.5 46t55 28t63 5q54 -7 89.5 -44.5t42.5 -88.5v-46zM-182 524q23 -3 45 -7.5t45 -11.5q-11 21 -31 38.5t-51 21.5q-38 5 -61 -7.5t-37 -29.5q23 1 45 0t45 -4z" />
    <glyph glyph-name="uni0E35" unicode="&#xe35;" 
d="M-182 606q47 -6 81 -37v42h51v-184q-72 38 -146.5 47.5t-155.5 -7.5q-1 33 13.5 60t38.5 46t55 28t63 5zM-196 513q23 -3 45 -7.5t45 -11.5q-11 21 -31 38.5t-51 21.5q-38 5 -61 -7.5t-37 -29.5q23 1 45 0t45 -4z" />
    <glyph glyph-name="uni0E36" unicode="&#xe36;" 
d="M-120 599q30 0 51.5 -21.5t21.5 -51.5t-21.5 -51.5t-51.5 -21.5q-16 0 -27 5h-1l-13 8q-55 28 -111 34.5t-117 -7.5q-1 29 10.5 53.5t31 41.5t44 25t50.5 4q24 -4 43 -16t33 -30q11 13 25.5 20.5t31.5 7.5zM-264 534q34 -4 72 -17l-1 2q-8 18 -24.5 33t-40.5 19
q-31 4 -49 -7t-29 -26q38 2 72 -4zM-120 493q15 0 23.5 9t8.5 24t-8.5 24.5t-23.5 9.5q-16 0 -24.5 -10t-9 -23t7.5 -23.5t26 -10.5z" />
    <glyph glyph-name="uni0E37" unicode="&#xe37;" 
d="M-221 617q41 -6 70 -38v37h36v-158q-114 65 -242 35q-1 29 10.5 53.5t31 41.5t44 25t50.5 4zM-91 616h40v-158h-40v158zM-232 534q34 -4 72 -17q-8 19 -24.5 34.5t-41.5 19.5q-31 4 -49 -7t-29 -26q38 2 72 -4z" />
    <glyph glyph-name="uni0E38" unicode="&#xe38;" 
d="M-193 -61q3 0 17.5 0.5t32 -1t35 -6t27.5 -13.5q19 -18 21 -40t2 -45v-83h-64v89q0 13 -1 23.5t-8 15.5q-6 4 -14.5 6t-17.5 3t-17 1h-13v50z" />
    <glyph glyph-name="uni0E39" unicode="&#xe39;" 
d="M-57 -70v-74q0 -55 -27.5 -79t-70.5 -24q-50 0 -74.5 20.5t-24.5 69.5q0 10 -2 17.5t-7 11.5q-6 5 -13.5 5h-17.5v52q10 0 22 -0.5t24 -2t22.5 -5t17.5 -8.5q6 -5 9.5 -8.5t5.5 -8.5t2.5 -13.5t0.5 -22.5q0 -23 5 -39t27 -16q6 0 12.5 1.5t12 7t9 16.5t3.5 30v70h64z" />
    <glyph glyph-name="uni0E3A" unicode="&#xe3a;" 
d="M-207 -111q0 24 17.5 41t41.5 17t41 -17t17 -41t-17 -41.5t-41 -17.5t-41.5 17.5t-17.5 41.5z" />
    <glyph glyph-name="uni0E3F" unicode="&#xe3f;" horiz-adv-x="472" 
d="M188 0h-128v475h128v86h53v-86q45 0 77 -10.5t52.5 -28t29.5 -41.5t9 -51q0 -17 -2 -30t-6.5 -23.5t-11.5 -21t-18 -22.5q37 -22 49 -51t12 -67q0 -26 -9 -49.5t-25 -41t-38 -28t-49 -10.5h-70v-73h-53v73zM278 49q16 0 32.5 5t30 15.5t22 25t8.5 34.5q0 19 -8.5 34
t-22 25.5t-30 16t-32.5 5.5h-37v-161h37zM241 426v-157h37q32 0 51.5 20t19.5 55q0 82 -89 82h-19zM121 49h67v161h-67v-161zM121 269h67v157h-67v-157z" />
    <glyph glyph-name="uni0E40" unicode="&#xe40;" horiz-adv-x="253" 
d="M54 411h64v-344q0 -8 6 -14.5t15 -6.5t15.5 6.5t6.5 14.5v31h55v-32q0 -33 -24 -52t-57 -19q-34 0 -57.5 23.5t-23.5 56.5v336z" />
    <glyph glyph-name="uni0E41" unicode="&#xe41;" horiz-adv-x="437" 
d="M50 411h64v-344q0 -8 6 -14.5t15 -6.5t15.5 6.5t6.5 14.5v31h55v-32q0 -33 -24 -52t-57 -19q-34 0 -57.5 23.5t-23.5 56.5v336zM264 411h64v-344q0 -8 6 -14.5t15 -6.5t15.5 6.5t6.5 14.5v31h55v-32q0 -33 -24 -52t-57 -19q-34 0 -57.5 23.5t-23.5 56.5v336z" />
    <glyph glyph-name="uni0E42" unicode="&#xe42;" horiz-adv-x="327" 
d="M323 91v-32q0 -33 -24 -52t-57 -19q-34 0 -57.5 23.5t-23.5 56.5l-1 316q0 10 -2.5 15.5t-4.5 10.5q-5 8 -14.5 13.5t-18.5 9.5q-11 4 -23 7l-114 29v49q7 31 24.5 53t41 36t51 20.5t56.5 6.5q27 0 52.5 -9t45.5 -25.5t34.5 -38.5t20.5 -48h-55q-11 27 -35.5 45.5
t-62.5 20.5q-29 1 -49.5 -5t-34 -16.5t-20.5 -24t-10 -26.5l97 -24q11 -1 22 -5q9 -3 19.5 -9t19.5 -14q10 -11 15.5 -21.5t7.5 -18.5q3 -10 2 -18v-337q0 -8 6 -14.5t15 -6.5t15.5 6.5t6.5 14.5v31h55z" />
    <glyph glyph-name="uni0E43" unicode="&#xe43;" horiz-adv-x="286" 
d="M228 92h55v-32q0 -33 -24 -52t-57 -19q-34 0 -57.5 23.5t-23.5 56.5v263q0 15 3 29q2 12 8 25.5t17 24.5q14 14 26.5 25t23 21.5t18 22t11.5 25.5q4 12 1.5 27t-11 28t-24 21.5t-37.5 8.5h-44q-27 0 -47.5 -15t-20.5 -37q0 -21 20.5 -35.5t46.5 -14.5h18v-41h-36
q-19 1 -37 8t-32 19t-22.5 28t-8.5 36q0 16 7.5 33t21 31.5t33.5 23.5t46 9h55q22 0 45.5 -5.5t42.5 -20.5t30.5 -41t10.5 -66q0 -16 -5.5 -28t-14.5 -23t-21.5 -23.5l-27.5 -28.5q-14 -14 -21 -26.5t-9 -23.5q-3 -12 -2 -23v-265q0 -8 6 -14.5t15 -6.5t15.5 6.5t6.5 14.5
v31z" />
    <glyph glyph-name="uni0E44" unicode="&#xe44;" horiz-adv-x="275" 
d="M275 90v-32q0 -33 -24 -52t-57 -19q-34 0 -57.5 23.5t-23.5 56.5v258q-1 14 3 30q3 14 10 32t23 38q8 11 26 28l36 34l46 39q2 29 -13 42.5t-38 19.5l-100 -80l-100 99l36 35l67 -68l85 68q22 -4 43 -12.5t37.5 -24.5t26.5 -40.5t10 -60.5l-42 -38l-33.5 -32.5
t-24.5 -26.5q-15 -18 -22.5 -35t-9.5 -30q-4 -15 -2 -28v-255q0 -8 6 -14.5t15 -6.5t15.5 6.5t6.5 14.5v31h55z" />
    <glyph glyph-name="uni0E45" unicode="&#xe45;" horiz-adv-x="276" 
d="M113 416q32 0 60 -11.5t49 -31t33 -47t12 -59.5v-466h-64v466q0 19 -7 36t-19 30t-28.5 20.5t-35.5 7.5q-18 0 -35 -7t-30.5 -19t-21.5 -27.5t-9 -33.5h-55q1 31 13 57t32 44.5t47 29.5t59 11z" />
    </font>
</defs>
</svg>
